<?xml version="1.0" encoding="utf-8" standalone="no"?>
<!DOCTYPE svg PUBLIC "-//W3C//DTD SVG 1.1//EN"
  "http://www.w3.org/Graphics/SVG/1.1/DTD/svg11.dtd">
<svg xmlns:xlink="http://www.w3.org/1999/xlink" width="460.8pt" height="345.6pt" viewBox="0 0 460.8 345.6" xmlns="http://www.w3.org/2000/svg" version="1.1">
 <metadata>
  <rdf:RDF xmlns:dc="http://purl.org/dc/elements/1.1/" xmlns:cc="http://creativecommons.org/ns#" xmlns:rdf="http://www.w3.org/1999/02/22-rdf-syntax-ns#">
   <cc:Work>
    <dc:type rdf:resource="http://purl.org/dc/dcmitype/StillImage"/>
    <dc:date>2025-05-10T03:33:57.560736</dc:date>
    <dc:format>image/svg+xml</dc:format>
    <dc:creator>
     <cc:Agent>
      <dc:title>Matplotlib v3.10.0, https://matplotlib.org/</dc:title>
     </cc:Agent>
    </dc:creator>
   </cc:Work>
  </rdf:RDF>
 </metadata>
 <defs>
  <style type="text/css">*{stroke-linejoin: round; stroke-linecap: butt}</style>
 </defs>
 <g id="figure_1">
  <g id="patch_1">
   <path d="M 0 345.6 
L 460.8 345.6 
L 460.8 0 
L 0 0 
z
" style="fill: #ffffff"/>
  </g>
  <g id="axes_1">
   <g id="patch_2">
    <path d="M 57.6 307.584 
L 414.72 307.584 
L 414.72 41.472 
L 57.6 41.472 
z
" style="fill: #ffffff"/>
   </g>
   <g id="matplotlib.axis_1">
    <g id="xtick_1">
     <g id="line2d_1">
      <defs>
       <path id="mede4f995d6" d="M 0 0 
L 0 3.5 
" style="stroke: #000000; stroke-width: 0.8"/>
      </defs>
      <g>
       <use xlink:href="#mede4f995d6" x="73.832727" y="307.584" style="stroke: #000000; stroke-width: 0.8"/>
      </g>
     </g>
     <g id="text_1">
      <!-- 0 -->
      <g transform="translate(70.651477 322.182437) scale(0.1 -0.1)">
       <defs>
        <path id="DejaVuSans-30" d="M 2034 4250 
Q 1547 4250 1301 3770 
Q 1056 3291 1056 2328 
Q 1056 1369 1301 889 
Q 1547 409 2034 409 
Q 2525 409 2770 889 
Q 3016 1369 3016 2328 
Q 3016 3291 2770 3770 
Q 2525 4250 2034 4250 
z
M 2034 4750 
Q 2819 4750 3233 4129 
Q 3647 3509 3647 2328 
Q 3647 1150 3233 529 
Q 2819 -91 2034 -91 
Q 1250 -91 836 529 
Q 422 1150 422 2328 
Q 422 3509 836 4129 
Q 1250 4750 2034 4750 
z
" transform="scale(0.015625)"/>
       </defs>
       <use xlink:href="#DejaVuSans-30"/>
      </g>
     </g>
    </g>
    <g id="xtick_2">
     <g id="line2d_2">
      <g>
       <use xlink:href="#mede4f995d6" x="138.893761" y="307.584" style="stroke: #000000; stroke-width: 0.8"/>
      </g>
     </g>
     <g id="text_2">
      <!-- 2 -->
      <g transform="translate(135.712511 322.182437) scale(0.1 -0.1)">
       <defs>
        <path id="DejaVuSans-32" d="M 1228 531 
L 3431 531 
L 3431 0 
L 469 0 
L 469 531 
Q 828 903 1448 1529 
Q 2069 2156 2228 2338 
Q 2531 2678 2651 2914 
Q 2772 3150 2772 3378 
Q 2772 3750 2511 3984 
Q 2250 4219 1831 4219 
Q 1534 4219 1204 4116 
Q 875 4013 500 3803 
L 500 4441 
Q 881 4594 1212 4672 
Q 1544 4750 1819 4750 
Q 2544 4750 2975 4387 
Q 3406 4025 3406 3419 
Q 3406 3131 3298 2873 
Q 3191 2616 2906 2266 
Q 2828 2175 2409 1742 
Q 1991 1309 1228 531 
z
" transform="scale(0.015625)"/>
       </defs>
       <use xlink:href="#DejaVuSans-32"/>
      </g>
     </g>
    </g>
    <g id="xtick_3">
     <g id="line2d_3">
      <g>
       <use xlink:href="#mede4f995d6" x="203.954796" y="307.584" style="stroke: #000000; stroke-width: 0.8"/>
      </g>
     </g>
     <g id="text_3">
      <!-- 4 -->
      <g transform="translate(200.773546 322.182437) scale(0.1 -0.1)">
       <defs>
        <path id="DejaVuSans-34" d="M 2419 4116 
L 825 1625 
L 2419 1625 
L 2419 4116 
z
M 2253 4666 
L 3047 4666 
L 3047 1625 
L 3713 1625 
L 3713 1100 
L 3047 1100 
L 3047 0 
L 2419 0 
L 2419 1100 
L 313 1100 
L 313 1709 
L 2253 4666 
z
" transform="scale(0.015625)"/>
       </defs>
       <use xlink:href="#DejaVuSans-34"/>
      </g>
     </g>
    </g>
    <g id="xtick_4">
     <g id="line2d_4">
      <g>
       <use xlink:href="#mede4f995d6" x="269.01583" y="307.584" style="stroke: #000000; stroke-width: 0.8"/>
      </g>
     </g>
     <g id="text_4">
      <!-- 6 -->
      <g transform="translate(265.83458 322.182437) scale(0.1 -0.1)">
       <defs>
        <path id="DejaVuSans-36" d="M 2113 2584 
Q 1688 2584 1439 2293 
Q 1191 2003 1191 1497 
Q 1191 994 1439 701 
Q 1688 409 2113 409 
Q 2538 409 2786 701 
Q 3034 994 3034 1497 
Q 3034 2003 2786 2293 
Q 2538 2584 2113 2584 
z
M 3366 4563 
L 3366 3988 
Q 3128 4100 2886 4159 
Q 2644 4219 2406 4219 
Q 1781 4219 1451 3797 
Q 1122 3375 1075 2522 
Q 1259 2794 1537 2939 
Q 1816 3084 2150 3084 
Q 2853 3084 3261 2657 
Q 3669 2231 3669 1497 
Q 3669 778 3244 343 
Q 2819 -91 2113 -91 
Q 1303 -91 875 529 
Q 447 1150 447 2328 
Q 447 3434 972 4092 
Q 1497 4750 2381 4750 
Q 2619 4750 2861 4703 
Q 3103 4656 3366 4563 
z
" transform="scale(0.015625)"/>
       </defs>
       <use xlink:href="#DejaVuSans-36"/>
      </g>
     </g>
    </g>
    <g id="xtick_5">
     <g id="line2d_5">
      <g>
       <use xlink:href="#mede4f995d6" x="334.076864" y="307.584" style="stroke: #000000; stroke-width: 0.8"/>
      </g>
     </g>
     <g id="text_5">
      <!-- 8 -->
      <g transform="translate(330.895614 322.182437) scale(0.1 -0.1)">
       <defs>
        <path id="DejaVuSans-38" d="M 2034 2216 
Q 1584 2216 1326 1975 
Q 1069 1734 1069 1313 
Q 1069 891 1326 650 
Q 1584 409 2034 409 
Q 2484 409 2743 651 
Q 3003 894 3003 1313 
Q 3003 1734 2745 1975 
Q 2488 2216 2034 2216 
z
M 1403 2484 
Q 997 2584 770 2862 
Q 544 3141 544 3541 
Q 544 4100 942 4425 
Q 1341 4750 2034 4750 
Q 2731 4750 3128 4425 
Q 3525 4100 3525 3541 
Q 3525 3141 3298 2862 
Q 3072 2584 2669 2484 
Q 3125 2378 3379 2068 
Q 3634 1759 3634 1313 
Q 3634 634 3220 271 
Q 2806 -91 2034 -91 
Q 1263 -91 848 271 
Q 434 634 434 1313 
Q 434 1759 690 2068 
Q 947 2378 1403 2484 
z
M 1172 3481 
Q 1172 3119 1398 2916 
Q 1625 2713 2034 2713 
Q 2441 2713 2670 2916 
Q 2900 3119 2900 3481 
Q 2900 3844 2670 4047 
Q 2441 4250 2034 4250 
Q 1625 4250 1398 4047 
Q 1172 3844 1172 3481 
z
" transform="scale(0.015625)"/>
       </defs>
       <use xlink:href="#DejaVuSans-38"/>
      </g>
     </g>
    </g>
    <g id="xtick_6">
     <g id="line2d_6">
      <g>
       <use xlink:href="#mede4f995d6" x="399.137898" y="307.584" style="stroke: #000000; stroke-width: 0.8"/>
      </g>
     </g>
     <g id="text_6">
      <!-- 10 -->
      <g transform="translate(392.775398 322.182437) scale(0.1 -0.1)">
       <defs>
        <path id="DejaVuSans-31" d="M 794 531 
L 1825 531 
L 1825 4091 
L 703 3866 
L 703 4441 
L 1819 4666 
L 2450 4666 
L 2450 531 
L 3481 531 
L 3481 0 
L 794 0 
L 794 531 
z
" transform="scale(0.015625)"/>
       </defs>
       <use xlink:href="#DejaVuSans-31"/>
       <use xlink:href="#DejaVuSans-30" transform="translate(63.623047 0)"/>
      </g>
     </g>
    </g>
    <g id="text_7">
     <!-- time -->
     <g transform="translate(224.863906 335.860562) scale(0.1 -0.1)">
      <defs>
       <path id="DejaVuSans-74" d="M 1172 4494 
L 1172 3500 
L 2356 3500 
L 2356 3053 
L 1172 3053 
L 1172 1153 
Q 1172 725 1289 603 
Q 1406 481 1766 481 
L 2356 481 
L 2356 0 
L 1766 0 
Q 1100 0 847 248 
Q 594 497 594 1153 
L 594 3053 
L 172 3053 
L 172 3500 
L 594 3500 
L 594 4494 
L 1172 4494 
z
" transform="scale(0.015625)"/>
       <path id="DejaVuSans-69" d="M 603 3500 
L 1178 3500 
L 1178 0 
L 603 0 
L 603 3500 
z
M 603 4863 
L 1178 4863 
L 1178 4134 
L 603 4134 
L 603 4863 
z
" transform="scale(0.015625)"/>
       <path id="DejaVuSans-6d" d="M 3328 2828 
Q 3544 3216 3844 3400 
Q 4144 3584 4550 3584 
Q 5097 3584 5394 3201 
Q 5691 2819 5691 2113 
L 5691 0 
L 5113 0 
L 5113 2094 
Q 5113 2597 4934 2840 
Q 4756 3084 4391 3084 
Q 3944 3084 3684 2787 
Q 3425 2491 3425 1978 
L 3425 0 
L 2847 0 
L 2847 2094 
Q 2847 2600 2669 2842 
Q 2491 3084 2119 3084 
Q 1678 3084 1418 2786 
Q 1159 2488 1159 1978 
L 1159 0 
L 581 0 
L 581 3500 
L 1159 3500 
L 1159 2956 
Q 1356 3278 1631 3431 
Q 1906 3584 2284 3584 
Q 2666 3584 2933 3390 
Q 3200 3197 3328 2828 
z
" transform="scale(0.015625)"/>
       <path id="DejaVuSans-65" d="M 3597 1894 
L 3597 1613 
L 953 1613 
Q 991 1019 1311 708 
Q 1631 397 2203 397 
Q 2534 397 2845 478 
Q 3156 559 3463 722 
L 3463 178 
Q 3153 47 2828 -22 
Q 2503 -91 2169 -91 
Q 1331 -91 842 396 
Q 353 884 353 1716 
Q 353 2575 817 3079 
Q 1281 3584 2069 3584 
Q 2775 3584 3186 3129 
Q 3597 2675 3597 1894 
z
M 3022 2063 
Q 3016 2534 2758 2815 
Q 2500 3097 2075 3097 
Q 1594 3097 1305 2825 
Q 1016 2553 972 2059 
L 3022 2063 
z
" transform="scale(0.015625)"/>
      </defs>
      <use xlink:href="#DejaVuSans-74"/>
      <use xlink:href="#DejaVuSans-69" transform="translate(39.208984 0)"/>
      <use xlink:href="#DejaVuSans-6d" transform="translate(66.992188 0)"/>
      <use xlink:href="#DejaVuSans-65" transform="translate(164.404297 0)"/>
     </g>
    </g>
   </g>
   <g id="matplotlib.axis_2">
    <g id="ytick_1">
     <g id="line2d_7">
      <defs>
       <path id="m2f7cd56bd3" d="M 0 0 
L -3.5 0 
" style="stroke: #000000; stroke-width: 0.8"/>
      </defs>
      <g>
       <use xlink:href="#m2f7cd56bd3" x="57.6" y="306.928763" style="stroke: #000000; stroke-width: 0.8"/>
      </g>
     </g>
     <g id="text_8">
      <!-- −6 -->
      <g transform="translate(35.857813 310.727982) scale(0.1 -0.1)">
       <defs>
        <path id="DejaVuSans-2212" d="M 678 2272 
L 4684 2272 
L 4684 1741 
L 678 1741 
L 678 2272 
z
" transform="scale(0.015625)"/>
       </defs>
       <use xlink:href="#DejaVuSans-2212"/>
       <use xlink:href="#DejaVuSans-36" transform="translate(83.789062 0)"/>
      </g>
     </g>
    </g>
    <g id="ytick_2">
     <g id="line2d_8">
      <g>
       <use xlink:href="#m2f7cd56bd3" x="57.6" y="259.204112" style="stroke: #000000; stroke-width: 0.8"/>
      </g>
     </g>
     <g id="text_9">
      <!-- −4 -->
      <g transform="translate(35.857813 263.003331) scale(0.1 -0.1)">
       <use xlink:href="#DejaVuSans-2212"/>
       <use xlink:href="#DejaVuSans-34" transform="translate(83.789062 0)"/>
      </g>
     </g>
    </g>
    <g id="ytick_3">
     <g id="line2d_9">
      <g>
       <use xlink:href="#m2f7cd56bd3" x="57.6" y="211.479461" style="stroke: #000000; stroke-width: 0.8"/>
      </g>
     </g>
     <g id="text_10">
      <!-- −2 -->
      <g transform="translate(35.857813 215.27868) scale(0.1 -0.1)">
       <use xlink:href="#DejaVuSans-2212"/>
       <use xlink:href="#DejaVuSans-32" transform="translate(83.789062 0)"/>
      </g>
     </g>
    </g>
    <g id="ytick_4">
     <g id="line2d_10">
      <g>
       <use xlink:href="#m2f7cd56bd3" x="57.6" y="163.75481" style="stroke: #000000; stroke-width: 0.8"/>
      </g>
     </g>
     <g id="text_11">
      <!-- 0 -->
      <g transform="translate(44.2375 167.554029) scale(0.1 -0.1)">
       <use xlink:href="#DejaVuSans-30"/>
      </g>
     </g>
    </g>
    <g id="ytick_5">
     <g id="line2d_11">
      <g>
       <use xlink:href="#m2f7cd56bd3" x="57.6" y="116.030159" style="stroke: #000000; stroke-width: 0.8"/>
      </g>
     </g>
     <g id="text_12">
      <!-- 2 -->
      <g transform="translate(44.2375 119.829378) scale(0.1 -0.1)">
       <use xlink:href="#DejaVuSans-32"/>
      </g>
     </g>
    </g>
    <g id="ytick_6">
     <g id="line2d_12">
      <g>
       <use xlink:href="#m2f7cd56bd3" x="57.6" y="68.305508" style="stroke: #000000; stroke-width: 0.8"/>
      </g>
     </g>
     <g id="text_13">
      <!-- 4 -->
      <g transform="translate(44.2375 72.104727) scale(0.1 -0.1)">
       <use xlink:href="#DejaVuSans-34"/>
      </g>
     </g>
    </g>
    <g id="text_14">
     <!-- state -->
     <g transform="translate(29.778125 187.193625) rotate(-90) scale(0.1 -0.1)">
      <defs>
       <path id="DejaVuSans-73" d="M 2834 3397 
L 2834 2853 
Q 2591 2978 2328 3040 
Q 2066 3103 1784 3103 
Q 1356 3103 1142 2972 
Q 928 2841 928 2578 
Q 928 2378 1081 2264 
Q 1234 2150 1697 2047 
L 1894 2003 
Q 2506 1872 2764 1633 
Q 3022 1394 3022 966 
Q 3022 478 2636 193 
Q 2250 -91 1575 -91 
Q 1294 -91 989 -36 
Q 684 19 347 128 
L 347 722 
Q 666 556 975 473 
Q 1284 391 1588 391 
Q 1994 391 2212 530 
Q 2431 669 2431 922 
Q 2431 1156 2273 1281 
Q 2116 1406 1581 1522 
L 1381 1569 
Q 847 1681 609 1914 
Q 372 2147 372 2553 
Q 372 3047 722 3315 
Q 1072 3584 1716 3584 
Q 2034 3584 2315 3537 
Q 2597 3491 2834 3397 
z
" transform="scale(0.015625)"/>
       <path id="DejaVuSans-61" d="M 2194 1759 
Q 1497 1759 1228 1600 
Q 959 1441 959 1056 
Q 959 750 1161 570 
Q 1363 391 1709 391 
Q 2188 391 2477 730 
Q 2766 1069 2766 1631 
L 2766 1759 
L 2194 1759 
z
M 3341 1997 
L 3341 0 
L 2766 0 
L 2766 531 
Q 2569 213 2275 61 
Q 1981 -91 1556 -91 
Q 1019 -91 701 211 
Q 384 513 384 1019 
Q 384 1609 779 1909 
Q 1175 2209 1959 2209 
L 2766 2209 
L 2766 2266 
Q 2766 2663 2505 2880 
Q 2244 3097 1772 3097 
Q 1472 3097 1187 3025 
Q 903 2953 641 2809 
L 641 3341 
Q 956 3463 1253 3523 
Q 1550 3584 1831 3584 
Q 2591 3584 2966 3190 
Q 3341 2797 3341 1997 
z
" transform="scale(0.015625)"/>
      </defs>
      <use xlink:href="#DejaVuSans-73"/>
      <use xlink:href="#DejaVuSans-74" transform="translate(52.099609 0)"/>
      <use xlink:href="#DejaVuSans-61" transform="translate(91.308594 0)"/>
      <use xlink:href="#DejaVuSans-74" transform="translate(152.587891 0)"/>
      <use xlink:href="#DejaVuSans-65" transform="translate(191.796875 0)"/>
     </g>
    </g>
   </g>
   <g id="line2d_13">
    <path d="M 73.832727 137.243765 
L 74.483338 136.960445 
L 75.133948 136.992116 
L 75.784558 137.335939 
L 76.435169 137.983771 
L 77.085779 138.92241 
L 78.061694 140.842424 
L 79.03761 143.318175 
L 80.33883 147.342018 
L 81.965357 153.212253 
L 87.170239 172.826297 
L 88.47146 176.748953 
L 89.77268 179.908158 
L 90.748596 181.697985 
L 91.724512 182.964921 
L 92.375122 183.524876 
L 93.025731 183.857344 
L 93.676343 183.964391 
L 94.326953 183.846389 
L 94.977563 183.505545 
L 95.628172 182.947098 
L 96.604089 181.720702 
L 97.580003 180.065014 
L 98.881225 177.283782 
L 100.507751 173.111015 
L 106.363244 157.176022 
L 107.664464 154.5245 
L 108.640378 152.9331 
L 109.616297 151.724636 
L 110.592211 150.931016 
L 111.242821 150.640591 
L 111.893431 150.541315 
L 112.544041 150.627432 
L 113.19465 150.891827 
L 114.170569 151.588311 
L 115.146483 152.57767 
L 116.447703 154.269846 
L 118.074231 156.826172 
L 121.32728 162.553572 
L 123.279113 165.776588 
L 124.580332 167.597603 
L 125.881551 169.077864 
L 127.182775 170.190419 
L 128.158689 170.776443 
L 129.459909 171.259354 
L 130.761132 171.448077 
L 132.062352 171.352453 
L 133.363571 170.982444 
L 134.664794 170.370594 
L 136.291319 169.335537 
L 138.243148 167.816733 
L 143.448029 163.578648 
L 145.074562 162.583157 
L 146.375781 162.003904 
L 147.677 161.65018 
L 148.97822 161.536294 
L 150.279439 161.655404 
L 151.905964 162.080889 
L 153.857801 162.863075 
L 156.460239 164.169632 
L 159.713288 166.095885 
L 163.291649 168.211576 
L 165.243478 169.124977 
L 166.870003 169.663376 
L 168.496527 169.957552 
L 170.123059 169.987645 
L 171.749583 169.75488 
L 173.376108 169.281968 
L 175.327937 168.457103 
L 177.930376 167.085627 
L 182.159347 164.849931 
L 184.111176 164.070241 
L 185.7377 163.623551 
L 187.364232 163.387246 
L 188.990756 163.367215 
L 190.617281 163.552662 
L 192.56911 164.010104 
L 194.846252 164.784125 
L 202.653568 167.694586 
L 204.605405 168.119405 
L 206.557234 168.333286 
L 208.509064 168.327027 
L 210.460893 168.114152 
L 212.738035 167.651768 
L 216.316396 166.660881 
L 220.220054 165.620964 
L 222.822493 165.163542 
L 225.099635 164.986045 
L 227.376761 165.020541 
L 229.9792 165.278088 
L 233.882874 165.92129 
L 239.413049 166.81445 
L 242.666113 167.09454 
L 245.593849 167.133656 
L 249.17221 166.937697 
L 262.509717 165.900549 
L 266.738688 165.99413 
L 282.678649 166.635756 
L 289.510044 166.462731 
L 298.943908 166.253087 
L 307.076537 166.340368 
L 320.088732 166.478405 
L 371.161633 166.423605 
L 398.487273 166.44509 
L 398.487273 166.44509 
" clip-path="url(#p1a3543de74)" style="fill: none; stroke: #1f77b4; stroke-width: 1.5; stroke-linecap: square"/>
   </g>
   <g id="line2d_14">
    <path d="M 73.832727 145.654452 
L 76.760474 214.235798 
L 78.061694 240.474665 
L 79.362915 262.224691 
L 80.33883 274.952037 
L 81.314746 284.266033 
L 81.965357 288.487481 
L 82.615966 291.086807 
L 82.941272 291.777012 
L 83.266577 292.064329 
L 83.591882 291.95505 
L 83.917188 291.459667 
L 84.242493 290.593563 
L 84.893103 287.83239 
L 85.543713 283.808984 
L 86.194324 278.50598 
L 87.170239 268.125449 
L 88.146155 255.272797 
L 89.447375 234.716883 
L 96.604089 113.09563 
L 97.90531 95.959336 
L 98.881225 85.577172 
L 99.857139 77.656592 
L 100.507751 73.859611 
L 101.158361 71.301714 
L 101.483666 70.490687 
L 101.80897 69.989546 
L 102.134277 69.796061 
L 102.459582 69.907308 
L 102.784887 70.318429 
L 103.110192 71.021998 
L 103.760802 73.270401 
L 104.411413 76.590153 
L 105.062023 80.922404 
L 106.037938 89.129778 
L 107.013854 99.138888 
L 108.315074 114.784675 
L 109.941602 137.282025 
L 112.869345 179.130465 
L 113.845264 190.551807 
L 115.146483 202.369066 
L 116.122398 209.569259 
L 117.098312 215.063728 
L 117.748926 217.8114 
L 118.399536 219.840057 
L 119.050146 221.187657 
L 119.700755 221.856141 
L 120.02606 221.927063 
L 120.351365 221.81548 
L 120.67667 221.516608 
L 121.32728 220.34167 
L 121.977893 218.367669 
L 122.628503 215.604079 
L 123.604417 210.345659 
L 125.230942 199.68051 
L 129.459909 171.151973 
L 133.038266 152.068869 
L 134.339489 146.440412 
L 135.640709 141.971695 
L 136.616624 139.370595 
L 137.592538 137.459293 
L 138.243148 136.592762 
L 138.893761 136.064432 
L 139.544371 135.879598 
L 140.194981 136.039004 
L 140.845591 136.539081 
L 141.4962 137.37235 
L 142.14681 138.527939 
L 143.122725 140.835204 
L 144.098639 143.78138 
L 145.399866 148.58329 
L 147.026391 155.638376 
L 149.954134 168.784455 
L 150.930049 172.353644 
L 151.905964 175.137324 
L 152.881878 177.180684 
L 153.857801 178.696938 
L 155.484325 180.672928 
L 157.436154 182.738085 
L 158.412069 183.49377 
L 159.062678 183.803007 
L 159.713288 183.920055 
L 160.363898 183.825285 
L 161.014507 183.50854 
L 161.665125 182.967285 
L 162.641039 181.742909 
L 163.616954 180.05065 
L 164.592869 177.935003 
L 165.894088 174.553748 
L 167.520612 169.65447 
L 172.400193 154.262865 
L 173.701413 150.994739 
L 174.677327 148.988768 
L 175.653242 147.419003 
L 176.629156 146.319495 
L 177.279766 145.858205 
L 177.930376 145.617571 
L 178.580993 145.597303 
L 179.231603 145.794388 
L 179.882213 146.203133 
L 180.532822 146.815258 
L 181.508737 148.090579 
L 182.484651 149.752697 
L 183.785871 152.471699 
L 185.412395 156.454372 
L 190.617281 169.729764 
L 191.9185 172.349593 
L 193.21972 174.45178 
L 194.195634 175.645219 
L 195.171557 176.489742 
L 196.147471 176.978799 
L 196.798081 177.108833 
L 197.448691 177.085723 
L 198.424605 176.774813 
L 199.40052 176.151826 
L 200.376434 175.243209 
L 201.677654 173.641279 
L 202.978881 171.671021 
L 204.930702 168.237759 
L 209.484986 159.916733 
L 211.111502 157.514254 
L 212.412722 156.009348 
L 213.388644 155.167689 
L 214.364551 154.593166 
L 215.340473 154.295814 
L 216.316396 154.276857 
L 217.292303 154.528638 
L 218.268225 155.034937 
L 219.244132 155.771683 
L 220.545351 157.058201 
L 222.171883 159.028712 
L 228.027371 166.531881 
L 229.32859 167.743282 
L 230.62981 168.66842 
L 231.931029 169.289362 
L 233.232264 169.605214 
L 234.533483 169.628919 
L 235.834703 169.384331 
L 237.135922 168.903691 
L 238.762439 168.030021 
L 240.714284 166.694058 
L 247.220381 161.929889 
L 248.846913 161.096184 
L 250.473429 160.528588 
L 251.774649 160.284819 
L 253.075868 160.231095 
L 254.7024 160.418029 
L 256.328917 160.852259 
L 258.280762 161.620829 
L 261.859107 163.347835 
L 264.786859 164.636396 
L 266.738688 165.268114 
L 268.690517 165.661553 
L 270.642346 165.806031 
L 272.594175 165.71898 
L 274.871317 165.377097 
L 277.799069 164.689655 
L 283.979869 163.169827 
L 286.582308 162.79086 
L 289.184747 162.651536 
L 291.787185 162.742986 
L 295.040234 163.099519 
L 304.148786 164.257497 
L 307.401834 164.378542 
L 310.980195 164.292959 
L 316.510386 163.904013 
L 322.69117 163.522453 
L 327.245454 163.46089 
L 333.100941 163.622322 
L 343.1854 163.922802 
L 350.342122 163.872323 
L 365.631474 163.695199 
L 398.487273 163.751315 
L 398.487273 163.751315 
" clip-path="url(#p1a3543de74)" style="fill: none; stroke: #ff7f0e; stroke-width: 1.5; stroke-linecap: square"/>
   </g>
   <g id="line2d_15">
    <path d="M 73.832727 137.243765 
L 74.483338 136.961469 
L 75.133948 137.026613 
L 75.784558 137.427168 
L 76.435169 138.138475 
L 77.085779 139.128857 
L 78.061694 141.085506 
L 79.03761 143.532689 
L 80.33883 147.395349 
L 82.290661 153.984593 
L 85.543713 165.068905 
L 86.844933 168.836551 
L 88.146155 171.916698 
L 89.12207 173.714447 
L 90.097986 175.063704 
L 91.0739 175.972565 
L 91.724512 176.338653 
L 92.375122 176.526403 
L 93.025731 176.535832 
L 93.676343 176.364489 
L 94.326953 176.019185 
L 95.302867 175.19897 
L 96.278784 174.053392 
L 97.580003 172.099831 
L 99.20653 169.14325 
L 105.062023 157.764346 
L 106.363244 155.915233 
L 107.339159 154.82713 
L 108.315074 154.021773 
L 109.290992 153.521596 
L 110.266907 153.344979 
L 111.242821 153.49999 
L 112.218736 153.980357 
L 113.19465 154.782008 
L 114.495874 156.253253 
L 116.122398 158.488009 
L 118.724841 162.570129 
L 120.67667 165.447831 
L 121.977893 167.058619 
L 123.279113 168.34292 
L 124.255027 169.06256 
L 125.230942 169.545349 
L 126.20686 169.75271 
L 127.182775 169.693871 
L 128.158689 169.408326 
L 129.459909 168.759478 
L 131.411742 167.455843 
L 135.640709 164.202704 
L 139.544371 161.354603 
L 141.4962 160.175882 
L 143.122725 159.410733 
L 144.749257 158.879645 
L 146.375781 158.593388 
L 148.002305 158.541833 
L 149.954134 158.745421 
L 162.315735 160.732371 
L 167.195308 161.278448 
L 171.098974 161.473376 
L 176.629156 161.500591 
L 184.111176 161.309434 
L 200.701739 160.715761 
L 209.159673 160.945632 
L 217.617615 161.067251 
L 226.075542 160.966169 
L 239.738361 160.750232 
L 270.642346 160.739969 
L 287.558214 160.734557 
L 327.896064 160.686848 
L 398.487273 160.69557 
L 398.487273 160.69557 
" clip-path="url(#p1a3543de74)" style="fill: none; stroke: #2ca02c; stroke-width: 1.5; stroke-linecap: square"/>
   </g>
   <g id="line2d_16">
    <path d="M 73.832727 145.24202 
L 75.784558 195.600823 
L 77.085779 222.985502 
L 78.387 245.444035 
L 79.362915 258.673706 
L 80.33883 268.547862 
L 80.989441 273.211693 
L 81.640051 276.334143 
L 81.965357 277.321746 
L 82.290661 277.931346 
L 82.615966 278.167335 
L 82.941272 278.034742 
L 83.266577 277.538767 
L 83.591882 276.683745 
L 84.242493 273.893421 
L 84.893103 269.560385 
L 85.543713 263.571523 
L 86.519628 252.035789 
L 87.820849 233.669559 
L 92.049817 170.936588 
L 94.652258 136.362738 
L 95.953479 122.228506 
L 96.929394 113.450967 
L 97.90531 106.379373 
L 98.881225 101.114203 
L 99.531835 98.654155 
L 100.182446 97.07324 
L 100.507751 96.625834 
L 100.833056 96.414724 
L 101.158361 96.443978 
L 101.483666 96.713931 
L 101.80897 97.219726 
L 102.459582 98.904202 
L 103.110192 101.44263 
L 103.760802 104.801661 
L 104.736718 111.171723 
L 106.037938 121.585172 
L 107.664464 136.880446 
L 109.290992 154.200536 
L 113.19465 196.902617 
L 113.845264 201.85032 
L 114.821178 207.08365 
L 116.122398 212.49534 
L 116.773008 214.586009 
L 117.098312 215.289783 
L 117.423617 215.702093 
L 117.748926 215.800146 
L 118.074231 215.599806 
L 118.399536 215.140174 
L 119.050146 213.583836 
L 119.700755 211.319017 
L 120.67667 206.808033 
L 121.652584 201.130659 
L 123.279113 190.202782 
L 124.580332 179.92878 
L 127.182775 156.53495 
L 128.158689 149.965971 
L 128.809299 146.653674 
L 129.459909 144.173591 
L 130.435827 141.494875 
L 131.086437 140.244 
L 131.737047 139.3553 
L 132.387656 138.77973 
L 133.038266 138.464094 
L 133.688876 138.367895 
L 134.664794 138.53542 
L 136.616624 139.256791 
L 137.592538 139.907353 
L 138.568457 140.960354 
L 139.544371 142.462516 
L 140.520286 144.39668 
L 141.821505 147.551715 
L 143.448029 152.152291 
L 147.677 164.49445 
L 148.97822 167.573025 
L 149.954134 169.27556 
L 150.604744 170.011246 
L 151.255354 170.401642 
L 151.905964 170.485012 
L 152.556573 170.344727 
L 153.857801 169.724279 
L 155.80963 168.717958 
L 157.110849 168.284221 
L 158.412069 168.090096 
L 160.363898 168.110742 
L 162.315735 168.070538 
L 163.616954 167.820944 
L 164.918174 167.363325 
L 166.870003 166.407365 
L 169.472442 165.127425 
L 171.424278 164.425633 
L 173.701413 163.872832 
L 176.954461 163.35632 
L 188.014842 161.990575 
L 190.291976 161.973065 
L 192.56911 162.18476 
L 194.846252 162.644224 
L 202.978881 164.607515 
L 205.256015 164.771763 
L 207.858454 164.722062 
L 211.762112 164.376706 
L 225.750244 163.00831 
L 229.003293 162.928864 
L 232.256342 163.096577 
L 238.437142 163.745444 
L 242.3408 164.019094 
L 246.244458 164.07306 
L 251.774649 163.900827 
L 264.461546 163.431417 
L 269.991737 163.510518 
L 283.654556 163.832527 
L 293.739015 163.709246 
L 304.474083 163.642776 
L 336.028677 163.72455 
L 378.643668 163.765691 
L 398.487273 163.784514 
L 398.487273 163.784514 
" clip-path="url(#p1a3543de74)" style="fill: none; stroke: #d62728; stroke-width: 1.5; stroke-linecap: square"/>
   </g>
   <g id="line2d_17">
    <path d="M 73.832727 137.243765 
L 74.483338 136.959292 
L 75.133948 136.987064 
L 75.784558 137.32656 
L 76.435169 137.965835 
L 77.085779 138.904139 
L 78.061694 140.845352 
L 79.03761 143.36805 
L 80.33883 147.491988 
L 81.965357 153.529078 
L 87.170239 173.737684 
L 88.796764 178.89715 
L 90.097986 182.242465 
L 91.0739 184.206377 
L 92.049817 185.658053 
L 92.700427 186.322119 
L 93.351036 186.733956 
L 94.001648 186.887573 
L 94.652258 186.78013 
L 95.302867 186.412591 
L 95.953479 185.789839 
L 96.604089 184.920581 
L 97.580003 183.182335 
L 98.55592 180.973316 
L 99.857139 177.419355 
L 101.483666 172.286365 
L 105.712633 158.524221 
L 107.013854 155.087436 
L 107.989769 152.968721 
L 108.965683 151.302431 
L 109.941602 150.122509 
L 110.592211 149.613733 
L 111.242821 149.330306 
L 111.893431 149.26912 
L 112.544041 149.40333 
L 113.519959 149.909735 
L 114.495874 150.726408 
L 115.471788 151.809936 
L 116.773008 153.600725 
L 118.724841 156.793847 
L 122.303198 162.754681 
L 123.929722 164.960786 
L 125.230942 166.367986 
L 126.85747 167.770584 
L 128.483994 168.860236 
L 130.110522 169.695637 
L 131.737047 170.279141 
L 133.038266 170.537776 
L 134.339489 170.600464 
L 135.640709 170.473679 
L 137.267233 170.079157 
L 139.219066 169.337272 
L 142.14681 167.914567 
L 145.725171 166.20759 
L 147.677 165.531962 
L 149.303525 165.188622 
L 150.930049 165.059315 
L 152.881878 165.157954 
L 155.15902 165.521472 
L 161.665125 166.707368 
L 164.918174 167.018717 
L 168.821832 167.16167 
L 184.111176 167.49051 
L 195.171557 167.944658 
L 199.725825 167.871893 
L 204.930702 167.548633 
L 212.412722 167.086705 
L 216.967005 167.045031 
L 222.822493 167.23309 
L 233.232264 167.603688 
L 238.762439 167.541169 
L 256.979527 167.121612 
L 278.774975 167.15283 
L 297.317376 166.983133 
L 322.365873 166.829924 
L 398.487273 166.272126 
L 398.487273 166.272126 
" clip-path="url(#p1a3543de74)" style="fill: none; stroke: #9467bd; stroke-width: 1.5; stroke-linecap: square"/>
   </g>
   <g id="line2d_18">
    <path d="M 73.832727 145.654201 
L 77.411084 228.541039 
L 78.712305 253.834926 
L 79.68822 269.465614 
L 80.664136 281.677164 
L 81.314746 287.742944 
L 81.965357 292.075081 
L 82.615966 294.65066 
L 82.941272 295.283393 
L 83.266577 295.488 
L 83.591882 295.277567 
L 83.917188 294.673759 
L 84.567797 292.43621 
L 85.218408 289.192819 
L 86.194324 282.999669 
L 86.844933 277.616072 
L 87.820849 267.159897 
L 89.12207 249.942799 
L 90.423291 229.272872 
L 92.375122 193.844364 
L 97.580003 95.0328 
L 98.881225 76.674791 
L 99.857139 66.090899 
L 100.507751 60.733302 
L 101.158361 56.822497 
L 101.80897 54.423909 
L 102.134277 53.802578 
L 102.459582 53.568 
L 102.784887 53.72162 
L 103.110192 54.266614 
L 103.435497 55.207042 
L 104.086108 58.266649 
L 104.736718 62.795554 
L 105.712633 72.04084 
L 106.688549 83.898487 
L 107.989769 103.009118 
L 109.941602 135.522875 
L 111.893431 168.236995 
L 112.869345 180.707715 
L 114.170569 194.131275 
L 115.471788 205.107874 
L 116.447703 211.781752 
L 117.098312 215.319174 
L 117.748926 217.894866 
L 118.399536 219.440617 
L 118.724841 219.860248 
L 119.050146 220.06378 
L 119.37545 220.06023 
L 119.700755 219.856311 
L 120.02606 219.458339 
L 120.67667 218.10489 
L 121.32728 216.02334 
L 121.977893 213.219857 
L 123.279113 206.044587 
L 125.230942 194.624001 
L 126.85747 187.813766 
L 128.158689 183.360148 
L 131.737047 172.037914 
L 135.966014 156.797193 
L 137.267233 153.16821 
L 138.243148 150.981422 
L 139.219066 149.271644 
L 140.194981 148.053006 
L 140.845591 147.520498 
L 141.4962 147.215934 
L 142.14681 147.14132 
L 142.79742 147.297064 
L 143.448029 147.681811 
L 144.098639 148.292238 
L 145.074562 149.617017 
L 146.050476 151.39733 
L 147.351696 154.358976 
L 152.231268 166.44712 
L 153.207191 168.152463 
L 154.183105 169.424585 
L 154.833715 170.00649 
L 155.484325 170.370254 
L 156.134935 170.526497 
L 156.785544 170.501578 
L 157.761459 170.207773 
L 159.062678 169.529636 
L 161.665125 167.829085 
L 164.918174 165.765015 
L 166.870003 164.824111 
L 168.496527 164.29732 
L 170.123059 164.006605 
L 172.074888 163.912773 
L 174.352022 164.04536 
L 177.605071 164.482574 
L 183.785871 165.369094 
L 186.388318 165.482788 
L 188.665452 165.3749 
L 190.942586 165.063897 
L 193.545025 164.466316 
L 196.472776 163.530055 
L 201.677654 161.788549 
L 203.629491 161.401782 
L 205.256015 161.27975 
L 206.882532 161.355535 
L 208.834376 161.688776 
L 211.111502 162.326115 
L 218.268225 164.541417 
L 220.870664 165.037487 
L 223.14779 165.265015 
L 225.424932 165.280574 
L 227.702074 165.084854 
L 230.304513 164.642197 
L 235.184093 163.513408 
L 238.437142 162.864687 
L 241.039581 162.559437 
L 243.64202 162.49194 
L 246.244458 162.644236 
L 250.148132 163.130302 
L 256.328917 163.907321 
L 259.907278 164.125763 
L 263.485639 164.12695 
L 268.039907 163.880424 
L 277.473756 163.290839 
L 282.353337 163.273522 
L 289.835356 163.523522 
L 297.642673 163.7014 
L 305.124692 163.621613 
L 318.462215 163.453846 
L 377.993043 163.51382 
L 398.487273 163.498412 
L 398.487273 163.498412 
" clip-path="url(#p1a3543de74)" style="fill: none; stroke: #8c564b; stroke-width: 1.5; stroke-linecap: square"/>
   </g>
   <g id="line2d_19">
    <path d="M 73.832727 137.243765 
L 74.483338 136.96088 
L 75.133948 137.00273 
L 75.784558 137.364493 
L 76.435169 138.023845 
L 77.085779 138.957504 
L 78.061694 140.833389 
L 79.03761 143.216752 
L 80.33883 147.037305 
L 82.290661 153.670556 
L 85.869019 166.14307 
L 87.495544 171.044188 
L 88.796764 174.311089 
L 89.77268 176.273876 
L 90.748596 177.766178 
L 91.724512 178.775653 
L 92.375122 179.184295 
L 93.025731 179.386928 
L 93.676343 179.39396 
L 94.326953 179.211207 
L 94.977563 178.844627 
L 95.953479 177.966991 
L 96.929394 176.725186 
L 98.230615 174.575158 
L 99.857139 171.272592 
L 102.784887 164.535338 
L 104.736718 160.301686 
L 106.037938 157.935611 
L 107.013854 156.491041 
L 107.989769 155.376103 
L 108.965683 154.624979 
L 109.616297 154.340372 
L 110.266907 154.23244 
L 110.917516 154.301931 
L 111.568126 154.547618 
L 112.544041 155.223313 
L 113.519959 156.224729 
L 114.821178 157.955392 
L 116.773008 161.027894 
L 119.37545 165.184031 
L 120.67667 166.925878 
L 121.977893 168.294166 
L 122.953808 169.027418 
L 123.929722 169.475863 
L 124.905637 169.62763 
L 125.881551 169.513001 
L 126.85747 169.15586 
L 127.833385 168.563344 
L 129.134604 167.461817 
L 130.761132 165.749368 
L 136.291319 159.606019 
L 137.592538 158.586451 
L 138.893761 157.851816 
L 139.869676 157.505455 
L 140.845591 157.341775 
L 141.821505 157.361837 
L 142.79742 157.561582 
L 144.098639 158.090919 
L 145.399866 158.887666 
L 147.026391 160.183897 
L 149.303525 162.343119 
L 152.231268 165.101082 
L 153.857801 166.309515 
L 155.15902 167.021851 
L 156.460239 167.502765 
L 157.761459 167.775639 
L 159.387983 167.875068 
L 161.014507 167.762495 
L 162.966344 167.40805 
L 165.243478 166.750368 
L 167.845917 165.75397 
L 176.629156 162.139074 
L 178.580993 161.661255 
L 180.532822 161.398891 
L 182.484651 161.360809 
L 184.436481 161.531469 
L 186.713622 161.943478 
L 190.291976 162.850562 
L 194.846252 163.971507 
L 197.773995 164.456656 
L 200.376434 164.680207 
L 203.304186 164.69841 
L 206.557234 164.46673 
L 210.786205 163.902671 
L 216.967005 163.062522 
L 220.220054 162.851013 
L 223.473103 162.862964 
L 227.376761 163.108245 
L 237.461219 163.857951 
L 242.015503 163.916835 
L 247.545678 163.746977 
L 257.955449 163.381797 
L 264.136249 163.458746 
L 278.774975 163.752899 
L 317.160996 163.761556 
L 371.161633 163.851152 
L 398.487273 163.914547 
L 398.487273 163.914547 
" clip-path="url(#p1a3543de74)" style="fill: none; stroke: #e377c2; stroke-width: 1.5; stroke-linecap: square"/>
   </g>
   <g id="line2d_20">
    <path d="M 73.832727 145.559055 
L 76.109863 200.273725 
L 77.736389 232.297422 
L 79.03761 253.064987 
L 80.013525 265.111504 
L 80.664136 271.28076 
L 81.314746 275.890133 
L 81.965357 278.911861 
L 82.290661 279.827245 
L 82.615966 280.349686 
L 82.941272 280.485044 
L 83.266577 280.241955 
L 83.591882 279.632981 
L 84.242493 277.40193 
L 84.893103 274.069639 
L 85.869019 267.547128 
L 86.844933 258.902834 
L 87.820849 247.683455 
L 89.12207 229.242554 
L 94.977563 138.761888 
L 96.604089 118.548658 
L 97.90531 105.252293 
L 98.881225 97.461131 
L 99.531835 93.463429 
L 100.182446 90.47987 
L 100.833056 88.54294 
L 101.158361 87.978808 
L 101.483666 87.690809 
L 101.80897 87.682366 
L 102.134277 87.95612 
L 102.459582 88.515825 
L 103.110192 90.513078 
L 103.760802 93.689029 
L 104.411413 97.944715 
L 105.387328 105.939767 
L 106.688549 119.079218 
L 108.315074 138.67923 
L 112.544041 193.692584 
L 113.519959 203.441524 
L 114.170569 208.306201 
L 114.821178 212.020717 
L 115.471788 214.732808 
L 116.122398 216.589611 
L 116.447703 217.179128 
L 116.773008 217.525198 
L 117.098312 217.600318 
L 117.423617 217.367948 
L 117.748926 216.812845 
L 118.399536 214.852265 
L 119.050146 212.006573 
L 120.02606 206.353771 
L 121.32728 196.726899 
L 122.628503 185.150774 
L 125.556247 157.22764 
L 127.833385 139.201216 
L 128.809299 133.437676 
L 129.785214 129.356421 
L 130.435827 127.401932 
L 131.086437 126.002824 
L 131.737047 125.170167 
L 132.062352 124.979743 
L 132.387656 124.94891 
L 132.712961 125.082977 
L 133.038266 125.383555 
L 133.688876 126.466069 
L 134.339489 128.127197 
L 135.315404 131.524075 
L 136.291319 135.807512 
L 137.592538 142.580522 
L 139.544371 154.219275 
L 143.122725 176.115563 
L 144.423944 182.945398 
L 145.725171 188.583697 
L 146.701086 191.868057 
L 147.677 194.253345 
L 148.32761 195.297096 
L 148.97822 195.852967 
L 149.303525 195.932659 
L 149.62883 195.874222 
L 149.954134 195.675477 
L 150.604744 194.855476 
L 151.255354 193.482382 
L 151.905964 191.597494 
L 152.881878 187.991304 
L 154.50841 180.824023 
L 156.460239 172.402449 
L 157.761459 167.714337 
L 159.062678 163.872694 
L 160.363898 160.741175 
L 161.99043 157.521432 
L 163.616954 154.814818 
L 165.243478 152.541953 
L 166.544698 151.07616 
L 167.845917 149.979849 
L 168.821832 149.428777 
L 169.797754 149.128653 
L 170.773669 149.092293 
L 171.749583 149.327787 
L 172.725498 149.837354 
L 173.701413 150.616349 
L 174.677327 151.652382 
L 175.978547 153.396543 
L 177.605071 156.054349 
L 179.882213 160.316903 
L 182.809956 165.797202 
L 184.436481 168.392997 
L 185.7377 170.07477 
L 186.713622 171.062068 
L 187.689537 171.796473 
L 188.665452 172.272905 
L 189.641366 172.49638 
L 190.617281 172.481068 
L 191.593195 172.248765 
L 192.894415 171.649596 
L 194.195634 170.787811 
L 196.147471 169.164318 
L 199.725825 165.76593 
L 202.978881 162.807357 
L 204.930702 161.288532 
L 206.557234 160.244883 
L 208.183766 159.454221 
L 209.484986 159.03389 
L 210.786205 158.821999 
L 212.087425 158.829056 
L 213.388644 159.055424 
L 214.689864 159.489461 
L 216.316396 160.285841 
L 218.268225 161.514082 
L 223.473103 164.995903 
L 225.099635 165.791614 
L 226.726151 166.341631 
L 228.352683 166.63233 
L 229.9792 166.679588 
L 231.605732 166.519053 
L 233.557561 166.114451 
L 236.16 165.340492 
L 243.967332 162.852216 
L 246.244458 162.415376 
L 248.5216 162.212468 
L 250.798742 162.25947 
L 253.075868 162.534359 
L 256.00362 163.122381 
L 261.859107 164.365666 
L 264.461546 164.675357 
L 267.064001 164.769359 
L 269.991737 164.647577 
L 273.89541 164.245684 
L 281.377414 163.443737 
L 284.955776 163.305546 
L 288.859434 163.387216 
L 295.040234 163.794039 
L 300.895737 164.091593 
L 305.775302 164.108261 
L 313.257322 163.865861 
L 321.064654 163.682302 
L 328.546673 163.751094 
L 342.209493 163.908422 
L 398.487273 163.812823 
L 398.487273 163.812823 
" clip-path="url(#p1a3543de74)" style="fill: none; stroke: #7f7f7f; stroke-width: 1.5; stroke-linecap: square"/>
   </g>
   <g id="patch_3">
    <path d="M 57.6 307.584 
L 57.6 41.472 
" style="fill: none; stroke: #000000; stroke-width: 0.8; stroke-linejoin: miter; stroke-linecap: square"/>
   </g>
   <g id="patch_4">
    <path d="M 414.72 307.584 
L 414.72 41.472 
" style="fill: none; stroke: #000000; stroke-width: 0.8; stroke-linejoin: miter; stroke-linecap: square"/>
   </g>
   <g id="patch_5">
    <path d="M 57.6 307.584 
L 414.72 307.584 
" style="fill: none; stroke: #000000; stroke-width: 0.8; stroke-linejoin: miter; stroke-linecap: square"/>
   </g>
   <g id="patch_6">
    <path d="M 57.6 41.472 
L 414.72 41.472 
" style="fill: none; stroke: #000000; stroke-width: 0.8; stroke-linejoin: miter; stroke-linecap: square"/>
   </g>
   <g id="legend_1">
    <g id="patch_7">
     <path d="M 363.43875 166.897 
L 407.72 166.897 
Q 409.72 166.897 409.72 164.897 
L 409.72 48.472 
Q 409.72 46.472 407.72 46.472 
L 363.43875 46.472 
Q 361.43875 46.472 361.43875 48.472 
L 361.43875 164.897 
Q 361.43875 166.897 363.43875 166.897 
z
" style="fill: #ffffff; opacity: 0.8; stroke: #cccccc; stroke-linejoin: miter"/>
    </g>
    <g id="line2d_21">
     <path d="M 365.43875 54.570438 
L 375.43875 54.570438 
L 385.43875 54.570438 
" style="fill: none; stroke: #1f77b4; stroke-width: 1.5; stroke-linecap: square"/>
    </g>
    <g id="text_15">
     <!-- x0 -->
     <g transform="translate(393.43875 58.070438) scale(0.1 -0.1)">
      <defs>
       <path id="DejaVuSans-78" d="M 3513 3500 
L 2247 1797 
L 3578 0 
L 2900 0 
L 1881 1375 
L 863 0 
L 184 0 
L 1544 1831 
L 300 3500 
L 978 3500 
L 1906 2253 
L 2834 3500 
L 3513 3500 
z
" transform="scale(0.015625)"/>
      </defs>
      <use xlink:href="#DejaVuSans-78"/>
      <use xlink:href="#DejaVuSans-30" transform="translate(59.179688 0)"/>
     </g>
    </g>
    <g id="line2d_22">
     <path d="M 365.43875 69.248563 
L 375.43875 69.248563 
L 385.43875 69.248563 
" style="fill: none; stroke: #ff7f0e; stroke-width: 1.5; stroke-linecap: square"/>
    </g>
    <g id="text_16">
     <!-- x1 -->
     <g transform="translate(393.43875 72.748563) scale(0.1 -0.1)">
      <use xlink:href="#DejaVuSans-78"/>
      <use xlink:href="#DejaVuSans-31" transform="translate(59.179688 0)"/>
     </g>
    </g>
    <g id="line2d_23">
     <path d="M 365.43875 83.926688 
L 375.43875 83.926688 
L 385.43875 83.926688 
" style="fill: none; stroke: #2ca02c; stroke-width: 1.5; stroke-linecap: square"/>
    </g>
    <g id="text_17">
     <!-- x2 -->
     <g transform="translate(393.43875 87.426688) scale(0.1 -0.1)">
      <use xlink:href="#DejaVuSans-78"/>
      <use xlink:href="#DejaVuSans-32" transform="translate(59.179688 0)"/>
     </g>
    </g>
    <g id="line2d_24">
     <path d="M 365.43875 98.604813 
L 375.43875 98.604813 
L 385.43875 98.604813 
" style="fill: none; stroke: #d62728; stroke-width: 1.5; stroke-linecap: square"/>
    </g>
    <g id="text_18">
     <!-- x3 -->
     <g transform="translate(393.43875 102.104813) scale(0.1 -0.1)">
      <defs>
       <path id="DejaVuSans-33" d="M 2597 2516 
Q 3050 2419 3304 2112 
Q 3559 1806 3559 1356 
Q 3559 666 3084 287 
Q 2609 -91 1734 -91 
Q 1441 -91 1130 -33 
Q 819 25 488 141 
L 488 750 
Q 750 597 1062 519 
Q 1375 441 1716 441 
Q 2309 441 2620 675 
Q 2931 909 2931 1356 
Q 2931 1769 2642 2001 
Q 2353 2234 1838 2234 
L 1294 2234 
L 1294 2753 
L 1863 2753 
Q 2328 2753 2575 2939 
Q 2822 3125 2822 3475 
Q 2822 3834 2567 4026 
Q 2313 4219 1838 4219 
Q 1578 4219 1281 4162 
Q 984 4106 628 3988 
L 628 4550 
Q 988 4650 1302 4700 
Q 1616 4750 1894 4750 
Q 2613 4750 3031 4423 
Q 3450 4097 3450 3541 
Q 3450 3153 3228 2886 
Q 3006 2619 2597 2516 
z
" transform="scale(0.015625)"/>
      </defs>
      <use xlink:href="#DejaVuSans-78"/>
      <use xlink:href="#DejaVuSans-33" transform="translate(59.179688 0)"/>
     </g>
    </g>
    <g id="line2d_25">
     <path d="M 365.43875 113.282938 
L 375.43875 113.282938 
L 385.43875 113.282938 
" style="fill: none; stroke: #9467bd; stroke-width: 1.5; stroke-linecap: square"/>
    </g>
    <g id="text_19">
     <!-- x4 -->
     <g transform="translate(393.43875 116.782938) scale(0.1 -0.1)">
      <use xlink:href="#DejaVuSans-78"/>
      <use xlink:href="#DejaVuSans-34" transform="translate(59.179688 0)"/>
     </g>
    </g>
    <g id="line2d_26">
     <path d="M 365.43875 127.961063 
L 375.43875 127.961063 
L 385.43875 127.961063 
" style="fill: none; stroke: #8c564b; stroke-width: 1.5; stroke-linecap: square"/>
    </g>
    <g id="text_20">
     <!-- x5 -->
     <g transform="translate(393.43875 131.461063) scale(0.1 -0.1)">
      <defs>
       <path id="DejaVuSans-35" d="M 691 4666 
L 3169 4666 
L 3169 4134 
L 1269 4134 
L 1269 2991 
Q 1406 3038 1543 3061 
Q 1681 3084 1819 3084 
Q 2600 3084 3056 2656 
Q 3513 2228 3513 1497 
Q 3513 744 3044 326 
Q 2575 -91 1722 -91 
Q 1428 -91 1123 -41 
Q 819 9 494 109 
L 494 744 
Q 775 591 1075 516 
Q 1375 441 1709 441 
Q 2250 441 2565 725 
Q 2881 1009 2881 1497 
Q 2881 1984 2565 2268 
Q 2250 2553 1709 2553 
Q 1456 2553 1204 2497 
Q 953 2441 691 2322 
L 691 4666 
z
" transform="scale(0.015625)"/>
      </defs>
      <use xlink:href="#DejaVuSans-78"/>
      <use xlink:href="#DejaVuSans-35" transform="translate(59.179688 0)"/>
     </g>
    </g>
    <g id="line2d_27">
     <path d="M 365.43875 142.639188 
L 375.43875 142.639188 
L 385.43875 142.639188 
" style="fill: none; stroke: #e377c2; stroke-width: 1.5; stroke-linecap: square"/>
    </g>
    <g id="text_21">
     <!-- x6 -->
     <g transform="translate(393.43875 146.139188) scale(0.1 -0.1)">
      <use xlink:href="#DejaVuSans-78"/>
      <use xlink:href="#DejaVuSans-36" transform="translate(59.179688 0)"/>
     </g>
    </g>
    <g id="line2d_28">
     <path d="M 365.43875 157.317313 
L 375.43875 157.317313 
L 385.43875 157.317313 
" style="fill: none; stroke: #7f7f7f; stroke-width: 1.5; stroke-linecap: square"/>
    </g>
    <g id="text_22">
     <!-- x7 -->
     <g transform="translate(393.43875 160.817313) scale(0.1 -0.1)">
      <defs>
       <path id="DejaVuSans-37" d="M 525 4666 
L 3525 4666 
L 3525 4397 
L 1831 0 
L 1172 0 
L 2766 4134 
L 525 4134 
L 525 4666 
z
" transform="scale(0.015625)"/>
      </defs>
      <use xlink:href="#DejaVuSans-78"/>
      <use xlink:href="#DejaVuSans-37" transform="translate(59.179688 0)"/>
     </g>
    </g>
   </g>
  </g>
 </g>
 <defs>
  <clipPath id="p1a3543de74">
   <rect x="57.6" y="41.472" width="357.12" height="266.112"/>
  </clipPath>
 </defs>
</svg>
