<?xml version="1.0" encoding="utf-8" standalone="no"?>
<!DOCTYPE svg PUBLIC "-//W3C//DTD SVG 1.1//EN"
  "http://www.w3.org/Graphics/SVG/1.1/DTD/svg11.dtd">
<svg xmlns:xlink="http://www.w3.org/1999/xlink" width="460.8pt" height="345.6pt" viewBox="0 0 460.8 345.6" xmlns="http://www.w3.org/2000/svg" version="1.1">
 <metadata>
  <rdf:RDF xmlns:dc="http://purl.org/dc/elements/1.1/" xmlns:cc="http://creativecommons.org/ns#" xmlns:rdf="http://www.w3.org/1999/02/22-rdf-syntax-ns#">
   <cc:Work>
    <dc:type rdf:resource="http://purl.org/dc/dcmitype/StillImage"/>
    <dc:date>2025-05-10T03:34:06.446942</dc:date>
    <dc:format>image/svg+xml</dc:format>
    <dc:creator>
     <cc:Agent>
      <dc:title>Matplotlib v3.10.0, https://matplotlib.org/</dc:title>
     </cc:Agent>
    </dc:creator>
   </cc:Work>
  </rdf:RDF>
 </metadata>
 <defs>
  <style type="text/css">*{stroke-linejoin: round; stroke-linecap: butt}</style>
 </defs>
 <g id="figure_1">
  <g id="patch_1">
   <path d="M 0 345.6 
L 460.8 345.6 
L 460.8 0 
L 0 0 
z
" style="fill: #ffffff"/>
  </g>
  <g id="axes_1">
   <g id="patch_2">
    <path d="M 57.6 307.584 
L 414.72 307.584 
L 414.72 41.472 
L 57.6 41.472 
z
" style="fill: #ffffff"/>
   </g>
   <g id="matplotlib.axis_1">
    <g id="xtick_1">
     <g id="line2d_1">
      <defs>
       <path id="m57860b8397" d="M 0 0 
L 0 3.5 
" style="stroke: #000000; stroke-width: 0.8"/>
      </defs>
      <g>
       <use xlink:href="#m57860b8397" x="73.832727" y="307.584" style="stroke: #000000; stroke-width: 0.8"/>
      </g>
     </g>
     <g id="text_1">
      <!-- 0 -->
      <g transform="translate(70.651477 322.182437) scale(0.1 -0.1)">
       <defs>
        <path id="DejaVuSans-30" d="M 2034 4250 
Q 1547 4250 1301 3770 
Q 1056 3291 1056 2328 
Q 1056 1369 1301 889 
Q 1547 409 2034 409 
Q 2525 409 2770 889 
Q 3016 1369 3016 2328 
Q 3016 3291 2770 3770 
Q 2525 4250 2034 4250 
z
M 2034 4750 
Q 2819 4750 3233 4129 
Q 3647 3509 3647 2328 
Q 3647 1150 3233 529 
Q 2819 -91 2034 -91 
Q 1250 -91 836 529 
Q 422 1150 422 2328 
Q 422 3509 836 4129 
Q 1250 4750 2034 4750 
z
" transform="scale(0.015625)"/>
       </defs>
       <use xlink:href="#DejaVuSans-30"/>
      </g>
     </g>
    </g>
    <g id="xtick_2">
     <g id="line2d_2">
      <g>
       <use xlink:href="#m57860b8397" x="138.893761" y="307.584" style="stroke: #000000; stroke-width: 0.8"/>
      </g>
     </g>
     <g id="text_2">
      <!-- 2 -->
      <g transform="translate(135.712511 322.182437) scale(0.1 -0.1)">
       <defs>
        <path id="DejaVuSans-32" d="M 1228 531 
L 3431 531 
L 3431 0 
L 469 0 
L 469 531 
Q 828 903 1448 1529 
Q 2069 2156 2228 2338 
Q 2531 2678 2651 2914 
Q 2772 3150 2772 3378 
Q 2772 3750 2511 3984 
Q 2250 4219 1831 4219 
Q 1534 4219 1204 4116 
Q 875 4013 500 3803 
L 500 4441 
Q 881 4594 1212 4672 
Q 1544 4750 1819 4750 
Q 2544 4750 2975 4387 
Q 3406 4025 3406 3419 
Q 3406 3131 3298 2873 
Q 3191 2616 2906 2266 
Q 2828 2175 2409 1742 
Q 1991 1309 1228 531 
z
" transform="scale(0.015625)"/>
       </defs>
       <use xlink:href="#DejaVuSans-32"/>
      </g>
     </g>
    </g>
    <g id="xtick_3">
     <g id="line2d_3">
      <g>
       <use xlink:href="#m57860b8397" x="203.954796" y="307.584" style="stroke: #000000; stroke-width: 0.8"/>
      </g>
     </g>
     <g id="text_3">
      <!-- 4 -->
      <g transform="translate(200.773546 322.182437) scale(0.1 -0.1)">
       <defs>
        <path id="DejaVuSans-34" d="M 2419 4116 
L 825 1625 
L 2419 1625 
L 2419 4116 
z
M 2253 4666 
L 3047 4666 
L 3047 1625 
L 3713 1625 
L 3713 1100 
L 3047 1100 
L 3047 0 
L 2419 0 
L 2419 1100 
L 313 1100 
L 313 1709 
L 2253 4666 
z
" transform="scale(0.015625)"/>
       </defs>
       <use xlink:href="#DejaVuSans-34"/>
      </g>
     </g>
    </g>
    <g id="xtick_4">
     <g id="line2d_4">
      <g>
       <use xlink:href="#m57860b8397" x="269.01583" y="307.584" style="stroke: #000000; stroke-width: 0.8"/>
      </g>
     </g>
     <g id="text_4">
      <!-- 6 -->
      <g transform="translate(265.83458 322.182437) scale(0.1 -0.1)">
       <defs>
        <path id="DejaVuSans-36" d="M 2113 2584 
Q 1688 2584 1439 2293 
Q 1191 2003 1191 1497 
Q 1191 994 1439 701 
Q 1688 409 2113 409 
Q 2538 409 2786 701 
Q 3034 994 3034 1497 
Q 3034 2003 2786 2293 
Q 2538 2584 2113 2584 
z
M 3366 4563 
L 3366 3988 
Q 3128 4100 2886 4159 
Q 2644 4219 2406 4219 
Q 1781 4219 1451 3797 
Q 1122 3375 1075 2522 
Q 1259 2794 1537 2939 
Q 1816 3084 2150 3084 
Q 2853 3084 3261 2657 
Q 3669 2231 3669 1497 
Q 3669 778 3244 343 
Q 2819 -91 2113 -91 
Q 1303 -91 875 529 
Q 447 1150 447 2328 
Q 447 3434 972 4092 
Q 1497 4750 2381 4750 
Q 2619 4750 2861 4703 
Q 3103 4656 3366 4563 
z
" transform="scale(0.015625)"/>
       </defs>
       <use xlink:href="#DejaVuSans-36"/>
      </g>
     </g>
    </g>
    <g id="xtick_5">
     <g id="line2d_5">
      <g>
       <use xlink:href="#m57860b8397" x="334.076864" y="307.584" style="stroke: #000000; stroke-width: 0.8"/>
      </g>
     </g>
     <g id="text_5">
      <!-- 8 -->
      <g transform="translate(330.895614 322.182437) scale(0.1 -0.1)">
       <defs>
        <path id="DejaVuSans-38" d="M 2034 2216 
Q 1584 2216 1326 1975 
Q 1069 1734 1069 1313 
Q 1069 891 1326 650 
Q 1584 409 2034 409 
Q 2484 409 2743 651 
Q 3003 894 3003 1313 
Q 3003 1734 2745 1975 
Q 2488 2216 2034 2216 
z
M 1403 2484 
Q 997 2584 770 2862 
Q 544 3141 544 3541 
Q 544 4100 942 4425 
Q 1341 4750 2034 4750 
Q 2731 4750 3128 4425 
Q 3525 4100 3525 3541 
Q 3525 3141 3298 2862 
Q 3072 2584 2669 2484 
Q 3125 2378 3379 2068 
Q 3634 1759 3634 1313 
Q 3634 634 3220 271 
Q 2806 -91 2034 -91 
Q 1263 -91 848 271 
Q 434 634 434 1313 
Q 434 1759 690 2068 
Q 947 2378 1403 2484 
z
M 1172 3481 
Q 1172 3119 1398 2916 
Q 1625 2713 2034 2713 
Q 2441 2713 2670 2916 
Q 2900 3119 2900 3481 
Q 2900 3844 2670 4047 
Q 2441 4250 2034 4250 
Q 1625 4250 1398 4047 
Q 1172 3844 1172 3481 
z
" transform="scale(0.015625)"/>
       </defs>
       <use xlink:href="#DejaVuSans-38"/>
      </g>
     </g>
    </g>
    <g id="xtick_6">
     <g id="line2d_6">
      <g>
       <use xlink:href="#m57860b8397" x="399.137898" y="307.584" style="stroke: #000000; stroke-width: 0.8"/>
      </g>
     </g>
     <g id="text_6">
      <!-- 10 -->
      <g transform="translate(392.775398 322.182437) scale(0.1 -0.1)">
       <defs>
        <path id="DejaVuSans-31" d="M 794 531 
L 1825 531 
L 1825 4091 
L 703 3866 
L 703 4441 
L 1819 4666 
L 2450 4666 
L 2450 531 
L 3481 531 
L 3481 0 
L 794 0 
L 794 531 
z
" transform="scale(0.015625)"/>
       </defs>
       <use xlink:href="#DejaVuSans-31"/>
       <use xlink:href="#DejaVuSans-30" transform="translate(63.623047 0)"/>
      </g>
     </g>
    </g>
    <g id="text_7">
     <!-- time -->
     <g transform="translate(224.863906 335.860562) scale(0.1 -0.1)">
      <defs>
       <path id="DejaVuSans-74" d="M 1172 4494 
L 1172 3500 
L 2356 3500 
L 2356 3053 
L 1172 3053 
L 1172 1153 
Q 1172 725 1289 603 
Q 1406 481 1766 481 
L 2356 481 
L 2356 0 
L 1766 0 
Q 1100 0 847 248 
Q 594 497 594 1153 
L 594 3053 
L 172 3053 
L 172 3500 
L 594 3500 
L 594 4494 
L 1172 4494 
z
" transform="scale(0.015625)"/>
       <path id="DejaVuSans-69" d="M 603 3500 
L 1178 3500 
L 1178 0 
L 603 0 
L 603 3500 
z
M 603 4863 
L 1178 4863 
L 1178 4134 
L 603 4134 
L 603 4863 
z
" transform="scale(0.015625)"/>
       <path id="DejaVuSans-6d" d="M 3328 2828 
Q 3544 3216 3844 3400 
Q 4144 3584 4550 3584 
Q 5097 3584 5394 3201 
Q 5691 2819 5691 2113 
L 5691 0 
L 5113 0 
L 5113 2094 
Q 5113 2597 4934 2840 
Q 4756 3084 4391 3084 
Q 3944 3084 3684 2787 
Q 3425 2491 3425 1978 
L 3425 0 
L 2847 0 
L 2847 2094 
Q 2847 2600 2669 2842 
Q 2491 3084 2119 3084 
Q 1678 3084 1418 2786 
Q 1159 2488 1159 1978 
L 1159 0 
L 581 0 
L 581 3500 
L 1159 3500 
L 1159 2956 
Q 1356 3278 1631 3431 
Q 1906 3584 2284 3584 
Q 2666 3584 2933 3390 
Q 3200 3197 3328 2828 
z
" transform="scale(0.015625)"/>
       <path id="DejaVuSans-65" d="M 3597 1894 
L 3597 1613 
L 953 1613 
Q 991 1019 1311 708 
Q 1631 397 2203 397 
Q 2534 397 2845 478 
Q 3156 559 3463 722 
L 3463 178 
Q 3153 47 2828 -22 
Q 2503 -91 2169 -91 
Q 1331 -91 842 396 
Q 353 884 353 1716 
Q 353 2575 817 3079 
Q 1281 3584 2069 3584 
Q 2775 3584 3186 3129 
Q 3597 2675 3597 1894 
z
M 3022 2063 
Q 3016 2534 2758 2815 
Q 2500 3097 2075 3097 
Q 1594 3097 1305 2825 
Q 1016 2553 972 2059 
L 3022 2063 
z
" transform="scale(0.015625)"/>
      </defs>
      <use xlink:href="#DejaVuSans-74"/>
      <use xlink:href="#DejaVuSans-69" transform="translate(39.208984 0)"/>
      <use xlink:href="#DejaVuSans-6d" transform="translate(66.992188 0)"/>
      <use xlink:href="#DejaVuSans-65" transform="translate(164.404297 0)"/>
     </g>
    </g>
   </g>
   <g id="matplotlib.axis_2">
    <g id="ytick_1">
     <g id="line2d_7">
      <defs>
       <path id="ma5d2421500" d="M 0 0 
L -3.5 0 
" style="stroke: #000000; stroke-width: 0.8"/>
      </defs>
      <g>
       <use xlink:href="#ma5d2421500" x="57.6" y="293.417455" style="stroke: #000000; stroke-width: 0.8"/>
      </g>
     </g>
     <g id="text_8">
      <!-- −7.5 -->
      <g transform="translate(26.317187 297.216674) scale(0.1 -0.1)">
       <defs>
        <path id="DejaVuSans-2212" d="M 678 2272 
L 4684 2272 
L 4684 1741 
L 678 1741 
L 678 2272 
z
" transform="scale(0.015625)"/>
        <path id="DejaVuSans-37" d="M 525 4666 
L 3525 4666 
L 3525 4397 
L 1831 0 
L 1172 0 
L 2766 4134 
L 525 4134 
L 525 4666 
z
" transform="scale(0.015625)"/>
        <path id="DejaVuSans-2e" d="M 684 794 
L 1344 794 
L 1344 0 
L 684 0 
L 684 794 
z
" transform="scale(0.015625)"/>
        <path id="DejaVuSans-35" d="M 691 4666 
L 3169 4666 
L 3169 4134 
L 1269 4134 
L 1269 2991 
Q 1406 3038 1543 3061 
Q 1681 3084 1819 3084 
Q 2600 3084 3056 2656 
Q 3513 2228 3513 1497 
Q 3513 744 3044 326 
Q 2575 -91 1722 -91 
Q 1428 -91 1123 -41 
Q 819 9 494 109 
L 494 744 
Q 775 591 1075 516 
Q 1375 441 1709 441 
Q 2250 441 2565 725 
Q 2881 1009 2881 1497 
Q 2881 1984 2565 2268 
Q 2250 2553 1709 2553 
Q 1456 2553 1204 2497 
Q 953 2441 691 2322 
L 691 4666 
z
" transform="scale(0.015625)"/>
       </defs>
       <use xlink:href="#DejaVuSans-2212"/>
       <use xlink:href="#DejaVuSans-37" transform="translate(83.789062 0)"/>
       <use xlink:href="#DejaVuSans-2e" transform="translate(147.412109 0)"/>
       <use xlink:href="#DejaVuSans-35" transform="translate(179.199219 0)"/>
      </g>
     </g>
    </g>
    <g id="ytick_2">
     <g id="line2d_8">
      <g>
       <use xlink:href="#ma5d2421500" x="57.6" y="256.837729" style="stroke: #000000; stroke-width: 0.8"/>
      </g>
     </g>
     <g id="text_9">
      <!-- −5.0 -->
      <g transform="translate(26.317187 260.636947) scale(0.1 -0.1)">
       <use xlink:href="#DejaVuSans-2212"/>
       <use xlink:href="#DejaVuSans-35" transform="translate(83.789062 0)"/>
       <use xlink:href="#DejaVuSans-2e" transform="translate(147.412109 0)"/>
       <use xlink:href="#DejaVuSans-30" transform="translate(179.199219 0)"/>
      </g>
     </g>
    </g>
    <g id="ytick_3">
     <g id="line2d_9">
      <g>
       <use xlink:href="#ma5d2421500" x="57.6" y="220.258002" style="stroke: #000000; stroke-width: 0.8"/>
      </g>
     </g>
     <g id="text_10">
      <!-- −2.5 -->
      <g transform="translate(26.317187 224.057221) scale(0.1 -0.1)">
       <use xlink:href="#DejaVuSans-2212"/>
       <use xlink:href="#DejaVuSans-32" transform="translate(83.789062 0)"/>
       <use xlink:href="#DejaVuSans-2e" transform="translate(147.412109 0)"/>
       <use xlink:href="#DejaVuSans-35" transform="translate(179.199219 0)"/>
      </g>
     </g>
    </g>
    <g id="ytick_4">
     <g id="line2d_10">
      <g>
       <use xlink:href="#ma5d2421500" x="57.6" y="183.678276" style="stroke: #000000; stroke-width: 0.8"/>
      </g>
     </g>
     <g id="text_11">
      <!-- 0.0 -->
      <g transform="translate(34.696875 187.477495) scale(0.1 -0.1)">
       <use xlink:href="#DejaVuSans-30"/>
       <use xlink:href="#DejaVuSans-2e" transform="translate(63.623047 0)"/>
       <use xlink:href="#DejaVuSans-30" transform="translate(95.410156 0)"/>
      </g>
     </g>
    </g>
    <g id="ytick_5">
     <g id="line2d_11">
      <g>
       <use xlink:href="#ma5d2421500" x="57.6" y="147.09855" style="stroke: #000000; stroke-width: 0.8"/>
      </g>
     </g>
     <g id="text_12">
      <!-- 2.5 -->
      <g transform="translate(34.696875 150.897768) scale(0.1 -0.1)">
       <use xlink:href="#DejaVuSans-32"/>
       <use xlink:href="#DejaVuSans-2e" transform="translate(63.623047 0)"/>
       <use xlink:href="#DejaVuSans-35" transform="translate(95.410156 0)"/>
      </g>
     </g>
    </g>
    <g id="ytick_6">
     <g id="line2d_12">
      <g>
       <use xlink:href="#ma5d2421500" x="57.6" y="110.518823" style="stroke: #000000; stroke-width: 0.8"/>
      </g>
     </g>
     <g id="text_13">
      <!-- 5.0 -->
      <g transform="translate(34.696875 114.318042) scale(0.1 -0.1)">
       <use xlink:href="#DejaVuSans-35"/>
       <use xlink:href="#DejaVuSans-2e" transform="translate(63.623047 0)"/>
       <use xlink:href="#DejaVuSans-30" transform="translate(95.410156 0)"/>
      </g>
     </g>
    </g>
    <g id="ytick_7">
     <g id="line2d_13">
      <g>
       <use xlink:href="#ma5d2421500" x="57.6" y="73.939097" style="stroke: #000000; stroke-width: 0.8"/>
      </g>
     </g>
     <g id="text_14">
      <!-- 7.5 -->
      <g transform="translate(34.696875 77.738316) scale(0.1 -0.1)">
       <use xlink:href="#DejaVuSans-37"/>
       <use xlink:href="#DejaVuSans-2e" transform="translate(63.623047 0)"/>
       <use xlink:href="#DejaVuSans-35" transform="translate(95.410156 0)"/>
      </g>
     </g>
    </g>
    <g id="text_15">
     <!-- action -->
     <g transform="translate(20.2375 189.918625) rotate(-90) scale(0.1 -0.1)">
      <defs>
       <path id="DejaVuSans-61" d="M 2194 1759 
Q 1497 1759 1228 1600 
Q 959 1441 959 1056 
Q 959 750 1161 570 
Q 1363 391 1709 391 
Q 2188 391 2477 730 
Q 2766 1069 2766 1631 
L 2766 1759 
L 2194 1759 
z
M 3341 1997 
L 3341 0 
L 2766 0 
L 2766 531 
Q 2569 213 2275 61 
Q 1981 -91 1556 -91 
Q 1019 -91 701 211 
Q 384 513 384 1019 
Q 384 1609 779 1909 
Q 1175 2209 1959 2209 
L 2766 2209 
L 2766 2266 
Q 2766 2663 2505 2880 
Q 2244 3097 1772 3097 
Q 1472 3097 1187 3025 
Q 903 2953 641 2809 
L 641 3341 
Q 956 3463 1253 3523 
Q 1550 3584 1831 3584 
Q 2591 3584 2966 3190 
Q 3341 2797 3341 1997 
z
" transform="scale(0.015625)"/>
       <path id="DejaVuSans-63" d="M 3122 3366 
L 3122 2828 
Q 2878 2963 2633 3030 
Q 2388 3097 2138 3097 
Q 1578 3097 1268 2742 
Q 959 2388 959 1747 
Q 959 1106 1268 751 
Q 1578 397 2138 397 
Q 2388 397 2633 464 
Q 2878 531 3122 666 
L 3122 134 
Q 2881 22 2623 -34 
Q 2366 -91 2075 -91 
Q 1284 -91 818 406 
Q 353 903 353 1747 
Q 353 2603 823 3093 
Q 1294 3584 2113 3584 
Q 2378 3584 2631 3529 
Q 2884 3475 3122 3366 
z
" transform="scale(0.015625)"/>
       <path id="DejaVuSans-6f" d="M 1959 3097 
Q 1497 3097 1228 2736 
Q 959 2375 959 1747 
Q 959 1119 1226 758 
Q 1494 397 1959 397 
Q 2419 397 2687 759 
Q 2956 1122 2956 1747 
Q 2956 2369 2687 2733 
Q 2419 3097 1959 3097 
z
M 1959 3584 
Q 2709 3584 3137 3096 
Q 3566 2609 3566 1747 
Q 3566 888 3137 398 
Q 2709 -91 1959 -91 
Q 1206 -91 779 398 
Q 353 888 353 1747 
Q 353 2609 779 3096 
Q 1206 3584 1959 3584 
z
" transform="scale(0.015625)"/>
       <path id="DejaVuSans-6e" d="M 3513 2113 
L 3513 0 
L 2938 0 
L 2938 2094 
Q 2938 2591 2744 2837 
Q 2550 3084 2163 3084 
Q 1697 3084 1428 2787 
Q 1159 2491 1159 1978 
L 1159 0 
L 581 0 
L 581 3500 
L 1159 3500 
L 1159 2956 
Q 1366 3272 1645 3428 
Q 1925 3584 2291 3584 
Q 2894 3584 3203 3211 
Q 3513 2838 3513 2113 
z
" transform="scale(0.015625)"/>
      </defs>
      <use xlink:href="#DejaVuSans-61"/>
      <use xlink:href="#DejaVuSans-63" transform="translate(61.279297 0)"/>
      <use xlink:href="#DejaVuSans-74" transform="translate(116.259766 0)"/>
      <use xlink:href="#DejaVuSans-69" transform="translate(155.46875 0)"/>
      <use xlink:href="#DejaVuSans-6f" transform="translate(183.251953 0)"/>
      <use xlink:href="#DejaVuSans-6e" transform="translate(244.433594 0)"/>
     </g>
    </g>
   </g>
   <g id="line2d_14">
    <path d="M 73.832727 176.060872 
L 74.158032 133.94042 
L 74.483338 135.134797 
L 74.808643 135.139447 
L 75.133948 134.992319 
L 75.459253 131.516398 
L 75.784558 131.851679 
L 76.109863 123.104254 
L 76.435169 121.392132 
L 76.760474 121.263657 
L 77.085779 122.232746 
L 77.411084 122.739006 
L 77.736389 122.873788 
L 79.362915 123.027778 
L 80.013525 123.334356 
L 80.989441 124.111778 
L 83.266577 126.509717 
L 83.591882 127.101777 
L 83.917188 128.056685 
L 84.242493 129.598518 
L 84.567797 131.954123 
L 85.869019 144.463504 
L 86.194324 145.313023 
L 86.844933 145.469005 
L 87.170239 146.460197 
L 87.820849 149.522847 
L 88.146155 151.909668 
L 88.47146 152.795852 
L 88.796764 151.865211 
L 89.447375 146.976211 
L 90.097986 162.663335 
L 90.423291 163.899639 
L 90.748596 164.063855 
L 91.399205 206.994105 
L 91.724512 213.01909 
L 92.049817 216.386212 
L 92.700427 232.023639 
L 93.025731 235.474512 
L 93.351036 235.921094 
L 93.676343 235.23049 
L 94.977563 230.858408 
L 95.628172 229.837718 
L 96.278784 229.471096 
L 96.929394 229.490506 
L 97.580003 229.839609 
L 98.230615 230.552452 
L 98.881225 231.64511 
L 99.531835 233.090444 
L 100.507751 235.959747 
L 101.483666 238.951755 
L 102.459582 240.872789 
L 102.784887 241.300495 
L 103.110192 241.502222 
L 103.435497 241.433596 
L 105.062023 240.014018 
L 106.363244 237.572351 
L 107.339159 235.889237 
L 107.664464 235.595124 
L 108.315074 234.328364 
L 108.640378 235.056871 
L 109.941602 241.344827 
L 110.266907 241.304689 
L 110.592211 239.028161 
L 111.242821 236.335366 
L 111.568126 232.804867 
L 111.893431 225.101142 
L 112.218736 221.448022 
L 112.544041 219.440298 
L 113.19465 202.817435 
L 114.170569 154.693416 
L 114.821178 146.236499 
L 115.146483 144.759825 
L 115.471788 144.194086 
L 115.797093 142.461267 
L 116.447703 136.330381 
L 116.773008 134.484793 
L 117.423617 132.569741 
L 117.748926 131.832458 
L 118.074231 131.553725 
L 118.399536 131.861779 
L 119.050146 133.399729 
L 119.700755 134.845711 
L 120.02606 135.155264 
L 120.351365 135.071048 
L 120.67667 134.598979 
L 121.001975 133.753042 
L 121.32728 132.539238 
L 121.652584 130.839944 
L 122.303198 126.068866 
L 122.628503 124.800934 
L 122.953808 125.009938 
L 123.279113 125.790814 
L 123.604417 126.282482 
L 123.929722 126.511569 
L 124.255027 128.003349 
L 124.580332 132.548168 
L 125.230942 143.929782 
L 125.881551 149.950972 
L 126.532165 153.318944 
L 126.85747 156.878073 
L 128.158689 184.724914 
L 128.809299 206.181209 
L 129.134604 213.195267 
L 129.459909 217.275654 
L 129.785214 219.495626 
L 130.110522 220.597525 
L 130.435827 221.049326 
L 130.761132 221.133801 
L 131.737047 220.703311 
L 132.062352 220.797585 
L 132.387656 221.275958 
L 132.712961 222.233321 
L 133.363571 225.276799 
L 134.014181 228.426781 
L 134.664794 230.464164 
L 134.990099 230.993435 
L 135.315404 231.253186 
L 135.640709 231.313925 
L 136.291319 231.11292 
L 138.243148 230.256127 
L 139.544371 230.005181 
L 140.845591 229.989196 
L 141.821505 230.152239 
L 142.79742 230.553219 
L 143.448029 231.021294 
L 144.098639 231.69644 
L 145.074562 233.069108 
L 146.375781 234.920599 
L 147.026391 235.436833 
L 147.351696 235.506125 
L 147.677 235.404369 
L 148.002305 235.083505 
L 148.32761 234.485047 
L 148.652915 233.5515 
L 149.303525 230.567041 
L 149.954134 226.157021 
L 150.604744 220.271213 
L 152.231268 203.425663 
L 152.881878 199.612276 
L 153.207191 198.667331 
L 153.532496 198.371093 
L 153.857801 198.712881 
L 154.183105 199.66768 
L 154.833715 203.220725 
L 155.80963 211.360577 
L 157.110849 222.805668 
L 157.761459 227.273674 
L 158.412069 230.619236 
L 159.062678 232.961899 
L 159.713288 234.534542 
L 160.363898 235.577207 
L 161.014507 236.282379 
L 161.99043 236.982297 
L 163.291649 237.575086 
L 164.592869 237.917334 
L 165.894088 237.992177 
L 167.195308 237.790575 
L 170.448364 237.017629 
L 171.749583 236.99952 
L 175.653242 237.167764 
L 177.279766 236.912195 
L 178.906298 236.418263 
L 180.532822 235.694138 
L 182.159347 234.716259 
L 183.785871 233.435503 
L 185.412395 231.811328 
L 187.364232 229.46601 
L 190.291976 225.907585 
L 191.593195 224.670202 
L 192.894415 223.7657 
L 193.870329 223.334924 
L 194.846252 223.145352 
L 195.822166 223.225043 
L 196.798081 223.586851 
L 197.773995 224.214501 
L 199.075215 225.382334 
L 201.027044 227.523797 
L 203.954796 230.723487 
L 205.906625 232.525946 
L 207.858454 234.014726 
L 209.810283 235.223956 
L 212.087425 236.373638 
L 214.364551 237.298164 
L 215.991083 237.761258 
L 217.292303 237.942252 
L 218.593522 237.896971 
L 219.894741 237.581655 
L 221.195961 236.968894 
L 222.49718 236.052221 
L 223.798415 234.852032 
L 225.424932 233.043167 
L 229.003293 228.937772 
L 230.304513 227.836099 
L 231.280419 227.246463 
L 232.256342 226.875735 
L 233.232264 226.721553 
L 234.208171 226.769367 
L 235.50939 227.10641 
L 236.81061 227.691605 
L 238.762439 228.870185 
L 244.943239 232.89269 
L 247.220381 234.042275 
L 249.497523 234.943086 
L 251.449352 235.493211 
L 253.401181 235.799226 
L 255.027697 235.83654 
L 256.654229 235.657858 
L 258.280762 235.264786 
L 260.232591 234.549103 
L 263.485639 233.035444 
L 266.088078 231.910021 
L 268.039907 231.313276 
L 269.666439 231.034048 
L 271.292956 230.958989 
L 273.244785 231.109732 
L 275.521927 231.537863 
L 279.100288 232.493493 
L 283.654556 233.684335 
L 286.582308 234.214325 
L 289.184747 234.458091 
L 291.787185 234.472865 
L 294.714937 234.246628 
L 298.943908 233.65453 
L 303.498176 233.065358 
L 306.751225 232.877097 
L 310.004273 232.923393 
L 314.233244 233.241779 
L 323.667093 234.041758 
L 328.221361 234.133733 
L 333.751551 233.994095 
L 343.1854 233.732198 
L 349.366216 233.819795 
L 366.607381 234.216044 
L 394.583614 234.347949 
L 398.487273 234.390617 
L 398.487273 234.390617 
" clip-path="url(#p349318c0f9)" style="fill: none; stroke: #1f77b4; stroke-width: 1.5; stroke-linecap: square"/>
   </g>
   <g id="line2d_15">
    <path d="M 73.832727 72.289811 
L 74.158032 225.093659 
L 74.483338 226.570919 
L 74.808643 226.631044 
L 75.133948 226.445856 
L 75.459253 219.997798 
L 75.784558 185.234106 
L 76.109863 175.345192 
L 76.435169 136.701887 
L 76.760474 137.205311 
L 77.085779 138.816952 
L 77.411084 139.314243 
L 78.061694 139.465771 
L 79.03761 139.545187 
L 80.013525 139.870156 
L 82.615966 141.118562 
L 82.941272 141.074659 
L 83.266577 140.876683 
L 83.591882 140.405423 
L 83.917188 139.400309 
L 84.242493 137.329174 
L 84.567797 133.347397 
L 85.218408 118.817009 
L 85.869019 104.715526 
L 86.194324 100.310551 
L 86.519628 97.600973 
L 86.844933 96.328879 
L 87.170239 96.350612 
L 87.495544 96.721051 
L 87.820849 96.420452 
L 88.146155 96.292312 
L 88.47146 98.672847 
L 88.796764 103.428124 
L 89.77268 128.33781 
L 90.097986 133.042484 
L 90.423291 129.719164 
L 90.748596 124.138368 
L 91.399205 157.206576 
L 91.724512 160.062515 
L 92.049817 160.525453 
L 92.375122 154.880095 
L 92.700427 143.979528 
L 93.025731 138.209741 
L 93.351036 137.062487 
L 93.676343 137.729987 
L 94.977563 142.286294 
L 95.628172 143.265318 
L 96.278784 143.565525 
L 96.929394 143.464233 
L 97.580003 143.080022 
L 98.881225 142.112461 
L 99.20653 142.044924 
L 99.531835 142.155119 
L 99.857139 142.517307 
L 100.182446 143.215292 
L 100.507751 144.325986 
L 101.158361 147.843895 
L 102.134277 154.031327 
L 103.110192 159.353858 
L 104.086108 165.536893 
L 104.411413 166.783304 
L 105.712633 169.922846 
L 107.013854 174.461793 
L 107.339159 175.735022 
L 107.664464 177.668769 
L 107.989769 181.274888 
L 109.941602 210.960991 
L 110.592211 218.563763 
L 110.917516 221.355587 
L 111.242821 222.610346 
L 111.568126 225.923134 
L 111.893431 240.901577 
L 112.218736 248.495141 
L 112.544041 245.221115 
L 112.869345 239.469039 
L 113.19465 236.137466 
L 114.170569 191.092024 
L 114.495874 186.70457 
L 114.821178 185.542866 
L 115.146483 188.132594 
L 115.471788 193.903133 
L 116.122398 208.431622 
L 116.447703 210.842161 
L 116.773008 209.366947 
L 117.098312 204.648156 
L 118.724841 168.675743 
L 119.37545 163.455045 
L 120.02606 160.282609 
L 120.67667 157.628367 
L 121.32728 154.158888 
L 121.652584 153.893552 
L 122.303198 157.744315 
L 122.628503 157.948566 
L 124.255027 145.064707 
L 124.580332 135.521356 
L 124.905637 120.563003 
L 125.230942 111.038793 
L 125.556247 108.835971 
L 125.881551 111.115792 
L 126.532165 121.641066 
L 127.182775 135.301709 
L 128.483994 164.75845 
L 129.134604 183.957361 
L 129.785214 193.689679 
L 130.435827 198.522655 
L 131.086437 200.816319 
L 131.411742 201.364234 
L 131.737047 201.554279 
L 132.062352 201.350941 
L 132.387656 200.726737 
L 133.038266 198.392295 
L 133.688876 195.064688 
L 134.339489 190.494836 
L 134.990099 183.740764 
L 136.616624 163.744384 
L 137.267233 158.838184 
L 137.917843 155.578394 
L 138.568457 153.36883 
L 139.219066 151.799815 
L 140.194981 150.10716 
L 141.821505 147.954579 
L 143.122725 146.161643 
L 144.098639 144.480259 
L 145.399866 141.720847 
L 148.002305 135.960515 
L 148.652915 133.3213 
L 149.303525 129.033915 
L 149.954134 122.943545 
L 151.905964 101.653412 
L 152.556573 98.017969 
L 152.881878 97.13243 
L 153.207191 96.76982 
L 153.532496 96.848186 
L 153.857801 97.294018 
L 154.50841 99.056165 
L 155.15902 101.682932 
L 156.460239 108.279532 
L 159.062678 121.704103 
L 160.038593 125.288897 
L 160.689203 126.892742 
L 161.33982 127.906986 
L 161.99043 128.432021 
L 162.641039 128.588907 
L 163.291649 128.499681 
L 165.568783 127.872324 
L 166.219393 128.008299 
L 166.870003 128.40539 
L 167.520612 129.070036 
L 168.496527 130.47621 
L 171.424278 135.19098 
L 172.400193 136.300027 
L 173.376108 137.099173 
L 174.352022 137.61765 
L 175.327937 137.888756 
L 176.303851 137.940013 
L 177.279766 137.793677 
L 178.580993 137.326453 
L 179.882213 136.596792 
L 181.508737 135.417876 
L 186.063005 131.938802 
L 187.689537 131.051212 
L 189.316061 130.440359 
L 190.617281 130.186911 
L 191.9185 130.178685 
L 193.21972 130.407208 
L 196.798081 131.26579 
L 198.0993 131.257924 
L 199.725825 130.981703 
L 205.906625 129.593731 
L 207.858454 129.502102 
L 209.484986 129.635105 
L 211.762112 130.070311 
L 214.689864 130.640537 
L 216.316396 130.750816 
L 217.942912 130.658681 
L 219.894741 130.322245 
L 227.051464 128.804636 
L 229.32859 128.754639 
L 235.184093 128.806496 
L 238.111829 128.525245 
L 244.943239 127.768045 
L 248.5216 127.672582 
L 255.678307 127.566514 
L 282.028024 126.249041 
L 295.040234 125.910195 
L 319.763434 125.358821 
L 338.956429 125.199864 
L 363.354317 125.181653 
L 390.354643 125.441352 
L 398.487273 125.564804 
L 398.487273 125.564804 
" clip-path="url(#p349318c0f9)" style="fill: none; stroke: #ff7f0e; stroke-width: 1.5; stroke-linecap: square"/>
   </g>
   <g id="line2d_16">
    <path d="M 73.832727 150.426181 
L 74.158032 87.504256 
L 74.483338 90.743425 
L 74.808643 90.774417 
L 75.133948 90.329555 
L 75.459253 83.095583 
L 75.784558 59.432598 
L 76.109863 53.568 
L 76.435169 107.293538 
L 76.760474 104.430947 
L 77.085779 100.087495 
L 77.411084 98.799096 
L 77.736389 98.489176 
L 79.03761 98.203683 
L 79.68822 97.729127 
L 81.640051 95.981255 
L 82.290661 95.870565 
L 82.615966 96.010259 
L 82.941272 96.35738 
L 83.266577 97.04168 
L 83.591882 98.310278 
L 83.917188 100.59372 
L 84.242493 104.546863 
L 84.567797 111.019955 
L 85.218408 133.32438 
L 86.194324 171.546738 
L 86.519628 178.092846 
L 86.844933 181.715467 
L 87.495544 185.018133 
L 87.820849 190.531168 
L 88.47146 207.052874 
L 89.12207 217.135736 
L 89.447375 220.617124 
L 90.748596 245.387726 
L 91.0739 257.5106 
L 91.399205 263.625262 
L 91.724512 261.897191 
L 92.049817 261.967115 
L 92.700427 270.638264 
L 93.025731 270.625754 
L 94.001648 268.959417 
L 94.652258 267.753095 
L 95.302867 266.972798 
L 95.953479 266.566582 
L 97.580003 265.957669 
L 98.230615 265.923753 
L 98.881225 266.201041 
L 100.182446 267.203347 
L 100.833056 268.03914 
L 101.483666 269.769171 
L 102.459582 273.380781 
L 103.110192 276.69136 
L 104.736718 287.920421 
L 106.037938 291.821369 
L 107.339159 295.488 
L 107.664464 295.364653 
L 107.989769 292.913783 
L 108.315074 288.814269 
L 108.640378 287.410247 
L 108.965683 287.333765 
L 109.290992 285.095771 
L 110.266907 269.575035 
L 110.592211 268.916975 
L 110.917516 267.852748 
L 111.242821 260.655119 
L 111.568126 240.619164 
L 112.218736 175.260064 
L 112.869345 137.136161 
L 113.519959 113.172285 
L 113.845264 105.299999 
L 114.495874 101.441904 
L 114.821178 97.40189 
L 115.146483 95.698358 
L 116.122398 95.405643 
L 116.447703 94.821303 
L 116.773008 93.289901 
L 117.098312 90.371787 
L 118.724841 69.235198 
L 119.050146 67.604806 
L 119.700755 65.872577 
L 120.02606 65.490026 
L 121.001975 65.212648 
L 121.652584 64.168828 
L 121.977893 63.282732 
L 122.303198 62.966114 
L 122.628503 65.244295 
L 123.279113 74.483647 
L 123.929722 78.491615 
L 124.255027 85.297861 
L 124.580332 100.823544 
L 125.230942 141.331889 
L 125.881551 159.484046 
L 128.158689 214.766903 
L 128.809299 229.091148 
L 129.134604 233.866213 
L 129.459909 236.821211 
L 129.785214 238.599691 
L 130.110522 239.634552 
L 130.435827 240.19457 
L 130.761132 240.450201 
L 131.411742 240.479484 
L 132.062352 240.488512 
L 132.387656 240.746453 
L 132.712961 241.278005 
L 133.363571 243.017015 
L 134.990099 248.401991 
L 137.592538 258.979698 
L 138.243148 260.697617 
L 138.893761 261.975676 
L 139.869676 263.29035 
L 140.845591 264.166114 
L 144.749257 267.125693 
L 146.050476 268.352631 
L 146.701086 268.742326 
L 147.351696 268.795491 
L 147.677 268.630624 
L 148.002305 268.289043 
L 148.32761 267.730573 
L 148.97822 265.894122 
L 149.954134 261.988786 
L 150.930049 257.427483 
L 152.231268 249.923542 
L 154.183105 237.469719 
L 155.80963 226.990494 
L 156.460239 223.806631 
L 157.110849 221.733581 
L 157.436154 221.149088 
L 157.761459 220.847812 
L 158.086764 220.799629 
L 158.412069 220.967957 
L 159.062678 221.803547 
L 160.038593 223.818583 
L 162.315735 229.506529 
L 168.821832 245.752506 
L 170.123059 248.241617 
L 171.424278 250.208016 
L 172.725498 251.724864 
L 174.026717 252.915006 
L 175.978547 254.347787 
L 178.906298 256.181651 
L 181.508737 257.599425 
L 183.785871 258.609224 
L 186.388318 259.522462 
L 188.990756 260.201647 
L 190.617281 260.439606 
L 192.243805 260.442815 
L 193.545025 260.233993 
L 195.171557 259.725947 
L 201.027044 257.547397 
L 202.653568 257.291577 
L 204.930702 257.193871 
L 207.858454 257.093618 
L 209.484986 256.823565 
L 211.111502 256.316747 
L 213.063332 255.443746 
L 216.316396 253.955253 
L 217.942912 253.49569 
L 219.569444 253.289254 
L 221.521274 253.300724 
L 224.774322 253.604329 
L 237.461219 254.885709 
L 240.714284 255.004738 
L 243.316722 254.890872 
L 245.593849 254.571213 
L 247.87099 254.031135 
L 251.124039 252.998423 
L 255.027697 251.792464 
L 257.630152 251.212569 
L 260.557888 250.787068 
L 264.136249 250.49854 
L 269.01583 250.350187 
L 276.497849 250.146632 
L 280.401508 249.794432 
L 284.630478 249.171523 
L 298.943908 246.82482 
L 306.100615 246.032676 
L 316.185073 244.899236 
L 324.643015 243.671517 
L 339.607054 241.4883 
L 360.101284 238.600849 
L 398.487273 232.803056 
L 398.487273 232.803056 
" clip-path="url(#p349318c0f9)" style="fill: none; stroke: #2ca02c; stroke-width: 1.5; stroke-linecap: square"/>
   </g>
   <g id="line2d_17">
    <path d="M 73.832727 168.473683 
L 74.483338 179.82685 
L 74.808643 179.919489 
L 75.133948 178.927965 
L 75.459253 163.559627 
L 75.784558 120.157784 
L 76.109863 96.721469 
L 76.435169 83.770094 
L 76.760474 83.205052 
L 77.085779 82.176945 
L 77.411084 81.693939 
L 78.061694 81.561348 
L 79.03761 81.512606 
L 80.013525 81.156945 
L 80.989441 80.502074 
L 82.290661 79.598416 
L 82.615966 79.509724 
L 82.941272 79.552438 
L 83.266577 79.808676 
L 83.591882 80.437 
L 83.917188 81.739213 
L 84.242493 84.239578 
L 84.567797 88.681727 
L 86.194324 121.059796 
L 86.519628 122.677678 
L 86.844933 122.509141 
L 88.796764 107.90497 
L 89.447375 104.0825 
L 89.77268 103.883662 
L 90.097986 105.274525 
L 90.748596 116.709485 
L 91.399205 137.183609 
L 91.724512 139.493857 
L 92.049817 142.875085 
L 93.025731 175.428925 
L 93.351036 179.483919 
L 94.001648 183.5212 
L 94.652258 186.232759 
L 95.302867 187.824765 
L 95.953479 188.620489 
L 96.929394 189.570942 
L 97.580003 190.756402 
L 98.230615 192.877739 
L 98.881225 196.015746 
L 100.833056 207.268436 
L 101.483666 212.113673 
L 102.459582 221.442384 
L 103.110192 229.972957 
L 104.086108 244.223637 
L 104.736718 249.634128 
L 106.363244 257.888525 
L 107.339159 264.316295 
L 107.664464 266.284166 
L 107.989769 269.5813 
L 108.640378 279.021876 
L 108.965683 281.356062 
L 109.941602 284.673605 
L 110.266907 285.86397 
L 110.592211 287.923114 
L 110.917516 289.109844 
L 111.242821 288.505738 
L 111.568126 283.591489 
L 111.893431 268.897719 
L 112.218736 261.135788 
L 112.544041 262.180479 
L 112.869345 261.903631 
L 113.19465 253.47097 
L 114.170569 213.703028 
L 115.146483 191.106518 
L 116.773008 171.930845 
L 117.098312 165.399944 
L 118.399536 131.941596 
L 119.050146 124.519711 
L 120.351365 112.893037 
L 120.67667 111.056766 
L 121.32728 108.859504 
L 121.652584 106.892554 
L 122.303198 98.724595 
L 122.953808 91.593625 
L 123.604417 87.654345 
L 123.929722 86.799045 
L 124.255027 87.971521 
L 124.580332 96.250771 
L 125.230942 121.876673 
L 125.556247 123.943185 
L 126.532165 116.501375 
L 126.85747 115.560801 
L 127.182775 116.235766 
L 127.50808 118.308453 
L 127.833385 122.388962 
L 129.459909 152.449791 
L 130.110522 158.121605 
L 130.761132 161.379888 
L 131.411742 164.20052 
L 132.062352 168.038081 
L 132.712961 173.475282 
L 133.688876 182.167199 
L 134.339489 186.021966 
L 134.990099 188.213728 
L 135.640709 189.342712 
L 136.291319 189.840584 
L 136.941928 189.975879 
L 137.917843 189.882553 
L 140.520286 189.278722 
L 141.821505 188.802242 
L 142.79742 188.218976 
L 143.448029 187.640751 
L 144.423944 186.386973 
L 145.725171 184.135947 
L 147.677 180.517482 
L 148.32761 178.498028 
L 148.97822 175.191365 
L 149.954134 167.878429 
L 151.905964 151.602299 
L 152.556573 148.457535 
L 152.881878 147.723737 
L 153.207191 147.599769 
L 153.532496 148.106448 
L 153.857801 149.251305 
L 154.50841 153.406844 
L 155.15902 159.777043 
L 156.134935 172.059561 
L 158.086764 196.958197 
L 159.062678 206.43346 
L 159.713288 211.100967 
L 160.363898 214.383504 
L 161.014507 216.3613 
L 161.33982 216.909321 
L 161.665125 217.195844 
L 161.99043 217.247348 
L 162.315735 217.090958 
L 162.966344 216.261243 
L 163.616954 214.908411 
L 164.592869 212.265451 
L 166.544698 206.082636 
L 169.797754 195.766289 
L 171.424278 191.320178 
L 172.725498 188.300017 
L 174.026717 185.775954 
L 175.327937 183.691375 
L 176.954461 181.537587 
L 179.231603 178.95714 
L 187.038927 170.573267 
L 188.014842 169.906272 
L 188.990756 169.503078 
L 189.966671 169.417718 
L 190.617281 169.555849 
L 191.26789 169.856423 
L 192.243805 170.610355 
L 193.21972 171.704811 
L 194.520939 173.593748 
L 199.40052 181.391007 
L 200.701739 182.809447 
L 201.677654 183.58021 
L 202.653568 184.098894 
L 203.629491 184.380869 
L 204.605405 184.454264 
L 205.906625 184.295186 
L 207.533157 183.836789 
L 211.436815 182.626756 
L 213.713941 182.215776 
L 217.617615 181.576081 
L 219.244132 181.066443 
L 220.870664 180.33895 
L 223.14779 179.027015 
L 226.075542 177.305196 
L 227.376761 176.752671 
L 228.67798 176.436848 
L 229.9792 176.388525 
L 231.280419 176.59235 
L 232.906951 177.120351 
L 235.50939 178.276445 
L 238.437142 179.532469 
L 240.714284 180.258351 
L 242.99141 180.739535 
L 245.919161 181.114445 
L 251.124039 181.530364 
L 254.377088 181.598015 
L 256.979527 181.42422 
L 260.232591 180.939782 
L 264.461546 180.297936 
L 266.738688 180.164801 
L 269.341127 180.25351 
L 272.594175 180.628969 
L 283.003946 182.022319 
L 287.558214 182.329687 
L 292.112498 182.39744 
L 304.799395 182.380322 
L 310.329586 182.749687 
L 322.365873 183.615557 
L 329.847893 183.870605 
L 342.860087 184.284549 
L 376.04123 185.750879 
L 398.487273 186.663452 
L 398.487273 186.663452 
" clip-path="url(#p349318c0f9)" style="fill: none; stroke: #d62728; stroke-width: 1.5; stroke-linecap: square"/>
   </g>
   <g id="patch_3">
    <path d="M 57.6 307.584 
L 57.6 41.472 
" style="fill: none; stroke: #000000; stroke-width: 0.8; stroke-linejoin: miter; stroke-linecap: square"/>
   </g>
   <g id="patch_4">
    <path d="M 414.72 307.584 
L 414.72 41.472 
" style="fill: none; stroke: #000000; stroke-width: 0.8; stroke-linejoin: miter; stroke-linecap: square"/>
   </g>
   <g id="patch_5">
    <path d="M 57.6 307.584 
L 414.72 307.584 
" style="fill: none; stroke: #000000; stroke-width: 0.8; stroke-linejoin: miter; stroke-linecap: square"/>
   </g>
   <g id="patch_6">
    <path d="M 57.6 41.472 
L 414.72 41.472 
" style="fill: none; stroke: #000000; stroke-width: 0.8; stroke-linejoin: miter; stroke-linecap: square"/>
   </g>
   <g id="legend_1">
    <g id="patch_7">
     <path d="M 363.02 108.1845 
L 407.72 108.1845 
Q 409.72 108.1845 409.72 106.1845 
L 409.72 48.472 
Q 409.72 46.472 407.72 46.472 
L 363.02 46.472 
Q 361.02 46.472 361.02 48.472 
L 361.02 106.1845 
Q 361.02 108.1845 363.02 108.1845 
z
" style="fill: #ffffff; opacity: 0.8; stroke: #cccccc; stroke-linejoin: miter"/>
    </g>
    <g id="line2d_18">
     <path d="M 365.02 54.570438 
L 375.02 54.570438 
L 385.02 54.570438 
" style="fill: none; stroke: #1f77b4; stroke-width: 1.5; stroke-linecap: square"/>
    </g>
    <g id="text_16">
     <!-- u0 -->
     <g transform="translate(393.02 58.070438) scale(0.1 -0.1)">
      <defs>
       <path id="DejaVuSans-75" d="M 544 1381 
L 544 3500 
L 1119 3500 
L 1119 1403 
Q 1119 906 1312 657 
Q 1506 409 1894 409 
Q 2359 409 2629 706 
Q 2900 1003 2900 1516 
L 2900 3500 
L 3475 3500 
L 3475 0 
L 2900 0 
L 2900 538 
Q 2691 219 2414 64 
Q 2138 -91 1772 -91 
Q 1169 -91 856 284 
Q 544 659 544 1381 
z
M 1991 3584 
L 1991 3584 
z
" transform="scale(0.015625)"/>
      </defs>
      <use xlink:href="#DejaVuSans-75"/>
      <use xlink:href="#DejaVuSans-30" transform="translate(63.378906 0)"/>
     </g>
    </g>
    <g id="line2d_19">
     <path d="M 365.02 69.248563 
L 375.02 69.248563 
L 385.02 69.248563 
" style="fill: none; stroke: #ff7f0e; stroke-width: 1.5; stroke-linecap: square"/>
    </g>
    <g id="text_17">
     <!-- u1 -->
     <g transform="translate(393.02 72.748563) scale(0.1 -0.1)">
      <use xlink:href="#DejaVuSans-75"/>
      <use xlink:href="#DejaVuSans-31" transform="translate(63.378906 0)"/>
     </g>
    </g>
    <g id="line2d_20">
     <path d="M 365.02 83.926688 
L 375.02 83.926688 
L 385.02 83.926688 
" style="fill: none; stroke: #2ca02c; stroke-width: 1.5; stroke-linecap: square"/>
    </g>
    <g id="text_18">
     <!-- u2 -->
     <g transform="translate(393.02 87.426688) scale(0.1 -0.1)">
      <use xlink:href="#DejaVuSans-75"/>
      <use xlink:href="#DejaVuSans-32" transform="translate(63.378906 0)"/>
     </g>
    </g>
    <g id="line2d_21">
     <path d="M 365.02 98.604813 
L 375.02 98.604813 
L 385.02 98.604813 
" style="fill: none; stroke: #d62728; stroke-width: 1.5; stroke-linecap: square"/>
    </g>
    <g id="text_19">
     <!-- u3 -->
     <g transform="translate(393.02 102.104813) scale(0.1 -0.1)">
      <defs>
       <path id="DejaVuSans-33" d="M 2597 2516 
Q 3050 2419 3304 2112 
Q 3559 1806 3559 1356 
Q 3559 666 3084 287 
Q 2609 -91 1734 -91 
Q 1441 -91 1130 -33 
Q 819 25 488 141 
L 488 750 
Q 750 597 1062 519 
Q 1375 441 1716 441 
Q 2309 441 2620 675 
Q 2931 909 2931 1356 
Q 2931 1769 2642 2001 
Q 2353 2234 1838 2234 
L 1294 2234 
L 1294 2753 
L 1863 2753 
Q 2328 2753 2575 2939 
Q 2822 3125 2822 3475 
Q 2822 3834 2567 4026 
Q 2313 4219 1838 4219 
Q 1578 4219 1281 4162 
Q 984 4106 628 3988 
L 628 4550 
Q 988 4650 1302 4700 
Q 1616 4750 1894 4750 
Q 2613 4750 3031 4423 
Q 3450 4097 3450 3541 
Q 3450 3153 3228 2886 
Q 3006 2619 2597 2516 
z
" transform="scale(0.015625)"/>
      </defs>
      <use xlink:href="#DejaVuSans-75"/>
      <use xlink:href="#DejaVuSans-33" transform="translate(63.378906 0)"/>
     </g>
    </g>
   </g>
  </g>
 </g>
 <defs>
  <clipPath id="p349318c0f9">
   <rect x="57.6" y="41.472" width="357.12" height="266.112"/>
  </clipPath>
 </defs>
</svg>
