<?xml version="1.0" encoding="utf-8" standalone="no"?>
<!DOCTYPE svg PUBLIC "-//W3C//DTD SVG 1.1//EN"
  "http://www.w3.org/Graphics/SVG/1.1/DTD/svg11.dtd">
<svg xmlns:xlink="http://www.w3.org/1999/xlink" width="460.8pt" height="345.6pt" viewBox="0 0 460.8 345.6" xmlns="http://www.w3.org/2000/svg" version="1.1">
 <metadata>
  <rdf:RDF xmlns:dc="http://purl.org/dc/elements/1.1/" xmlns:cc="http://creativecommons.org/ns#" xmlns:rdf="http://www.w3.org/1999/02/22-rdf-syntax-ns#">
   <cc:Work>
    <dc:type rdf:resource="http://purl.org/dc/dcmitype/StillImage"/>
    <dc:date>2025-05-10T03:35:35.019195</dc:date>
    <dc:format>image/svg+xml</dc:format>
    <dc:creator>
     <cc:Agent>
      <dc:title>Matplotlib v3.10.0, https://matplotlib.org/</dc:title>
     </cc:Agent>
    </dc:creator>
   </cc:Work>
  </rdf:RDF>
 </metadata>
 <defs>
  <style type="text/css">*{stroke-linejoin: round; stroke-linecap: butt}</style>
 </defs>
 <g id="figure_1">
  <g id="patch_1">
   <path d="M 0 345.6 
L 460.8 345.6 
L 460.8 0 
L 0 0 
z
" style="fill: #ffffff"/>
  </g>
  <g id="axes_1">
   <g id="patch_2">
    <path d="M 57.6 307.584 
L 414.72 307.584 
L 414.72 41.472 
L 57.6 41.472 
z
" style="fill: #ffffff"/>
   </g>
   <g id="matplotlib.axis_1">
    <g id="xtick_1">
     <g id="line2d_1">
      <defs>
       <path id="m8dad93ef47" d="M 0 0 
L 0 3.5 
" style="stroke: #000000; stroke-width: 0.8"/>
      </defs>
      <g>
       <use xlink:href="#m8dad93ef47" x="73.832727" y="307.584" style="stroke: #000000; stroke-width: 0.8"/>
      </g>
     </g>
     <g id="text_1">
      <!-- 0 -->
      <g transform="translate(70.651477 322.182437) scale(0.1 -0.1)">
       <defs>
        <path id="DejaVuSans-30" d="M 2034 4250 
Q 1547 4250 1301 3770 
Q 1056 3291 1056 2328 
Q 1056 1369 1301 889 
Q 1547 409 2034 409 
Q 2525 409 2770 889 
Q 3016 1369 3016 2328 
Q 3016 3291 2770 3770 
Q 2525 4250 2034 4250 
z
M 2034 4750 
Q 2819 4750 3233 4129 
Q 3647 3509 3647 2328 
Q 3647 1150 3233 529 
Q 2819 -91 2034 -91 
Q 1250 -91 836 529 
Q 422 1150 422 2328 
Q 422 3509 836 4129 
Q 1250 4750 2034 4750 
z
" transform="scale(0.015625)"/>
       </defs>
       <use xlink:href="#DejaVuSans-30"/>
      </g>
     </g>
    </g>
    <g id="xtick_2">
     <g id="line2d_2">
      <g>
       <use xlink:href="#m8dad93ef47" x="138.763636" y="307.584" style="stroke: #000000; stroke-width: 0.8"/>
      </g>
     </g>
     <g id="text_2">
      <!-- 2 -->
      <g transform="translate(135.582386 322.182437) scale(0.1 -0.1)">
       <defs>
        <path id="DejaVuSans-32" d="M 1228 531 
L 3431 531 
L 3431 0 
L 469 0 
L 469 531 
Q 828 903 1448 1529 
Q 2069 2156 2228 2338 
Q 2531 2678 2651 2914 
Q 2772 3150 2772 3378 
Q 2772 3750 2511 3984 
Q 2250 4219 1831 4219 
Q 1534 4219 1204 4116 
Q 875 4013 500 3803 
L 500 4441 
Q 881 4594 1212 4672 
Q 1544 4750 1819 4750 
Q 2544 4750 2975 4387 
Q 3406 4025 3406 3419 
Q 3406 3131 3298 2873 
Q 3191 2616 2906 2266 
Q 2828 2175 2409 1742 
Q 1991 1309 1228 531 
z
" transform="scale(0.015625)"/>
       </defs>
       <use xlink:href="#DejaVuSans-32"/>
      </g>
     </g>
    </g>
    <g id="xtick_3">
     <g id="line2d_3">
      <g>
       <use xlink:href="#m8dad93ef47" x="203.694545" y="307.584" style="stroke: #000000; stroke-width: 0.8"/>
      </g>
     </g>
     <g id="text_3">
      <!-- 4 -->
      <g transform="translate(200.513295 322.182437) scale(0.1 -0.1)">
       <defs>
        <path id="DejaVuSans-34" d="M 2419 4116 
L 825 1625 
L 2419 1625 
L 2419 4116 
z
M 2253 4666 
L 3047 4666 
L 3047 1625 
L 3713 1625 
L 3713 1100 
L 3047 1100 
L 3047 0 
L 2419 0 
L 2419 1100 
L 313 1100 
L 313 1709 
L 2253 4666 
z
" transform="scale(0.015625)"/>
       </defs>
       <use xlink:href="#DejaVuSans-34"/>
      </g>
     </g>
    </g>
    <g id="xtick_4">
     <g id="line2d_4">
      <g>
       <use xlink:href="#m8dad93ef47" x="268.625455" y="307.584" style="stroke: #000000; stroke-width: 0.8"/>
      </g>
     </g>
     <g id="text_4">
      <!-- 6 -->
      <g transform="translate(265.444205 322.182437) scale(0.1 -0.1)">
       <defs>
        <path id="DejaVuSans-36" d="M 2113 2584 
Q 1688 2584 1439 2293 
Q 1191 2003 1191 1497 
Q 1191 994 1439 701 
Q 1688 409 2113 409 
Q 2538 409 2786 701 
Q 3034 994 3034 1497 
Q 3034 2003 2786 2293 
Q 2538 2584 2113 2584 
z
M 3366 4563 
L 3366 3988 
Q 3128 4100 2886 4159 
Q 2644 4219 2406 4219 
Q 1781 4219 1451 3797 
Q 1122 3375 1075 2522 
Q 1259 2794 1537 2939 
Q 1816 3084 2150 3084 
Q 2853 3084 3261 2657 
Q 3669 2231 3669 1497 
Q 3669 778 3244 343 
Q 2819 -91 2113 -91 
Q 1303 -91 875 529 
Q 447 1150 447 2328 
Q 447 3434 972 4092 
Q 1497 4750 2381 4750 
Q 2619 4750 2861 4703 
Q 3103 4656 3366 4563 
z
" transform="scale(0.015625)"/>
       </defs>
       <use xlink:href="#DejaVuSans-36"/>
      </g>
     </g>
    </g>
    <g id="xtick_5">
     <g id="line2d_5">
      <g>
       <use xlink:href="#m8dad93ef47" x="333.556364" y="307.584" style="stroke: #000000; stroke-width: 0.8"/>
      </g>
     </g>
     <g id="text_5">
      <!-- 8 -->
      <g transform="translate(330.375114 322.182437) scale(0.1 -0.1)">
       <defs>
        <path id="DejaVuSans-38" d="M 2034 2216 
Q 1584 2216 1326 1975 
Q 1069 1734 1069 1313 
Q 1069 891 1326 650 
Q 1584 409 2034 409 
Q 2484 409 2743 651 
Q 3003 894 3003 1313 
Q 3003 1734 2745 1975 
Q 2488 2216 2034 2216 
z
M 1403 2484 
Q 997 2584 770 2862 
Q 544 3141 544 3541 
Q 544 4100 942 4425 
Q 1341 4750 2034 4750 
Q 2731 4750 3128 4425 
Q 3525 4100 3525 3541 
Q 3525 3141 3298 2862 
Q 3072 2584 2669 2484 
Q 3125 2378 3379 2068 
Q 3634 1759 3634 1313 
Q 3634 634 3220 271 
Q 2806 -91 2034 -91 
Q 1263 -91 848 271 
Q 434 634 434 1313 
Q 434 1759 690 2068 
Q 947 2378 1403 2484 
z
M 1172 3481 
Q 1172 3119 1398 2916 
Q 1625 2713 2034 2713 
Q 2441 2713 2670 2916 
Q 2900 3119 2900 3481 
Q 2900 3844 2670 4047 
Q 2441 4250 2034 4250 
Q 1625 4250 1398 4047 
Q 1172 3844 1172 3481 
z
" transform="scale(0.015625)"/>
       </defs>
       <use xlink:href="#DejaVuSans-38"/>
      </g>
     </g>
    </g>
    <g id="xtick_6">
     <g id="line2d_6">
      <g>
       <use xlink:href="#m8dad93ef47" x="398.487273" y="307.584" style="stroke: #000000; stroke-width: 0.8"/>
      </g>
     </g>
     <g id="text_6">
      <!-- 10 -->
      <g transform="translate(392.124773 322.182437) scale(0.1 -0.1)">
       <defs>
        <path id="DejaVuSans-31" d="M 794 531 
L 1825 531 
L 1825 4091 
L 703 3866 
L 703 4441 
L 1819 4666 
L 2450 4666 
L 2450 531 
L 3481 531 
L 3481 0 
L 794 0 
L 794 531 
z
" transform="scale(0.015625)"/>
       </defs>
       <use xlink:href="#DejaVuSans-31"/>
       <use xlink:href="#DejaVuSans-30" transform="translate(63.623047 0)"/>
      </g>
     </g>
    </g>
    <g id="text_7">
     <!-- time -->
     <g transform="translate(224.863906 335.860562) scale(0.1 -0.1)">
      <defs>
       <path id="DejaVuSans-74" d="M 1172 4494 
L 1172 3500 
L 2356 3500 
L 2356 3053 
L 1172 3053 
L 1172 1153 
Q 1172 725 1289 603 
Q 1406 481 1766 481 
L 2356 481 
L 2356 0 
L 1766 0 
Q 1100 0 847 248 
Q 594 497 594 1153 
L 594 3053 
L 172 3053 
L 172 3500 
L 594 3500 
L 594 4494 
L 1172 4494 
z
" transform="scale(0.015625)"/>
       <path id="DejaVuSans-69" d="M 603 3500 
L 1178 3500 
L 1178 0 
L 603 0 
L 603 3500 
z
M 603 4863 
L 1178 4863 
L 1178 4134 
L 603 4134 
L 603 4863 
z
" transform="scale(0.015625)"/>
       <path id="DejaVuSans-6d" d="M 3328 2828 
Q 3544 3216 3844 3400 
Q 4144 3584 4550 3584 
Q 5097 3584 5394 3201 
Q 5691 2819 5691 2113 
L 5691 0 
L 5113 0 
L 5113 2094 
Q 5113 2597 4934 2840 
Q 4756 3084 4391 3084 
Q 3944 3084 3684 2787 
Q 3425 2491 3425 1978 
L 3425 0 
L 2847 0 
L 2847 2094 
Q 2847 2600 2669 2842 
Q 2491 3084 2119 3084 
Q 1678 3084 1418 2786 
Q 1159 2488 1159 1978 
L 1159 0 
L 581 0 
L 581 3500 
L 1159 3500 
L 1159 2956 
Q 1356 3278 1631 3431 
Q 1906 3584 2284 3584 
Q 2666 3584 2933 3390 
Q 3200 3197 3328 2828 
z
" transform="scale(0.015625)"/>
       <path id="DejaVuSans-65" d="M 3597 1894 
L 3597 1613 
L 953 1613 
Q 991 1019 1311 708 
Q 1631 397 2203 397 
Q 2534 397 2845 478 
Q 3156 559 3463 722 
L 3463 178 
Q 3153 47 2828 -22 
Q 2503 -91 2169 -91 
Q 1331 -91 842 396 
Q 353 884 353 1716 
Q 353 2575 817 3079 
Q 1281 3584 2069 3584 
Q 2775 3584 3186 3129 
Q 3597 2675 3597 1894 
z
M 3022 2063 
Q 3016 2534 2758 2815 
Q 2500 3097 2075 3097 
Q 1594 3097 1305 2825 
Q 1016 2553 972 2059 
L 3022 2063 
z
" transform="scale(0.015625)"/>
      </defs>
      <use xlink:href="#DejaVuSans-74"/>
      <use xlink:href="#DejaVuSans-69" transform="translate(39.208984 0)"/>
      <use xlink:href="#DejaVuSans-6d" transform="translate(66.992188 0)"/>
      <use xlink:href="#DejaVuSans-65" transform="translate(164.404297 0)"/>
     </g>
    </g>
   </g>
   <g id="matplotlib.axis_2">
    <g id="ytick_1">
     <g id="line2d_7">
      <defs>
       <path id="mc9570fb3e4" d="M 0 0 
L -3.5 0 
" style="stroke: #000000; stroke-width: 0.8"/>
      </defs>
      <g>
       <use xlink:href="#mc9570fb3e4" x="57.6" y="276.147205" style="stroke: #000000; stroke-width: 0.8"/>
      </g>
     </g>
     <g id="text_8">
      <!-- −4 -->
      <g transform="translate(35.857813 279.946423) scale(0.1 -0.1)">
       <defs>
        <path id="DejaVuSans-2212" d="M 678 2272 
L 4684 2272 
L 4684 1741 
L 678 1741 
L 678 2272 
z
" transform="scale(0.015625)"/>
       </defs>
       <use xlink:href="#DejaVuSans-2212"/>
       <use xlink:href="#DejaVuSans-34" transform="translate(83.789062 0)"/>
      </g>
     </g>
    </g>
    <g id="ytick_2">
     <g id="line2d_8">
      <g>
       <use xlink:href="#mc9570fb3e4" x="57.6" y="233.195496" style="stroke: #000000; stroke-width: 0.8"/>
      </g>
     </g>
     <g id="text_9">
      <!-- −3 -->
      <g transform="translate(35.857813 236.994714) scale(0.1 -0.1)">
       <defs>
        <path id="DejaVuSans-33" d="M 2597 2516 
Q 3050 2419 3304 2112 
Q 3559 1806 3559 1356 
Q 3559 666 3084 287 
Q 2609 -91 1734 -91 
Q 1441 -91 1130 -33 
Q 819 25 488 141 
L 488 750 
Q 750 597 1062 519 
Q 1375 441 1716 441 
Q 2309 441 2620 675 
Q 2931 909 2931 1356 
Q 2931 1769 2642 2001 
Q 2353 2234 1838 2234 
L 1294 2234 
L 1294 2753 
L 1863 2753 
Q 2328 2753 2575 2939 
Q 2822 3125 2822 3475 
Q 2822 3834 2567 4026 
Q 2313 4219 1838 4219 
Q 1578 4219 1281 4162 
Q 984 4106 628 3988 
L 628 4550 
Q 988 4650 1302 4700 
Q 1616 4750 1894 4750 
Q 2613 4750 3031 4423 
Q 3450 4097 3450 3541 
Q 3450 3153 3228 2886 
Q 3006 2619 2597 2516 
z
" transform="scale(0.015625)"/>
       </defs>
       <use xlink:href="#DejaVuSans-2212"/>
       <use xlink:href="#DejaVuSans-33" transform="translate(83.789062 0)"/>
      </g>
     </g>
    </g>
    <g id="ytick_3">
     <g id="line2d_9">
      <g>
       <use xlink:href="#mc9570fb3e4" x="57.6" y="190.243786" style="stroke: #000000; stroke-width: 0.8"/>
      </g>
     </g>
     <g id="text_10">
      <!-- −2 -->
      <g transform="translate(35.857813 194.043005) scale(0.1 -0.1)">
       <use xlink:href="#DejaVuSans-2212"/>
       <use xlink:href="#DejaVuSans-32" transform="translate(83.789062 0)"/>
      </g>
     </g>
    </g>
    <g id="ytick_4">
     <g id="line2d_10">
      <g>
       <use xlink:href="#mc9570fb3e4" x="57.6" y="147.292077" style="stroke: #000000; stroke-width: 0.8"/>
      </g>
     </g>
     <g id="text_11">
      <!-- −1 -->
      <g transform="translate(35.857813 151.091296) scale(0.1 -0.1)">
       <use xlink:href="#DejaVuSans-2212"/>
       <use xlink:href="#DejaVuSans-31" transform="translate(83.789062 0)"/>
      </g>
     </g>
    </g>
    <g id="ytick_5">
     <g id="line2d_11">
      <g>
       <use xlink:href="#mc9570fb3e4" x="57.6" y="104.340368" style="stroke: #000000; stroke-width: 0.8"/>
      </g>
     </g>
     <g id="text_12">
      <!-- 0 -->
      <g transform="translate(44.2375 108.139587) scale(0.1 -0.1)">
       <use xlink:href="#DejaVuSans-30"/>
      </g>
     </g>
    </g>
    <g id="ytick_6">
     <g id="line2d_12">
      <g>
       <use xlink:href="#mc9570fb3e4" x="57.6" y="61.388659" style="stroke: #000000; stroke-width: 0.8"/>
      </g>
     </g>
     <g id="text_13">
      <!-- 1 -->
      <g transform="translate(44.2375 65.187878) scale(0.1 -0.1)">
       <use xlink:href="#DejaVuSans-31"/>
      </g>
     </g>
    </g>
    <g id="text_14">
     <!-- state -->
     <g transform="translate(29.778125 187.193625) rotate(-90) scale(0.1 -0.1)">
      <defs>
       <path id="DejaVuSans-73" d="M 2834 3397 
L 2834 2853 
Q 2591 2978 2328 3040 
Q 2066 3103 1784 3103 
Q 1356 3103 1142 2972 
Q 928 2841 928 2578 
Q 928 2378 1081 2264 
Q 1234 2150 1697 2047 
L 1894 2003 
Q 2506 1872 2764 1633 
Q 3022 1394 3022 966 
Q 3022 478 2636 193 
Q 2250 -91 1575 -91 
Q 1294 -91 989 -36 
Q 684 19 347 128 
L 347 722 
Q 666 556 975 473 
Q 1284 391 1588 391 
Q 1994 391 2212 530 
Q 2431 669 2431 922 
Q 2431 1156 2273 1281 
Q 2116 1406 1581 1522 
L 1381 1569 
Q 847 1681 609 1914 
Q 372 2147 372 2553 
Q 372 3047 722 3315 
Q 1072 3584 1716 3584 
Q 2034 3584 2315 3537 
Q 2597 3491 2834 3397 
z
" transform="scale(0.015625)"/>
       <path id="DejaVuSans-61" d="M 2194 1759 
Q 1497 1759 1228 1600 
Q 959 1441 959 1056 
Q 959 750 1161 570 
Q 1363 391 1709 391 
Q 2188 391 2477 730 
Q 2766 1069 2766 1631 
L 2766 1759 
L 2194 1759 
z
M 3341 1997 
L 3341 0 
L 2766 0 
L 2766 531 
Q 2569 213 2275 61 
Q 1981 -91 1556 -91 
Q 1019 -91 701 211 
Q 384 513 384 1019 
Q 384 1609 779 1909 
Q 1175 2209 1959 2209 
L 2766 2209 
L 2766 2266 
Q 2766 2663 2505 2880 
Q 2244 3097 1772 3097 
Q 1472 3097 1187 3025 
Q 903 2953 641 2809 
L 641 3341 
Q 956 3463 1253 3523 
Q 1550 3584 1831 3584 
Q 2591 3584 2966 3190 
Q 3341 2797 3341 1997 
z
" transform="scale(0.015625)"/>
      </defs>
      <use xlink:href="#DejaVuSans-73"/>
      <use xlink:href="#DejaVuSans-74" transform="translate(52.099609 0)"/>
      <use xlink:href="#DejaVuSans-61" transform="translate(91.308594 0)"/>
      <use xlink:href="#DejaVuSans-74" transform="translate(152.587891 0)"/>
      <use xlink:href="#DejaVuSans-65" transform="translate(191.796875 0)"/>
     </g>
    </g>
   </g>
   <g id="line2d_13">
    <path d="M 73.832727 57.093487 
L 74.157707 56.621016 
L 74.482686 56.347672 
L 74.807666 56.259241 
L 75.132645 56.34333 
L 75.457625 56.588569 
L 76.107584 57.518605 
L 76.757543 58.959283 
L 77.732482 61.857914 
L 79.682359 68.88282 
L 81.307256 74.320129 
L 82.607174 77.814336 
L 83.907092 80.584835 
L 85.207011 82.81583 
L 86.831908 85.095897 
L 88.456806 87.001437 
L 90.406683 88.950049 
L 92.68154 90.882499 
L 94.956397 92.532417 
L 97.556232 94.143505 
L 100.481048 95.673656 
L 103.405864 96.961066 
L 106.655659 98.159655 
L 110.230436 99.248469 
L 114.455167 100.28643 
L 119.004881 101.166347 
L 124.204555 101.939162 
L 130.379166 102.615573 
L 137.528715 103.164102 
L 146.303165 103.60485 
L 157.677441 103.940122 
L 173.601444 104.169606 
L 199.924785 104.298597 
L 268.170476 104.339283 
L 398.487273 104.340367 
L 398.487273 104.340367 
" clip-path="url(#p4f75d79e71)" style="fill: none; stroke: #1f77b4; stroke-width: 1.5; stroke-linecap: square"/>
   </g>
   <g id="line2d_14">
    <path d="M 73.832727 57.093487 
L 74.807666 112.749305 
L 75.782604 157.801273 
L 76.757543 192.477257 
L 77.407502 208.970398 
L 78.057461 219.550571 
L 78.382441 222.562646 
L 78.70742 224.094489 
L 79.032399 224.226479 
L 79.357379 223.079309 
L 79.682359 220.808481 
L 80.332318 213.635882 
L 81.632236 194.129989 
L 82.932154 175.437729 
L 83.907092 164.432622 
L 84.882031 156.063918 
L 85.856969 149.777433 
L 86.831908 144.977005 
L 87.806847 141.193663 
L 89.106765 137.190017 
L 90.406683 133.964495 
L 91.706602 131.260057 
L 93.331499 128.396615 
L 94.956397 125.958373 
L 96.906273 123.456612 
L 98.856151 121.315565 
L 101.131007 119.176536 
L 103.405864 117.347431 
L 106.0057 115.562787 
L 108.605535 114.044213 
L 111.530353 112.595623 
L 114.780146 111.249827 
L 118.354923 110.029456 
L 122.254675 108.947829 
L 126.47941 108.01005 
L 131.354104 107.164579 
L 136.878756 106.440457 
L 143.378343 105.823058 
L 151.177855 105.317046 
L 160.927242 104.920079 
L 173.926423 104.629575 
L 193.100212 104.444069 
L 229.172941 104.355427 
L 387.112988 104.340371 
L 398.487273 104.34037 
L 398.487273 104.34037 
" clip-path="url(#p4f75d79e71)" style="fill: none; stroke: #ff7f0e; stroke-width: 1.5; stroke-linecap: square"/>
   </g>
   <g id="line2d_15">
    <path d="M 73.832727 57.093487 
L 74.482686 56.311278 
L 74.807666 56.161301 
L 75.132645 56.167865 
L 75.457625 56.327463 
L 76.107584 57.090082 
L 76.757543 58.414238 
L 77.407502 60.258877 
L 78.382441 63.895737 
L 79.357379 68.405862 
L 80.982277 77.251998 
L 84.557052 97.549803 
L 85.856969 103.728643 
L 87.156888 108.836665 
L 88.131827 111.911901 
L 89.106765 114.335548 
L 90.081704 116.126337 
L 90.731662 116.984678 
L 91.381621 117.589271 
L 92.031581 117.95486 
L 92.68154 118.097816 
L 93.331499 118.035895 
L 93.981457 117.787993 
L 94.956397 117.110902 
L 95.931335 116.129206 
L 97.231253 114.467661 
L 99.181131 111.545192 
L 102.430926 106.666246 
L 104.055822 104.632635 
L 105.355742 103.306093 
L 106.655659 102.272921 
L 107.955576 101.535958 
L 109.255494 101.081635 
L 110.555415 100.883737 
L 111.855332 100.907058 
L 113.480229 101.18494 
L 115.430105 101.771935 
L 123.554596 104.576575 
L 125.829451 104.988426 
L 128.104307 105.181431 
L 130.704145 105.179381 
L 134.278918 104.930619 
L 143.053364 104.22005 
L 147.603082 104.12472 
L 154.427648 104.237584 
L 165.151974 104.393512 
L 213.573917 104.340503 
L 398.487273 104.340368 
L 398.487273 104.340368 
" clip-path="url(#p4f75d79e71)" style="fill: none; stroke: #2ca02c; stroke-width: 1.5; stroke-linecap: square"/>
   </g>
   <g id="line2d_16">
    <path d="M 73.832727 57.093487 
L 75.782604 149.722636 
L 77.082523 202.796543 
L 78.057461 236.275455 
L 79.032399 263.076444 
L 79.682359 276.724666 
L 80.332318 286.729436 
L 80.982277 292.976726 
L 81.307256 294.692232 
L 81.632236 295.488 
L 81.957215 295.389978 
L 82.282195 294.432984 
L 82.607174 292.659824 
L 83.257134 286.869382 
L 83.907092 278.474089 
L 84.882031 262.084325 
L 86.18195 235.64292 
L 91.056642 131.4862 
L 92.356561 108.813286 
L 93.656478 89.742384 
L 94.631416 78.040341 
L 95.606356 68.666321 
L 96.581294 61.630329 
L 97.231253 58.209812 
L 97.881211 55.76464 
L 98.531172 54.245429 
L 98.856151 53.814545 
L 99.181131 53.591722 
L 99.50611 53.568 
L 99.831089 53.733993 
L 100.156069 54.079953 
L 100.806027 55.271387 
L 101.455988 57.059714 
L 102.430926 60.677483 
L 103.730843 66.812522 
L 105.680721 77.576324 
L 108.605535 93.852237 
L 110.230436 101.61639 
L 111.530353 106.780866 
L 112.505291 109.966083 
L 113.480229 112.539787 
L 114.455167 114.505582 
L 115.430105 115.885422 
L 116.080067 116.497644 
L 116.730026 116.879905 
L 117.379985 117.048333 
L 118.029943 117.020608 
L 118.679902 116.815565 
L 119.65484 116.218521 
L 120.629778 115.334228 
L 121.929695 113.824135 
L 123.879575 111.153001 
L 127.129369 106.659957 
L 128.754265 104.769136 
L 130.054186 103.526353 
L 131.354104 102.550076 
L 132.654021 101.845089 
L 133.953938 101.400725 
L 135.253856 101.194199 
L 136.553777 101.194006 
L 138.178674 101.427318 
L 140.12855 101.948022 
L 144.353281 103.411828 
L 147.278103 104.293408 
L 149.552958 104.771218 
L 151.827813 105.043904 
L 154.427648 105.129269 
L 157.677441 104.991648 
L 170.676622 104.155884 
L 176.526258 104.188293 
L 192.450253 104.387155 
L 250.621592 104.339854 
L 398.487273 104.340368 
L 398.487273 104.340368 
" clip-path="url(#p4f75d79e71)" style="fill: none; stroke: #d62728; stroke-width: 1.5; stroke-linecap: square"/>
   </g>
   <g id="line2d_17">
    <path d="M 73.832727 57.093487 
L 74.157707 56.621016 
L 74.482686 56.380037 
L 74.807666 56.33969 
L 75.132645 56.475059 
L 75.782604 57.188943 
L 76.432563 58.367408 
L 77.407502 60.690493 
L 80.007338 67.273553 
L 81.307256 69.856114 
L 82.607174 71.956517 
L 84.232072 74.131043 
L 86.18195 76.32954 
L 88.456806 78.527504 
L 91.056642 80.699752 
L 93.981457 82.822817 
L 97.231253 84.877126 
L 100.806027 86.846753 
L 104.705783 88.718903 
L 108.930514 90.483481 
L 113.480229 92.132823 
L 118.354923 93.661533 
L 123.879575 95.147345 
L 129.729207 96.484019 
L 136.228798 97.734049 
L 143.378343 98.874714 
L 151.177855 99.891798 
L 159.952304 100.809112 
L 170.026664 101.629982 
L 181.400948 102.328972 
L 194.725108 102.921642 
L 210.974082 103.413276 
L 231.447804 103.797901 
L 258.746083 104.074858 
L 300.018481 104.250217 
L 380.938373 104.329523 
L 398.487273 104.333517 
L 398.487273 104.333517 
" clip-path="url(#p4f75d79e71)" style="fill: none; stroke: #9467bd; stroke-width: 1.5; stroke-linecap: square"/>
   </g>
   <g id="line2d_18">
    <path d="M 73.832727 57.093487 
L 74.482686 100.305525 
L 75.132645 133.301393 
L 75.782604 158.371494 
L 76.432563 176.141086 
L 77.082523 186.836127 
L 77.407502 189.672746 
L 77.732482 190.985648 
L 78.057461 190.940139 
L 78.382441 189.737113 
L 79.032399 184.764835 
L 80.332318 170.5623 
L 81.307256 160.752909 
L 82.282195 153.201518 
L 83.257134 147.673197 
L 84.232072 143.571535 
L 85.207011 140.397593 
L 86.506929 137.071192 
L 87.806847 134.408015 
L 89.106765 132.189965 
L 90.731662 129.86102 
L 92.356561 127.893956 
L 94.306437 125.886552 
L 96.581294 123.907834 
L 98.856151 122.223151 
L 101.455988 120.571185 
L 104.380802 118.980586 
L 107.630597 117.469369 
L 111.205374 116.048049 
L 115.430105 114.620537 
L 119.979819 113.320946 
L 125.179493 112.070713 
L 131.029124 110.898406 
L 137.528715 109.823195 
L 145.00324 108.817357 
L 153.45271 107.910551 
L 163.202098 107.096308 
L 174.576382 106.38169 
L 187.900542 105.778523 
L 203.824537 105.287568 
L 223.973271 104.899152 
L 250.946563 104.616163 
L 291.244031 104.436428 
L 368.914146 104.352949 
L 398.487273 104.34617 
L 398.487273 104.34617 
" clip-path="url(#p4f75d79e71)" style="fill: none; stroke: #8c564b; stroke-width: 1.5; stroke-linecap: square"/>
   </g>
   <g id="line2d_19">
    <path d="M 73.832727 57.093487 
L 74.482686 56.323203 
L 74.807666 56.193435 
L 75.132645 56.225554 
L 75.457625 56.413534 
L 76.107584 57.232389 
L 76.757543 58.596785 
L 77.407502 60.444281 
L 78.382441 63.954095 
L 80.007338 70.985432 
L 81.957215 79.443935 
L 83.257134 84.184506 
L 84.557052 87.984294 
L 85.856969 90.930039 
L 87.156888 93.196542 
L 88.456806 94.956685 
L 89.756724 96.348465 
L 91.381621 97.719799 
L 93.006519 98.801147 
L 94.956397 99.829716 
L 97.231253 100.765379 
L 99.831089 101.58522 
L 102.755905 102.278148 
L 106.33068 102.889766 
L 110.555415 103.381899 
L 116.080067 103.782414 
L 123.229617 104.063226 
L 133.953938 104.243327 
L 154.752627 104.327688 
L 255.821261 104.340367 
L 398.487273 104.340368 
L 398.487273 104.340368 
" clip-path="url(#p4f75d79e71)" style="fill: none; stroke: #e377c2; stroke-width: 1.5; stroke-linecap: square"/>
   </g>
   <g id="line2d_20">
    <path d="M 73.832727 57.093487 
L 75.132645 123.13856 
L 76.432563 179.015319 
L 77.407502 212.547205 
L 78.057461 229.739936 
L 78.70742 242.079321 
L 79.357379 249.17651 
L 79.682359 250.737847 
L 80.007338 251.019542 
L 80.332318 250.092358 
L 80.657297 248.054143 
L 81.307256 241.143956 
L 82.282195 225.866636 
L 85.207011 175.42629 
L 86.18195 162.700393 
L 87.156888 152.483778 
L 88.131827 144.419726 
L 89.106765 138.084931 
L 90.081704 133.089576 
L 91.056642 129.112261 
L 92.031581 125.903141 
L 93.331499 122.501934 
L 94.631416 119.823343 
L 95.931335 117.659955 
L 97.231253 115.874905 
L 98.856151 114.039129 
L 100.481048 112.535426 
L 102.430926 111.062874 
L 104.380802 109.870177 
L 106.655659 108.752505 
L 109.255494 107.754306 
L 112.180312 106.90134 
L 115.430105 106.202373 
L 119.329861 105.61116 
L 123.879575 105.1544 
L 129.729207 104.799586 
L 137.853694 104.547742 
L 150.852875 104.398492 
L 180.42601 104.343586 
L 398.487273 104.340368 
L 398.487273 104.340368 
" clip-path="url(#p4f75d79e71)" style="fill: none; stroke: #7f7f7f; stroke-width: 1.5; stroke-linecap: square"/>
   </g>
   <g id="patch_3">
    <path d="M 57.6 307.584 
L 57.6 41.472 
" style="fill: none; stroke: #000000; stroke-width: 0.8; stroke-linejoin: miter; stroke-linecap: square"/>
   </g>
   <g id="patch_4">
    <path d="M 414.72 307.584 
L 414.72 41.472 
" style="fill: none; stroke: #000000; stroke-width: 0.8; stroke-linejoin: miter; stroke-linecap: square"/>
   </g>
   <g id="patch_5">
    <path d="M 57.6 307.584 
L 414.72 307.584 
" style="fill: none; stroke: #000000; stroke-width: 0.8; stroke-linejoin: miter; stroke-linecap: square"/>
   </g>
   <g id="patch_6">
    <path d="M 57.6 41.472 
L 414.72 41.472 
" style="fill: none; stroke: #000000; stroke-width: 0.8; stroke-linejoin: miter; stroke-linecap: square"/>
   </g>
   <g id="legend_1">
    <g id="patch_7">
     <path d="M 363.43875 166.897 
L 407.72 166.897 
Q 409.72 166.897 409.72 164.897 
L 409.72 48.472 
Q 409.72 46.472 407.72 46.472 
L 363.43875 46.472 
Q 361.43875 46.472 361.43875 48.472 
L 361.43875 164.897 
Q 361.43875 166.897 363.43875 166.897 
z
" style="fill: #ffffff; opacity: 0.8; stroke: #cccccc; stroke-linejoin: miter"/>
    </g>
    <g id="line2d_21">
     <path d="M 365.43875 54.570438 
L 375.43875 54.570438 
L 385.43875 54.570438 
" style="fill: none; stroke: #1f77b4; stroke-width: 1.5; stroke-linecap: square"/>
    </g>
    <g id="text_15">
     <!-- x0 -->
     <g transform="translate(393.43875 58.070438) scale(0.1 -0.1)">
      <defs>
       <path id="DejaVuSans-78" d="M 3513 3500 
L 2247 1797 
L 3578 0 
L 2900 0 
L 1881 1375 
L 863 0 
L 184 0 
L 1544 1831 
L 300 3500 
L 978 3500 
L 1906 2253 
L 2834 3500 
L 3513 3500 
z
" transform="scale(0.015625)"/>
      </defs>
      <use xlink:href="#DejaVuSans-78"/>
      <use xlink:href="#DejaVuSans-30" transform="translate(59.179688 0)"/>
     </g>
    </g>
    <g id="line2d_22">
     <path d="M 365.43875 69.248563 
L 375.43875 69.248563 
L 385.43875 69.248563 
" style="fill: none; stroke: #ff7f0e; stroke-width: 1.5; stroke-linecap: square"/>
    </g>
    <g id="text_16">
     <!-- x1 -->
     <g transform="translate(393.43875 72.748563) scale(0.1 -0.1)">
      <use xlink:href="#DejaVuSans-78"/>
      <use xlink:href="#DejaVuSans-31" transform="translate(59.179688 0)"/>
     </g>
    </g>
    <g id="line2d_23">
     <path d="M 365.43875 83.926688 
L 375.43875 83.926688 
L 385.43875 83.926688 
" style="fill: none; stroke: #2ca02c; stroke-width: 1.5; stroke-linecap: square"/>
    </g>
    <g id="text_17">
     <!-- x2 -->
     <g transform="translate(393.43875 87.426688) scale(0.1 -0.1)">
      <use xlink:href="#DejaVuSans-78"/>
      <use xlink:href="#DejaVuSans-32" transform="translate(59.179688 0)"/>
     </g>
    </g>
    <g id="line2d_24">
     <path d="M 365.43875 98.604813 
L 375.43875 98.604813 
L 385.43875 98.604813 
" style="fill: none; stroke: #d62728; stroke-width: 1.5; stroke-linecap: square"/>
    </g>
    <g id="text_18">
     <!-- x3 -->
     <g transform="translate(393.43875 102.104813) scale(0.1 -0.1)">
      <use xlink:href="#DejaVuSans-78"/>
      <use xlink:href="#DejaVuSans-33" transform="translate(59.179688 0)"/>
     </g>
    </g>
    <g id="line2d_25">
     <path d="M 365.43875 113.282938 
L 375.43875 113.282938 
L 385.43875 113.282938 
" style="fill: none; stroke: #9467bd; stroke-width: 1.5; stroke-linecap: square"/>
    </g>
    <g id="text_19">
     <!-- x4 -->
     <g transform="translate(393.43875 116.782938) scale(0.1 -0.1)">
      <use xlink:href="#DejaVuSans-78"/>
      <use xlink:href="#DejaVuSans-34" transform="translate(59.179688 0)"/>
     </g>
    </g>
    <g id="line2d_26">
     <path d="M 365.43875 127.961063 
L 375.43875 127.961063 
L 385.43875 127.961063 
" style="fill: none; stroke: #8c564b; stroke-width: 1.5; stroke-linecap: square"/>
    </g>
    <g id="text_20">
     <!-- x5 -->
     <g transform="translate(393.43875 131.461063) scale(0.1 -0.1)">
      <defs>
       <path id="DejaVuSans-35" d="M 691 4666 
L 3169 4666 
L 3169 4134 
L 1269 4134 
L 1269 2991 
Q 1406 3038 1543 3061 
Q 1681 3084 1819 3084 
Q 2600 3084 3056 2656 
Q 3513 2228 3513 1497 
Q 3513 744 3044 326 
Q 2575 -91 1722 -91 
Q 1428 -91 1123 -41 
Q 819 9 494 109 
L 494 744 
Q 775 591 1075 516 
Q 1375 441 1709 441 
Q 2250 441 2565 725 
Q 2881 1009 2881 1497 
Q 2881 1984 2565 2268 
Q 2250 2553 1709 2553 
Q 1456 2553 1204 2497 
Q 953 2441 691 2322 
L 691 4666 
z
" transform="scale(0.015625)"/>
      </defs>
      <use xlink:href="#DejaVuSans-78"/>
      <use xlink:href="#DejaVuSans-35" transform="translate(59.179688 0)"/>
     </g>
    </g>
    <g id="line2d_27">
     <path d="M 365.43875 142.639188 
L 375.43875 142.639188 
L 385.43875 142.639188 
" style="fill: none; stroke: #e377c2; stroke-width: 1.5; stroke-linecap: square"/>
    </g>
    <g id="text_21">
     <!-- x6 -->
     <g transform="translate(393.43875 146.139188) scale(0.1 -0.1)">
      <use xlink:href="#DejaVuSans-78"/>
      <use xlink:href="#DejaVuSans-36" transform="translate(59.179688 0)"/>
     </g>
    </g>
    <g id="line2d_28">
     <path d="M 365.43875 157.317313 
L 375.43875 157.317313 
L 385.43875 157.317313 
" style="fill: none; stroke: #7f7f7f; stroke-width: 1.5; stroke-linecap: square"/>
    </g>
    <g id="text_22">
     <!-- x7 -->
     <g transform="translate(393.43875 160.817313) scale(0.1 -0.1)">
      <defs>
       <path id="DejaVuSans-37" d="M 525 4666 
L 3525 4666 
L 3525 4397 
L 1831 0 
L 1172 0 
L 2766 4134 
L 525 4134 
L 525 4666 
z
" transform="scale(0.015625)"/>
      </defs>
      <use xlink:href="#DejaVuSans-78"/>
      <use xlink:href="#DejaVuSans-37" transform="translate(59.179688 0)"/>
     </g>
    </g>
   </g>
  </g>
 </g>
 <defs>
  <clipPath id="p4f75d79e71">
   <rect x="57.6" y="41.472" width="357.12" height="266.112"/>
  </clipPath>
 </defs>
</svg>
