<?xml version="1.0" encoding="utf-8" standalone="no"?>
<!DOCTYPE svg PUBLIC "-//W3C//DTD SVG 1.1//EN"
  "http://www.w3.org/Graphics/SVG/1.1/DTD/svg11.dtd">
<svg xmlns:xlink="http://www.w3.org/1999/xlink" width="460.8pt" height="345.6pt" viewBox="0 0 460.8 345.6" xmlns="http://www.w3.org/2000/svg" version="1.1">
 <metadata>
  <rdf:RDF xmlns:dc="http://purl.org/dc/elements/1.1/" xmlns:cc="http://creativecommons.org/ns#" xmlns:rdf="http://www.w3.org/1999/02/22-rdf-syntax-ns#">
   <cc:Work>
    <dc:type rdf:resource="http://purl.org/dc/dcmitype/StillImage"/>
    <dc:date>2025-05-10T03:30:32.114602</dc:date>
    <dc:format>image/svg+xml</dc:format>
    <dc:creator>
     <cc:Agent>
      <dc:title>Matplotlib v3.10.0, https://matplotlib.org/</dc:title>
     </cc:Agent>
    </dc:creator>
   </cc:Work>
  </rdf:RDF>
 </metadata>
 <defs>
  <style type="text/css">*{stroke-linejoin: round; stroke-linecap: butt}</style>
 </defs>
 <g id="figure_1">
  <g id="patch_1">
   <path d="M 0 345.6 
L 460.8 345.6 
L 460.8 0 
L 0 0 
z
" style="fill: #ffffff"/>
  </g>
  <g id="axes_1">
   <g id="patch_2">
    <path d="M 57.6 307.584 
L 414.72 307.584 
L 414.72 41.472 
L 57.6 41.472 
z
" style="fill: #ffffff"/>
   </g>
   <g id="matplotlib.axis_1">
    <g id="xtick_1">
     <g id="line2d_1">
      <defs>
       <path id="m069dad7121" d="M 0 0 
L 0 3.5 
" style="stroke: #000000; stroke-width: 0.8"/>
      </defs>
      <g>
       <use xlink:href="#m069dad7121" x="73.832727" y="307.584" style="stroke: #000000; stroke-width: 0.8"/>
      </g>
     </g>
     <g id="text_1">
      <!-- 0 -->
      <g transform="translate(70.651477 322.182437) scale(0.1 -0.1)">
       <defs>
        <path id="DejaVuSans-30" d="M 2034 4250 
Q 1547 4250 1301 3770 
Q 1056 3291 1056 2328 
Q 1056 1369 1301 889 
Q 1547 409 2034 409 
Q 2525 409 2770 889 
Q 3016 1369 3016 2328 
Q 3016 3291 2770 3770 
Q 2525 4250 2034 4250 
z
M 2034 4750 
Q 2819 4750 3233 4129 
Q 3647 3509 3647 2328 
Q 3647 1150 3233 529 
Q 2819 -91 2034 -91 
Q 1250 -91 836 529 
Q 422 1150 422 2328 
Q 422 3509 836 4129 
Q 1250 4750 2034 4750 
z
" transform="scale(0.015625)"/>
       </defs>
       <use xlink:href="#DejaVuSans-30"/>
      </g>
     </g>
    </g>
    <g id="xtick_2">
     <g id="line2d_2">
      <g>
       <use xlink:href="#m069dad7121" x="138.893761" y="307.584" style="stroke: #000000; stroke-width: 0.8"/>
      </g>
     </g>
     <g id="text_2">
      <!-- 2 -->
      <g transform="translate(135.712511 322.182437) scale(0.1 -0.1)">
       <defs>
        <path id="DejaVuSans-32" d="M 1228 531 
L 3431 531 
L 3431 0 
L 469 0 
L 469 531 
Q 828 903 1448 1529 
Q 2069 2156 2228 2338 
Q 2531 2678 2651 2914 
Q 2772 3150 2772 3378 
Q 2772 3750 2511 3984 
Q 2250 4219 1831 4219 
Q 1534 4219 1204 4116 
Q 875 4013 500 3803 
L 500 4441 
Q 881 4594 1212 4672 
Q 1544 4750 1819 4750 
Q 2544 4750 2975 4387 
Q 3406 4025 3406 3419 
Q 3406 3131 3298 2873 
Q 3191 2616 2906 2266 
Q 2828 2175 2409 1742 
Q 1991 1309 1228 531 
z
" transform="scale(0.015625)"/>
       </defs>
       <use xlink:href="#DejaVuSans-32"/>
      </g>
     </g>
    </g>
    <g id="xtick_3">
     <g id="line2d_3">
      <g>
       <use xlink:href="#m069dad7121" x="203.954796" y="307.584" style="stroke: #000000; stroke-width: 0.8"/>
      </g>
     </g>
     <g id="text_3">
      <!-- 4 -->
      <g transform="translate(200.773546 322.182437) scale(0.1 -0.1)">
       <defs>
        <path id="DejaVuSans-34" d="M 2419 4116 
L 825 1625 
L 2419 1625 
L 2419 4116 
z
M 2253 4666 
L 3047 4666 
L 3047 1625 
L 3713 1625 
L 3713 1100 
L 3047 1100 
L 3047 0 
L 2419 0 
L 2419 1100 
L 313 1100 
L 313 1709 
L 2253 4666 
z
" transform="scale(0.015625)"/>
       </defs>
       <use xlink:href="#DejaVuSans-34"/>
      </g>
     </g>
    </g>
    <g id="xtick_4">
     <g id="line2d_4">
      <g>
       <use xlink:href="#m069dad7121" x="269.01583" y="307.584" style="stroke: #000000; stroke-width: 0.8"/>
      </g>
     </g>
     <g id="text_4">
      <!-- 6 -->
      <g transform="translate(265.83458 322.182437) scale(0.1 -0.1)">
       <defs>
        <path id="DejaVuSans-36" d="M 2113 2584 
Q 1688 2584 1439 2293 
Q 1191 2003 1191 1497 
Q 1191 994 1439 701 
Q 1688 409 2113 409 
Q 2538 409 2786 701 
Q 3034 994 3034 1497 
Q 3034 2003 2786 2293 
Q 2538 2584 2113 2584 
z
M 3366 4563 
L 3366 3988 
Q 3128 4100 2886 4159 
Q 2644 4219 2406 4219 
Q 1781 4219 1451 3797 
Q 1122 3375 1075 2522 
Q 1259 2794 1537 2939 
Q 1816 3084 2150 3084 
Q 2853 3084 3261 2657 
Q 3669 2231 3669 1497 
Q 3669 778 3244 343 
Q 2819 -91 2113 -91 
Q 1303 -91 875 529 
Q 447 1150 447 2328 
Q 447 3434 972 4092 
Q 1497 4750 2381 4750 
Q 2619 4750 2861 4703 
Q 3103 4656 3366 4563 
z
" transform="scale(0.015625)"/>
       </defs>
       <use xlink:href="#DejaVuSans-36"/>
      </g>
     </g>
    </g>
    <g id="xtick_5">
     <g id="line2d_5">
      <g>
       <use xlink:href="#m069dad7121" x="334.076864" y="307.584" style="stroke: #000000; stroke-width: 0.8"/>
      </g>
     </g>
     <g id="text_5">
      <!-- 8 -->
      <g transform="translate(330.895614 322.182437) scale(0.1 -0.1)">
       <defs>
        <path id="DejaVuSans-38" d="M 2034 2216 
Q 1584 2216 1326 1975 
Q 1069 1734 1069 1313 
Q 1069 891 1326 650 
Q 1584 409 2034 409 
Q 2484 409 2743 651 
Q 3003 894 3003 1313 
Q 3003 1734 2745 1975 
Q 2488 2216 2034 2216 
z
M 1403 2484 
Q 997 2584 770 2862 
Q 544 3141 544 3541 
Q 544 4100 942 4425 
Q 1341 4750 2034 4750 
Q 2731 4750 3128 4425 
Q 3525 4100 3525 3541 
Q 3525 3141 3298 2862 
Q 3072 2584 2669 2484 
Q 3125 2378 3379 2068 
Q 3634 1759 3634 1313 
Q 3634 634 3220 271 
Q 2806 -91 2034 -91 
Q 1263 -91 848 271 
Q 434 634 434 1313 
Q 434 1759 690 2068 
Q 947 2378 1403 2484 
z
M 1172 3481 
Q 1172 3119 1398 2916 
Q 1625 2713 2034 2713 
Q 2441 2713 2670 2916 
Q 2900 3119 2900 3481 
Q 2900 3844 2670 4047 
Q 2441 4250 2034 4250 
Q 1625 4250 1398 4047 
Q 1172 3844 1172 3481 
z
" transform="scale(0.015625)"/>
       </defs>
       <use xlink:href="#DejaVuSans-38"/>
      </g>
     </g>
    </g>
    <g id="xtick_6">
     <g id="line2d_6">
      <g>
       <use xlink:href="#m069dad7121" x="399.137898" y="307.584" style="stroke: #000000; stroke-width: 0.8"/>
      </g>
     </g>
     <g id="text_6">
      <!-- 10 -->
      <g transform="translate(392.775398 322.182437) scale(0.1 -0.1)">
       <defs>
        <path id="DejaVuSans-31" d="M 794 531 
L 1825 531 
L 1825 4091 
L 703 3866 
L 703 4441 
L 1819 4666 
L 2450 4666 
L 2450 531 
L 3481 531 
L 3481 0 
L 794 0 
L 794 531 
z
" transform="scale(0.015625)"/>
       </defs>
       <use xlink:href="#DejaVuSans-31"/>
       <use xlink:href="#DejaVuSans-30" transform="translate(63.623047 0)"/>
      </g>
     </g>
    </g>
    <g id="text_7">
     <!-- time -->
     <g transform="translate(224.863906 335.860562) scale(0.1 -0.1)">
      <defs>
       <path id="DejaVuSans-74" d="M 1172 4494 
L 1172 3500 
L 2356 3500 
L 2356 3053 
L 1172 3053 
L 1172 1153 
Q 1172 725 1289 603 
Q 1406 481 1766 481 
L 2356 481 
L 2356 0 
L 1766 0 
Q 1100 0 847 248 
Q 594 497 594 1153 
L 594 3053 
L 172 3053 
L 172 3500 
L 594 3500 
L 594 4494 
L 1172 4494 
z
" transform="scale(0.015625)"/>
       <path id="DejaVuSans-69" d="M 603 3500 
L 1178 3500 
L 1178 0 
L 603 0 
L 603 3500 
z
M 603 4863 
L 1178 4863 
L 1178 4134 
L 603 4134 
L 603 4863 
z
" transform="scale(0.015625)"/>
       <path id="DejaVuSans-6d" d="M 3328 2828 
Q 3544 3216 3844 3400 
Q 4144 3584 4550 3584 
Q 5097 3584 5394 3201 
Q 5691 2819 5691 2113 
L 5691 0 
L 5113 0 
L 5113 2094 
Q 5113 2597 4934 2840 
Q 4756 3084 4391 3084 
Q 3944 3084 3684 2787 
Q 3425 2491 3425 1978 
L 3425 0 
L 2847 0 
L 2847 2094 
Q 2847 2600 2669 2842 
Q 2491 3084 2119 3084 
Q 1678 3084 1418 2786 
Q 1159 2488 1159 1978 
L 1159 0 
L 581 0 
L 581 3500 
L 1159 3500 
L 1159 2956 
Q 1356 3278 1631 3431 
Q 1906 3584 2284 3584 
Q 2666 3584 2933 3390 
Q 3200 3197 3328 2828 
z
" transform="scale(0.015625)"/>
       <path id="DejaVuSans-65" d="M 3597 1894 
L 3597 1613 
L 953 1613 
Q 991 1019 1311 708 
Q 1631 397 2203 397 
Q 2534 397 2845 478 
Q 3156 559 3463 722 
L 3463 178 
Q 3153 47 2828 -22 
Q 2503 -91 2169 -91 
Q 1331 -91 842 396 
Q 353 884 353 1716 
Q 353 2575 817 3079 
Q 1281 3584 2069 3584 
Q 2775 3584 3186 3129 
Q 3597 2675 3597 1894 
z
M 3022 2063 
Q 3016 2534 2758 2815 
Q 2500 3097 2075 3097 
Q 1594 3097 1305 2825 
Q 1016 2553 972 2059 
L 3022 2063 
z
" transform="scale(0.015625)"/>
      </defs>
      <use xlink:href="#DejaVuSans-74"/>
      <use xlink:href="#DejaVuSans-69" transform="translate(39.208984 0)"/>
      <use xlink:href="#DejaVuSans-6d" transform="translate(66.992188 0)"/>
      <use xlink:href="#DejaVuSans-65" transform="translate(164.404297 0)"/>
     </g>
    </g>
   </g>
   <g id="matplotlib.axis_2">
    <g id="ytick_1">
     <g id="line2d_7">
      <defs>
       <path id="m75e94e6a08" d="M 0 0 
L -3.5 0 
" style="stroke: #000000; stroke-width: 0.8"/>
      </defs>
      <g>
       <use xlink:href="#m75e94e6a08" x="57.6" y="298.176223" style="stroke: #000000; stroke-width: 0.8"/>
      </g>
     </g>
     <g id="text_8">
      <!-- −6 -->
      <g transform="translate(35.857813 301.975442) scale(0.1 -0.1)">
       <defs>
        <path id="DejaVuSans-2212" d="M 678 2272 
L 4684 2272 
L 4684 1741 
L 678 1741 
L 678 2272 
z
" transform="scale(0.015625)"/>
       </defs>
       <use xlink:href="#DejaVuSans-2212"/>
       <use xlink:href="#DejaVuSans-36" transform="translate(83.789062 0)"/>
      </g>
     </g>
    </g>
    <g id="ytick_2">
     <g id="line2d_8">
      <g>
       <use xlink:href="#m75e94e6a08" x="57.6" y="254.561703" style="stroke: #000000; stroke-width: 0.8"/>
      </g>
     </g>
     <g id="text_9">
      <!-- −4 -->
      <g transform="translate(35.857813 258.360921) scale(0.1 -0.1)">
       <use xlink:href="#DejaVuSans-2212"/>
       <use xlink:href="#DejaVuSans-34" transform="translate(83.789062 0)"/>
      </g>
     </g>
    </g>
    <g id="ytick_3">
     <g id="line2d_9">
      <g>
       <use xlink:href="#m75e94e6a08" x="57.6" y="210.947182" style="stroke: #000000; stroke-width: 0.8"/>
      </g>
     </g>
     <g id="text_10">
      <!-- −2 -->
      <g transform="translate(35.857813 214.746401) scale(0.1 -0.1)">
       <use xlink:href="#DejaVuSans-2212"/>
       <use xlink:href="#DejaVuSans-32" transform="translate(83.789062 0)"/>
      </g>
     </g>
    </g>
    <g id="ytick_4">
     <g id="line2d_10">
      <g>
       <use xlink:href="#m75e94e6a08" x="57.6" y="167.332661" style="stroke: #000000; stroke-width: 0.8"/>
      </g>
     </g>
     <g id="text_11">
      <!-- 0 -->
      <g transform="translate(44.2375 171.13188) scale(0.1 -0.1)">
       <use xlink:href="#DejaVuSans-30"/>
      </g>
     </g>
    </g>
    <g id="ytick_5">
     <g id="line2d_11">
      <g>
       <use xlink:href="#m75e94e6a08" x="57.6" y="123.71814" style="stroke: #000000; stroke-width: 0.8"/>
      </g>
     </g>
     <g id="text_12">
      <!-- 2 -->
      <g transform="translate(44.2375 127.517359) scale(0.1 -0.1)">
       <use xlink:href="#DejaVuSans-32"/>
      </g>
     </g>
    </g>
    <g id="ytick_6">
     <g id="line2d_12">
      <g>
       <use xlink:href="#m75e94e6a08" x="57.6" y="80.10362" style="stroke: #000000; stroke-width: 0.8"/>
      </g>
     </g>
     <g id="text_13">
      <!-- 4 -->
      <g transform="translate(44.2375 83.902839) scale(0.1 -0.1)">
       <use xlink:href="#DejaVuSans-34"/>
      </g>
     </g>
    </g>
    <g id="text_14">
     <!-- state -->
     <g transform="translate(29.778125 187.193625) rotate(-90) scale(0.1 -0.1)">
      <defs>
       <path id="DejaVuSans-73" d="M 2834 3397 
L 2834 2853 
Q 2591 2978 2328 3040 
Q 2066 3103 1784 3103 
Q 1356 3103 1142 2972 
Q 928 2841 928 2578 
Q 928 2378 1081 2264 
Q 1234 2150 1697 2047 
L 1894 2003 
Q 2506 1872 2764 1633 
Q 3022 1394 3022 966 
Q 3022 478 2636 193 
Q 2250 -91 1575 -91 
Q 1294 -91 989 -36 
Q 684 19 347 128 
L 347 722 
Q 666 556 975 473 
Q 1284 391 1588 391 
Q 1994 391 2212 530 
Q 2431 669 2431 922 
Q 2431 1156 2273 1281 
Q 2116 1406 1581 1522 
L 1381 1569 
Q 847 1681 609 1914 
Q 372 2147 372 2553 
Q 372 3047 722 3315 
Q 1072 3584 1716 3584 
Q 2034 3584 2315 3537 
Q 2597 3491 2834 3397 
z
" transform="scale(0.015625)"/>
       <path id="DejaVuSans-61" d="M 2194 1759 
Q 1497 1759 1228 1600 
Q 959 1441 959 1056 
Q 959 750 1161 570 
Q 1363 391 1709 391 
Q 2188 391 2477 730 
Q 2766 1069 2766 1631 
L 2766 1759 
L 2194 1759 
z
M 3341 1997 
L 3341 0 
L 2766 0 
L 2766 531 
Q 2569 213 2275 61 
Q 1981 -91 1556 -91 
Q 1019 -91 701 211 
Q 384 513 384 1019 
Q 384 1609 779 1909 
Q 1175 2209 1959 2209 
L 2766 2209 
L 2766 2266 
Q 2766 2663 2505 2880 
Q 2244 3097 1772 3097 
Q 1472 3097 1187 3025 
Q 903 2953 641 2809 
L 641 3341 
Q 956 3463 1253 3523 
Q 1550 3584 1831 3584 
Q 2591 3584 2966 3190 
Q 3341 2797 3341 1997 
z
" transform="scale(0.015625)"/>
      </defs>
      <use xlink:href="#DejaVuSans-73"/>
      <use xlink:href="#DejaVuSans-74" transform="translate(52.099609 0)"/>
      <use xlink:href="#DejaVuSans-61" transform="translate(91.308594 0)"/>
      <use xlink:href="#DejaVuSans-74" transform="translate(152.587891 0)"/>
      <use xlink:href="#DejaVuSans-65" transform="translate(191.796875 0)"/>
     </g>
    </g>
   </g>
   <g id="line2d_13">
    <path d="M 73.832727 143.104794 
L 74.483338 142.850017 
L 75.133948 142.894772 
L 75.784558 143.236124 
L 76.435169 143.86754 
L 77.085779 144.779401 
L 78.061694 146.643494 
L 79.03761 149.050446 
L 80.33883 152.977445 
L 81.965357 158.747979 
L 87.495544 179.463439 
L 88.796764 183.24308 
L 89.77268 185.544129 
L 90.748596 187.323235 
L 91.724512 188.538139 
L 92.375122 189.020847 
L 93.025731 189.23683 
L 93.676343 189.185548 
L 94.326953 188.869742 
L 94.977563 188.295378 
L 95.628172 187.471552 
L 96.604089 185.795301 
L 97.580003 183.638139 
L 98.881225 180.128017 
L 100.507751 174.983719 
L 106.037938 156.626449 
L 107.339159 153.302599 
L 108.315074 151.287493 
L 109.290992 149.737889 
L 110.266907 148.689889 
L 110.917516 148.28138 
L 111.568126 148.108877 
L 112.218736 148.172466 
L 112.869345 148.469361 
L 113.519959 148.99397 
L 114.495874 150.188915 
L 115.471788 151.83792 
L 116.447703 153.890043 
L 117.748926 157.14586 
L 119.700755 162.792815 
L 123.604417 174.464962 
L 125.230942 178.522287 
L 126.532165 181.111614 
L 127.50808 182.592816 
L 128.483994 183.638977 
L 129.134604 184.082921 
L 129.785214 184.31945 
L 130.435827 184.347468 
L 131.086437 184.168423 
L 131.737047 183.786272 
L 132.387656 183.20742 
L 133.363571 181.990097 
L 134.339489 180.389231 
L 135.640709 177.743872 
L 137.267233 173.815457 
L 143.122725 158.773212 
L 144.423944 156.2452 
L 145.399866 154.727599 
L 146.375781 153.576316 
L 147.351696 152.817836 
L 148.002305 152.538493 
L 148.652915 152.4426 
L 149.303525 152.529694 
L 149.954134 152.797082 
L 150.930049 153.524998 
L 151.905964 154.621971 
L 152.881878 156.053033 
L 154.183105 158.404191 
L 155.80963 161.878238 
L 161.665125 175.06031 
L 162.966344 177.25217 
L 163.942259 178.560093 
L 164.918174 179.544003 
L 165.894088 180.181454 
L 166.544698 180.407264 
L 167.195308 180.471942 
L 167.845917 180.376161 
L 168.821832 179.937892 
L 169.797754 179.161763 
L 170.773669 178.073637 
L 172.074888 176.197458 
L 173.701413 173.31292 
L 175.978547 168.691496 
L 178.906298 162.785346 
L 180.532822 160.005336 
L 181.834042 158.220101 
L 182.809956 157.190814 
L 183.785871 156.454728 
L 184.761786 156.027855 
L 185.7377 155.917533 
L 186.713622 156.122349 
L 187.689537 156.632286 
L 188.665452 157.429101 
L 189.641366 158.486939 
L 190.942586 160.246093 
L 192.56911 162.871906 
L 198.74991 173.47299 
L 200.051129 175.101679 
L 201.352349 176.324653 
L 202.328263 176.943793 
L 203.304186 177.292015 
L 204.280093 177.363657 
L 205.256015 177.160705 
L 206.231922 176.692639 
L 207.207844 175.976075 
L 208.509064 174.675067 
L 209.810283 173.045018 
L 211.762112 170.172876 
L 216.316396 163.204464 
L 217.942912 161.219927 
L 219.244132 159.995485 
L 220.220054 159.325226 
L 221.195961 158.88505 
L 222.171883 158.683631 
L 223.14779 158.722989 
L 224.123712 158.998524 
L 225.099635 159.499239 
L 226.400854 160.486941 
L 227.702074 161.78899 
L 229.32859 163.751957 
L 232.581654 168.181378 
L 234.858781 171.088626 
L 236.485313 172.792238 
L 237.786532 173.835394 
L 239.087751 174.544736 
L 240.063658 174.840299 
L 241.039581 174.927033 
L 242.015503 174.805661 
L 242.99141 174.482596 
L 244.292629 173.759299 
L 245.593849 172.740812 
L 247.220381 171.137815 
L 249.497523 168.516107 
L 252.750571 164.73876 
L 254.377088 163.148584 
L 255.678307 162.129529 
L 256.979527 161.384732 
L 258.280762 160.944727 
L 259.256668 160.824463 
L 260.232591 160.885071 
L 261.208498 161.122164 
L 262.509717 161.696362 
L 263.810936 162.533763 
L 265.437468 163.879835 
L 267.71461 166.121446 
L 271.618269 170.012229 
L 273.244785 171.319891 
L 274.54602 172.131755 
L 275.84724 172.696682 
L 277.148459 172.992326 
L 278.449678 173.009825 
L 279.750898 172.753962 
L 281.052117 172.242658 
L 282.353337 171.505851 
L 283.979869 170.32987 
L 286.256995 168.383288 
L 290.160653 165.029113 
L 291.787185 163.91034 
L 293.413717 163.080218 
L 294.714937 162.661841 
L 296.016156 162.479677 
L 297.317376 162.537707 
L 298.618595 162.828216 
L 299.919815 163.332407 
L 301.546347 164.218515 
L 303.498176 165.557192 
L 309.678976 170.034932 
L 311.305493 170.84766 
L 312.606712 171.296491 
L 313.907931 171.546216 
L 315.209151 171.588838 
L 316.510386 171.426538 
L 317.811605 171.071362 
L 319.438122 170.389112 
L 321.389951 169.29987 
L 324.968312 166.951367 
L 327.570751 165.370677 
L 329.52258 164.462173 
L 331.149112 163.962484 
L 332.775644 163.731374 
L 334.076864 163.747618 
L 335.703396 164.012046 
L 337.329897 164.52176 
L 339.281742 165.393424 
L 342.209493 167.012091 
L 345.787839 168.964438 
L 347.739683 169.783524 
L 349.366216 170.250956 
L 350.992717 170.489898 
L 352.619249 170.488247 
L 354.245781 170.252272 
L 355.872313 169.805672 
L 357.824126 169.047396 
L 361.077191 167.484244 
L 364.330224 165.965626 
L 366.282068 165.264168 
L 368.233913 164.810068 
L 369.860414 164.651313 
L 371.486946 164.700331 
L 373.113478 164.948152 
L 375.065323 165.473743 
L 377.667762 166.452194 
L 383.848546 168.917554 
L 385.800391 169.417669 
L 387.752205 169.682165 
L 389.704049 169.689763 
L 391.655863 169.447427 
L 393.607708 168.988752 
L 396.210146 168.139521 
L 398.487273 167.298151 
L 398.487273 167.298151 
" clip-path="url(#pd63989e76f)" style="fill: none; stroke: #1f77b4; stroke-width: 1.5; stroke-linecap: square"/>
   </g>
   <g id="line2d_14">
    <path d="M 73.832727 150.845212 
L 76.760474 216.358131 
L 78.387 247.653877 
L 79.68822 267.980442 
L 80.664136 279.855012 
L 81.640051 288.512127 
L 82.290661 292.395462 
L 82.941272 294.725675 
L 83.266577 295.30299 
L 83.591882 295.488 
L 83.917188 295.281881 
L 84.242493 294.687003 
L 84.567797 293.706912 
L 85.218408 290.611035 
L 85.869019 286.045371 
L 86.519628 280.078362 
L 87.495544 268.689672 
L 88.47146 254.689084 
L 89.77268 232.675533 
L 91.724512 194.785892 
L 95.628172 117.153165 
L 96.929394 95.346559 
L 98.230615 77.397261 
L 99.20653 66.964663 
L 99.857139 61.600476 
L 100.507751 57.574931 
L 101.158361 54.925151 
L 101.483666 54.122969 
L 101.80897 53.670685 
L 102.134277 53.568 
L 102.459582 53.81353 
L 102.784887 54.40482 
L 103.110192 55.338367 
L 103.760802 58.213026 
L 104.411413 62.389255 
L 105.062023 67.803573 
L 106.037938 78.07305 
L 107.013854 90.63489 
L 108.315074 110.300431 
L 110.266907 143.968913 
L 113.845264 207.212434 
L 115.471788 231.541003 
L 116.773008 247.213896 
L 117.748926 256.277322 
L 118.399536 260.909443 
L 119.050146 264.356706 
L 119.700755 266.587634 
L 120.02606 267.241388 
L 120.351365 267.586286 
L 120.67667 267.622764 
L 121.001975 267.352205 
L 121.32728 266.776928 
L 121.977893 264.726155 
L 122.628503 261.507254 
L 123.279113 257.170835 
L 124.255027 248.713299 
L 125.230942 238.15127 
L 126.532165 221.347659 
L 128.158689 197.204004 
L 133.038266 122.28 
L 134.339489 106.265751 
L 135.315404 96.34987 
L 136.291319 88.512148 
L 136.941928 84.537254 
L 137.592538 81.610765 
L 138.243148 79.758919 
L 138.568457 79.24047 
L 138.893761 78.994348 
L 139.219066 79.020012 
L 139.544371 79.316078 
L 139.869676 79.880333 
L 140.520286 81.800501 
L 141.170895 84.746815 
L 141.821505 88.673398 
L 142.79742 96.272973 
L 143.773334 105.709623 
L 145.074562 120.654489 
L 146.701086 142.030887 
L 151.255354 203.941728 
L 152.556573 218.493699 
L 153.532496 227.639326 
L 154.50841 235.007826 
L 155.484325 240.420163 
L 156.134935 242.87886 
L 156.785544 244.391064 
L 157.110849 244.78876 
L 157.436154 244.94716 
L 157.761459 244.866931 
L 158.086764 244.549464 
L 158.412069 243.996887 
L 159.062678 242.198439 
L 159.713288 239.502588 
L 160.363898 235.950992 
L 161.33982 229.134559 
L 162.315735 220.723281 
L 163.616954 207.468076 
L 165.568783 184.632667 
L 169.472442 137.849505 
L 170.773669 124.69598 
L 172.074888 113.852479 
L 173.050803 107.533964 
L 174.026717 102.943884 
L 174.677327 100.896635 
L 175.327937 99.681413 
L 175.653242 99.388383 
L 175.978547 99.305138 
L 176.303851 99.430913 
L 176.629156 99.7643 
L 177.279766 101.045121 
L 177.930376 103.123877 
L 178.580993 105.967319 
L 179.556908 111.571529 
L 180.532822 118.622136 
L 181.834042 129.898972 
L 183.460566 146.170714 
L 188.340147 196.936014 
L 189.641366 207.847502 
L 190.617281 214.629399 
L 191.593195 220.01822 
L 192.243805 222.7716 
L 192.894415 224.820513 
L 193.545025 226.146614 
L 193.870329 226.535363 
L 194.195634 226.740655 
L 194.520939 226.762762 
L 194.846252 226.602521 
L 195.171557 226.261315 
L 195.822166 225.044336 
L 196.472776 223.133791 
L 197.123386 220.55991 
L 198.0993 215.540475 
L 199.075215 209.273853 
L 200.376434 199.309898 
L 202.002959 185.010487 
L 206.557234 143.418439 
L 207.858454 133.602324 
L 209.159673 125.611561 
L 210.135596 121.033562 
L 210.786205 118.718895 
L 211.436815 117.021551 
L 212.087425 115.95627 
L 212.412722 115.663084 
L 212.738035 115.529837 
L 213.063332 115.55614 
L 213.388644 115.741109 
L 214.039254 116.581096 
L 214.689864 118.03318 
L 215.340473 120.07342 
L 216.316396 124.167218 
L 217.292303 129.382356 
L 218.593522 137.800923 
L 220.220054 150.047195 
L 225.424932 190.990022 
L 226.726151 199.056364 
L 227.702074 204.009601 
L 228.67798 207.884779 
L 229.32859 209.823254 
L 229.9792 211.223086 
L 230.62981 212.072498 
L 230.955122 212.289001 
L 231.280419 212.3666 
L 231.605732 212.305753 
L 231.931029 212.107349 
L 232.581654 211.303503 
L 233.232264 209.970379 
L 233.882874 208.129632 
L 234.858781 204.478686 
L 235.834703 199.865308 
L 237.135922 192.463263 
L 238.762439 181.754478 
L 243.64202 148.220356 
L 244.943239 140.983196 
L 245.919161 136.472927 
L 246.895068 132.875705 
L 247.87099 130.276568 
L 248.5216 129.127309 
L 249.17221 128.456573 
L 249.82282 128.267687 
L 250.148132 128.353347 
L 250.798742 128.880482 
L 251.449352 129.871988 
L 252.099961 131.310957 
L 253.075868 134.25848 
L 254.051791 138.06626 
L 255.35301 144.275814 
L 256.979527 153.388969 
L 262.509717 185.960337 
L 263.810936 191.866136 
L 264.786859 195.449601 
L 265.762781 198.209246 
L 266.413391 199.559124 
L 267.064001 200.501783 
L 267.71461 201.029845 
L 268.36522 201.141094 
L 269.01583 200.83843 
L 269.666439 200.129794 
L 270.317049 199.028012 
L 270.967659 197.550573 
L 271.943566 194.6791 
L 272.919488 191.103408 
L 274.220707 185.430237 
L 276.172537 175.594751 
L 280.076195 155.285179 
L 281.377414 149.528552 
L 282.678649 144.750956 
L 283.654556 141.939877 
L 284.630478 139.866583 
L 285.281088 138.917609 
L 285.931698 138.325185 
L 286.582308 138.092856 
L 287.232917 138.219721 
L 287.883527 138.700496 
L 288.534137 139.525623 
L 289.184747 140.681439 
L 290.160653 142.995804 
L 291.136576 145.939618 
L 292.437795 150.685881 
L 294.064327 157.581867 
L 299.269205 180.588749 
L 300.570424 185.114567 
L 301.546347 187.893087 
L 302.522254 190.066975 
L 303.498176 191.586073 
L 304.148786 192.218708 
L 304.799395 192.541374 
L 305.450005 192.553335 
L 306.100615 192.257655 
L 306.751225 191.661129 
L 307.401834 190.774141 
L 308.377757 188.930185 
L 309.353663 186.524589 
L 310.654883 182.573902 
L 312.281415 176.740365 
L 318.136902 154.63262 
L 319.438122 150.957313 
L 320.414044 148.762666 
L 321.389951 147.109193 
L 322.040561 146.326371 
L 322.69117 145.807637 
L 323.34178 145.556568 
L 323.992405 145.573434 
L 324.643015 145.855236 
L 325.293625 146.395773 
L 325.944235 147.185752 
L 326.920141 148.810908 
L 327.896064 150.916443 
L 329.197283 154.357265 
L 330.8238 159.416383 
L 336.35399 177.562932 
L 337.65521 180.8698 
L 338.631116 182.883006 
L 339.607054 184.440748 
L 340.582961 185.507526 
L 341.233586 185.93473 
L 341.88418 186.131011 
L 342.534806 186.096365 
L 343.1854 185.833605 
L 343.836025 185.34829 
L 344.811932 184.221684 
L 345.787839 182.651604 
L 346.763746 180.687757 
L 348.064965 177.561126 
L 350.01681 172.121228 
L 354.245781 159.981245 
L 355.547 156.882936 
L 356.84822 154.352673 
L 357.824126 152.895531 
L 358.800064 151.854657 
L 359.450658 151.403346 
L 360.101284 151.150525 
L 360.751878 151.097217 
L 361.402503 151.241998 
L 362.053097 151.581054 
L 363.029004 152.439852 
L 364.004942 153.691449 
L 364.980849 155.29563 
L 366.282068 157.896875 
L 367.9086 161.695994 
L 373.438791 175.169549 
L 374.74001 177.594424 
L 375.715917 179.060581 
L 376.691824 180.184568 
L 377.667762 180.94099 
L 378.318356 181.233231 
L 378.968981 181.353421 
L 379.619575 181.301862 
L 380.270201 181.080942 
L 381.246107 180.442223 
L 382.222014 179.455947 
L 383.197952 178.154324 
L 384.499171 175.998964 
L 386.125673 172.793384 
L 392.306488 159.920385 
L 393.607708 157.949858 
L 394.583614 156.791335 
L 395.559521 155.937681 
L 396.535459 155.407489 
L 397.511366 155.210255 
L 398.487273 155.346255 
L 398.487273 155.346255 
" clip-path="url(#pd63989e76f)" style="fill: none; stroke: #ff7f0e; stroke-width: 1.5; stroke-linecap: square"/>
   </g>
   <g id="line2d_15">
    <path d="M 73.832727 143.104794 
L 74.483338 142.85669 
L 75.133948 142.906335 
L 75.784558 143.243416 
L 76.435169 143.854672 
L 77.085779 144.725456 
L 78.061694 146.477646 
L 79.03761 148.698088 
L 80.33883 152.240363 
L 82.290661 158.356104 
L 85.869019 169.830844 
L 87.495544 174.277293 
L 88.796764 177.217253 
L 89.77268 179.002061 
L 90.748596 180.399808 
L 91.724512 181.397459 
L 92.700427 181.991576 
L 93.351036 182.166024 
L 94.001648 182.167654 
L 94.652258 182.002371 
L 95.628172 181.458746 
L 96.604089 180.590069 
L 97.580003 179.436521 
L 98.881225 177.535726 
L 100.507751 174.748126 
L 105.712633 165.472035 
L 107.339159 163.222698 
L 108.640378 161.820366 
L 109.616297 161.023989 
L 110.592211 160.453321 
L 111.568126 160.10704 
L 112.544041 159.977585 
L 113.519959 160.051938 
L 114.495874 160.312471 
L 115.797093 160.912166 
L 117.423617 161.984647 
L 119.37545 163.58119 
L 124.255027 167.74419 
L 126.20686 169.047708 
L 127.833385 169.866751 
L 129.459909 170.422952 
L 131.086437 170.719534 
L 132.712961 170.77631 
L 134.339489 170.625722 
L 136.291319 170.229685 
L 139.219066 169.362939 
L 145.074562 167.562792 
L 148.002305 166.950405 
L 150.930049 166.580961 
L 154.183105 166.39723 
L 158.412069 166.384752 
L 163.616954 166.596901 
L 168.171222 167.005118 
L 173.701413 167.749068 
L 179.231603 168.438604 
L 182.484651 168.61662 
L 185.412395 168.55475 
L 188.340147 168.276303 
L 192.243805 167.654335 
L 198.74991 166.580005 
L 201.677654 166.342362 
L 204.280093 166.33617 
L 207.207844 166.558388 
L 210.786205 167.076065 
L 218.268225 168.231594 
L 221.195961 168.42549 
L 224.123712 168.395071 
L 227.376761 168.121925 
L 232.581654 167.399102 
L 237.135922 166.841277 
L 240.388971 166.655296 
L 243.64202 166.692266 
L 247.545678 166.985163 
L 258.280762 167.969505 
L 261.859107 168.000003 
L 266.088078 167.801604 
L 279.100288 166.994628 
L 283.654556 167.059122 
L 291.136576 167.445634 
L 297.642673 167.684138 
L 303.172863 167.65057 
L 323.992405 167.237865 
L 344.161307 167.505673 
L 367.257975 167.31746 
L 385.800391 167.451808 
L 398.487273 167.301157 
L 398.487273 167.301157 
" clip-path="url(#pd63989e76f)" style="fill: none; stroke: #2ca02c; stroke-width: 1.5; stroke-linecap: square"/>
   </g>
   <g id="line2d_16">
    <path d="M 73.832727 151.152463 
L 75.784558 194.555612 
L 77.411084 225.831363 
L 78.712305 246.046465 
L 79.68822 257.861213 
L 80.664136 266.593478 
L 81.314746 270.659057 
L 81.965357 273.318996 
L 82.290661 274.127709 
L 82.615966 274.594374 
L 82.941272 274.724449 
L 83.266577 274.524475 
L 83.591882 274.001981 
L 84.242493 272.024371 
L 84.893103 268.870253 
L 85.543713 264.631112 
L 86.519628 256.464797 
L 87.820849 242.804297 
L 89.447375 222.618581 
L 95.628172 141.803888 
L 96.929394 128.823906 
L 97.90531 120.86064 
L 98.881225 114.582767 
L 99.531835 111.380155 
L 100.182446 108.97944 
L 100.833056 107.381423 
L 101.483666 106.575918 
L 101.80897 106.464279 
L 102.134277 106.542216 
L 102.459582 106.8056 
L 103.110192 107.869394 
L 103.760802 109.611847 
L 104.411413 111.981605 
L 105.387328 116.584792 
L 106.363244 122.253333 
L 107.664464 131.065035 
L 109.941602 148.312129 
L 112.544041 167.624966 
L 114.170569 177.960725 
L 115.471788 184.764278 
L 116.447703 188.88209 
L 117.423617 192.103074 
L 118.399536 194.410051 
L 119.050146 195.443957 
L 119.700755 196.084635 
L 120.351365 196.346132 
L 121.001975 196.246967 
L 121.652584 195.809714 
L 122.303198 195.060494 
L 123.279113 193.415964 
L 124.255027 191.24267 
L 125.556247 187.71927 
L 127.50808 181.634263 
L 131.086437 170.29852 
L 132.712961 165.858196 
L 134.014181 162.850171 
L 135.315404 160.403964 
L 136.291319 158.962987 
L 137.267233 157.866567 
L 138.243148 157.110886 
L 139.219066 156.682878 
L 140.194981 156.56066 
L 141.170895 156.714357 
L 142.14681 157.107418 
L 143.448029 157.931679 
L 145.074562 159.295217 
L 150.604744 164.308596 
L 152.556573 165.629869 
L 154.50841 166.634621 
L 156.460239 167.381748 
L 159.713288 168.326865 
L 163.616954 169.502113 
L 170.448364 171.729704 
L 172.074888 171.982747 
L 173.701413 172.014385 
L 175.327937 171.788456 
L 176.954461 171.286904 
L 178.580993 170.512372 
L 180.207517 169.490437 
L 182.159347 168.008884 
L 188.340147 163.054358 
L 189.966671 162.143807 
L 191.26789 161.648886 
L 192.56911 161.392854 
L 193.870329 161.39268 
L 195.171557 161.653028 
L 196.472776 162.165839 
L 197.773995 162.910446 
L 199.40052 164.116575 
L 201.677654 166.159707 
L 206.231922 170.370329 
L 207.858454 171.549716 
L 209.159673 172.268563 
L 210.460893 172.753685 
L 211.762112 172.986111 
L 213.063332 172.959085 
L 214.364551 172.677973 
L 215.665786 172.159714 
L 217.292303 171.22138 
L 219.244132 169.769688 
L 226.400854 164.042856 
L 228.027371 163.212959 
L 229.32859 162.776819 
L 230.62981 162.559073 
L 231.931029 162.562989 
L 233.232264 162.781446 
L 234.533483 163.197768 
L 236.16 163.957495 
L 238.111829 165.13357 
L 245.268552 169.747787 
L 246.895068 170.418526 
L 248.5216 170.840409 
L 250.148132 170.99666 
L 251.774649 170.89 
L 253.401181 170.540931 
L 255.35301 169.853528 
L 257.630152 168.791292 
L 263.485639 165.895157 
L 265.437468 165.211788 
L 267.389298 164.781368 
L 269.01583 164.634669 
L 270.642346 164.679966 
L 272.594175 164.966792 
L 274.871317 165.562355 
L 278.124366 166.702118 
L 282.353337 168.17642 
L 284.630478 168.755401 
L 286.907605 169.099596 
L 289.184747 169.186888 
L 291.461888 169.028911 
L 294.064327 168.601244 
L 297.967986 167.67636 
L 302.522254 166.632498 
L 305.450005 166.20528 
L 308.052444 166.05361 
L 310.654883 166.119165 
L 313.582634 166.410518 
L 318.462215 167.171355 
L 323.34178 167.87027 
L 326.920141 168.143351 
L 330.17319 168.164574 
L 333.751551 167.961865 
L 339.607054 167.354087 
L 345.137245 166.851387 
L 349.040903 166.70752 
L 353.269874 166.788104 
L 358.474752 167.13517 
L 367.583288 167.764635 
L 372.137571 167.81521 
L 377.017136 167.625376 
L 391.330581 166.876879 
L 395.884834 166.976992 
L 398.487273 167.114343 
L 398.487273 167.114343 
" clip-path="url(#pd63989e76f)" style="fill: none; stroke: #d62728; stroke-width: 1.5; stroke-linecap: square"/>
   </g>
   <g id="line2d_17">
    <path d="M 73.832727 143.104794 
L 74.483338 142.85062 
L 75.133948 142.884618 
L 75.784558 143.20496 
L 76.435169 143.80701 
L 77.085779 144.686561 
L 78.061694 146.502895 
L 79.03761 148.864064 
L 80.33883 152.730259 
L 81.965357 158.414766 
L 87.495544 178.730613 
L 88.796764 182.477778 
L 90.097986 185.482548 
L 91.0739 187.182451 
L 92.049817 188.367377 
L 92.700427 188.85804 
L 93.351036 189.10339 
L 94.001648 189.101451 
L 94.652258 188.853309 
L 95.302867 188.36332 
L 95.953479 187.639184 
L 96.929394 186.138897 
L 97.90531 184.187557 
L 99.20653 180.997241 
L 100.833056 176.326486 
L 105.712633 161.671198 
L 107.013854 158.518718 
L 108.315074 155.970682 
L 109.290992 154.512779 
L 110.266907 153.471707 
L 110.917516 153.015894 
L 111.568126 152.751891 
L 112.218736 152.678142 
L 112.869345 152.790828 
L 113.519959 153.083919 
L 114.495874 153.843418 
L 115.471788 154.954142 
L 116.773008 156.902936 
L 118.399536 159.91089 
L 121.001975 165.388629 
L 123.604417 170.695688 
L 125.230942 173.497384 
L 126.532165 175.312762 
L 127.833385 176.687465 
L 128.809299 177.408675 
L 129.785214 177.857219 
L 130.761132 178.033965 
L 131.737047 177.946348 
L 132.712961 177.608148 
L 133.688876 177.039117 
L 134.990099 175.965499 
L 136.291319 174.598849 
L 138.243148 172.182346 
L 142.79742 166.372376 
L 144.423944 164.720046 
L 145.725171 163.678394 
L 147.026391 162.916819 
L 148.32761 162.446097 
L 149.62883 162.261451 
L 150.930049 162.344559 
L 152.231268 162.665963 
L 153.857801 163.344381 
L 155.80963 164.44952 
L 163.291649 169.062911 
L 165.243478 169.867058 
L 167.195308 170.41156 
L 169.147137 170.699214 
L 171.098974 170.753354 
L 173.376108 170.571705 
L 175.978547 170.129536 
L 179.882213 169.217437 
L 188.340147 167.195856 
L 192.243805 166.498646 
L 195.171557 166.174189 
L 197.773995 166.090219 
L 200.376434 166.242148 
L 202.978881 166.645413 
L 205.581312 167.273972 
L 209.810283 168.569411 
L 213.388644 169.588368 
L 215.665786 170.025384 
L 217.617615 170.199708 
L 219.569444 170.159231 
L 221.521274 169.898128 
L 223.798415 169.340058 
L 226.400854 168.454365 
L 232.581654 166.221812 
L 234.858781 165.708097 
L 236.81061 165.510788 
L 238.762439 165.563477 
L 240.714284 165.862431 
L 242.99141 166.480003 
L 245.919161 167.555996 
L 250.798742 169.37615 
L 253.075868 169.946691 
L 255.027697 170.195083 
L 256.979527 170.193138 
L 258.931371 169.942938 
L 260.8832 169.473987 
L 263.485639 168.603507 
L 269.666439 166.40538 
L 271.943566 165.90775 
L 273.89541 165.716997 
L 275.84724 165.76208 
L 277.799069 166.032907 
L 280.076195 166.586592 
L 283.329259 167.644482 
L 287.558214 168.99009 
L 289.835356 169.481369 
L 291.787185 169.698297 
L 293.739015 169.706017 
L 295.690844 169.509379 
L 297.967986 169.0592 
L 301.221034 168.153109 
L 305.775302 166.870222 
L 308.377757 166.387432 
L 310.654883 166.207513 
L 312.932025 166.273548 
L 315.209151 166.565442 
L 318.136902 167.184151 
L 325.293625 168.817193 
L 327.896064 169.102672 
L 330.17319 169.134537 
L 332.775644 168.927581 
L 335.703396 168.45159 
L 344.161307 166.88354 
L 346.763746 166.699324 
L 349.366216 166.736534 
L 352.293936 167.016194 
L 356.522907 167.685515 
L 361.402503 168.411415 
L 364.330224 168.629074 
L 367.257975 168.622214 
L 370.511039 168.373428 
L 375.715917 167.695351 
L 380.270201 167.19696 
L 383.523234 167.064245 
L 386.776298 167.152188 
L 391.005269 167.515492 
L 398.487273 168.205085 
L 398.487273 168.205085 
" clip-path="url(#pd63989e76f)" style="fill: none; stroke: #9467bd; stroke-width: 1.5; stroke-linecap: square"/>
   </g>
   <g id="line2d_18">
    <path d="M 73.832727 151.019988 
L 77.411084 227.947673 
L 78.712305 251.667641 
L 79.68822 266.458755 
L 80.664136 278.211663 
L 81.314746 284.211406 
L 81.965357 288.677266 
L 82.615966 291.582964 
L 82.941272 292.44969 
L 83.266577 292.92824 
L 83.591882 293.02244 
L 83.917188 292.737542 
L 84.242493 292.080137 
L 84.893103 289.680556 
L 85.543713 285.900551 
L 86.194324 280.833117 
L 87.170239 271.051528 
L 88.146155 258.997001 
L 89.447375 240.02894 
L 91.0739 212.701515 
L 93.676343 164.14387 
L 95.953479 122.676605 
L 97.254699 102.208122 
L 98.230615 89.30663 
L 99.20653 78.943697 
L 100.182446 71.401875 
L 100.833056 68.028036 
L 101.483666 66.003269 
L 101.80897 65.4963 
L 102.134277 65.323154 
L 102.459582 65.479797 
L 102.784887 65.960915 
L 103.110192 66.759989 
L 103.760802 69.280453 
L 104.411413 72.968442 
L 105.387328 80.498971 
L 106.363244 90.131836 
L 107.664464 105.615787 
L 109.290992 127.912378 
L 113.845264 192.693748 
L 115.146483 207.999583 
L 116.447703 220.496931 
L 117.423617 227.714788 
L 118.074231 231.418857 
L 118.724841 234.208783 
L 119.37545 236.077183 
L 120.02606 237.031241 
L 120.351365 237.171475 
L 120.67667 237.092093 
L 121.001975 236.797748 
L 121.652584 235.586331 
L 122.303198 233.587841 
L 122.953808 230.861643 
L 123.929722 225.554019 
L 124.905637 219.00111 
L 126.20686 208.763557 
L 128.158689 191.380193 
L 132.062352 156.034881 
L 133.688876 143.655907 
L 134.990099 135.605103 
L 135.966014 130.85786 
L 136.941928 127.320206 
L 137.592538 125.660601 
L 138.243148 124.567072 
L 138.893761 124.036364 
L 139.219066 123.978813 
L 139.544371 124.05707 
L 140.194981 124.609943 
L 140.845591 125.668407 
L 141.4962 127.199253 
L 142.472115 130.294627 
L 143.448029 134.213192 
L 144.749257 140.426792 
L 146.701086 151.005812 
L 149.954134 168.636638 
L 151.580659 176.087534 
L 152.881878 180.97062 
L 153.857801 183.91003 
L 154.833715 186.193822 
L 155.80963 187.813903 
L 156.460239 188.531015 
L 157.110849 188.967649 
L 157.761459 189.136354 
L 158.412069 189.052833 
L 159.062678 188.735442 
L 159.713288 188.204597 
L 160.689203 187.05622 
L 161.665125 185.553939 
L 162.966344 183.133897 
L 164.918174 178.960691 
L 169.147137 169.769649 
L 170.773669 166.759035 
L 172.400193 164.23147 
L 173.701413 162.594798 
L 175.002632 161.306715 
L 176.303851 160.352236 
L 177.605071 159.699891 
L 178.906298 159.306723 
L 180.207517 159.12509 
L 181.834042 159.126874 
L 183.785871 159.372181 
L 186.063005 159.901643 
L 188.340147 160.670099 
L 190.291976 161.561272 
L 191.9185 162.514461 
L 193.545025 163.694751 
L 195.171557 165.120113 
L 197.123386 167.140265 
L 199.725825 170.211459 
L 202.978881 174.062763 
L 204.605405 175.675528 
L 205.906625 176.680933 
L 206.882532 177.223415 
L 207.858454 177.556869 
L 208.834376 177.661471 
L 209.810283 177.523018 
L 210.786205 177.13362 
L 211.762112 176.492201 
L 212.738035 175.604836 
L 214.039254 174.063255 
L 215.340473 172.160712 
L 216.967005 169.388572 
L 223.14779 158.345826 
L 224.449025 156.688122 
L 225.424932 155.7431 
L 226.400854 155.087918 
L 227.376761 154.745083 
L 228.352683 154.728627 
L 229.32859 155.043572 
L 230.304513 155.685647 
L 231.280419 156.641279 
L 232.256342 157.887887 
L 233.557561 159.947894 
L 235.184093 163.026009 
L 237.786532 168.56567 
L 240.388971 173.926807 
L 242.015503 176.716388 
L 243.316722 178.453939 
L 244.292629 179.40975 
L 245.268552 180.036961 
L 246.244458 180.317764 
L 246.895068 180.308139 
L 247.545678 180.140866 
L 248.5216 179.59941 
L 249.497523 178.723458 
L 250.473429 177.537491 
L 251.774649 175.53236 
L 253.401181 172.488265 
L 256.00362 166.944611 
L 258.606059 161.531607 
L 260.232591 158.690856 
L 261.53381 156.901355 
L 262.509717 155.899064 
L 263.485639 155.217884 
L 264.461546 154.874604 
L 265.112156 154.83737 
L 265.762781 154.953321 
L 266.738688 155.409003 
L 267.71461 156.188303 
L 268.690517 157.266748 
L 269.991737 159.11257 
L 271.618269 161.936159 
L 273.89541 166.441132 
L 276.823146 172.164216 
L 278.449678 174.831687 
L 279.750898 176.522527 
L 280.726805 177.479061 
L 281.702727 178.141426 
L 282.678649 178.494564 
L 283.654556 178.532394 
L 284.630478 178.25785 
L 285.606385 177.682663 
L 286.582308 176.826868 
L 287.883527 175.298046 
L 289.184747 173.40376 
L 291.136576 170.099169 
L 295.365547 162.726228 
L 296.992063 160.442181 
L 298.293283 159.028846 
L 299.269205 158.253437 
L 300.245127 157.742749 
L 301.221034 157.50705 
L 302.196956 157.548629 
L 303.172863 157.861867 
L 304.148786 158.433547 
L 305.124692 159.243379 
L 306.425912 160.646726 
L 308.052444 162.808702 
L 310.654883 166.777303 
L 313.257322 170.665944 
L 314.883854 172.714933 
L 316.185073 174.015615 
L 317.486293 174.951668 
L 318.462215 175.390752 
L 319.438122 175.594661 
L 320.414044 175.56202 
L 321.389951 175.298218 
L 322.365873 174.815121 
L 323.667093 173.861498 
L 324.968312 172.607091 
L 326.594844 170.724049 
L 332.775644 163.132926 
L 334.076864 161.982073 
L 335.378083 161.127505 
L 336.35399 160.702676 
L 337.329897 160.472778 
L 338.305835 160.440358 
L 339.281742 160.602281 
L 340.257648 160.949947 
L 341.558868 161.678065 
L 342.860087 162.666543 
L 344.486619 164.180905 
L 347.739683 167.636043 
L 350.01681 169.910877 
L 351.643342 171.241681 
L 352.944561 172.054156 
L 354.245781 172.604454 
L 355.547 172.872533 
L 356.84822 172.853237 
L 358.149439 172.556147 
L 359.450658 172.004658 
L 361.077191 171.012729 
L 363.029004 169.500965 
L 368.884507 164.695048 
L 370.511039 163.752036 
L 371.812259 163.222725 
L 373.113478 162.916423 
L 374.414698 162.841666 
L 375.715917 162.994996 
L 377.017136 163.361487 
L 378.643668 164.079963 
L 380.595482 165.231685 
L 387.426892 169.639433 
L 389.053424 170.314564 
L 390.679956 170.724108 
L 391.981176 170.845177 
L 393.282395 170.78183 
L 394.908927 170.458396 
L 396.535459 169.89912 
L 398.487273 168.994208 
L 398.487273 168.994208 
" clip-path="url(#pd63989e76f)" style="fill: none; stroke: #8c564b; stroke-width: 1.5; stroke-linecap: square"/>
   </g>
   <g id="line2d_19">
    <path d="M 73.832727 143.104794 
L 74.483338 142.84853 
L 75.133948 142.886758 
L 75.784558 143.215249 
L 76.435169 143.825208 
L 77.085779 144.705483 
L 78.061694 146.501803 
L 79.03761 148.814973 
L 80.33883 152.574855 
L 81.965357 158.07046 
L 87.495544 177.563164 
L 88.796764 181.10477 
L 89.77268 183.274715 
L 90.748596 184.975996 
L 91.724512 186.176118 
L 92.375122 186.687741 
L 93.025731 186.965386 
L 93.676343 187.009253 
L 94.326953 186.822192 
L 94.977563 186.409708 
L 95.628172 185.779922 
L 96.604089 184.451791 
L 97.580003 182.705262 
L 98.881225 179.825174 
L 100.507751 175.566014 
L 106.363244 159.471996 
L 107.664464 156.795748 
L 108.640378 155.18784 
L 109.616297 153.961087 
L 110.592211 153.138431 
L 111.242821 152.820628 
L 111.893431 152.688307 
L 112.544041 152.739764 
L 113.19465 152.971083 
L 114.170569 153.641477 
L 115.146483 154.673442 
L 116.122398 156.028583 
L 117.423617 158.256799 
L 119.050146 161.536958 
L 124.580332 173.201444 
L 125.881551 175.309608 
L 127.182775 176.962396 
L 128.158689 177.865967 
L 129.134604 178.463472 
L 130.110522 178.747994 
L 131.086437 178.721212 
L 132.062352 178.39317 
L 133.038266 177.781852 
L 134.014181 176.912522 
L 135.315404 175.407606 
L 136.941928 173.098845 
L 139.544371 168.892867 
L 142.14681 164.803125 
L 143.773334 162.650847 
L 145.074562 161.275648 
L 146.375781 160.267138 
L 147.351696 159.771845 
L 148.32761 159.507698 
L 149.303525 159.474166 
L 150.279439 159.664345 
L 151.255354 160.065338 
L 152.556573 160.895501 
L 153.857801 162.010915 
L 155.484325 163.702062 
L 161.99043 170.882653 
L 163.291649 171.896519 
L 164.592869 172.652998 
L 165.894088 173.128529 
L 167.195308 173.314311 
L 168.496527 173.216 
L 169.797754 172.852756 
L 171.098974 172.255697 
L 172.725498 171.243756 
L 175.002632 169.505672 
L 179.231603 166.190416 
L 181.183432 164.996595 
L 182.809956 164.286801 
L 184.111176 163.933018 
L 185.412395 163.777359 
L 186.713622 163.816239 
L 188.340147 164.11773 
L 189.966671 164.65896 
L 191.9185 165.541675 
L 199.40052 169.202289 
L 201.352349 169.749645 
L 202.978881 169.990804 
L 204.605405 170.033048 
L 206.557234 169.840746 
L 208.834376 169.34393 
L 211.762112 168.443431 
L 216.316396 167.026777 
L 218.918835 166.477346 
L 221.195961 166.237344 
L 223.473103 166.229143 
L 226.075542 166.462302 
L 229.653903 167.043522 
L 235.184093 167.94494 
L 238.111829 168.19782 
L 241.039581 168.244918 
L 244.617942 168.079934 
L 255.027697 167.456438 
L 259.907278 167.493826 
L 269.341127 167.611566 
L 276.497849 167.371998 
L 282.028024 167.285249 
L 286.582308 167.456168 
L 298.943908 168.137073 
L 302.522254 167.998215 
L 307.076537 167.57526 
L 313.582634 166.956981 
L 316.835683 166.866859 
L 320.088732 166.994174 
L 323.992405 167.390284 
L 332.125035 168.309056 
L 335.378083 168.395036 
L 338.631116 168.235855 
L 342.534806 167.784742 
L 350.01681 166.839729 
L 353.269874 166.707067 
L 356.197594 166.810497 
L 359.450658 167.143918 
L 369.860414 168.420464 
L 372.788165 168.450821 
L 375.715917 168.268419 
L 379.619575 167.777249 
L 386.450985 166.862706 
L 389.704049 166.692615 
L 392.631801 166.764694 
L 395.884834 167.071316 
L 398.487273 167.428324 
L 398.487273 167.428324 
" clip-path="url(#pd63989e76f)" style="fill: none; stroke: #e377c2; stroke-width: 1.5; stroke-linecap: square"/>
   </g>
   <g id="line2d_20">
    <path d="M 73.832727 150.829846 
L 76.435169 208.045186 
L 78.061694 239.032076 
L 79.362915 259.327549 
L 80.33883 271.3133 
L 81.314746 280.213334 
L 81.965357 284.342407 
L 82.615966 286.99436 
L 82.941272 287.763673 
L 83.266577 288.162883 
L 83.591882 288.194255 
L 83.917188 287.861222 
L 84.242493 287.168348 
L 84.893103 284.726913 
L 85.543713 280.927993 
L 86.194324 275.845419 
L 87.170239 266.010953 
L 88.146155 253.837727 
L 89.447375 234.655358 
L 91.399205 201.622376 
L 95.628172 128.018175 
L 96.929394 109.044696 
L 98.230615 93.432365 
L 99.20653 84.349644 
L 100.182446 77.75443 
L 100.833056 74.8059 
L 101.483666 73.038985 
L 101.80897 72.599752 
L 102.134277 72.455285 
L 102.459582 72.603339 
L 102.784887 73.040742 
L 103.110192 73.763418 
L 103.760802 76.043874 
L 104.411413 79.395117 
L 105.062023 83.755296 
L 106.037938 92.025119 
L 107.013854 102.112892 
L 108.315074 117.824836 
L 110.266907 144.495267 
L 113.845264 193.860191 
L 115.146483 209.127523 
L 116.447703 221.792144 
L 117.423617 229.251589 
L 118.399536 234.779537 
L 119.050146 237.340846 
L 119.700755 238.985704 
L 120.02606 239.463739 
L 120.351365 239.713319 
L 120.67667 239.736216 
L 121.001975 239.534922 
L 121.32728 239.112618 
L 121.977893 237.621055 
L 122.628503 235.299972 
L 123.279113 232.197264 
L 124.255027 226.203016 
L 125.230942 218.798823 
L 126.532165 207.165794 
L 128.483994 187.257995 
L 132.062352 149.992418 
L 133.688876 135.671571 
L 134.990099 126.407718 
L 135.966014 120.996741 
L 136.941928 117.02975 
L 137.592538 115.221646 
L 138.243148 114.093787 
L 138.568457 113.785123 
L 138.893761 113.645653 
L 139.219066 113.673968 
L 139.544371 113.86815 
L 140.194981 114.743939 
L 140.845591 116.247891 
L 141.4962 118.3476 
L 142.472115 122.527012 
L 143.448029 127.800739 
L 144.749257 136.217303 
L 146.701086 150.815429 
L 150.604744 180.721857 
L 151.905964 189.119061 
L 153.207191 196.062817 
L 154.183105 200.145951 
L 155.15902 203.172958 
L 155.80963 204.579809 
L 156.460239 205.490404 
L 157.110849 205.905856 
L 157.436154 205.929996 
L 157.761459 205.83363 
L 158.412069 205.287243 
L 159.062678 204.285882 
L 159.713288 202.853963 
L 160.689203 199.963707 
L 161.665125 196.286686 
L 162.966344 190.390532 
L 164.592869 181.914423 
L 169.147137 157.440791 
L 170.448364 151.701776 
L 171.749583 147.016667 
L 172.725498 144.30317 
L 173.701413 142.332023 
L 174.352022 141.444172 
L 175.002632 140.900452 
L 175.653242 140.698588 
L 176.303851 140.832058 
L 176.954461 141.290277 
L 177.605071 142.058846 
L 178.255688 143.11984 
L 179.231603 145.212614 
L 180.207517 147.832163 
L 181.508737 151.979733 
L 183.460566 159.098384 
L 187.038927 172.320168 
L 188.665452 177.329004 
L 189.966671 180.539501 
L 190.942586 182.40171 
L 191.9185 183.759691 
L 192.56911 184.376432 
L 193.21972 184.760894 
L 193.870329 184.91524 
L 194.520939 184.84452 
L 195.171557 184.556515 
L 195.822166 184.061565 
L 196.798081 182.959452 
L 197.773995 181.472207 
L 199.075215 178.99511 
L 200.701739 175.33209 
L 205.906625 163.088394 
L 207.207844 160.695344 
L 208.509064 158.795366 
L 209.484986 157.732288 
L 210.460893 156.996107 
L 211.436815 156.590945 
L 212.412722 156.511253 
L 213.388644 156.742408 
L 214.364551 157.261529 
L 215.340473 158.038479 
L 216.641693 159.412171 
L 218.268225 161.531716 
L 224.449025 170.116424 
L 225.750244 171.405111 
L 227.051464 172.371859 
L 228.027371 172.87018 
L 229.003293 173.170524 
L 229.9792 173.276304 
L 230.955122 173.196638 
L 232.256342 172.827293 
L 233.557561 172.200175 
L 235.184093 171.141369 
L 237.786532 169.112971 
L 240.714284 166.909423 
L 242.3408 165.939744 
L 243.967332 165.240516 
L 245.268552 164.897392 
L 246.569771 164.747883 
L 248.196288 164.814619 
L 249.82282 165.120511 
L 251.774649 165.713683 
L 257.955449 167.795635 
L 259.907278 168.119088 
L 261.859107 168.182811 
L 263.810936 168.000507 
L 266.088078 167.552889 
L 272.268878 166.181416 
L 274.220707 166.041794 
L 276.172537 166.146981 
L 278.124366 166.501955 
L 280.401508 167.179539 
L 287.558214 169.594867 
L 289.184747 169.836178 
L 290.811279 169.864975 
L 292.437795 169.664221 
L 294.064327 169.237723 
L 296.016156 168.464972 
L 298.618595 167.132623 
L 302.847566 164.920561 
L 304.799395 164.188434 
L 306.425912 163.829352 
L 307.727147 163.736186 
L 309.028366 163.827347 
L 310.329586 164.103537 
L 311.956102 164.694028 
L 313.582634 165.519466 
L 315.859776 166.951872 
L 320.739341 170.124476 
L 322.365873 170.899759 
L 323.992405 171.411221 
L 325.293625 171.598308 
L 326.594844 171.573403 
L 327.896064 171.334388 
L 329.197283 170.890092 
L 330.8238 170.076685 
L 332.775644 168.803278 
L 336.35399 166.087345 
L 338.631116 164.489748 
L 340.257648 163.581706 
L 341.88418 162.953113 
L 343.1854 162.687309 
L 344.486619 162.649249 
L 345.787839 162.842666 
L 347.089058 163.259734 
L 348.71559 164.065497 
L 350.342122 165.130356 
L 352.944561 167.165916 
L 356.522907 169.968821 
L 358.149439 170.989393 
L 359.775971 171.73339 
L 361.077191 172.089238 
L 362.37841 172.211874 
L 363.679629 172.094638 
L 364.980849 171.742749 
L 366.282068 171.173064 
L 367.9086 170.197812 
L 369.860414 168.742549 
L 375.715917 164.139264 
L 377.342449 163.237453 
L 378.643668 162.738867 
L 379.944888 162.465455 
L 381.246107 162.430436 
L 382.547327 162.635274 
L 383.848546 163.069635 
L 385.475078 163.901418 
L 387.10161 164.99302 
L 389.704049 167.064664 
L 392.957082 169.663142 
L 394.908927 170.921741 
L 396.535459 171.670326 
L 397.836679 172.030674 
L 398.487273 172.124835 
L 398.487273 172.124835 
" clip-path="url(#pd63989e76f)" style="fill: none; stroke: #7f7f7f; stroke-width: 1.5; stroke-linecap: square"/>
   </g>
   <g id="patch_3">
    <path d="M 57.6 307.584 
L 57.6 41.472 
" style="fill: none; stroke: #000000; stroke-width: 0.8; stroke-linejoin: miter; stroke-linecap: square"/>
   </g>
   <g id="patch_4">
    <path d="M 414.72 307.584 
L 414.72 41.472 
" style="fill: none; stroke: #000000; stroke-width: 0.8; stroke-linejoin: miter; stroke-linecap: square"/>
   </g>
   <g id="patch_5">
    <path d="M 57.6 307.584 
L 414.72 307.584 
" style="fill: none; stroke: #000000; stroke-width: 0.8; stroke-linejoin: miter; stroke-linecap: square"/>
   </g>
   <g id="patch_6">
    <path d="M 57.6 41.472 
L 414.72 41.472 
" style="fill: none; stroke: #000000; stroke-width: 0.8; stroke-linejoin: miter; stroke-linecap: square"/>
   </g>
   <g id="legend_1">
    <g id="patch_7">
     <path d="M 363.43875 166.897 
L 407.72 166.897 
Q 409.72 166.897 409.72 164.897 
L 409.72 48.472 
Q 409.72 46.472 407.72 46.472 
L 363.43875 46.472 
Q 361.43875 46.472 361.43875 48.472 
L 361.43875 164.897 
Q 361.43875 166.897 363.43875 166.897 
z
" style="fill: #ffffff; opacity: 0.8; stroke: #cccccc; stroke-linejoin: miter"/>
    </g>
    <g id="line2d_21">
     <path d="M 365.43875 54.570438 
L 375.43875 54.570438 
L 385.43875 54.570438 
" style="fill: none; stroke: #1f77b4; stroke-width: 1.5; stroke-linecap: square"/>
    </g>
    <g id="text_15">
     <!-- x0 -->
     <g transform="translate(393.43875 58.070438) scale(0.1 -0.1)">
      <defs>
       <path id="DejaVuSans-78" d="M 3513 3500 
L 2247 1797 
L 3578 0 
L 2900 0 
L 1881 1375 
L 863 0 
L 184 0 
L 1544 1831 
L 300 3500 
L 978 3500 
L 1906 2253 
L 2834 3500 
L 3513 3500 
z
" transform="scale(0.015625)"/>
      </defs>
      <use xlink:href="#DejaVuSans-78"/>
      <use xlink:href="#DejaVuSans-30" transform="translate(59.179688 0)"/>
     </g>
    </g>
    <g id="line2d_22">
     <path d="M 365.43875 69.248563 
L 375.43875 69.248563 
L 385.43875 69.248563 
" style="fill: none; stroke: #ff7f0e; stroke-width: 1.5; stroke-linecap: square"/>
    </g>
    <g id="text_16">
     <!-- x1 -->
     <g transform="translate(393.43875 72.748563) scale(0.1 -0.1)">
      <use xlink:href="#DejaVuSans-78"/>
      <use xlink:href="#DejaVuSans-31" transform="translate(59.179688 0)"/>
     </g>
    </g>
    <g id="line2d_23">
     <path d="M 365.43875 83.926688 
L 375.43875 83.926688 
L 385.43875 83.926688 
" style="fill: none; stroke: #2ca02c; stroke-width: 1.5; stroke-linecap: square"/>
    </g>
    <g id="text_17">
     <!-- x2 -->
     <g transform="translate(393.43875 87.426688) scale(0.1 -0.1)">
      <use xlink:href="#DejaVuSans-78"/>
      <use xlink:href="#DejaVuSans-32" transform="translate(59.179688 0)"/>
     </g>
    </g>
    <g id="line2d_24">
     <path d="M 365.43875 98.604813 
L 375.43875 98.604813 
L 385.43875 98.604813 
" style="fill: none; stroke: #d62728; stroke-width: 1.5; stroke-linecap: square"/>
    </g>
    <g id="text_18">
     <!-- x3 -->
     <g transform="translate(393.43875 102.104813) scale(0.1 -0.1)">
      <defs>
       <path id="DejaVuSans-33" d="M 2597 2516 
Q 3050 2419 3304 2112 
Q 3559 1806 3559 1356 
Q 3559 666 3084 287 
Q 2609 -91 1734 -91 
Q 1441 -91 1130 -33 
Q 819 25 488 141 
L 488 750 
Q 750 597 1062 519 
Q 1375 441 1716 441 
Q 2309 441 2620 675 
Q 2931 909 2931 1356 
Q 2931 1769 2642 2001 
Q 2353 2234 1838 2234 
L 1294 2234 
L 1294 2753 
L 1863 2753 
Q 2328 2753 2575 2939 
Q 2822 3125 2822 3475 
Q 2822 3834 2567 4026 
Q 2313 4219 1838 4219 
Q 1578 4219 1281 4162 
Q 984 4106 628 3988 
L 628 4550 
Q 988 4650 1302 4700 
Q 1616 4750 1894 4750 
Q 2613 4750 3031 4423 
Q 3450 4097 3450 3541 
Q 3450 3153 3228 2886 
Q 3006 2619 2597 2516 
z
" transform="scale(0.015625)"/>
      </defs>
      <use xlink:href="#DejaVuSans-78"/>
      <use xlink:href="#DejaVuSans-33" transform="translate(59.179688 0)"/>
     </g>
    </g>
    <g id="line2d_25">
     <path d="M 365.43875 113.282938 
L 375.43875 113.282938 
L 385.43875 113.282938 
" style="fill: none; stroke: #9467bd; stroke-width: 1.5; stroke-linecap: square"/>
    </g>
    <g id="text_19">
     <!-- x4 -->
     <g transform="translate(393.43875 116.782938) scale(0.1 -0.1)">
      <use xlink:href="#DejaVuSans-78"/>
      <use xlink:href="#DejaVuSans-34" transform="translate(59.179688 0)"/>
     </g>
    </g>
    <g id="line2d_26">
     <path d="M 365.43875 127.961063 
L 375.43875 127.961063 
L 385.43875 127.961063 
" style="fill: none; stroke: #8c564b; stroke-width: 1.5; stroke-linecap: square"/>
    </g>
    <g id="text_20">
     <!-- x5 -->
     <g transform="translate(393.43875 131.461063) scale(0.1 -0.1)">
      <defs>
       <path id="DejaVuSans-35" d="M 691 4666 
L 3169 4666 
L 3169 4134 
L 1269 4134 
L 1269 2991 
Q 1406 3038 1543 3061 
Q 1681 3084 1819 3084 
Q 2600 3084 3056 2656 
Q 3513 2228 3513 1497 
Q 3513 744 3044 326 
Q 2575 -91 1722 -91 
Q 1428 -91 1123 -41 
Q 819 9 494 109 
L 494 744 
Q 775 591 1075 516 
Q 1375 441 1709 441 
Q 2250 441 2565 725 
Q 2881 1009 2881 1497 
Q 2881 1984 2565 2268 
Q 2250 2553 1709 2553 
Q 1456 2553 1204 2497 
Q 953 2441 691 2322 
L 691 4666 
z
" transform="scale(0.015625)"/>
      </defs>
      <use xlink:href="#DejaVuSans-78"/>
      <use xlink:href="#DejaVuSans-35" transform="translate(59.179688 0)"/>
     </g>
    </g>
    <g id="line2d_27">
     <path d="M 365.43875 142.639188 
L 375.43875 142.639188 
L 385.43875 142.639188 
" style="fill: none; stroke: #e377c2; stroke-width: 1.5; stroke-linecap: square"/>
    </g>
    <g id="text_21">
     <!-- x6 -->
     <g transform="translate(393.43875 146.139188) scale(0.1 -0.1)">
      <use xlink:href="#DejaVuSans-78"/>
      <use xlink:href="#DejaVuSans-36" transform="translate(59.179688 0)"/>
     </g>
    </g>
    <g id="line2d_28">
     <path d="M 365.43875 157.317313 
L 375.43875 157.317313 
L 385.43875 157.317313 
" style="fill: none; stroke: #7f7f7f; stroke-width: 1.5; stroke-linecap: square"/>
    </g>
    <g id="text_22">
     <!-- x7 -->
     <g transform="translate(393.43875 160.817313) scale(0.1 -0.1)">
      <defs>
       <path id="DejaVuSans-37" d="M 525 4666 
L 3525 4666 
L 3525 4397 
L 1831 0 
L 1172 0 
L 2766 4134 
L 525 4134 
L 525 4666 
z
" transform="scale(0.015625)"/>
      </defs>
      <use xlink:href="#DejaVuSans-78"/>
      <use xlink:href="#DejaVuSans-37" transform="translate(59.179688 0)"/>
     </g>
    </g>
   </g>
  </g>
 </g>
 <defs>
  <clipPath id="pd63989e76f">
   <rect x="57.6" y="41.472" width="357.12" height="266.112"/>
  </clipPath>
 </defs>
</svg>
