<?xml version="1.0" encoding="utf-8" standalone="no"?>
<!DOCTYPE svg PUBLIC "-//W3C//DTD SVG 1.1//EN"
  "http://www.w3.org/Graphics/SVG/1.1/DTD/svg11.dtd">
<svg xmlns:xlink="http://www.w3.org/1999/xlink" width="460.8pt" height="345.6pt" viewBox="0 0 460.8 345.6" xmlns="http://www.w3.org/2000/svg" version="1.1">
 <metadata>
  <rdf:RDF xmlns:dc="http://purl.org/dc/elements/1.1/" xmlns:cc="http://creativecommons.org/ns#" xmlns:rdf="http://www.w3.org/1999/02/22-rdf-syntax-ns#">
   <cc:Work>
    <dc:type rdf:resource="http://purl.org/dc/dcmitype/StillImage"/>
    <dc:date>2025-05-10T03:30:41.900710</dc:date>
    <dc:format>image/svg+xml</dc:format>
    <dc:creator>
     <cc:Agent>
      <dc:title>Matplotlib v3.10.0, https://matplotlib.org/</dc:title>
     </cc:Agent>
    </dc:creator>
   </cc:Work>
  </rdf:RDF>
 </metadata>
 <defs>
  <style type="text/css">*{stroke-linejoin: round; stroke-linecap: butt}</style>
 </defs>
 <g id="figure_1">
  <g id="patch_1">
   <path d="M 0 345.6 
L 460.8 345.6 
L 460.8 0 
L 0 0 
z
" style="fill: #ffffff"/>
  </g>
  <g id="axes_1">
   <g id="patch_2">
    <path d="M 57.6 307.584 
L 414.72 307.584 
L 414.72 41.472 
L 57.6 41.472 
z
" style="fill: #ffffff"/>
   </g>
   <g id="matplotlib.axis_1">
    <g id="xtick_1">
     <g id="line2d_1">
      <defs>
       <path id="m90623a771a" d="M 0 0 
L 0 3.5 
" style="stroke: #000000; stroke-width: 0.8"/>
      </defs>
      <g>
       <use xlink:href="#m90623a771a" x="73.832727" y="307.584" style="stroke: #000000; stroke-width: 0.8"/>
      </g>
     </g>
     <g id="text_1">
      <!-- 0 -->
      <g transform="translate(70.651477 322.182437) scale(0.1 -0.1)">
       <defs>
        <path id="DejaVuSans-30" d="M 2034 4250 
Q 1547 4250 1301 3770 
Q 1056 3291 1056 2328 
Q 1056 1369 1301 889 
Q 1547 409 2034 409 
Q 2525 409 2770 889 
Q 3016 1369 3016 2328 
Q 3016 3291 2770 3770 
Q 2525 4250 2034 4250 
z
M 2034 4750 
Q 2819 4750 3233 4129 
Q 3647 3509 3647 2328 
Q 3647 1150 3233 529 
Q 2819 -91 2034 -91 
Q 1250 -91 836 529 
Q 422 1150 422 2328 
Q 422 3509 836 4129 
Q 1250 4750 2034 4750 
z
" transform="scale(0.015625)"/>
       </defs>
       <use xlink:href="#DejaVuSans-30"/>
      </g>
     </g>
    </g>
    <g id="xtick_2">
     <g id="line2d_2">
      <g>
       <use xlink:href="#m90623a771a" x="138.893761" y="307.584" style="stroke: #000000; stroke-width: 0.8"/>
      </g>
     </g>
     <g id="text_2">
      <!-- 2 -->
      <g transform="translate(135.712511 322.182437) scale(0.1 -0.1)">
       <defs>
        <path id="DejaVuSans-32" d="M 1228 531 
L 3431 531 
L 3431 0 
L 469 0 
L 469 531 
Q 828 903 1448 1529 
Q 2069 2156 2228 2338 
Q 2531 2678 2651 2914 
Q 2772 3150 2772 3378 
Q 2772 3750 2511 3984 
Q 2250 4219 1831 4219 
Q 1534 4219 1204 4116 
Q 875 4013 500 3803 
L 500 4441 
Q 881 4594 1212 4672 
Q 1544 4750 1819 4750 
Q 2544 4750 2975 4387 
Q 3406 4025 3406 3419 
Q 3406 3131 3298 2873 
Q 3191 2616 2906 2266 
Q 2828 2175 2409 1742 
Q 1991 1309 1228 531 
z
" transform="scale(0.015625)"/>
       </defs>
       <use xlink:href="#DejaVuSans-32"/>
      </g>
     </g>
    </g>
    <g id="xtick_3">
     <g id="line2d_3">
      <g>
       <use xlink:href="#m90623a771a" x="203.954796" y="307.584" style="stroke: #000000; stroke-width: 0.8"/>
      </g>
     </g>
     <g id="text_3">
      <!-- 4 -->
      <g transform="translate(200.773546 322.182437) scale(0.1 -0.1)">
       <defs>
        <path id="DejaVuSans-34" d="M 2419 4116 
L 825 1625 
L 2419 1625 
L 2419 4116 
z
M 2253 4666 
L 3047 4666 
L 3047 1625 
L 3713 1625 
L 3713 1100 
L 3047 1100 
L 3047 0 
L 2419 0 
L 2419 1100 
L 313 1100 
L 313 1709 
L 2253 4666 
z
" transform="scale(0.015625)"/>
       </defs>
       <use xlink:href="#DejaVuSans-34"/>
      </g>
     </g>
    </g>
    <g id="xtick_4">
     <g id="line2d_4">
      <g>
       <use xlink:href="#m90623a771a" x="269.01583" y="307.584" style="stroke: #000000; stroke-width: 0.8"/>
      </g>
     </g>
     <g id="text_4">
      <!-- 6 -->
      <g transform="translate(265.83458 322.182437) scale(0.1 -0.1)">
       <defs>
        <path id="DejaVuSans-36" d="M 2113 2584 
Q 1688 2584 1439 2293 
Q 1191 2003 1191 1497 
Q 1191 994 1439 701 
Q 1688 409 2113 409 
Q 2538 409 2786 701 
Q 3034 994 3034 1497 
Q 3034 2003 2786 2293 
Q 2538 2584 2113 2584 
z
M 3366 4563 
L 3366 3988 
Q 3128 4100 2886 4159 
Q 2644 4219 2406 4219 
Q 1781 4219 1451 3797 
Q 1122 3375 1075 2522 
Q 1259 2794 1537 2939 
Q 1816 3084 2150 3084 
Q 2853 3084 3261 2657 
Q 3669 2231 3669 1497 
Q 3669 778 3244 343 
Q 2819 -91 2113 -91 
Q 1303 -91 875 529 
Q 447 1150 447 2328 
Q 447 3434 972 4092 
Q 1497 4750 2381 4750 
Q 2619 4750 2861 4703 
Q 3103 4656 3366 4563 
z
" transform="scale(0.015625)"/>
       </defs>
       <use xlink:href="#DejaVuSans-36"/>
      </g>
     </g>
    </g>
    <g id="xtick_5">
     <g id="line2d_5">
      <g>
       <use xlink:href="#m90623a771a" x="334.076864" y="307.584" style="stroke: #000000; stroke-width: 0.8"/>
      </g>
     </g>
     <g id="text_5">
      <!-- 8 -->
      <g transform="translate(330.895614 322.182437) scale(0.1 -0.1)">
       <defs>
        <path id="DejaVuSans-38" d="M 2034 2216 
Q 1584 2216 1326 1975 
Q 1069 1734 1069 1313 
Q 1069 891 1326 650 
Q 1584 409 2034 409 
Q 2484 409 2743 651 
Q 3003 894 3003 1313 
Q 3003 1734 2745 1975 
Q 2488 2216 2034 2216 
z
M 1403 2484 
Q 997 2584 770 2862 
Q 544 3141 544 3541 
Q 544 4100 942 4425 
Q 1341 4750 2034 4750 
Q 2731 4750 3128 4425 
Q 3525 4100 3525 3541 
Q 3525 3141 3298 2862 
Q 3072 2584 2669 2484 
Q 3125 2378 3379 2068 
Q 3634 1759 3634 1313 
Q 3634 634 3220 271 
Q 2806 -91 2034 -91 
Q 1263 -91 848 271 
Q 434 634 434 1313 
Q 434 1759 690 2068 
Q 947 2378 1403 2484 
z
M 1172 3481 
Q 1172 3119 1398 2916 
Q 1625 2713 2034 2713 
Q 2441 2713 2670 2916 
Q 2900 3119 2900 3481 
Q 2900 3844 2670 4047 
Q 2441 4250 2034 4250 
Q 1625 4250 1398 4047 
Q 1172 3844 1172 3481 
z
" transform="scale(0.015625)"/>
       </defs>
       <use xlink:href="#DejaVuSans-38"/>
      </g>
     </g>
    </g>
    <g id="xtick_6">
     <g id="line2d_6">
      <g>
       <use xlink:href="#m90623a771a" x="399.137898" y="307.584" style="stroke: #000000; stroke-width: 0.8"/>
      </g>
     </g>
     <g id="text_6">
      <!-- 10 -->
      <g transform="translate(392.775398 322.182437) scale(0.1 -0.1)">
       <defs>
        <path id="DejaVuSans-31" d="M 794 531 
L 1825 531 
L 1825 4091 
L 703 3866 
L 703 4441 
L 1819 4666 
L 2450 4666 
L 2450 531 
L 3481 531 
L 3481 0 
L 794 0 
L 794 531 
z
" transform="scale(0.015625)"/>
       </defs>
       <use xlink:href="#DejaVuSans-31"/>
       <use xlink:href="#DejaVuSans-30" transform="translate(63.623047 0)"/>
      </g>
     </g>
    </g>
    <g id="text_7">
     <!-- time -->
     <g transform="translate(224.863906 335.860562) scale(0.1 -0.1)">
      <defs>
       <path id="DejaVuSans-74" d="M 1172 4494 
L 1172 3500 
L 2356 3500 
L 2356 3053 
L 1172 3053 
L 1172 1153 
Q 1172 725 1289 603 
Q 1406 481 1766 481 
L 2356 481 
L 2356 0 
L 1766 0 
Q 1100 0 847 248 
Q 594 497 594 1153 
L 594 3053 
L 172 3053 
L 172 3500 
L 594 3500 
L 594 4494 
L 1172 4494 
z
" transform="scale(0.015625)"/>
       <path id="DejaVuSans-69" d="M 603 3500 
L 1178 3500 
L 1178 0 
L 603 0 
L 603 3500 
z
M 603 4863 
L 1178 4863 
L 1178 4134 
L 603 4134 
L 603 4863 
z
" transform="scale(0.015625)"/>
       <path id="DejaVuSans-6d" d="M 3328 2828 
Q 3544 3216 3844 3400 
Q 4144 3584 4550 3584 
Q 5097 3584 5394 3201 
Q 5691 2819 5691 2113 
L 5691 0 
L 5113 0 
L 5113 2094 
Q 5113 2597 4934 2840 
Q 4756 3084 4391 3084 
Q 3944 3084 3684 2787 
Q 3425 2491 3425 1978 
L 3425 0 
L 2847 0 
L 2847 2094 
Q 2847 2600 2669 2842 
Q 2491 3084 2119 3084 
Q 1678 3084 1418 2786 
Q 1159 2488 1159 1978 
L 1159 0 
L 581 0 
L 581 3500 
L 1159 3500 
L 1159 2956 
Q 1356 3278 1631 3431 
Q 1906 3584 2284 3584 
Q 2666 3584 2933 3390 
Q 3200 3197 3328 2828 
z
" transform="scale(0.015625)"/>
       <path id="DejaVuSans-65" d="M 3597 1894 
L 3597 1613 
L 953 1613 
Q 991 1019 1311 708 
Q 1631 397 2203 397 
Q 2534 397 2845 478 
Q 3156 559 3463 722 
L 3463 178 
Q 3153 47 2828 -22 
Q 2503 -91 2169 -91 
Q 1331 -91 842 396 
Q 353 884 353 1716 
Q 353 2575 817 3079 
Q 1281 3584 2069 3584 
Q 2775 3584 3186 3129 
Q 3597 2675 3597 1894 
z
M 3022 2063 
Q 3016 2534 2758 2815 
Q 2500 3097 2075 3097 
Q 1594 3097 1305 2825 
Q 1016 2553 972 2059 
L 3022 2063 
z
" transform="scale(0.015625)"/>
      </defs>
      <use xlink:href="#DejaVuSans-74"/>
      <use xlink:href="#DejaVuSans-69" transform="translate(39.208984 0)"/>
      <use xlink:href="#DejaVuSans-6d" transform="translate(66.992188 0)"/>
      <use xlink:href="#DejaVuSans-65" transform="translate(164.404297 0)"/>
     </g>
    </g>
   </g>
   <g id="matplotlib.axis_2">
    <g id="ytick_1">
     <g id="line2d_7">
      <defs>
       <path id="m1f2b69086d" d="M 0 0 
L -3.5 0 
" style="stroke: #000000; stroke-width: 0.8"/>
      </defs>
      <g>
       <use xlink:href="#m1f2b69086d" x="57.6" y="281.429754" style="stroke: #000000; stroke-width: 0.8"/>
      </g>
     </g>
     <g id="text_8">
      <!-- −6 -->
      <g transform="translate(35.857813 285.228973) scale(0.1 -0.1)">
       <defs>
        <path id="DejaVuSans-2212" d="M 678 2272 
L 4684 2272 
L 4684 1741 
L 678 1741 
L 678 2272 
z
" transform="scale(0.015625)"/>
       </defs>
       <use xlink:href="#DejaVuSans-2212"/>
       <use xlink:href="#DejaVuSans-36" transform="translate(83.789062 0)"/>
      </g>
     </g>
    </g>
    <g id="ytick_2">
     <g id="line2d_8">
      <g>
       <use xlink:href="#m1f2b69086d" x="57.6" y="244.169652" style="stroke: #000000; stroke-width: 0.8"/>
      </g>
     </g>
     <g id="text_9">
      <!-- −4 -->
      <g transform="translate(35.857813 247.968871) scale(0.1 -0.1)">
       <use xlink:href="#DejaVuSans-2212"/>
       <use xlink:href="#DejaVuSans-34" transform="translate(83.789062 0)"/>
      </g>
     </g>
    </g>
    <g id="ytick_3">
     <g id="line2d_9">
      <g>
       <use xlink:href="#m1f2b69086d" x="57.6" y="206.90955" style="stroke: #000000; stroke-width: 0.8"/>
      </g>
     </g>
     <g id="text_10">
      <!-- −2 -->
      <g transform="translate(35.857813 210.708769) scale(0.1 -0.1)">
       <use xlink:href="#DejaVuSans-2212"/>
       <use xlink:href="#DejaVuSans-32" transform="translate(83.789062 0)"/>
      </g>
     </g>
    </g>
    <g id="ytick_4">
     <g id="line2d_10">
      <g>
       <use xlink:href="#m1f2b69086d" x="57.6" y="169.649448" style="stroke: #000000; stroke-width: 0.8"/>
      </g>
     </g>
     <g id="text_11">
      <!-- 0 -->
      <g transform="translate(44.2375 173.448667) scale(0.1 -0.1)">
       <use xlink:href="#DejaVuSans-30"/>
      </g>
     </g>
    </g>
    <g id="ytick_5">
     <g id="line2d_11">
      <g>
       <use xlink:href="#m1f2b69086d" x="57.6" y="132.389346" style="stroke: #000000; stroke-width: 0.8"/>
      </g>
     </g>
     <g id="text_12">
      <!-- 2 -->
      <g transform="translate(44.2375 136.188565) scale(0.1 -0.1)">
       <use xlink:href="#DejaVuSans-32"/>
      </g>
     </g>
    </g>
    <g id="ytick_6">
     <g id="line2d_12">
      <g>
       <use xlink:href="#m1f2b69086d" x="57.6" y="95.129244" style="stroke: #000000; stroke-width: 0.8"/>
      </g>
     </g>
     <g id="text_13">
      <!-- 4 -->
      <g transform="translate(44.2375 98.928463) scale(0.1 -0.1)">
       <use xlink:href="#DejaVuSans-34"/>
      </g>
     </g>
    </g>
    <g id="ytick_7">
     <g id="line2d_13">
      <g>
       <use xlink:href="#m1f2b69086d" x="57.6" y="57.869142" style="stroke: #000000; stroke-width: 0.8"/>
      </g>
     </g>
     <g id="text_14">
      <!-- 6 -->
      <g transform="translate(44.2375 61.668361) scale(0.1 -0.1)">
       <use xlink:href="#DejaVuSans-36"/>
      </g>
     </g>
    </g>
    <g id="text_15">
     <!-- action -->
     <g transform="translate(29.778125 189.918625) rotate(-90) scale(0.1 -0.1)">
      <defs>
       <path id="DejaVuSans-61" d="M 2194 1759 
Q 1497 1759 1228 1600 
Q 959 1441 959 1056 
Q 959 750 1161 570 
Q 1363 391 1709 391 
Q 2188 391 2477 730 
Q 2766 1069 2766 1631 
L 2766 1759 
L 2194 1759 
z
M 3341 1997 
L 3341 0 
L 2766 0 
L 2766 531 
Q 2569 213 2275 61 
Q 1981 -91 1556 -91 
Q 1019 -91 701 211 
Q 384 513 384 1019 
Q 384 1609 779 1909 
Q 1175 2209 1959 2209 
L 2766 2209 
L 2766 2266 
Q 2766 2663 2505 2880 
Q 2244 3097 1772 3097 
Q 1472 3097 1187 3025 
Q 903 2953 641 2809 
L 641 3341 
Q 956 3463 1253 3523 
Q 1550 3584 1831 3584 
Q 2591 3584 2966 3190 
Q 3341 2797 3341 1997 
z
" transform="scale(0.015625)"/>
       <path id="DejaVuSans-63" d="M 3122 3366 
L 3122 2828 
Q 2878 2963 2633 3030 
Q 2388 3097 2138 3097 
Q 1578 3097 1268 2742 
Q 959 2388 959 1747 
Q 959 1106 1268 751 
Q 1578 397 2138 397 
Q 2388 397 2633 464 
Q 2878 531 3122 666 
L 3122 134 
Q 2881 22 2623 -34 
Q 2366 -91 2075 -91 
Q 1284 -91 818 406 
Q 353 903 353 1747 
Q 353 2603 823 3093 
Q 1294 3584 2113 3584 
Q 2378 3584 2631 3529 
Q 2884 3475 3122 3366 
z
" transform="scale(0.015625)"/>
       <path id="DejaVuSans-6f" d="M 1959 3097 
Q 1497 3097 1228 2736 
Q 959 2375 959 1747 
Q 959 1119 1226 758 
Q 1494 397 1959 397 
Q 2419 397 2687 759 
Q 2956 1122 2956 1747 
Q 2956 2369 2687 2733 
Q 2419 3097 1959 3097 
z
M 1959 3584 
Q 2709 3584 3137 3096 
Q 3566 2609 3566 1747 
Q 3566 888 3137 398 
Q 2709 -91 1959 -91 
Q 1206 -91 779 398 
Q 353 888 353 1747 
Q 353 2609 779 3096 
Q 1206 3584 1959 3584 
z
" transform="scale(0.015625)"/>
       <path id="DejaVuSans-6e" d="M 3513 2113 
L 3513 0 
L 2938 0 
L 2938 2094 
Q 2938 2591 2744 2837 
Q 2550 3084 2163 3084 
Q 1697 3084 1428 2787 
Q 1159 2491 1159 1978 
L 1159 0 
L 581 0 
L 581 3500 
L 1159 3500 
L 1159 2956 
Q 1366 3272 1645 3428 
Q 1925 3584 2291 3584 
Q 2894 3584 3203 3211 
Q 3513 2838 3513 2113 
z
" transform="scale(0.015625)"/>
      </defs>
      <use xlink:href="#DejaVuSans-61"/>
      <use xlink:href="#DejaVuSans-63" transform="translate(61.279297 0)"/>
      <use xlink:href="#DejaVuSans-74" transform="translate(116.259766 0)"/>
      <use xlink:href="#DejaVuSans-69" transform="translate(155.46875 0)"/>
      <use xlink:href="#DejaVuSans-6f" transform="translate(183.251953 0)"/>
      <use xlink:href="#DejaVuSans-6e" transform="translate(244.433594 0)"/>
     </g>
    </g>
   </g>
   <g id="line2d_14">
    <path d="M 73.832727 170.135214 
L 74.158032 165.326254 
L 74.483338 164.89188 
L 75.133948 164.468567 
L 75.784558 163.84065 
L 76.109863 164.556736 
L 76.435169 165.894386 
L 76.760474 166.64377 
L 77.085779 166.915381 
L 77.736389 167.01917 
L 80.33883 167.116745 
L 82.290661 167.460192 
L 83.917188 167.986428 
L 85.218408 168.632693 
L 86.519628 169.561042 
L 87.820849 170.845885 
L 91.0739 174.43864 
L 92.375122 175.242362 
L 94.001648 175.979175 
L 95.628172 176.493679 
L 97.580003 176.883522 
L 99.857139 177.131113 
L 101.80897 177.124839 
L 103.435497 176.866944 
L 104.736718 176.436118 
L 106.037938 175.778151 
L 107.339159 174.887814 
L 108.965683 173.47298 
L 114.821178 167.937897 
L 116.773008 166.654599 
L 118.399536 165.854814 
L 119.700755 165.449752 
L 121.001975 165.302519 
L 121.977893 165.379902 
L 122.953808 165.627128 
L 124.255027 166.225275 
L 125.556247 167.11248 
L 127.182775 168.523578 
L 131.411742 172.355183 
L 133.363571 173.77179 
L 135.315404 174.902961 
L 136.941928 175.59453 
L 138.568457 176.021376 
L 139.869676 176.153214 
L 141.170895 176.084253 
L 142.472115 175.800016 
L 143.773334 175.286421 
L 145.074562 174.537561 
L 146.701086 173.299825 
L 148.97822 171.218534 
L 151.905964 168.581343 
L 153.532496 167.365929 
L 155.15902 166.420221 
L 156.460239 165.892088 
L 157.761459 165.58952 
L 159.062678 165.529522 
L 160.363898 165.725058 
L 161.665125 166.1806 
L 162.966344 166.884084 
L 164.592869 168.055952 
L 166.870003 170.024056 
L 170.123059 172.818682 
L 172.074888 174.174461 
L 173.701413 175.024197 
L 175.327937 175.585363 
L 176.629156 175.8116 
L 177.930376 175.827865 
L 179.231603 175.623252 
L 180.532822 175.190765 
L 181.834042 174.533418 
L 183.460566 173.426786 
L 185.412395 171.795507 
L 189.641366 168.170859 
L 191.26789 167.099443 
L 192.894415 166.324524 
L 194.195634 165.943314 
L 195.496861 165.788193 
L 196.798081 165.867467 
L 198.0993 166.183087 
L 199.40052 166.726781 
L 201.027044 167.692144 
L 202.978881 169.164323 
L 208.183766 173.307223 
L 209.810283 174.263173 
L 211.436815 174.944188 
L 212.738035 175.270118 
L 214.039254 175.389232 
L 215.340473 175.293842 
L 216.641693 174.981836 
L 217.942912 174.46012 
L 219.569444 173.543403 
L 221.521274 172.148589 
L 226.726151 168.209416 
L 228.352683 167.309313 
L 229.9792 166.684972 
L 231.280419 166.404959 
L 232.581654 166.329787 
L 233.882874 166.462849 
L 235.184093 166.800697 
L 236.81061 167.490296 
L 238.437142 168.428541 
L 241.039581 170.244966 
L 244.292629 172.508067 
L 246.244458 173.581113 
L 247.87099 174.21695 
L 249.497523 174.581 
L 250.798742 174.663186 
L 252.099961 174.554967 
L 253.401181 174.259096 
L 255.027697 173.64375 
L 256.979527 172.607726 
L 259.907278 170.713565 
L 262.83503 168.881093 
L 264.786859 167.928443 
L 266.413391 167.379467 
L 268.039907 167.085462 
L 269.666439 167.060373 
L 271.292956 167.303953 
L 272.919488 167.799348 
L 274.871317 168.67267 
L 277.473756 170.134565 
L 281.052117 172.155226 
L 283.003946 173.014111 
L 284.630478 173.51482 
L 286.256995 173.788482 
L 287.883527 173.820739 
L 289.510044 173.611355 
L 291.136576 173.176087 
L 293.088405 172.404497 
L 296.016156 170.937484 
L 299.594518 169.162901 
L 301.546347 168.426689 
L 303.172863 168.00937 
L 304.799395 167.796226 
L 306.425912 167.797115 
L 308.052444 168.008682 
L 310.004273 168.515069 
L 312.281415 169.376851 
L 319.438122 172.356782 
L 321.389951 172.82512 
L 323.34178 173.036755 
L 324.968312 173.005636 
L 326.920141 172.727417 
L 328.871971 172.21991 
L 331.474409 171.294495 
L 337.004615 169.245788 
L 339.281742 168.699191 
L 341.233586 168.462397 
L 343.1854 168.458478 
L 345.137245 168.681558 
L 347.414371 169.18914 
L 350.342122 170.100559 
L 355.221688 171.643457 
L 357.498845 172.122764 
L 359.450658 172.335089 
L 361.402503 172.346134 
L 363.679629 172.112051 
L 366.282068 171.574067 
L 370.511039 170.388405 
L 374.089385 169.48816 
L 376.366542 169.123784 
L 378.643668 168.979132 
L 380.920795 169.065751 
L 383.523234 169.419824 
L 386.776298 170.124718 
L 392.306488 171.368649 
L 394.908927 171.715996 
L 397.186053 171.818626 
L 398.487273 171.788286 
L 398.487273 171.788286 
" clip-path="url(#p89dae1e888)" style="fill: none; stroke: #1f77b4; stroke-width: 1.5; stroke-linecap: square"/>
   </g>
   <g id="line2d_15">
    <path d="M 73.832727 166.864479 
L 74.158032 131.021567 
L 74.483338 128.206363 
L 75.459253 124.466707 
L 75.784558 124.212617 
L 76.109863 128.16621 
L 76.435169 133.756979 
L 76.760474 136.761396 
L 77.085779 137.838281 
L 77.411084 138.161374 
L 78.061694 138.251026 
L 79.03761 138.369914 
L 80.013525 138.791432 
L 80.989441 139.551082 
L 81.965357 140.6908 
L 82.941272 142.296253 
L 83.917188 144.507942 
L 84.893103 147.536341 
L 85.869019 151.677158 
L 86.844933 157.297341 
L 87.820849 164.69836 
L 89.12207 176.951862 
L 90.748596 192.292962 
L 91.724512 199.416997 
L 92.375122 203.00136 
L 93.025731 205.716722 
L 93.676343 207.720516 
L 94.326953 209.186991 
L 94.977563 210.263209 
L 95.953479 211.377333 
L 96.929394 212.095698 
L 97.90531 212.549809 
L 98.881225 212.798787 
L 99.857139 212.851732 
L 100.833056 212.679197 
L 101.80897 212.21869 
L 102.459582 211.707644 
L 103.110192 210.996138 
L 103.760802 210.050485 
L 104.736718 208.126203 
L 105.712633 205.526078 
L 106.688549 202.192922 
L 107.664464 198.068197 
L 108.640378 193.104732 
L 109.941602 185.262046 
L 114.821178 153.578853 
L 115.797093 148.878815 
L 116.773008 145.092139 
L 117.748926 142.239141 
L 118.399536 140.853692 
L 119.050146 139.879136 
L 119.700755 139.315585 
L 120.351365 139.165489 
L 121.001975 139.432732 
L 121.652584 140.120737 
L 122.303198 141.230281 
L 122.953808 142.757773 
L 123.929722 145.810574 
L 124.905637 149.714806 
L 126.20686 156.003821 
L 131.737047 184.538119 
L 133.038266 189.530789 
L 134.339489 193.52852 
L 135.315404 195.872262 
L 136.291319 197.670132 
L 137.267233 198.937106 
L 137.917843 199.491201 
L 138.568457 199.81285 
L 139.219066 199.89954 
L 139.869676 199.746979 
L 140.520286 199.35006 
L 141.170895 198.704162 
L 141.821505 197.806463 
L 142.79742 195.988725 
L 143.773334 193.619722 
L 145.074562 189.665236 
L 146.375781 184.945309 
L 148.652915 175.660962 
L 150.930049 166.627796 
L 152.231268 162.175907 
L 153.532496 158.488986 
L 154.50841 156.308311 
L 155.484325 154.675358 
L 156.134935 153.905845 
L 156.785544 153.398503 
L 157.436154 153.15614 
L 158.086764 153.178302 
L 158.737373 153.460725 
L 159.387983 153.994936 
L 160.038593 154.768102 
L 161.014507 156.337727 
L 161.99043 158.333839 
L 163.291649 161.509655 
L 165.568783 167.853617 
L 168.496527 175.936296 
L 170.123059 179.802662 
L 171.424278 182.405252 
L 172.725498 184.497606 
L 173.701413 185.700153 
L 174.677327 186.568762 
L 175.653242 187.090357 
L 176.303851 187.241288 
L 176.954461 187.234056 
L 177.605071 187.070074 
L 178.580993 186.538576 
L 179.556908 185.684521 
L 180.532822 184.540465 
L 181.834042 182.636098 
L 183.460566 179.807077 
L 189.316061 169.063671 
L 190.617281 167.2427 
L 191.9185 165.7992 
L 192.894415 164.990342 
L 193.870329 164.428818 
L 194.846252 164.11941 
L 195.822166 164.06013 
L 196.798081 164.241694 
L 197.773995 164.647592 
L 199.075215 165.497358 
L 200.376434 166.636809 
L 202.328263 168.717257 
L 207.533157 174.56638 
L 209.159673 176.020782 
L 210.786205 177.159294 
L 212.087425 177.809166 
L 213.388644 178.206897 
L 214.689864 178.342581 
L 215.991083 178.218164 
L 217.292303 177.850084 
L 218.593522 177.26915 
L 220.220054 176.308476 
L 222.822493 174.457207 
L 226.400854 171.901835 
L 228.352683 170.74757 
L 230.304513 169.858144 
L 231.931029 169.349793 
L 233.557561 169.071043 
L 235.184093 169.02916 
L 236.81061 169.214157 
L 238.762439 169.687963 
L 241.364893 170.59315 
L 247.87099 172.982054 
L 250.473429 173.673553 
L 252.750571 174.034271 
L 254.7024 174.116888 
L 256.654229 173.990634 
L 259.256668 173.568141 
L 263.160327 172.656685 
L 269.991737 171.052539 
L 272.919488 170.618916 
L 275.521927 170.463682 
L 278.449678 170.523265 
L 282.028024 170.836299 
L 285.931698 171.407024 
L 292.112498 172.347665 
L 295.040234 172.544064 
L 298.293283 172.534445 
L 301.871644 172.28434 
L 305.775302 171.770364 
L 313.257322 170.710072 
L 316.835683 170.4623 
L 320.088732 170.455704 
L 323.34178 170.679098 
L 328.546673 171.323579 
L 333.100941 171.802357 
L 336.679303 171.967771 
L 339.932336 171.908468 
L 343.510713 171.614238 
L 356.522907 170.275924 
L 359.775971 170.300887 
L 363.679629 170.57956 
L 374.089385 171.496167 
L 377.667762 171.521797 
L 381.246107 171.330962 
L 386.776298 170.769108 
L 392.631801 170.236916 
L 396.210146 170.127528 
L 398.487273 170.168454 
L 398.487273 170.168454 
" clip-path="url(#p89dae1e888)" style="fill: none; stroke: #ff7f0e; stroke-width: 1.5; stroke-linecap: square"/>
   </g>
   <g id="line2d_16">
    <path d="M 73.832727 170.45607 
L 74.158032 70.788195 
L 74.483338 63.381701 
L 75.459253 53.654943 
L 75.784558 53.568 
L 76.760474 86.436561 
L 77.085779 89.159372 
L 77.411084 89.964706 
L 77.736389 90.147848 
L 78.712305 90.298743 
L 79.362915 90.754973 
L 80.013525 91.592545 
L 80.664136 92.827049 
L 81.314746 94.487447 
L 81.965357 96.624884 
L 82.615966 99.316025 
L 83.266577 102.666832 
L 83.917188 106.817759 
L 84.567797 111.950148 
L 85.218408 118.291932 
L 86.194324 130.684842 
L 87.170239 147.440912 
L 88.146155 169.151944 
L 89.77268 212.669061 
L 91.0739 245.328504 
L 92.049817 264.111476 
L 92.700427 273.250484 
L 93.351036 279.958006 
L 94.001648 284.761182 
L 94.652258 288.179207 
L 95.302867 290.618305 
L 95.953479 292.365752 
L 96.604089 293.615092 
L 97.254699 294.491875 
L 97.90531 295.073123 
L 98.55592 295.400338 
L 99.20653 295.488 
L 99.857139 295.328657 
L 100.507751 294.895844 
L 101.158361 294.145774 
L 101.80897 293.018369 
L 102.459582 291.438794 
L 103.110192 289.320745 
L 103.760802 286.573301 
L 104.411413 283.110814 
L 105.387328 276.423119 
L 106.363244 267.773397 
L 107.339159 256.958375 
L 108.315074 243.765364 
L 109.616297 222.473545 
L 111.568126 185.257172 
L 113.845264 142.679465 
L 115.146483 122.650809 
L 116.122398 110.681677 
L 117.098312 101.547573 
L 117.748926 97.027071 
L 118.399536 93.728867 
L 119.050146 91.623291 
L 119.37545 91.010827 
L 119.700755 90.689733 
L 120.02606 90.659307 
L 120.351365 90.919549 
L 120.67667 91.47085 
L 121.32728 93.449161 
L 121.977893 96.5975 
L 122.628503 100.91147 
L 123.604417 109.525068 
L 124.580332 120.571923 
L 125.881551 138.497972 
L 128.483994 179.477772 
L 130.435827 208.321058 
L 131.737047 224.701443 
L 133.038266 238.179632 
L 134.014181 246.251145 
L 134.990099 252.590251 
L 135.966014 257.272957 
L 136.616624 259.519675 
L 137.267233 261.093467 
L 137.917843 262.009675 
L 138.243148 262.223608 
L 138.568457 262.274946 
L 138.893761 262.163182 
L 139.219066 261.887403 
L 139.869676 260.838439 
L 140.520286 259.116035 
L 141.170895 256.708988 
L 141.821505 253.611267 
L 142.79742 247.6778 
L 143.773334 240.250136 
L 145.074562 228.222338 
L 146.701086 210.487304 
L 150.930049 162.247522 
L 152.231268 150.357507 
L 153.207191 143.059732 
L 154.183105 137.319809 
L 154.833715 134.408153 
L 155.484325 132.250417 
L 156.134935 130.857089 
L 156.460239 130.448426 
L 156.785544 130.23157 
L 157.110849 130.205786 
L 157.436154 130.36974 
L 157.761459 130.721535 
L 158.412069 131.977614 
L 159.062678 133.944638 
L 159.713288 136.580848 
L 160.689203 141.668467 
L 161.99043 150.202142 
L 163.616954 162.77273 
L 167.845917 196.668377 
L 169.472442 207.431527 
L 170.773669 214.476951 
L 171.749583 218.736283 
L 172.725498 222.066019 
L 173.701413 224.436346 
L 174.352022 225.474138 
L 175.002632 226.074552 
L 175.653242 226.237493 
L 176.303851 225.966204 
L 176.954461 225.268254 
L 177.605071 224.1566 
L 178.255688 222.650407 
L 179.231603 219.709422 
L 180.207517 216.052435 
L 181.508737 210.298059 
L 183.460566 200.491714 
L 187.038927 182.296851 
L 188.665452 175.327738 
L 189.966671 170.795227 
L 190.942586 168.112564 
L 191.9185 166.094609 
L 192.56911 165.131223 
L 193.21972 164.476446 
L 193.870329 164.128307 
L 194.520939 164.080601 
L 195.171557 164.322786 
L 195.822166 164.840032 
L 196.472776 165.613479 
L 197.448691 167.20429 
L 198.424605 169.234235 
L 199.725825 172.461623 
L 201.677654 177.966153 
L 204.930702 187.235157 
L 206.557234 191.241967 
L 207.858454 193.936525 
L 209.159673 196.095238 
L 210.135596 197.332159 
L 211.111502 198.227076 
L 212.087425 198.774908 
L 213.063332 198.978743 
L 214.039254 198.850907 
L 215.015161 198.413788 
L 215.991083 197.699718 
L 217.292303 196.388116 
L 218.918835 194.327495 
L 221.521274 190.561277 
L 224.449025 186.417645 
L 226.400854 184.063957 
L 228.027371 182.476411 
L 229.32859 181.482693 
L 230.62981 180.74114 
L 231.931029 180.2458 
L 233.232264 179.982366 
L 234.533483 179.929963 
L 236.16 180.119904 
L 237.786532 180.533704 
L 240.063658 181.355441 
L 244.943239 183.440031 
L 251.449352 186.155664 
L 254.051791 187.013076 
L 256.328917 187.554161 
L 258.606059 187.873963 
L 260.557888 187.9488 
L 262.509717 187.80495 
L 264.461546 187.408443 
L 266.413391 186.743059 
L 268.36522 185.825476 
L 270.967659 184.310964 
L 276.497849 180.952608 
L 278.449678 180.052832 
L 280.076195 179.530579 
L 281.702727 179.268816 
L 283.003946 179.272585 
L 284.305166 179.475991 
L 285.606385 179.87536 
L 287.232917 180.622502 
L 289.184747 181.799292 
L 296.341453 186.47498 
L 297.967986 187.153334 
L 299.269205 187.498731 
L 300.570424 187.645467 
L 301.871644 187.581269 
L 303.172863 187.304489 
L 304.474083 186.824963 
L 306.100615 185.973187 
L 308.052444 184.664083 
L 311.956102 181.646134 
L 314.233244 180.029932 
L 315.859776 179.099251 
L 317.486293 178.432486 
L 318.787512 178.123943 
L 320.088732 178.033276 
L 321.389951 178.165233 
L 322.69117 178.511773 
L 324.317702 179.213662 
L 326.269532 180.360993 
L 329.52258 182.625478 
L 332.125035 184.338507 
L 334.076864 185.349936 
L 335.703396 185.926617 
L 337.004615 186.182494 
L 338.305835 186.242447 
L 339.607054 186.104287 
L 340.908274 185.775679 
L 342.534806 185.123956 
L 344.486619 184.058555 
L 347.414371 182.133056 
L 350.667435 180.036403 
L 352.619249 179.041749 
L 354.245781 178.456168 
L 355.872313 178.133908 
L 357.173532 178.079174 
L 358.800064 178.263754 
L 360.426565 178.707811 
L 362.37841 179.520131 
L 364.980849 180.896166 
L 368.884507 182.978732 
L 370.836352 183.774955 
L 372.462853 184.227197 
L 374.089385 184.455108 
L 375.715917 184.446461 
L 377.342449 184.206563 
L 378.968981 183.757493 
L 380.920795 182.995392 
L 383.848546 181.581321 
L 387.426892 179.867655 
L 389.704049 179.040402 
L 391.655863 178.5972 
L 393.282395 178.444613 
L 394.908927 178.494509 
L 396.860741 178.80494 
L 398.487273 179.240226 
L 398.487273 179.240226 
" clip-path="url(#p89dae1e888)" style="fill: none; stroke: #2ca02c; stroke-width: 1.5; stroke-linecap: square"/>
   </g>
   <g id="line2d_17">
    <path d="M 73.832727 174.000288 
L 74.158032 151.900755 
L 74.483338 152.019136 
L 74.808643 151.381445 
L 75.133948 149.245313 
L 76.109863 137.847244 
L 77.085779 139.701804 
L 77.736389 139.814958 
L 79.362915 139.911006 
L 80.664136 140.274266 
L 81.640051 140.747641 
L 82.615966 141.435575 
L 83.591882 142.406586 
L 84.567797 143.768684 
L 85.543713 145.686396 
L 86.194324 147.388653 
L 86.844933 149.533112 
L 87.820849 153.78455 
L 88.796764 159.449922 
L 90.097986 168.955502 
L 92.375122 186.579485 
L 93.351036 192.101829 
L 94.326953 196.055636 
L 95.302867 198.829682 
L 96.278784 200.823504 
L 97.254699 202.335487 
L 98.55592 203.910955 
L 99.857139 205.157028 
L 101.158361 206.099064 
L 102.134277 206.563957 
L 103.110192 206.768913 
L 103.760802 206.733381 
L 104.411413 206.537589 
L 105.062023 206.158572 
L 105.712633 205.569549 
L 106.363244 204.74033 
L 107.013854 203.638738 
L 107.989769 201.407763 
L 108.965683 198.415553 
L 109.941602 194.654601 
L 111.242821 188.591412 
L 112.869345 179.813472 
L 116.122398 161.800372 
L 117.423617 155.9294 
L 118.399536 152.391704 
L 119.37545 149.678257 
L 120.02606 148.341621 
L 120.67667 147.383991 
L 121.32728 146.803394 
L 121.977893 146.598483 
L 122.628503 146.77021 
L 123.279113 147.321484 
L 123.929722 148.254652 
L 124.580332 149.56734 
L 125.556247 152.218939 
L 126.532165 155.601915 
L 127.833385 160.989722 
L 129.785214 170.160977 
L 133.038266 185.477758 
L 134.339489 190.682053 
L 135.640709 195.001995 
L 136.616624 197.590278 
L 137.592538 199.5989 
L 138.568457 201.029759 
L 139.219066 201.668178 
L 139.869676 202.05849 
L 140.520286 202.203207 
L 141.170895 202.102996 
L 141.821505 201.756382 
L 142.472115 201.160068 
L 143.122725 200.309755 
L 144.098639 198.550107 
L 145.074562 196.208752 
L 146.050476 193.308626 
L 147.351696 188.679046 
L 149.303525 180.612643 
L 152.556573 166.838128 
L 153.857801 162.149533 
L 155.15902 158.337826 
L 156.134935 156.165934 
L 157.110849 154.638178 
L 157.761459 153.9913 
L 158.412069 153.645916 
L 159.062678 153.601854 
L 159.713288 153.855704 
L 160.363898 154.400717 
L 161.014507 155.22658 
L 161.99043 156.960158 
L 162.966344 159.229787 
L 164.267564 162.948461 
L 165.894088 168.386555 
L 170.773669 185.329749 
L 172.074888 188.931408 
L 173.376108 191.822728 
L 174.352022 193.469091 
L 175.327937 194.6424 
L 175.978547 195.156092 
L 176.629156 195.453687 
L 177.279766 195.535906 
L 177.930376 195.404988 
L 178.580993 195.06465 
L 179.231603 194.520145 
L 180.207517 193.33597 
L 181.183432 191.738414 
L 182.484651 189.034779 
L 183.785871 185.788658 
L 185.7377 180.252161 
L 188.990756 170.904972 
L 190.617281 166.996126 
L 191.9185 164.517133 
L 192.894415 163.10266 
L 193.870329 162.099642 
L 194.520939 161.667405 
L 195.171557 161.426792 
L 195.822166 161.377648 
L 196.472776 161.517804 
L 197.123386 161.843072 
L 198.0993 162.663996 
L 199.075215 163.85795 
L 200.051129 165.386458 
L 201.352349 167.862253 
L 202.978881 171.468935 
L 207.533157 182.005892 
L 208.834376 184.447282 
L 210.135596 186.415262 
L 211.111502 187.540082 
L 212.087425 188.344924 
L 213.063332 188.821495 
L 214.039254 188.968459 
L 215.015161 188.790864 
L 215.991083 188.299909 
L 216.967005 187.512843 
L 217.942912 186.452985 
L 219.244132 184.667211 
L 220.870664 181.961824 
L 223.473103 177.0613 
L 225.750244 172.911716 
L 227.376761 170.409843 
L 228.67798 168.819612 
L 229.653903 167.904045 
L 230.62981 167.242252 
L 231.605732 166.842502 
L 232.581654 166.708144 
L 233.557561 166.837813 
L 234.533483 167.225115 
L 235.50939 167.858031 
L 236.485313 168.718356 
L 237.786532 170.175609 
L 239.413049 172.38518 
L 245.593849 181.29348 
L 246.895068 182.610297 
L 248.196288 183.585041 
L 249.17221 184.075323 
L 250.148132 184.353007 
L 251.124039 184.41701 
L 252.099961 184.270125 
L 253.075868 183.919129 
L 254.377088 183.153394 
L 255.678307 182.083936 
L 257.304839 180.403628 
L 259.581981 177.662173 
L 262.83503 173.775977 
L 264.461546 172.181254 
L 265.762781 171.174043 
L 267.064001 170.442905 
L 268.36522 170.008582 
L 269.341127 169.88408 
L 270.317049 169.932996 
L 271.618269 170.262493 
L 272.919488 170.877168 
L 274.220707 171.745714 
L 275.84724 173.117812 
L 278.449678 175.689058 
L 281.377414 178.514229 
L 283.003946 179.796038 
L 284.305166 180.596094 
L 285.606385 181.165386 
L 286.907605 181.487589 
L 288.208824 181.555827 
L 289.510044 181.372281 
L 290.811279 180.948805 
L 292.112498 180.307846 
L 293.739015 179.252739 
L 296.016156 177.463589 
L 299.919815 174.330422 
L 301.871644 173.089614 
L 303.498176 172.342583 
L 304.799395 171.963447 
L 306.100615 171.791788 
L 307.401834 171.831549 
L 308.703054 172.078304 
L 310.329586 172.656082 
L 311.956102 173.486964 
L 314.233244 174.937228 
L 318.787512 177.924669 
L 320.739341 178.881957 
L 322.365873 179.425719 
L 323.992405 179.706662 
L 325.618922 179.712732 
L 327.245454 179.449013 
L 328.871971 178.939041 
L 330.8238 178.063231 
L 333.751551 176.437307 
L 337.004615 174.65398 
L 338.956429 173.807732 
L 340.582961 173.305533 
L 342.209493 173.020008 
L 343.836025 172.966 
L 345.462526 173.143054 
L 347.089058 173.534246 
L 349.040903 174.237511 
L 351.968654 175.581106 
L 355.547 177.216002 
L 357.824126 177.99607 
L 359.775971 178.406756 
L 361.402503 178.540255 
L 363.029004 178.477858 
L 364.980849 178.156687 
L 366.932694 177.605528 
L 369.535132 176.629751 
L 374.74001 174.6232 
L 377.017136 174.030924 
L 378.968981 173.757287 
L 380.920795 173.723832 
L 382.872639 173.928169 
L 385.149766 174.428654 
L 388.077517 175.349922 
L 392.957082 176.934455 
L 395.23424 177.438791 
L 397.186053 177.673807 
L 398.487273 177.718376 
L 398.487273 177.718376 
" clip-path="url(#p89dae1e888)" style="fill: none; stroke: #d62728; stroke-width: 1.5; stroke-linecap: square"/>
   </g>
   <g id="patch_3">
    <path d="M 57.6 307.584 
L 57.6 41.472 
" style="fill: none; stroke: #000000; stroke-width: 0.8; stroke-linejoin: miter; stroke-linecap: square"/>
   </g>
   <g id="patch_4">
    <path d="M 414.72 307.584 
L 414.72 41.472 
" style="fill: none; stroke: #000000; stroke-width: 0.8; stroke-linejoin: miter; stroke-linecap: square"/>
   </g>
   <g id="patch_5">
    <path d="M 57.6 307.584 
L 414.72 307.584 
" style="fill: none; stroke: #000000; stroke-width: 0.8; stroke-linejoin: miter; stroke-linecap: square"/>
   </g>
   <g id="patch_6">
    <path d="M 57.6 41.472 
L 414.72 41.472 
" style="fill: none; stroke: #000000; stroke-width: 0.8; stroke-linejoin: miter; stroke-linecap: square"/>
   </g>
   <g id="legend_1">
    <g id="patch_7">
     <path d="M 363.02 108.1845 
L 407.72 108.1845 
Q 409.72 108.1845 409.72 106.1845 
L 409.72 48.472 
Q 409.72 46.472 407.72 46.472 
L 363.02 46.472 
Q 361.02 46.472 361.02 48.472 
L 361.02 106.1845 
Q 361.02 108.1845 363.02 108.1845 
z
" style="fill: #ffffff; opacity: 0.8; stroke: #cccccc; stroke-linejoin: miter"/>
    </g>
    <g id="line2d_18">
     <path d="M 365.02 54.570438 
L 375.02 54.570438 
L 385.02 54.570438 
" style="fill: none; stroke: #1f77b4; stroke-width: 1.5; stroke-linecap: square"/>
    </g>
    <g id="text_16">
     <!-- u0 -->
     <g transform="translate(393.02 58.070438) scale(0.1 -0.1)">
      <defs>
       <path id="DejaVuSans-75" d="M 544 1381 
L 544 3500 
L 1119 3500 
L 1119 1403 
Q 1119 906 1312 657 
Q 1506 409 1894 409 
Q 2359 409 2629 706 
Q 2900 1003 2900 1516 
L 2900 3500 
L 3475 3500 
L 3475 0 
L 2900 0 
L 2900 538 
Q 2691 219 2414 64 
Q 2138 -91 1772 -91 
Q 1169 -91 856 284 
Q 544 659 544 1381 
z
M 1991 3584 
L 1991 3584 
z
" transform="scale(0.015625)"/>
      </defs>
      <use xlink:href="#DejaVuSans-75"/>
      <use xlink:href="#DejaVuSans-30" transform="translate(63.378906 0)"/>
     </g>
    </g>
    <g id="line2d_19">
     <path d="M 365.02 69.248563 
L 375.02 69.248563 
L 385.02 69.248563 
" style="fill: none; stroke: #ff7f0e; stroke-width: 1.5; stroke-linecap: square"/>
    </g>
    <g id="text_17">
     <!-- u1 -->
     <g transform="translate(393.02 72.748563) scale(0.1 -0.1)">
      <use xlink:href="#DejaVuSans-75"/>
      <use xlink:href="#DejaVuSans-31" transform="translate(63.378906 0)"/>
     </g>
    </g>
    <g id="line2d_20">
     <path d="M 365.02 83.926688 
L 375.02 83.926688 
L 385.02 83.926688 
" style="fill: none; stroke: #2ca02c; stroke-width: 1.5; stroke-linecap: square"/>
    </g>
    <g id="text_18">
     <!-- u2 -->
     <g transform="translate(393.02 87.426688) scale(0.1 -0.1)">
      <use xlink:href="#DejaVuSans-75"/>
      <use xlink:href="#DejaVuSans-32" transform="translate(63.378906 0)"/>
     </g>
    </g>
    <g id="line2d_21">
     <path d="M 365.02 98.604813 
L 375.02 98.604813 
L 385.02 98.604813 
" style="fill: none; stroke: #d62728; stroke-width: 1.5; stroke-linecap: square"/>
    </g>
    <g id="text_19">
     <!-- u3 -->
     <g transform="translate(393.02 102.104813) scale(0.1 -0.1)">
      <defs>
       <path id="DejaVuSans-33" d="M 2597 2516 
Q 3050 2419 3304 2112 
Q 3559 1806 3559 1356 
Q 3559 666 3084 287 
Q 2609 -91 1734 -91 
Q 1441 -91 1130 -33 
Q 819 25 488 141 
L 488 750 
Q 750 597 1062 519 
Q 1375 441 1716 441 
Q 2309 441 2620 675 
Q 2931 909 2931 1356 
Q 2931 1769 2642 2001 
Q 2353 2234 1838 2234 
L 1294 2234 
L 1294 2753 
L 1863 2753 
Q 2328 2753 2575 2939 
Q 2822 3125 2822 3475 
Q 2822 3834 2567 4026 
Q 2313 4219 1838 4219 
Q 1578 4219 1281 4162 
Q 984 4106 628 3988 
L 628 4550 
Q 988 4650 1302 4700 
Q 1616 4750 1894 4750 
Q 2613 4750 3031 4423 
Q 3450 4097 3450 3541 
Q 3450 3153 3228 2886 
Q 3006 2619 2597 2516 
z
" transform="scale(0.015625)"/>
      </defs>
      <use xlink:href="#DejaVuSans-75"/>
      <use xlink:href="#DejaVuSans-33" transform="translate(63.378906 0)"/>
     </g>
    </g>
   </g>
  </g>
 </g>
 <defs>
  <clipPath id="p89dae1e888">
   <rect x="57.6" y="41.472" width="357.12" height="266.112"/>
  </clipPath>
 </defs>
</svg>
