<?xml version="1.0" encoding="utf-8" standalone="no"?>
<!DOCTYPE svg PUBLIC "-//W3C//DTD SVG 1.1//EN"
  "http://www.w3.org/Graphics/SVG/1.1/DTD/svg11.dtd">
<svg xmlns:xlink="http://www.w3.org/1999/xlink" width="460.8pt" height="345.6pt" viewBox="0 0 460.8 345.6" xmlns="http://www.w3.org/2000/svg" version="1.1">
 <metadata>
  <rdf:RDF xmlns:dc="http://purl.org/dc/elements/1.1/" xmlns:cc="http://creativecommons.org/ns#" xmlns:rdf="http://www.w3.org/1999/02/22-rdf-syntax-ns#">
   <cc:Work>
    <dc:type rdf:resource="http://purl.org/dc/dcmitype/StillImage"/>
    <dc:date>2025-05-10T03:32:13.699381</dc:date>
    <dc:format>image/svg+xml</dc:format>
    <dc:creator>
     <cc:Agent>
      <dc:title>Matplotlib v3.10.0, https://matplotlib.org/</dc:title>
     </cc:Agent>
    </dc:creator>
   </cc:Work>
  </rdf:RDF>
 </metadata>
 <defs>
  <style type="text/css">*{stroke-linejoin: round; stroke-linecap: butt}</style>
 </defs>
 <g id="figure_1">
  <g id="patch_1">
   <path d="M 0 345.6 
L 460.8 345.6 
L 460.8 0 
L 0 0 
z
" style="fill: #ffffff"/>
  </g>
  <g id="axes_1">
   <g id="patch_2">
    <path d="M 57.6 307.584 
L 414.72 307.584 
L 414.72 41.472 
L 57.6 41.472 
z
" style="fill: #ffffff"/>
   </g>
   <g id="matplotlib.axis_1">
    <g id="xtick_1">
     <g id="line2d_1">
      <defs>
       <path id="m745da30654" d="M 0 0 
L 0 3.5 
" style="stroke: #000000; stroke-width: 0.8"/>
      </defs>
      <g>
       <use xlink:href="#m745da30654" x="73.832727" y="307.584" style="stroke: #000000; stroke-width: 0.8"/>
      </g>
     </g>
     <g id="text_1">
      <!-- 0 -->
      <g transform="translate(70.651477 322.182437) scale(0.1 -0.1)">
       <defs>
        <path id="DejaVuSans-30" d="M 2034 4250 
Q 1547 4250 1301 3770 
Q 1056 3291 1056 2328 
Q 1056 1369 1301 889 
Q 1547 409 2034 409 
Q 2525 409 2770 889 
Q 3016 1369 3016 2328 
Q 3016 3291 2770 3770 
Q 2525 4250 2034 4250 
z
M 2034 4750 
Q 2819 4750 3233 4129 
Q 3647 3509 3647 2328 
Q 3647 1150 3233 529 
Q 2819 -91 2034 -91 
Q 1250 -91 836 529 
Q 422 1150 422 2328 
Q 422 3509 836 4129 
Q 1250 4750 2034 4750 
z
" transform="scale(0.015625)"/>
       </defs>
       <use xlink:href="#DejaVuSans-30"/>
      </g>
     </g>
    </g>
    <g id="xtick_2">
     <g id="line2d_2">
      <g>
       <use xlink:href="#m745da30654" x="138.893761" y="307.584" style="stroke: #000000; stroke-width: 0.8"/>
      </g>
     </g>
     <g id="text_2">
      <!-- 2 -->
      <g transform="translate(135.712511 322.182437) scale(0.1 -0.1)">
       <defs>
        <path id="DejaVuSans-32" d="M 1228 531 
L 3431 531 
L 3431 0 
L 469 0 
L 469 531 
Q 828 903 1448 1529 
Q 2069 2156 2228 2338 
Q 2531 2678 2651 2914 
Q 2772 3150 2772 3378 
Q 2772 3750 2511 3984 
Q 2250 4219 1831 4219 
Q 1534 4219 1204 4116 
Q 875 4013 500 3803 
L 500 4441 
Q 881 4594 1212 4672 
Q 1544 4750 1819 4750 
Q 2544 4750 2975 4387 
Q 3406 4025 3406 3419 
Q 3406 3131 3298 2873 
Q 3191 2616 2906 2266 
Q 2828 2175 2409 1742 
Q 1991 1309 1228 531 
z
" transform="scale(0.015625)"/>
       </defs>
       <use xlink:href="#DejaVuSans-32"/>
      </g>
     </g>
    </g>
    <g id="xtick_3">
     <g id="line2d_3">
      <g>
       <use xlink:href="#m745da30654" x="203.954796" y="307.584" style="stroke: #000000; stroke-width: 0.8"/>
      </g>
     </g>
     <g id="text_3">
      <!-- 4 -->
      <g transform="translate(200.773546 322.182437) scale(0.1 -0.1)">
       <defs>
        <path id="DejaVuSans-34" d="M 2419 4116 
L 825 1625 
L 2419 1625 
L 2419 4116 
z
M 2253 4666 
L 3047 4666 
L 3047 1625 
L 3713 1625 
L 3713 1100 
L 3047 1100 
L 3047 0 
L 2419 0 
L 2419 1100 
L 313 1100 
L 313 1709 
L 2253 4666 
z
" transform="scale(0.015625)"/>
       </defs>
       <use xlink:href="#DejaVuSans-34"/>
      </g>
     </g>
    </g>
    <g id="xtick_4">
     <g id="line2d_4">
      <g>
       <use xlink:href="#m745da30654" x="269.01583" y="307.584" style="stroke: #000000; stroke-width: 0.8"/>
      </g>
     </g>
     <g id="text_4">
      <!-- 6 -->
      <g transform="translate(265.83458 322.182437) scale(0.1 -0.1)">
       <defs>
        <path id="DejaVuSans-36" d="M 2113 2584 
Q 1688 2584 1439 2293 
Q 1191 2003 1191 1497 
Q 1191 994 1439 701 
Q 1688 409 2113 409 
Q 2538 409 2786 701 
Q 3034 994 3034 1497 
Q 3034 2003 2786 2293 
Q 2538 2584 2113 2584 
z
M 3366 4563 
L 3366 3988 
Q 3128 4100 2886 4159 
Q 2644 4219 2406 4219 
Q 1781 4219 1451 3797 
Q 1122 3375 1075 2522 
Q 1259 2794 1537 2939 
Q 1816 3084 2150 3084 
Q 2853 3084 3261 2657 
Q 3669 2231 3669 1497 
Q 3669 778 3244 343 
Q 2819 -91 2113 -91 
Q 1303 -91 875 529 
Q 447 1150 447 2328 
Q 447 3434 972 4092 
Q 1497 4750 2381 4750 
Q 2619 4750 2861 4703 
Q 3103 4656 3366 4563 
z
" transform="scale(0.015625)"/>
       </defs>
       <use xlink:href="#DejaVuSans-36"/>
      </g>
     </g>
    </g>
    <g id="xtick_5">
     <g id="line2d_5">
      <g>
       <use xlink:href="#m745da30654" x="334.076864" y="307.584" style="stroke: #000000; stroke-width: 0.8"/>
      </g>
     </g>
     <g id="text_5">
      <!-- 8 -->
      <g transform="translate(330.895614 322.182437) scale(0.1 -0.1)">
       <defs>
        <path id="DejaVuSans-38" d="M 2034 2216 
Q 1584 2216 1326 1975 
Q 1069 1734 1069 1313 
Q 1069 891 1326 650 
Q 1584 409 2034 409 
Q 2484 409 2743 651 
Q 3003 894 3003 1313 
Q 3003 1734 2745 1975 
Q 2488 2216 2034 2216 
z
M 1403 2484 
Q 997 2584 770 2862 
Q 544 3141 544 3541 
Q 544 4100 942 4425 
Q 1341 4750 2034 4750 
Q 2731 4750 3128 4425 
Q 3525 4100 3525 3541 
Q 3525 3141 3298 2862 
Q 3072 2584 2669 2484 
Q 3125 2378 3379 2068 
Q 3634 1759 3634 1313 
Q 3634 634 3220 271 
Q 2806 -91 2034 -91 
Q 1263 -91 848 271 
Q 434 634 434 1313 
Q 434 1759 690 2068 
Q 947 2378 1403 2484 
z
M 1172 3481 
Q 1172 3119 1398 2916 
Q 1625 2713 2034 2713 
Q 2441 2713 2670 2916 
Q 2900 3119 2900 3481 
Q 2900 3844 2670 4047 
Q 2441 4250 2034 4250 
Q 1625 4250 1398 4047 
Q 1172 3844 1172 3481 
z
" transform="scale(0.015625)"/>
       </defs>
       <use xlink:href="#DejaVuSans-38"/>
      </g>
     </g>
    </g>
    <g id="xtick_6">
     <g id="line2d_6">
      <g>
       <use xlink:href="#m745da30654" x="399.137898" y="307.584" style="stroke: #000000; stroke-width: 0.8"/>
      </g>
     </g>
     <g id="text_6">
      <!-- 10 -->
      <g transform="translate(392.775398 322.182437) scale(0.1 -0.1)">
       <defs>
        <path id="DejaVuSans-31" d="M 794 531 
L 1825 531 
L 1825 4091 
L 703 3866 
L 703 4441 
L 1819 4666 
L 2450 4666 
L 2450 531 
L 3481 531 
L 3481 0 
L 794 0 
L 794 531 
z
" transform="scale(0.015625)"/>
       </defs>
       <use xlink:href="#DejaVuSans-31"/>
       <use xlink:href="#DejaVuSans-30" transform="translate(63.623047 0)"/>
      </g>
     </g>
    </g>
    <g id="text_7">
     <!-- time -->
     <g transform="translate(224.863906 335.860562) scale(0.1 -0.1)">
      <defs>
       <path id="DejaVuSans-74" d="M 1172 4494 
L 1172 3500 
L 2356 3500 
L 2356 3053 
L 1172 3053 
L 1172 1153 
Q 1172 725 1289 603 
Q 1406 481 1766 481 
L 2356 481 
L 2356 0 
L 1766 0 
Q 1100 0 847 248 
Q 594 497 594 1153 
L 594 3053 
L 172 3053 
L 172 3500 
L 594 3500 
L 594 4494 
L 1172 4494 
z
" transform="scale(0.015625)"/>
       <path id="DejaVuSans-69" d="M 603 3500 
L 1178 3500 
L 1178 0 
L 603 0 
L 603 3500 
z
M 603 4863 
L 1178 4863 
L 1178 4134 
L 603 4134 
L 603 4863 
z
" transform="scale(0.015625)"/>
       <path id="DejaVuSans-6d" d="M 3328 2828 
Q 3544 3216 3844 3400 
Q 4144 3584 4550 3584 
Q 5097 3584 5394 3201 
Q 5691 2819 5691 2113 
L 5691 0 
L 5113 0 
L 5113 2094 
Q 5113 2597 4934 2840 
Q 4756 3084 4391 3084 
Q 3944 3084 3684 2787 
Q 3425 2491 3425 1978 
L 3425 0 
L 2847 0 
L 2847 2094 
Q 2847 2600 2669 2842 
Q 2491 3084 2119 3084 
Q 1678 3084 1418 2786 
Q 1159 2488 1159 1978 
L 1159 0 
L 581 0 
L 581 3500 
L 1159 3500 
L 1159 2956 
Q 1356 3278 1631 3431 
Q 1906 3584 2284 3584 
Q 2666 3584 2933 3390 
Q 3200 3197 3328 2828 
z
" transform="scale(0.015625)"/>
       <path id="DejaVuSans-65" d="M 3597 1894 
L 3597 1613 
L 953 1613 
Q 991 1019 1311 708 
Q 1631 397 2203 397 
Q 2534 397 2845 478 
Q 3156 559 3463 722 
L 3463 178 
Q 3153 47 2828 -22 
Q 2503 -91 2169 -91 
Q 1331 -91 842 396 
Q 353 884 353 1716 
Q 353 2575 817 3079 
Q 1281 3584 2069 3584 
Q 2775 3584 3186 3129 
Q 3597 2675 3597 1894 
z
M 3022 2063 
Q 3016 2534 2758 2815 
Q 2500 3097 2075 3097 
Q 1594 3097 1305 2825 
Q 1016 2553 972 2059 
L 3022 2063 
z
" transform="scale(0.015625)"/>
      </defs>
      <use xlink:href="#DejaVuSans-74"/>
      <use xlink:href="#DejaVuSans-69" transform="translate(39.208984 0)"/>
      <use xlink:href="#DejaVuSans-6d" transform="translate(66.992188 0)"/>
      <use xlink:href="#DejaVuSans-65" transform="translate(164.404297 0)"/>
     </g>
    </g>
   </g>
   <g id="matplotlib.axis_2">
    <g id="ytick_1">
     <g id="line2d_7">
      <defs>
       <path id="mf78e236b29" d="M 0 0 
L -3.5 0 
" style="stroke: #000000; stroke-width: 0.8"/>
      </defs>
      <g>
       <use xlink:href="#mf78e236b29" x="57.6" y="300.403341" style="stroke: #000000; stroke-width: 0.8"/>
      </g>
     </g>
     <g id="text_8">
      <!-- −6 -->
      <g transform="translate(35.857813 304.20256) scale(0.1 -0.1)">
       <defs>
        <path id="DejaVuSans-2212" d="M 678 2272 
L 4684 2272 
L 4684 1741 
L 678 1741 
L 678 2272 
z
" transform="scale(0.015625)"/>
       </defs>
       <use xlink:href="#DejaVuSans-2212"/>
       <use xlink:href="#DejaVuSans-36" transform="translate(83.789062 0)"/>
      </g>
     </g>
    </g>
    <g id="ytick_2">
     <g id="line2d_8">
      <g>
       <use xlink:href="#mf78e236b29" x="57.6" y="255.493719" style="stroke: #000000; stroke-width: 0.8"/>
      </g>
     </g>
     <g id="text_9">
      <!-- −4 -->
      <g transform="translate(35.857813 259.292938) scale(0.1 -0.1)">
       <use xlink:href="#DejaVuSans-2212"/>
       <use xlink:href="#DejaVuSans-34" transform="translate(83.789062 0)"/>
      </g>
     </g>
    </g>
    <g id="ytick_3">
     <g id="line2d_9">
      <g>
       <use xlink:href="#mf78e236b29" x="57.6" y="210.584097" style="stroke: #000000; stroke-width: 0.8"/>
      </g>
     </g>
     <g id="text_10">
      <!-- −2 -->
      <g transform="translate(35.857813 214.383316) scale(0.1 -0.1)">
       <use xlink:href="#DejaVuSans-2212"/>
       <use xlink:href="#DejaVuSans-32" transform="translate(83.789062 0)"/>
      </g>
     </g>
    </g>
    <g id="ytick_4">
     <g id="line2d_10">
      <g>
       <use xlink:href="#mf78e236b29" x="57.6" y="165.674475" style="stroke: #000000; stroke-width: 0.8"/>
      </g>
     </g>
     <g id="text_11">
      <!-- 0 -->
      <g transform="translate(44.2375 169.473694) scale(0.1 -0.1)">
       <use xlink:href="#DejaVuSans-30"/>
      </g>
     </g>
    </g>
    <g id="ytick_5">
     <g id="line2d_11">
      <g>
       <use xlink:href="#mf78e236b29" x="57.6" y="120.764853" style="stroke: #000000; stroke-width: 0.8"/>
      </g>
     </g>
     <g id="text_12">
      <!-- 2 -->
      <g transform="translate(44.2375 124.564072) scale(0.1 -0.1)">
       <use xlink:href="#DejaVuSans-32"/>
      </g>
     </g>
    </g>
    <g id="ytick_6">
     <g id="line2d_12">
      <g>
       <use xlink:href="#mf78e236b29" x="57.6" y="75.855231" style="stroke: #000000; stroke-width: 0.8"/>
      </g>
     </g>
     <g id="text_13">
      <!-- 4 -->
      <g transform="translate(44.2375 79.65445) scale(0.1 -0.1)">
       <use xlink:href="#DejaVuSans-34"/>
      </g>
     </g>
    </g>
    <g id="text_14">
     <!-- state -->
     <g transform="translate(29.778125 187.193625) rotate(-90) scale(0.1 -0.1)">
      <defs>
       <path id="DejaVuSans-73" d="M 2834 3397 
L 2834 2853 
Q 2591 2978 2328 3040 
Q 2066 3103 1784 3103 
Q 1356 3103 1142 2972 
Q 928 2841 928 2578 
Q 928 2378 1081 2264 
Q 1234 2150 1697 2047 
L 1894 2003 
Q 2506 1872 2764 1633 
Q 3022 1394 3022 966 
Q 3022 478 2636 193 
Q 2250 -91 1575 -91 
Q 1294 -91 989 -36 
Q 684 19 347 128 
L 347 722 
Q 666 556 975 473 
Q 1284 391 1588 391 
Q 1994 391 2212 530 
Q 2431 669 2431 922 
Q 2431 1156 2273 1281 
Q 2116 1406 1581 1522 
L 1381 1569 
Q 847 1681 609 1914 
Q 372 2147 372 2553 
Q 372 3047 722 3315 
Q 1072 3584 1716 3584 
Q 2034 3584 2315 3537 
Q 2597 3491 2834 3397 
z
" transform="scale(0.015625)"/>
       <path id="DejaVuSans-61" d="M 2194 1759 
Q 1497 1759 1228 1600 
Q 959 1441 959 1056 
Q 959 750 1161 570 
Q 1363 391 1709 391 
Q 2188 391 2477 730 
Q 2766 1069 2766 1631 
L 2766 1759 
L 2194 1759 
z
M 3341 1997 
L 3341 0 
L 2766 0 
L 2766 531 
Q 2569 213 2275 61 
Q 1981 -91 1556 -91 
Q 1019 -91 701 211 
Q 384 513 384 1019 
Q 384 1609 779 1909 
Q 1175 2209 1959 2209 
L 2766 2209 
L 2766 2266 
Q 2766 2663 2505 2880 
Q 2244 3097 1772 3097 
Q 1472 3097 1187 3025 
Q 903 2953 641 2809 
L 641 3341 
Q 956 3463 1253 3523 
Q 1550 3584 1831 3584 
Q 2591 3584 2966 3190 
Q 3341 2797 3341 1997 
z
" transform="scale(0.015625)"/>
      </defs>
      <use xlink:href="#DejaVuSans-73"/>
      <use xlink:href="#DejaVuSans-74" transform="translate(52.099609 0)"/>
      <use xlink:href="#DejaVuSans-61" transform="translate(91.308594 0)"/>
      <use xlink:href="#DejaVuSans-74" transform="translate(152.587891 0)"/>
      <use xlink:href="#DejaVuSans-65" transform="translate(191.796875 0)"/>
     </g>
    </g>
   </g>
   <g id="line2d_13">
    <path d="M 73.832727 140.727179 
L 74.483338 140.46269 
L 75.133948 140.493982 
L 75.784558 140.815549 
L 76.435169 141.41679 
L 77.085779 142.285576 
L 78.061694 144.042926 
L 79.03761 146.280625 
L 80.33883 149.877886 
L 81.965357 155.066429 
L 87.170239 172.256701 
L 88.796764 176.788471 
L 90.097986 179.844309 
L 91.399205 182.302472 
L 92.375122 183.705608 
L 93.351036 184.705124 
L 94.001648 185.140396 
L 94.652258 185.388895 
L 95.302867 185.45124 
L 95.953479 185.329927 
L 96.604089 185.029347 
L 97.580003 184.256366 
L 98.55592 183.121442 
L 99.531835 181.656925 
L 100.833056 179.251401 
L 102.459582 175.635938 
L 105.712633 167.531445 
L 107.664464 162.959725 
L 109.290992 159.726528 
L 110.592211 157.661573 
L 111.568126 156.465276 
L 112.544041 155.593153 
L 113.519959 155.05578 
L 114.495874 154.855571 
L 115.471788 154.981602 
L 116.447703 155.418482 
L 117.423617 156.140364 
L 118.399536 157.114291 
L 119.700755 158.737447 
L 121.32728 161.140266 
L 126.532165 169.20955 
L 128.158689 171.155022 
L 129.459909 172.34442 
L 130.435827 172.9958 
L 131.411742 173.430875 
L 132.387656 173.647604 
L 133.363571 173.649994 
L 134.339489 173.447685 
L 135.315404 173.055864 
L 136.616624 172.271464 
L 138.243148 170.952475 
L 140.194981 169.034147 
L 144.423944 164.730216 
L 146.050476 163.39079 
L 147.351696 162.548385 
L 148.652915 161.942329 
L 149.954134 161.592302 
L 151.255354 161.498007 
L 152.556573 161.650361 
L 153.857801 162.02762 
L 155.484325 162.761905 
L 157.436154 163.916619 
L 163.291649 167.626423 
L 164.918174 168.36216 
L 166.544698 168.868582 
L 168.171222 169.125814 
L 169.797754 169.135518 
L 171.424278 168.918919 
L 173.376108 168.413391 
L 175.653242 167.582426 
L 181.508737 165.313767 
L 183.785871 164.741424 
L 185.7377 164.473467 
L 187.689537 164.430742 
L 189.641366 164.598723 
L 192.243805 165.073575 
L 201.677654 167.09288 
L 204.280093 167.260349 
L 206.882532 167.197761 
L 210.135596 166.871085 
L 219.569444 165.721659 
L 222.822493 165.627967 
L 226.400854 165.743282 
L 241.039581 166.498685 
L 246.569771 166.34092 
L 256.654229 166.016577 
L 263.485639 166.072109 
L 277.148459 166.243375 
L 322.365873 166.134225 
L 373.764103 166.116315 
L 398.487273 166.107863 
L 398.487273 166.107863 
" clip-path="url(#p43bbbfcf46)" style="fill: none; stroke: #1f77b4; stroke-width: 1.5; stroke-linecap: square"/>
   </g>
   <g id="line2d_14">
    <path d="M 73.832727 148.729498 
L 76.435169 205.874411 
L 77.736389 229.939271 
L 79.03761 249.647481 
L 80.013525 261.239379 
L 80.989441 269.797714 
L 81.640051 273.747836 
L 82.290661 276.282348 
L 82.615966 277.023303 
L 82.941272 277.418594 
L 83.266577 277.473673 
L 83.591882 277.195133 
L 83.917188 276.5906 
L 84.567797 274.438596 
L 85.218408 271.544747 
L 85.869019 269.385751 
L 86.519628 266.116152 
L 87.170239 261.806822 
L 88.146155 253.561434 
L 89.77268 236.831349 
L 91.399205 216.81023 
L 93.676343 185.107398 
L 96.929394 139.874707 
L 98.55592 120.349689 
L 99.857139 106.981548 
L 101.158361 95.668613 
L 102.134277 88.941331 
L 102.784887 86.089241 
L 103.435497 84.273253 
L 103.760802 83.752017 
L 104.086108 83.485946 
L 104.411413 83.471802 
L 104.736718 83.705585 
L 105.062023 84.182562 
L 105.712633 85.843793 
L 106.363244 88.404762 
L 107.013854 91.805889 
L 107.989769 98.33453 
L 108.965683 106.353138 
L 110.266907 118.898878 
L 112.218736 140.286392 
L 115.797093 180.269422 
L 117.098312 192.713569 
L 118.399536 203.086402 
L 119.37545 209.256742 
L 120.351365 213.907072 
L 121.001975 216.129477 
L 121.652584 217.641485 
L 122.303198 218.447524 
L 122.628503 218.589824 
L 122.953808 218.561595 
L 123.279113 218.365956 
L 123.929722 217.487439 
L 124.580332 215.98874 
L 125.230942 213.910884 
L 126.20686 209.811443 
L 127.182775 204.678514 
L 128.483994 196.544971 
L 130.435827 182.603541 
L 134.014181 156.740895 
L 135.640709 146.86208 
L 136.941928 140.555924 
L 137.917843 136.775491 
L 138.893761 133.910906 
L 139.544371 132.572206 
L 140.194981 131.702415 
L 140.845591 131.297741 
L 141.170895 131.266955 
L 141.821505 131.539552 
L 142.472115 132.241864 
L 143.122725 133.350534 
L 143.773334 134.837731 
L 144.749257 137.707924 
L 146.050476 142.537278 
L 147.677 149.732795 
L 153.207191 175.787377 
L 154.50841 180.427553 
L 155.484325 183.210504 
L 156.460239 185.337721 
L 157.110849 186.376541 
L 157.761459 187.107709 
L 158.412069 187.5324 
L 159.062678 187.655853 
L 159.713288 187.487153 
L 160.363898 187.038958 
L 161.014507 186.327183 
L 161.99043 184.807222 
L 162.966344 182.81111 
L 164.267564 179.554966 
L 165.894088 174.836203 
L 170.123059 162.169052 
L 171.424278 158.932416 
L 172.725498 156.264695 
L 174.026717 154.147885 
L 175.002632 152.967313 
L 175.978547 152.371099 
L 176.629156 152.184893 
L 177.279766 152.168125 
L 177.930376 152.318952 
L 178.906298 152.850444 
L 179.882213 153.728702 
L 180.858127 154.923507 
L 182.159347 156.941822 
L 185.7377 163.38274 
L 188.014842 167.677806 
L 189.641366 170.2449 
L 190.942586 171.86146 
L 191.9185 172.781052 
L 192.894415 173.434773 
L 193.870329 173.81866 
L 194.846252 173.937063 
L 195.822166 173.802045 
L 196.798081 173.432557 
L 197.773995 172.853476 
L 199.075215 171.807202 
L 200.701739 170.172585 
L 207.207844 163.194357 
L 208.509064 162.236278 
L 209.810283 161.533995 
L 211.111502 161.103897 
L 212.412722 160.946633 
L 213.713941 161.045238 
L 215.015161 161.368224 
L 216.316396 161.894545 
L 218.268225 162.96443 
L 225.099635 167.068146 
L 226.726151 167.692033 
L 228.352683 168.084189 
L 229.9792 168.23684 
L 231.605732 168.162664 
L 233.557561 167.817381 
L 235.834703 167.158853 
L 243.316722 164.758001 
L 245.593849 164.379045 
L 247.87099 164.253809 
L 250.148132 164.363965 
L 253.075868 164.764352 
L 262.18442 166.238961 
L 265.112156 166.378971 
L 268.36522 166.292196 
L 272.919488 165.90393 
L 279.100288 165.389199 
L 283.329259 165.283872 
L 288.208824 165.415553 
L 299.594518 165.83628 
L 306.100615 165.768884 
L 319.438122 165.573258 
L 372.788165 165.669905 
L 398.487273 165.664657 
L 398.487273 165.664657 
" clip-path="url(#p43bbbfcf46)" style="fill: none; stroke: #ff7f0e; stroke-width: 1.5; stroke-linecap: square"/>
   </g>
   <g id="line2d_15">
    <path d="M 73.832727 140.727179 
L 74.483338 140.476288 
L 75.133948 140.542146 
L 75.784558 140.914489 
L 76.435169 141.581307 
L 77.085779 142.528782 
L 78.061694 144.440231 
L 79.03761 146.87307 
L 80.33883 150.777756 
L 81.965357 156.40221 
L 86.519628 172.749309 
L 87.820849 176.568659 
L 88.796764 178.934353 
L 89.77268 180.809824 
L 90.748596 182.166011 
L 91.399205 182.774593 
L 92.049817 183.146116 
L 92.700427 183.28323 
L 93.351036 183.191287 
L 94.001648 182.878184 
L 94.652258 182.354205 
L 95.628172 181.200676 
L 96.604089 179.651685 
L 97.90531 177.077585 
L 99.531835 173.28077 
L 104.086108 162.179539 
L 105.387328 159.602669 
L 106.688549 157.509429 
L 107.664464 156.301036 
L 108.640378 155.424454 
L 109.616297 154.888544 
L 110.592211 154.691945 
L 111.568126 154.824006 
L 112.544041 155.265563 
L 113.519959 155.98989 
L 114.495874 156.963696 
L 115.797093 158.581911 
L 117.423617 160.976526 
L 122.953808 169.485437 
L 124.255027 171.005312 
L 125.556247 172.188698 
L 126.532165 172.831863 
L 127.50808 173.256259 
L 128.483994 173.461253 
L 129.459909 173.452292 
L 130.435827 173.24068 
L 131.737047 172.672576 
L 133.038266 171.825459 
L 134.664794 170.46654 
L 137.267233 167.907015 
L 140.194981 165.063009 
L 141.821505 163.741818 
L 143.448029 162.717993 
L 144.749257 162.15056 
L 146.050476 161.822194 
L 147.351696 161.733646 
L 148.652915 161.87383 
L 149.954134 162.221409 
L 151.580659 162.899187 
L 153.532496 163.97146 
L 160.363898 167.995142 
L 161.99043 168.621716 
L 163.616954 169.025381 
L 165.243478 169.192514 
L 166.870003 169.128294 
L 168.496527 168.854924 
L 170.448364 168.302662 
L 173.376108 167.189947 
L 177.930376 165.44381 
L 180.207517 164.836838 
L 182.159347 164.537725 
L 184.111176 164.456734 
L 186.063005 164.579526 
L 188.340147 164.936759 
L 191.593195 165.698086 
L 196.798081 166.931226 
L 199.40052 167.31435 
L 202.002959 167.460381 
L 204.605405 167.369965 
L 207.533157 167.04283 
L 218.268225 165.602982 
L 221.521274 165.550854 
L 225.099635 165.743898 
L 238.437142 166.76737 
L 242.666113 166.677111 
L 250.473429 166.198246 
L 255.678307 166.00601 
L 260.8832 166.052497 
L 278.449678 166.460846 
L 299.594518 166.233489 
L 315.209151 166.361135 
L 341.233586 166.307187 
L 359.775971 166.298622 
L 392.631801 166.307608 
L 398.487273 166.300887 
L 398.487273 166.300887 
" clip-path="url(#p43bbbfcf46)" style="fill: none; stroke: #2ca02c; stroke-width: 1.5; stroke-linecap: square"/>
   </g>
   <g id="line2d_16">
    <path d="M 73.832727 149.11805 
L 76.109863 202.613014 
L 77.736389 235.580476 
L 79.03761 256.890153 
L 80.013525 269.34092 
L 80.989441 278.538427 
L 81.640051 282.801951 
L 82.290661 285.55184 
L 82.615966 286.359148 
L 82.941272 286.790106 
L 83.266577 286.847561 
L 83.591882 286.535411 
L 83.917188 285.858604 
L 84.567797 283.435973 
L 85.218408 279.600119 
L 85.869019 274.213486 
L 86.844933 263.451322 
L 87.820849 249.730607 
L 89.447375 222.528324 
L 94.652258 131.949301 
L 95.953479 113.96534 
L 96.929394 102.80031 
L 97.90531 93.951137 
L 98.55592 89.445853 
L 99.20653 86.108846 
L 99.857139 83.955809 
L 100.182446 83.32682 
L 100.507751 82.995927 
L 100.833056 82.961492 
L 101.158361 83.220695 
L 101.483666 83.769539 
L 101.80897 84.602882 
L 102.459582 87.136227 
L 103.110192 90.563694 
L 104.086108 97.221309 
L 105.062023 105.441814 
L 106.363244 118.320112 
L 108.315074 140.218607 
L 111.568126 177.071698 
L 113.19465 192.768481 
L 114.495874 203.007513 
L 115.471788 209.095693 
L 116.447703 213.735102 
L 117.098312 215.990041 
L 117.748926 217.563199 
L 118.399536 218.453483 
L 118.724841 218.6357 
L 119.050146 218.642408 
L 119.37545 218.476386 
L 119.700755 218.140948 
L 120.351365 216.977649 
L 121.001975 215.189002 
L 121.652584 212.818714 
L 122.628503 208.283751 
L 123.929722 200.711541 
L 125.556247 189.511048 
L 130.435827 154.389754 
L 131.737047 146.886039 
L 133.038266 140.832841 
L 134.014181 137.326782 
L 134.990099 134.765441 
L 135.640709 133.60305 
L 136.291319 132.899511 
L 136.941928 132.628486 
L 137.592538 132.779346 
L 138.243148 133.336513 
L 138.893761 134.280492 
L 139.544371 135.589169 
L 140.520286 138.172736 
L 141.4962 141.402016 
L 142.79742 146.498925 
L 144.749257 155.199914 
L 148.002305 169.88311 
L 149.62883 176.157766 
L 150.930049 180.218469 
L 151.905964 182.642865 
L 152.881878 184.492071 
L 153.532496 185.393066 
L 154.183105 186.024126 
L 154.833715 186.385618 
L 155.484325 186.4812 
L 156.134935 186.317691 
L 156.785544 185.904883 
L 157.436154 185.255358 
L 158.412069 183.870932 
L 159.387983 182.048845 
L 160.689203 179.060291 
L 162.315735 174.687548 
L 167.195308 160.966299 
L 168.496527 157.995849 
L 169.797754 155.578951 
L 170.773669 154.1815 
L 171.749583 153.16564 
L 172.725498 152.542416 
L 173.376108 152.346455 
L 174.026717 152.322939 
L 174.677327 152.466666 
L 175.327937 152.783964 
L 176.303851 153.555535 
L 177.279766 154.628856 
L 178.580993 156.451648 
L 180.207517 159.190745 
L 185.7377 169.021994 
L 187.038927 170.822685 
L 188.340147 172.26501 
L 189.316061 173.081611 
L 190.291976 173.6567 
L 191.26789 173.98526 
L 192.243805 174.069309 
L 193.21972 173.917531 
L 194.195634 173.544753 
L 195.496861 172.739694 
L 196.798081 171.638922 
L 198.424605 169.956654 
L 204.930702 162.774834 
L 206.231922 161.756259 
L 207.533157 160.99179 
L 208.834376 160.503439 
L 210.135596 160.298329 
L 211.436815 160.369243 
L 212.738035 160.695838 
L 214.039254 161.246672 
L 215.665786 162.187708 
L 217.942912 163.805871 
L 222.171883 166.882283 
L 224.123712 167.984932 
L 225.750244 168.639143 
L 227.376761 169.018376 
L 228.67798 169.117773 
L 230.304513 168.99733 
L 231.931029 168.634003 
L 233.882874 167.943481 
L 236.81061 166.601838 
L 240.714284 164.817622 
L 242.99141 164.050309 
L 244.943239 163.645774 
L 246.895068 163.499465 
L 248.846913 163.603207 
L 250.798742 163.922348 
L 253.401181 164.586178 
L 260.557888 166.571619 
L 262.83503 166.918864 
L 265.112156 167.046592 
L 267.389298 166.96019 
L 269.991737 166.646756 
L 274.54602 165.815657 
L 278.774975 165.124809 
L 281.702727 164.868007 
L 284.630478 164.838276 
L 287.883527 165.039389 
L 293.413717 165.662006 
L 297.967986 166.084761 
L 301.546347 166.204641 
L 305.450005 166.107416 
L 311.956102 165.665891 
L 317.486293 165.385004 
L 322.040561 165.371137 
L 328.546673 165.609249 
L 336.679303 165.866472 
L 342.860087 165.819167 
L 358.800064 165.564895 
L 385.475078 165.67025 
L 398.487273 165.648583 
L 398.487273 165.648583 
" clip-path="url(#p43bbbfcf46)" style="fill: none; stroke: #d62728; stroke-width: 1.5; stroke-linecap: square"/>
   </g>
   <g id="line2d_17">
    <path d="M 73.832727 140.727179 
L 74.483338 140.463073 
L 75.133948 140.480804 
L 75.784558 140.774002 
L 76.435169 141.335562 
L 77.085779 142.162499 
L 78.061694 143.923971 
L 79.03761 146.276588 
L 80.33883 150.197695 
L 81.965357 156.033614 
L 87.495544 177.057229 
L 88.796764 181.010847 
L 90.423291 185.220973 
L 92.049817 188.841171 
L 93.351036 191.25492 
L 94.326953 192.711253 
L 95.302867 193.795192 
L 95.953479 194.280241 
L 96.604089 194.557142 
L 97.254699 194.61513 
L 97.90531 194.448455 
L 98.55592 194.056488 
L 99.20653 193.443091 
L 100.182446 192.122671 
L 101.158361 190.341578 
L 102.134277 188.105194 
L 103.435497 184.458485 
L 105.387328 178.074052 
L 108.965683 166.140457 
L 110.592211 161.555443 
L 111.893431 158.524456 
L 112.869345 156.677693 
L 113.845264 155.221166 
L 114.821178 154.166373 
L 115.797093 153.514976 
L 116.447703 153.301237 
L 117.098312 153.258685 
L 117.748926 153.380822 
L 118.724841 153.854578 
L 119.700755 154.647963 
L 120.67667 155.72031 
L 121.977893 157.501992 
L 123.929722 160.677314 
L 128.158689 167.817766 
L 129.785214 170.079457 
L 131.086437 171.544751 
L 132.387656 172.659934 
L 133.363571 173.251555 
L 134.339489 173.627842 
L 135.315404 173.794337 
L 136.291319 173.762012 
L 137.267233 173.546585 
L 138.568457 173.008817 
L 139.869676 172.235711 
L 141.821505 170.770486 
L 147.677 166.087032 
L 149.303525 165.127472 
L 150.930049 164.420101 
L 152.556573 163.979118 
L 154.183105 163.797255 
L 155.80963 163.849296 
L 157.761459 164.165057 
L 160.038593 164.776584 
L 167.845917 167.105658 
L 170.448364 167.521575 
L 173.050803 167.679613 
L 175.653242 167.614796 
L 179.231603 167.287064 
L 188.014842 166.378794 
L 192.243805 166.222051 
L 197.448691 166.26932 
L 213.063332 166.554422 
L 398.487273 166.219347 
L 398.487273 166.219347 
" clip-path="url(#p43bbbfcf46)" style="fill: none; stroke: #9467bd; stroke-width: 1.5; stroke-linecap: square"/>
   </g>
   <g id="line2d_18">
    <path d="M 73.832727 148.89135 
L 76.109863 197.055977 
L 79.362915 261.356688 
L 80.33883 275.390506 
L 81.314746 285.898478 
L 81.965357 290.808647 
L 82.615966 293.987909 
L 82.941272 294.922848 
L 83.266577 295.421979 
L 83.591882 295.488 
L 83.917188 295.125333 
L 84.242493 294.34005 
L 84.893103 291.533574 
L 85.869019 286.100074 
L 86.519628 281.088764 
L 87.495544 270.886228 
L 88.796764 254.684907 
L 92.700427 224.605018 
L 93.676343 214.29807 
L 94.652258 201.883039 
L 95.953479 182.199945 
L 102.459582 76.389568 
L 103.435497 65.112727 
L 104.086108 59.728213 
L 104.736718 56.047465 
L 105.387328 54.021529 
L 105.712633 53.604448 
L 106.037938 53.568 
L 106.363244 53.89802 
L 106.688549 54.579325 
L 107.339159 56.931266 
L 107.989769 60.490594 
L 108.965683 67.797097 
L 109.941602 77.070294 
L 111.242821 91.781327 
L 113.19465 117.109198 
L 117.423617 173.792444 
L 119.050146 192.171563 
L 120.351365 204.238728 
L 121.32728 211.414019 
L 122.303198 216.844552 
L 122.953808 219.468411 
L 123.604417 221.295888 
L 124.255027 222.342022 
L 124.580332 222.579927 
L 124.905637 222.633191 
L 125.230942 222.506631 
L 125.556247 222.205563 
L 126.20686 221.103349 
L 126.85747 219.375702 
L 127.50808 217.07637 
L 128.483994 212.688026 
L 129.785214 205.406352 
L 131.411742 194.707293 
L 136.941928 156.572369 
L 138.243148 149.794689 
L 139.219066 145.656274 
L 140.194981 142.397133 
L 141.170895 140.043861 
L 141.821505 138.9773 
L 142.472115 138.303493 
L 143.122725 138.008826 
L 143.773334 138.075104 
L 144.423944 138.48019 
L 145.074562 139.198652 
L 145.725171 140.202423 
L 146.701086 142.176836 
L 148.002305 145.517052 
L 149.62883 150.466546 
L 154.50841 165.864205 
L 155.80963 169.198488 
L 157.110849 171.955222 
L 158.086764 173.603341 
L 159.062678 174.876864 
L 160.038593 175.775134 
L 161.014507 176.30835 
L 161.99043 176.496254 
L 162.966344 176.366639 
L 163.942259 175.953745 
L 164.918174 175.296601 
L 166.219393 174.113645 
L 167.845917 172.288201 
L 173.701413 165.29782 
L 175.327937 163.856765 
L 176.629156 162.97082 
L 177.930376 162.328017 
L 179.231603 161.927504 
L 180.532822 161.756289 
L 181.834042 161.791522 
L 183.460566 162.071904 
L 185.412395 162.660808 
L 188.665452 163.951347 
L 192.243805 165.324469 
L 194.520939 165.98123 
L 196.798081 166.410633 
L 199.075215 166.614421 
L 201.677654 166.615255 
L 205.256015 166.353503 
L 214.689864 165.516609 
L 219.569444 165.384498 
L 227.051464 165.447939 
L 247.87099 165.664711 
L 262.83503 165.622506 
L 279.750898 165.609398 
L 304.474083 165.629077 
L 358.149439 165.644469 
L 398.487273 165.650645 
L 398.487273 165.650645 
" clip-path="url(#p43bbbfcf46)" style="fill: none; stroke: #8c564b; stroke-width: 1.5; stroke-linecap: square"/>
   </g>
   <g id="line2d_19">
    <path d="M 73.832727 140.727179 
L 74.483338 140.460455 
L 75.133948 140.485066 
L 75.784558 140.79645 
L 76.435169 141.385013 
L 77.085779 142.23503 
L 78.061694 143.960026 
L 79.03761 146.167113 
L 80.33883 149.723859 
L 82.290661 155.932559 
L 85.869019 167.65639 
L 87.495544 172.171642 
L 88.796764 175.201729 
L 90.097986 177.643439 
L 91.0739 179.040581 
L 92.049817 180.037457 
L 92.700427 180.472403 
L 93.351036 180.721662 
L 94.001648 180.785871 
L 94.652258 180.667698 
L 95.302867 180.371748 
L 96.278784 179.609057 
L 97.254699 178.495697 
L 98.55592 176.557355 
L 100.182446 173.629286 
L 104.411413 165.738649 
L 105.712633 163.775921 
L 107.013854 162.189002 
L 107.989769 161.276848 
L 108.965683 160.616802 
L 109.941602 160.210998 
L 110.917516 160.052361 
L 111.893431 160.12605 
L 112.869345 160.410414 
L 114.170569 161.069852 
L 115.471788 161.981067 
L 117.423617 163.636119 
L 121.001975 166.725849 
L 122.628503 167.835437 
L 123.929722 168.506112 
L 125.230942 168.96487 
L 126.532165 169.212134 
L 127.833385 169.260267 
L 129.459909 169.072312 
L 131.411742 168.569911 
L 134.339489 167.523965 
L 137.917843 166.273561 
L 140.194981 165.707067 
L 142.472115 165.395002 
L 144.749257 165.335391 
L 147.351696 165.512009 
L 151.905964 166.11373 
L 156.460239 166.630375 
L 160.038593 166.803399 
L 164.267564 166.758627 
L 182.159347 166.243148 
L 209.810283 166.331682 
L 230.304513 166.294363 
L 258.931371 166.263588 
L 398.487273 166.208456 
L 398.487273 166.208456 
" clip-path="url(#p43bbbfcf46)" style="fill: none; stroke: #e377c2; stroke-width: 1.5; stroke-linecap: square"/>
   </g>
   <g id="line2d_20">
    <path d="M 73.832727 148.696597 
L 76.435169 205.034467 
L 77.736389 228.87623 
L 79.03761 248.649583 
L 80.013525 260.200911 
L 80.989441 268.609087 
L 81.640051 272.38285 
L 82.290661 274.668117 
L 82.615966 275.253977 
L 82.941272 275.472288 
L 83.266577 275.327472 
L 83.591882 274.825225 
L 83.917188 273.972432 
L 84.567797 271.248209 
L 85.218408 267.193541 
L 86.194324 259.093467 
L 87.820849 243.178025 
L 89.12207 228.754258 
L 90.748596 207.898008 
L 96.604089 128.497989 
L 97.580003 118.526318 
L 98.55592 110.699435 
L 99.20653 106.836315 
L 99.857139 104.080596 
L 100.507751 102.477169 
L 100.833056 102.11651 
L 101.158361 102.051693 
L 101.483666 102.282146 
L 102.134277 103.516022 
L 102.784887 105.512278 
L 103.435497 108.221195 
L 104.411413 113.455052 
L 105.387328 119.875816 
L 106.688549 129.845386 
L 109.290992 152.156514 
L 111.242821 168.157685 
L 112.544041 177.335749 
L 113.845264 184.825376 
L 114.821178 189.181941 
L 115.797093 192.335307 
L 116.447703 193.759363 
L 117.098312 194.651446 
L 117.748926 195.030214 
L 118.074231 195.035056 
L 118.399536 194.921283 
L 119.050146 194.324218 
L 119.700755 193.273121 
L 120.351365 191.81902 
L 121.32728 189.003199 
L 122.628503 184.368821 
L 125.230942 173.803374 
L 127.182775 166.258899 
L 128.483994 161.862864 
L 129.785214 158.301704 
L 130.761132 156.259246 
L 131.737047 154.784657 
L 132.387656 154.117983 
L 133.038266 153.678969 
L 133.688876 153.446697 
L 134.339489 153.411381 
L 134.990099 153.564754 
L 135.966014 154.122916 
L 136.941928 155.009989 
L 138.243148 156.611903 
L 139.869676 159.072573 
L 144.098639 165.783256 
L 145.399866 167.418994 
L 146.701086 168.699657 
L 147.677 169.403528 
L 148.652915 169.890346 
L 149.62883 170.171261 
L 150.604744 170.281581 
L 151.905964 170.1466 
L 153.207191 169.768147 
L 154.833715 169.049161 
L 157.436154 167.612429 
L 160.689203 165.857382 
L 162.641039 165.036414 
L 164.592869 164.461734 
L 166.544698 164.141988 
L 168.496527 164.053082 
L 170.773669 164.180117 
L 173.701413 164.592761 
L 180.207517 165.705527 
L 183.460566 166.007095 
L 186.063005 166.080304 
L 193.21972 165.888152 
L 209.484986 165.439981 
L 216.316396 165.528765 
L 230.304513 165.765523 
L 261.53381 165.687591 
L 276.823146 165.644192 
L 297.317376 165.667631 
L 354.245781 165.65974 
L 398.487273 165.664061 
L 398.487273 165.664061 
" clip-path="url(#p43bbbfcf46)" style="fill: none; stroke: #7f7f7f; stroke-width: 1.5; stroke-linecap: square"/>
   </g>
   <g id="patch_3">
    <path d="M 57.6 307.584 
L 57.6 41.472 
" style="fill: none; stroke: #000000; stroke-width: 0.8; stroke-linejoin: miter; stroke-linecap: square"/>
   </g>
   <g id="patch_4">
    <path d="M 414.72 307.584 
L 414.72 41.472 
" style="fill: none; stroke: #000000; stroke-width: 0.8; stroke-linejoin: miter; stroke-linecap: square"/>
   </g>
   <g id="patch_5">
    <path d="M 57.6 307.584 
L 414.72 307.584 
" style="fill: none; stroke: #000000; stroke-width: 0.8; stroke-linejoin: miter; stroke-linecap: square"/>
   </g>
   <g id="patch_6">
    <path d="M 57.6 41.472 
L 414.72 41.472 
" style="fill: none; stroke: #000000; stroke-width: 0.8; stroke-linejoin: miter; stroke-linecap: square"/>
   </g>
   <g id="legend_1">
    <g id="patch_7">
     <path d="M 363.43875 166.897 
L 407.72 166.897 
Q 409.72 166.897 409.72 164.897 
L 409.72 48.472 
Q 409.72 46.472 407.72 46.472 
L 363.43875 46.472 
Q 361.43875 46.472 361.43875 48.472 
L 361.43875 164.897 
Q 361.43875 166.897 363.43875 166.897 
z
" style="fill: #ffffff; opacity: 0.8; stroke: #cccccc; stroke-linejoin: miter"/>
    </g>
    <g id="line2d_21">
     <path d="M 365.43875 54.570438 
L 375.43875 54.570438 
L 385.43875 54.570438 
" style="fill: none; stroke: #1f77b4; stroke-width: 1.5; stroke-linecap: square"/>
    </g>
    <g id="text_15">
     <!-- x0 -->
     <g transform="translate(393.43875 58.070438) scale(0.1 -0.1)">
      <defs>
       <path id="DejaVuSans-78" d="M 3513 3500 
L 2247 1797 
L 3578 0 
L 2900 0 
L 1881 1375 
L 863 0 
L 184 0 
L 1544 1831 
L 300 3500 
L 978 3500 
L 1906 2253 
L 2834 3500 
L 3513 3500 
z
" transform="scale(0.015625)"/>
      </defs>
      <use xlink:href="#DejaVuSans-78"/>
      <use xlink:href="#DejaVuSans-30" transform="translate(59.179688 0)"/>
     </g>
    </g>
    <g id="line2d_22">
     <path d="M 365.43875 69.248563 
L 375.43875 69.248563 
L 385.43875 69.248563 
" style="fill: none; stroke: #ff7f0e; stroke-width: 1.5; stroke-linecap: square"/>
    </g>
    <g id="text_16">
     <!-- x1 -->
     <g transform="translate(393.43875 72.748563) scale(0.1 -0.1)">
      <use xlink:href="#DejaVuSans-78"/>
      <use xlink:href="#DejaVuSans-31" transform="translate(59.179688 0)"/>
     </g>
    </g>
    <g id="line2d_23">
     <path d="M 365.43875 83.926688 
L 375.43875 83.926688 
L 385.43875 83.926688 
" style="fill: none; stroke: #2ca02c; stroke-width: 1.5; stroke-linecap: square"/>
    </g>
    <g id="text_17">
     <!-- x2 -->
     <g transform="translate(393.43875 87.426688) scale(0.1 -0.1)">
      <use xlink:href="#DejaVuSans-78"/>
      <use xlink:href="#DejaVuSans-32" transform="translate(59.179688 0)"/>
     </g>
    </g>
    <g id="line2d_24">
     <path d="M 365.43875 98.604813 
L 375.43875 98.604813 
L 385.43875 98.604813 
" style="fill: none; stroke: #d62728; stroke-width: 1.5; stroke-linecap: square"/>
    </g>
    <g id="text_18">
     <!-- x3 -->
     <g transform="translate(393.43875 102.104813) scale(0.1 -0.1)">
      <defs>
       <path id="DejaVuSans-33" d="M 2597 2516 
Q 3050 2419 3304 2112 
Q 3559 1806 3559 1356 
Q 3559 666 3084 287 
Q 2609 -91 1734 -91 
Q 1441 -91 1130 -33 
Q 819 25 488 141 
L 488 750 
Q 750 597 1062 519 
Q 1375 441 1716 441 
Q 2309 441 2620 675 
Q 2931 909 2931 1356 
Q 2931 1769 2642 2001 
Q 2353 2234 1838 2234 
L 1294 2234 
L 1294 2753 
L 1863 2753 
Q 2328 2753 2575 2939 
Q 2822 3125 2822 3475 
Q 2822 3834 2567 4026 
Q 2313 4219 1838 4219 
Q 1578 4219 1281 4162 
Q 984 4106 628 3988 
L 628 4550 
Q 988 4650 1302 4700 
Q 1616 4750 1894 4750 
Q 2613 4750 3031 4423 
Q 3450 4097 3450 3541 
Q 3450 3153 3228 2886 
Q 3006 2619 2597 2516 
z
" transform="scale(0.015625)"/>
      </defs>
      <use xlink:href="#DejaVuSans-78"/>
      <use xlink:href="#DejaVuSans-33" transform="translate(59.179688 0)"/>
     </g>
    </g>
    <g id="line2d_25">
     <path d="M 365.43875 113.282938 
L 375.43875 113.282938 
L 385.43875 113.282938 
" style="fill: none; stroke: #9467bd; stroke-width: 1.5; stroke-linecap: square"/>
    </g>
    <g id="text_19">
     <!-- x4 -->
     <g transform="translate(393.43875 116.782938) scale(0.1 -0.1)">
      <use xlink:href="#DejaVuSans-78"/>
      <use xlink:href="#DejaVuSans-34" transform="translate(59.179688 0)"/>
     </g>
    </g>
    <g id="line2d_26">
     <path d="M 365.43875 127.961063 
L 375.43875 127.961063 
L 385.43875 127.961063 
" style="fill: none; stroke: #8c564b; stroke-width: 1.5; stroke-linecap: square"/>
    </g>
    <g id="text_20">
     <!-- x5 -->
     <g transform="translate(393.43875 131.461063) scale(0.1 -0.1)">
      <defs>
       <path id="DejaVuSans-35" d="M 691 4666 
L 3169 4666 
L 3169 4134 
L 1269 4134 
L 1269 2991 
Q 1406 3038 1543 3061 
Q 1681 3084 1819 3084 
Q 2600 3084 3056 2656 
Q 3513 2228 3513 1497 
Q 3513 744 3044 326 
Q 2575 -91 1722 -91 
Q 1428 -91 1123 -41 
Q 819 9 494 109 
L 494 744 
Q 775 591 1075 516 
Q 1375 441 1709 441 
Q 2250 441 2565 725 
Q 2881 1009 2881 1497 
Q 2881 1984 2565 2268 
Q 2250 2553 1709 2553 
Q 1456 2553 1204 2497 
Q 953 2441 691 2322 
L 691 4666 
z
" transform="scale(0.015625)"/>
      </defs>
      <use xlink:href="#DejaVuSans-78"/>
      <use xlink:href="#DejaVuSans-35" transform="translate(59.179688 0)"/>
     </g>
    </g>
    <g id="line2d_27">
     <path d="M 365.43875 142.639188 
L 375.43875 142.639188 
L 385.43875 142.639188 
" style="fill: none; stroke: #e377c2; stroke-width: 1.5; stroke-linecap: square"/>
    </g>
    <g id="text_21">
     <!-- x6 -->
     <g transform="translate(393.43875 146.139188) scale(0.1 -0.1)">
      <use xlink:href="#DejaVuSans-78"/>
      <use xlink:href="#DejaVuSans-36" transform="translate(59.179688 0)"/>
     </g>
    </g>
    <g id="line2d_28">
     <path d="M 365.43875 157.317313 
L 375.43875 157.317313 
L 385.43875 157.317313 
" style="fill: none; stroke: #7f7f7f; stroke-width: 1.5; stroke-linecap: square"/>
    </g>
    <g id="text_22">
     <!-- x7 -->
     <g transform="translate(393.43875 160.817313) scale(0.1 -0.1)">
      <defs>
       <path id="DejaVuSans-37" d="M 525 4666 
L 3525 4666 
L 3525 4397 
L 1831 0 
L 1172 0 
L 2766 4134 
L 525 4134 
L 525 4666 
z
" transform="scale(0.015625)"/>
      </defs>
      <use xlink:href="#DejaVuSans-78"/>
      <use xlink:href="#DejaVuSans-37" transform="translate(59.179688 0)"/>
     </g>
    </g>
   </g>
  </g>
 </g>
 <defs>
  <clipPath id="p43bbbfcf46">
   <rect x="57.6" y="41.472" width="357.12" height="266.112"/>
  </clipPath>
 </defs>
</svg>
