<?xml version="1.0" encoding="utf-8" standalone="no"?>
<!DOCTYPE svg PUBLIC "-//W3C//DTD SVG 1.1//EN"
  "http://www.w3.org/Graphics/SVG/1.1/DTD/svg11.dtd">
<svg xmlns:xlink="http://www.w3.org/1999/xlink" width="460.8pt" height="345.6pt" viewBox="0 0 460.8 345.6" xmlns="http://www.w3.org/2000/svg" version="1.1">
 <metadata>
  <rdf:RDF xmlns:dc="http://purl.org/dc/elements/1.1/" xmlns:cc="http://creativecommons.org/ns#" xmlns:rdf="http://www.w3.org/1999/02/22-rdf-syntax-ns#">
   <cc:Work>
    <dc:type rdf:resource="http://purl.org/dc/dcmitype/StillImage"/>
    <dc:date>2025-05-10T03:32:24.761521</dc:date>
    <dc:format>image/svg+xml</dc:format>
    <dc:creator>
     <cc:Agent>
      <dc:title>Matplotlib v3.10.0, https://matplotlib.org/</dc:title>
     </cc:Agent>
    </dc:creator>
   </cc:Work>
  </rdf:RDF>
 </metadata>
 <defs>
  <style type="text/css">*{stroke-linejoin: round; stroke-linecap: butt}</style>
 </defs>
 <g id="figure_1">
  <g id="patch_1">
   <path d="M 0 345.6 
L 460.8 345.6 
L 460.8 0 
L 0 0 
z
" style="fill: #ffffff"/>
  </g>
  <g id="axes_1">
   <g id="patch_2">
    <path d="M 57.6 307.584 
L 414.72 307.584 
L 414.72 41.472 
L 57.6 41.472 
z
" style="fill: #ffffff"/>
   </g>
   <g id="matplotlib.axis_1">
    <g id="xtick_1">
     <g id="line2d_1">
      <defs>
       <path id="m96ec8915dc" d="M 0 0 
L 0 3.5 
" style="stroke: #000000; stroke-width: 0.8"/>
      </defs>
      <g>
       <use xlink:href="#m96ec8915dc" x="73.832727" y="307.584" style="stroke: #000000; stroke-width: 0.8"/>
      </g>
     </g>
     <g id="text_1">
      <!-- 0 -->
      <g transform="translate(70.651477 322.182437) scale(0.1 -0.1)">
       <defs>
        <path id="DejaVuSans-30" d="M 2034 4250 
Q 1547 4250 1301 3770 
Q 1056 3291 1056 2328 
Q 1056 1369 1301 889 
Q 1547 409 2034 409 
Q 2525 409 2770 889 
Q 3016 1369 3016 2328 
Q 3016 3291 2770 3770 
Q 2525 4250 2034 4250 
z
M 2034 4750 
Q 2819 4750 3233 4129 
Q 3647 3509 3647 2328 
Q 3647 1150 3233 529 
Q 2819 -91 2034 -91 
Q 1250 -91 836 529 
Q 422 1150 422 2328 
Q 422 3509 836 4129 
Q 1250 4750 2034 4750 
z
" transform="scale(0.015625)"/>
       </defs>
       <use xlink:href="#DejaVuSans-30"/>
      </g>
     </g>
    </g>
    <g id="xtick_2">
     <g id="line2d_2">
      <g>
       <use xlink:href="#m96ec8915dc" x="138.893761" y="307.584" style="stroke: #000000; stroke-width: 0.8"/>
      </g>
     </g>
     <g id="text_2">
      <!-- 2 -->
      <g transform="translate(135.712511 322.182437) scale(0.1 -0.1)">
       <defs>
        <path id="DejaVuSans-32" d="M 1228 531 
L 3431 531 
L 3431 0 
L 469 0 
L 469 531 
Q 828 903 1448 1529 
Q 2069 2156 2228 2338 
Q 2531 2678 2651 2914 
Q 2772 3150 2772 3378 
Q 2772 3750 2511 3984 
Q 2250 4219 1831 4219 
Q 1534 4219 1204 4116 
Q 875 4013 500 3803 
L 500 4441 
Q 881 4594 1212 4672 
Q 1544 4750 1819 4750 
Q 2544 4750 2975 4387 
Q 3406 4025 3406 3419 
Q 3406 3131 3298 2873 
Q 3191 2616 2906 2266 
Q 2828 2175 2409 1742 
Q 1991 1309 1228 531 
z
" transform="scale(0.015625)"/>
       </defs>
       <use xlink:href="#DejaVuSans-32"/>
      </g>
     </g>
    </g>
    <g id="xtick_3">
     <g id="line2d_3">
      <g>
       <use xlink:href="#m96ec8915dc" x="203.954796" y="307.584" style="stroke: #000000; stroke-width: 0.8"/>
      </g>
     </g>
     <g id="text_3">
      <!-- 4 -->
      <g transform="translate(200.773546 322.182437) scale(0.1 -0.1)">
       <defs>
        <path id="DejaVuSans-34" d="M 2419 4116 
L 825 1625 
L 2419 1625 
L 2419 4116 
z
M 2253 4666 
L 3047 4666 
L 3047 1625 
L 3713 1625 
L 3713 1100 
L 3047 1100 
L 3047 0 
L 2419 0 
L 2419 1100 
L 313 1100 
L 313 1709 
L 2253 4666 
z
" transform="scale(0.015625)"/>
       </defs>
       <use xlink:href="#DejaVuSans-34"/>
      </g>
     </g>
    </g>
    <g id="xtick_4">
     <g id="line2d_4">
      <g>
       <use xlink:href="#m96ec8915dc" x="269.01583" y="307.584" style="stroke: #000000; stroke-width: 0.8"/>
      </g>
     </g>
     <g id="text_4">
      <!-- 6 -->
      <g transform="translate(265.83458 322.182437) scale(0.1 -0.1)">
       <defs>
        <path id="DejaVuSans-36" d="M 2113 2584 
Q 1688 2584 1439 2293 
Q 1191 2003 1191 1497 
Q 1191 994 1439 701 
Q 1688 409 2113 409 
Q 2538 409 2786 701 
Q 3034 994 3034 1497 
Q 3034 2003 2786 2293 
Q 2538 2584 2113 2584 
z
M 3366 4563 
L 3366 3988 
Q 3128 4100 2886 4159 
Q 2644 4219 2406 4219 
Q 1781 4219 1451 3797 
Q 1122 3375 1075 2522 
Q 1259 2794 1537 2939 
Q 1816 3084 2150 3084 
Q 2853 3084 3261 2657 
Q 3669 2231 3669 1497 
Q 3669 778 3244 343 
Q 2819 -91 2113 -91 
Q 1303 -91 875 529 
Q 447 1150 447 2328 
Q 447 3434 972 4092 
Q 1497 4750 2381 4750 
Q 2619 4750 2861 4703 
Q 3103 4656 3366 4563 
z
" transform="scale(0.015625)"/>
       </defs>
       <use xlink:href="#DejaVuSans-36"/>
      </g>
     </g>
    </g>
    <g id="xtick_5">
     <g id="line2d_5">
      <g>
       <use xlink:href="#m96ec8915dc" x="334.076864" y="307.584" style="stroke: #000000; stroke-width: 0.8"/>
      </g>
     </g>
     <g id="text_5">
      <!-- 8 -->
      <g transform="translate(330.895614 322.182437) scale(0.1 -0.1)">
       <defs>
        <path id="DejaVuSans-38" d="M 2034 2216 
Q 1584 2216 1326 1975 
Q 1069 1734 1069 1313 
Q 1069 891 1326 650 
Q 1584 409 2034 409 
Q 2484 409 2743 651 
Q 3003 894 3003 1313 
Q 3003 1734 2745 1975 
Q 2488 2216 2034 2216 
z
M 1403 2484 
Q 997 2584 770 2862 
Q 544 3141 544 3541 
Q 544 4100 942 4425 
Q 1341 4750 2034 4750 
Q 2731 4750 3128 4425 
Q 3525 4100 3525 3541 
Q 3525 3141 3298 2862 
Q 3072 2584 2669 2484 
Q 3125 2378 3379 2068 
Q 3634 1759 3634 1313 
Q 3634 634 3220 271 
Q 2806 -91 2034 -91 
Q 1263 -91 848 271 
Q 434 634 434 1313 
Q 434 1759 690 2068 
Q 947 2378 1403 2484 
z
M 1172 3481 
Q 1172 3119 1398 2916 
Q 1625 2713 2034 2713 
Q 2441 2713 2670 2916 
Q 2900 3119 2900 3481 
Q 2900 3844 2670 4047 
Q 2441 4250 2034 4250 
Q 1625 4250 1398 4047 
Q 1172 3844 1172 3481 
z
" transform="scale(0.015625)"/>
       </defs>
       <use xlink:href="#DejaVuSans-38"/>
      </g>
     </g>
    </g>
    <g id="xtick_6">
     <g id="line2d_6">
      <g>
       <use xlink:href="#m96ec8915dc" x="399.137898" y="307.584" style="stroke: #000000; stroke-width: 0.8"/>
      </g>
     </g>
     <g id="text_6">
      <!-- 10 -->
      <g transform="translate(392.775398 322.182437) scale(0.1 -0.1)">
       <defs>
        <path id="DejaVuSans-31" d="M 794 531 
L 1825 531 
L 1825 4091 
L 703 3866 
L 703 4441 
L 1819 4666 
L 2450 4666 
L 2450 531 
L 3481 531 
L 3481 0 
L 794 0 
L 794 531 
z
" transform="scale(0.015625)"/>
       </defs>
       <use xlink:href="#DejaVuSans-31"/>
       <use xlink:href="#DejaVuSans-30" transform="translate(63.623047 0)"/>
      </g>
     </g>
    </g>
    <g id="text_7">
     <!-- time -->
     <g transform="translate(224.863906 335.860562) scale(0.1 -0.1)">
      <defs>
       <path id="DejaVuSans-74" d="M 1172 4494 
L 1172 3500 
L 2356 3500 
L 2356 3053 
L 1172 3053 
L 1172 1153 
Q 1172 725 1289 603 
Q 1406 481 1766 481 
L 2356 481 
L 2356 0 
L 1766 0 
Q 1100 0 847 248 
Q 594 497 594 1153 
L 594 3053 
L 172 3053 
L 172 3500 
L 594 3500 
L 594 4494 
L 1172 4494 
z
" transform="scale(0.015625)"/>
       <path id="DejaVuSans-69" d="M 603 3500 
L 1178 3500 
L 1178 0 
L 603 0 
L 603 3500 
z
M 603 4863 
L 1178 4863 
L 1178 4134 
L 603 4134 
L 603 4863 
z
" transform="scale(0.015625)"/>
       <path id="DejaVuSans-6d" d="M 3328 2828 
Q 3544 3216 3844 3400 
Q 4144 3584 4550 3584 
Q 5097 3584 5394 3201 
Q 5691 2819 5691 2113 
L 5691 0 
L 5113 0 
L 5113 2094 
Q 5113 2597 4934 2840 
Q 4756 3084 4391 3084 
Q 3944 3084 3684 2787 
Q 3425 2491 3425 1978 
L 3425 0 
L 2847 0 
L 2847 2094 
Q 2847 2600 2669 2842 
Q 2491 3084 2119 3084 
Q 1678 3084 1418 2786 
Q 1159 2488 1159 1978 
L 1159 0 
L 581 0 
L 581 3500 
L 1159 3500 
L 1159 2956 
Q 1356 3278 1631 3431 
Q 1906 3584 2284 3584 
Q 2666 3584 2933 3390 
Q 3200 3197 3328 2828 
z
" transform="scale(0.015625)"/>
       <path id="DejaVuSans-65" d="M 3597 1894 
L 3597 1613 
L 953 1613 
Q 991 1019 1311 708 
Q 1631 397 2203 397 
Q 2534 397 2845 478 
Q 3156 559 3463 722 
L 3463 178 
Q 3153 47 2828 -22 
Q 2503 -91 2169 -91 
Q 1331 -91 842 396 
Q 353 884 353 1716 
Q 353 2575 817 3079 
Q 1281 3584 2069 3584 
Q 2775 3584 3186 3129 
Q 3597 2675 3597 1894 
z
M 3022 2063 
Q 3016 2534 2758 2815 
Q 2500 3097 2075 3097 
Q 1594 3097 1305 2825 
Q 1016 2553 972 2059 
L 3022 2063 
z
" transform="scale(0.015625)"/>
      </defs>
      <use xlink:href="#DejaVuSans-74"/>
      <use xlink:href="#DejaVuSans-69" transform="translate(39.208984 0)"/>
      <use xlink:href="#DejaVuSans-6d" transform="translate(66.992188 0)"/>
      <use xlink:href="#DejaVuSans-65" transform="translate(164.404297 0)"/>
     </g>
    </g>
   </g>
   <g id="matplotlib.axis_2">
    <g id="ytick_1">
     <g id="line2d_7">
      <defs>
       <path id="mfb98d07580" d="M 0 0 
L -3.5 0 
" style="stroke: #000000; stroke-width: 0.8"/>
      </defs>
      <g>
       <use xlink:href="#mfb98d07580" x="57.6" y="305.605924" style="stroke: #000000; stroke-width: 0.8"/>
      </g>
     </g>
     <g id="text_8">
      <!-- −60 -->
      <g transform="translate(29.495313 309.405143) scale(0.1 -0.1)">
       <defs>
        <path id="DejaVuSans-2212" d="M 678 2272 
L 4684 2272 
L 4684 1741 
L 678 1741 
L 678 2272 
z
" transform="scale(0.015625)"/>
       </defs>
       <use xlink:href="#DejaVuSans-2212"/>
       <use xlink:href="#DejaVuSans-36" transform="translate(83.789062 0)"/>
       <use xlink:href="#DejaVuSans-30" transform="translate(147.412109 0)"/>
      </g>
     </g>
    </g>
    <g id="ytick_2">
     <g id="line2d_8">
      <g>
       <use xlink:href="#mfb98d07580" x="57.6" y="270.552213" style="stroke: #000000; stroke-width: 0.8"/>
      </g>
     </g>
     <g id="text_9">
      <!-- −50 -->
      <g transform="translate(29.495313 274.351432) scale(0.1 -0.1)">
       <defs>
        <path id="DejaVuSans-35" d="M 691 4666 
L 3169 4666 
L 3169 4134 
L 1269 4134 
L 1269 2991 
Q 1406 3038 1543 3061 
Q 1681 3084 1819 3084 
Q 2600 3084 3056 2656 
Q 3513 2228 3513 1497 
Q 3513 744 3044 326 
Q 2575 -91 1722 -91 
Q 1428 -91 1123 -41 
Q 819 9 494 109 
L 494 744 
Q 775 591 1075 516 
Q 1375 441 1709 441 
Q 2250 441 2565 725 
Q 2881 1009 2881 1497 
Q 2881 1984 2565 2268 
Q 2250 2553 1709 2553 
Q 1456 2553 1204 2497 
Q 953 2441 691 2322 
L 691 4666 
z
" transform="scale(0.015625)"/>
       </defs>
       <use xlink:href="#DejaVuSans-2212"/>
       <use xlink:href="#DejaVuSans-35" transform="translate(83.789062 0)"/>
       <use xlink:href="#DejaVuSans-30" transform="translate(147.412109 0)"/>
      </g>
     </g>
    </g>
    <g id="ytick_3">
     <g id="line2d_9">
      <g>
       <use xlink:href="#mfb98d07580" x="57.6" y="235.498502" style="stroke: #000000; stroke-width: 0.8"/>
      </g>
     </g>
     <g id="text_10">
      <!-- −40 -->
      <g transform="translate(29.495313 239.297721) scale(0.1 -0.1)">
       <use xlink:href="#DejaVuSans-2212"/>
       <use xlink:href="#DejaVuSans-34" transform="translate(83.789062 0)"/>
       <use xlink:href="#DejaVuSans-30" transform="translate(147.412109 0)"/>
      </g>
     </g>
    </g>
    <g id="ytick_4">
     <g id="line2d_10">
      <g>
       <use xlink:href="#mfb98d07580" x="57.6" y="200.444792" style="stroke: #000000; stroke-width: 0.8"/>
      </g>
     </g>
     <g id="text_11">
      <!-- −30 -->
      <g transform="translate(29.495313 204.24401) scale(0.1 -0.1)">
       <defs>
        <path id="DejaVuSans-33" d="M 2597 2516 
Q 3050 2419 3304 2112 
Q 3559 1806 3559 1356 
Q 3559 666 3084 287 
Q 2609 -91 1734 -91 
Q 1441 -91 1130 -33 
Q 819 25 488 141 
L 488 750 
Q 750 597 1062 519 
Q 1375 441 1716 441 
Q 2309 441 2620 675 
Q 2931 909 2931 1356 
Q 2931 1769 2642 2001 
Q 2353 2234 1838 2234 
L 1294 2234 
L 1294 2753 
L 1863 2753 
Q 2328 2753 2575 2939 
Q 2822 3125 2822 3475 
Q 2822 3834 2567 4026 
Q 2313 4219 1838 4219 
Q 1578 4219 1281 4162 
Q 984 4106 628 3988 
L 628 4550 
Q 988 4650 1302 4700 
Q 1616 4750 1894 4750 
Q 2613 4750 3031 4423 
Q 3450 4097 3450 3541 
Q 3450 3153 3228 2886 
Q 3006 2619 2597 2516 
z
" transform="scale(0.015625)"/>
       </defs>
       <use xlink:href="#DejaVuSans-2212"/>
       <use xlink:href="#DejaVuSans-33" transform="translate(83.789062 0)"/>
       <use xlink:href="#DejaVuSans-30" transform="translate(147.412109 0)"/>
      </g>
     </g>
    </g>
    <g id="ytick_5">
     <g id="line2d_11">
      <g>
       <use xlink:href="#mfb98d07580" x="57.6" y="165.391081" style="stroke: #000000; stroke-width: 0.8"/>
      </g>
     </g>
     <g id="text_12">
      <!-- −20 -->
      <g transform="translate(29.495313 169.1903) scale(0.1 -0.1)">
       <use xlink:href="#DejaVuSans-2212"/>
       <use xlink:href="#DejaVuSans-32" transform="translate(83.789062 0)"/>
       <use xlink:href="#DejaVuSans-30" transform="translate(147.412109 0)"/>
      </g>
     </g>
    </g>
    <g id="ytick_6">
     <g id="line2d_12">
      <g>
       <use xlink:href="#mfb98d07580" x="57.6" y="130.33737" style="stroke: #000000; stroke-width: 0.8"/>
      </g>
     </g>
     <g id="text_13">
      <!-- −10 -->
      <g transform="translate(29.495313 134.136589) scale(0.1 -0.1)">
       <use xlink:href="#DejaVuSans-2212"/>
       <use xlink:href="#DejaVuSans-31" transform="translate(83.789062 0)"/>
       <use xlink:href="#DejaVuSans-30" transform="translate(147.412109 0)"/>
      </g>
     </g>
    </g>
    <g id="ytick_7">
     <g id="line2d_13">
      <g>
       <use xlink:href="#mfb98d07580" x="57.6" y="95.283659" style="stroke: #000000; stroke-width: 0.8"/>
      </g>
     </g>
     <g id="text_14">
      <!-- 0 -->
      <g transform="translate(44.2375 99.082878) scale(0.1 -0.1)">
       <use xlink:href="#DejaVuSans-30"/>
      </g>
     </g>
    </g>
    <g id="ytick_8">
     <g id="line2d_14">
      <g>
       <use xlink:href="#mfb98d07580" x="57.6" y="60.229949" style="stroke: #000000; stroke-width: 0.8"/>
      </g>
     </g>
     <g id="text_15">
      <!-- 10 -->
      <g transform="translate(37.875 64.029167) scale(0.1 -0.1)">
       <use xlink:href="#DejaVuSans-31"/>
       <use xlink:href="#DejaVuSans-30" transform="translate(63.623047 0)"/>
      </g>
     </g>
    </g>
    <g id="text_16">
     <!-- action -->
     <g transform="translate(23.415625 189.918625) rotate(-90) scale(0.1 -0.1)">
      <defs>
       <path id="DejaVuSans-61" d="M 2194 1759 
Q 1497 1759 1228 1600 
Q 959 1441 959 1056 
Q 959 750 1161 570 
Q 1363 391 1709 391 
Q 2188 391 2477 730 
Q 2766 1069 2766 1631 
L 2766 1759 
L 2194 1759 
z
M 3341 1997 
L 3341 0 
L 2766 0 
L 2766 531 
Q 2569 213 2275 61 
Q 1981 -91 1556 -91 
Q 1019 -91 701 211 
Q 384 513 384 1019 
Q 384 1609 779 1909 
Q 1175 2209 1959 2209 
L 2766 2209 
L 2766 2266 
Q 2766 2663 2505 2880 
Q 2244 3097 1772 3097 
Q 1472 3097 1187 3025 
Q 903 2953 641 2809 
L 641 3341 
Q 956 3463 1253 3523 
Q 1550 3584 1831 3584 
Q 2591 3584 2966 3190 
Q 3341 2797 3341 1997 
z
" transform="scale(0.015625)"/>
       <path id="DejaVuSans-63" d="M 3122 3366 
L 3122 2828 
Q 2878 2963 2633 3030 
Q 2388 3097 2138 3097 
Q 1578 3097 1268 2742 
Q 959 2388 959 1747 
Q 959 1106 1268 751 
Q 1578 397 2138 397 
Q 2388 397 2633 464 
Q 2878 531 3122 666 
L 3122 134 
Q 2881 22 2623 -34 
Q 2366 -91 2075 -91 
Q 1284 -91 818 406 
Q 353 903 353 1747 
Q 353 2603 823 3093 
Q 1294 3584 2113 3584 
Q 2378 3584 2631 3529 
Q 2884 3475 3122 3366 
z
" transform="scale(0.015625)"/>
       <path id="DejaVuSans-6f" d="M 1959 3097 
Q 1497 3097 1228 2736 
Q 959 2375 959 1747 
Q 959 1119 1226 758 
Q 1494 397 1959 397 
Q 2419 397 2687 759 
Q 2956 1122 2956 1747 
Q 2956 2369 2687 2733 
Q 2419 3097 1959 3097 
z
M 1959 3584 
Q 2709 3584 3137 3096 
Q 3566 2609 3566 1747 
Q 3566 888 3137 398 
Q 2709 -91 1959 -91 
Q 1206 -91 779 398 
Q 353 888 353 1747 
Q 353 2609 779 3096 
Q 1206 3584 1959 3584 
z
" transform="scale(0.015625)"/>
       <path id="DejaVuSans-6e" d="M 3513 2113 
L 3513 0 
L 2938 0 
L 2938 2094 
Q 2938 2591 2744 2837 
Q 2550 3084 2163 3084 
Q 1697 3084 1428 2787 
Q 1159 2491 1159 1978 
L 1159 0 
L 581 0 
L 581 3500 
L 1159 3500 
L 1159 2956 
Q 1366 3272 1645 3428 
Q 1925 3584 2291 3584 
Q 2894 3584 3203 3211 
Q 3513 2838 3513 2113 
z
" transform="scale(0.015625)"/>
      </defs>
      <use xlink:href="#DejaVuSans-61"/>
      <use xlink:href="#DejaVuSans-63" transform="translate(61.279297 0)"/>
      <use xlink:href="#DejaVuSans-74" transform="translate(116.259766 0)"/>
      <use xlink:href="#DejaVuSans-69" transform="translate(155.46875 0)"/>
      <use xlink:href="#DejaVuSans-6f" transform="translate(183.251953 0)"/>
      <use xlink:href="#DejaVuSans-6e" transform="translate(244.433594 0)"/>
     </g>
    </g>
   </g>
   <g id="line2d_15">
    <path d="M 73.832727 96.478227 
L 74.158032 84.685951 
L 74.808643 81.676678 
L 75.459253 78.833458 
L 76.109863 74.770451 
L 76.435169 76.132543 
L 76.760474 73.459333 
L 77.085779 68.305257 
L 77.411084 66.558589 
L 77.736389 66.111833 
L 78.061694 66.156174 
L 78.712305 66.69862 
L 80.989441 69.203503 
L 82.615966 71.251949 
L 84.242493 73.697568 
L 84.893103 74.817627 
L 85.218408 82.429277 
L 85.543713 94.085909 
L 86.844933 96.365957 
L 88.47146 99.925136 
L 89.12207 107.46776 
L 91.0739 115.702462 
L 93.676343 126.465501 
L 94.652258 129.512777 
L 95.302867 130.917899 
L 95.953479 131.7798 
L 96.278784 132.016029 
L 96.604089 132.093479 
L 96.929394 132.00485 
L 97.254699 131.744338 
L 97.90531 130.693438 
L 98.55592 128.932836 
L 99.20653 126.423674 
L 100.182446 121.358494 
L 101.483666 112.849079 
L 101.80897 110.484334 
L 102.134277 116.342068 
L 102.784887 116.16243 
L 104.086108 115.48014 
L 105.387328 114.494495 
L 106.688549 113.227505 
L 107.989769 111.693237 
L 109.941602 108.986624 
L 111.893431 105.785705 
L 112.869345 104.251303 
L 113.519959 103.48921 
L 113.845264 102.724175 
L 114.170569 100.952876 
L 115.146483 99.934764 
L 117.098312 95.825864 
L 118.399536 93.490805 
L 119.700755 91.497023 
L 120.67667 90.331713 
L 121.652584 89.47377 
L 122.628503 88.930709 
L 123.604417 88.699642 
L 124.580332 88.769016 
L 125.556247 89.120591 
L 126.85747 89.917825 
L 127.833385 90.699762 
L 129.134604 92.06164 
L 130.761132 94.140894 
L 134.664794 99.616726 
L 135.315404 99.892161 
L 135.640709 100.361061 
L 135.966014 101.43686 
L 137.917843 102.265598 
L 138.893761 102.703957 
L 140.194981 103.534086 
L 141.170895 103.937116 
L 142.14681 104.150372 
L 143.122725 104.178052 
L 144.098639 104.028527 
L 145.399866 103.574577 
L 146.701086 102.863297 
L 148.002305 102.051327 
L 149.62883 101.578014 
L 149.954134 99.978303 
L 151.580659 99.545053 
L 154.183105 96.900647 
L 155.80963 95.512908 
L 157.110849 94.628274 
L 158.412069 93.980271 
L 159.713288 93.587083 
L 161.014507 93.452748 
L 162.315735 93.567987 
L 163.616954 93.91186 
L 165.243478 94.614929 
L 167.195308 95.753923 
L 172.400193 99.166306 
L 174.677327 99.307567 
L 175.002632 99.476481 
L 175.327937 100.507939 
L 178.580993 100.622162 
L 182.484651 100.600579 
L 182.809956 99.711533 
L 183.135261 99.363943 
L 186.388318 99.24857 
L 190.942586 97.173434 
L 192.894415 96.517541 
L 194.846252 96.095282 
L 196.798081 95.929791 
L 198.74991 96.012296 
L 201.027044 96.372348 
L 203.954796 97.106681 
L 209.484986 98.545207 
L 212.087425 98.944546 
L 214.039254 99.025928 
L 217.617615 98.914326 
L 220.870664 98.456818 
L 228.352683 97.292016 
L 231.280419 97.093951 
L 234.533483 97.109463 
L 238.437142 97.374227 
L 247.220381 98.051007 
L 251.124039 98.086041 
L 256.00362 97.894502 
L 266.088078 97.438787 
L 271.943566 97.464327 
L 287.558214 97.685178 
L 313.257322 97.515167 
L 329.197283 97.481443 
L 355.547 97.430897 
L 398.487273 97.353206 
L 398.487273 97.353206 
" clip-path="url(#p791dc55b54)" style="fill: none; stroke: #1f77b4; stroke-width: 1.5; stroke-linecap: square"/>
   </g>
   <g id="line2d_16">
    <path d="M 73.832727 98.346821 
L 74.158032 96.867698 
L 74.483338 96.906691 
L 74.808643 96.787467 
L 75.133948 97.09914 
L 75.459253 97.766666 
L 76.435169 101.340983 
L 76.760474 103.836078 
L 77.085779 105.03217 
L 77.411084 105.399337 
L 78.061694 105.43381 
L 82.941272 104.556317 
L 84.893103 104.234401 
L 85.218408 103.556123 
L 85.869019 101.273 
L 86.844933 97.582481 
L 88.146155 91.25582 
L 88.47146 91.218138 
L 89.12207 90.705191 
L 95.302867 89.103582 
L 95.953479 89.095585 
L 96.929394 89.750569 
L 97.90531 90.760658 
L 98.881225 92.159977 
L 100.182446 94.234712 
L 101.80897 97.301537 
L 102.134277 98.58313 
L 103.110192 98.737682 
L 104.411413 98.894856 
L 107.013854 99.252609 
L 108.965683 99.539116 
L 110.917516 99.468405 
L 113.519959 99.153175 
L 113.845264 99.048286 
L 114.170569 98.788549 
L 116.122398 98.718106 
L 118.399536 98.617415 
L 121.001975 97.393616 
L 122.953808 96.722265 
L 124.580332 96.37981 
L 126.20686 96.246679 
L 126.85747 96.336833 
L 130.761132 97.222054 
L 132.712961 97.800337 
L 135.640709 98.01156 
L 135.966014 98.193311 
L 142.472115 98.868246 
L 145.399866 98.910394 
L 149.62883 98.691068 
L 149.954134 98.436627 
L 161.99043 98.069567 
L 168.496527 98.030842 
L 174.677327 98.20556 
L 175.002632 98.243055 
L 175.327937 98.417692 
L 180.532822 98.57647 
L 182.484651 98.57976 
L 183.135261 98.384236 
L 195.171557 98.203902 
L 204.280093 98.130864 
L 230.955122 98.224468 
L 242.015503 98.215321 
L 261.53381 98.284909 
L 280.076195 98.267739 
L 301.221034 98.277447 
L 339.932336 98.289803 
L 398.487273 98.310957 
L 398.487273 98.310957 
" clip-path="url(#p791dc55b54)" style="fill: none; stroke: #ff7f0e; stroke-width: 1.5; stroke-linecap: square"/>
   </g>
   <g id="line2d_17">
    <path d="M 73.832727 95.915242 
L 74.158032 67.314691 
L 74.483338 61.509642 
L 74.808643 58.242292 
L 75.459253 54.745265 
L 75.784558 53.728329 
L 76.109863 53.568 
L 76.435169 56.514344 
L 77.085779 82.421441 
L 77.411084 86.579576 
L 77.736389 87.477849 
L 78.061694 87.244375 
L 80.664136 82.678744 
L 81.640051 81.623324 
L 82.615966 80.836039 
L 83.591882 80.285115 
L 84.567797 79.978764 
L 84.893103 79.936857 
L 85.218408 83.585815 
L 85.543713 90.401568 
L 85.869019 93.042952 
L 88.146155 93.117327 
L 88.47146 97.000829 
L 89.12207 149.419675 
L 93.025731 253.826524 
L 94.001648 273.130054 
L 94.652258 283.090443 
L 95.302867 290.068731 
L 95.953479 294.216891 
L 96.278784 295.239349 
L 96.604089 295.488 
L 96.929394 294.929321 
L 97.254699 293.527702 
L 97.580003 291.245983 
L 98.230615 283.890124 
L 98.881225 272.565544 
L 99.531835 256.330618 
L 100.182446 235.53339 
L 101.158361 195.997555 
L 101.80897 164.603153 
L 102.134277 159.367615 
L 102.459582 159.514519 
L 102.784887 159.457902 
L 103.110192 159.219294 
L 103.760802 158.274005 
L 104.411413 156.816545 
L 105.387328 153.906573 
L 106.688549 149.092838 
L 108.315074 142.15615 
L 110.917516 129.929072 
L 114.821178 110.287686 
L 117.748926 95.735631 
L 118.399536 93.27327 
L 120.67667 85.4489 
L 121.652584 83.01216 
L 122.628503 81.23971 
L 123.279113 80.436432 
L 123.929722 79.933941 
L 124.580332 79.724617 
L 125.230942 79.796531 
L 125.881551 80.134226 
L 126.532165 80.717857 
L 127.182775 81.500249 
L 128.158689 83.087042 
L 129.459909 85.799003 
L 131.086437 89.894451 
L 132.387656 93.35417 
L 132.712961 93.384792 
L 134.990099 100.280348 
L 136.616624 104.830923 
L 137.917843 107.908927 
L 139.219066 110.406429 
L 140.194981 111.84581 
L 141.170895 112.887377 
L 142.14681 113.528561 
L 142.79742 113.73842 
L 143.448029 113.781183 
L 144.098639 113.664954 
L 145.074562 113.214534 
L 146.050476 112.467685 
L 147.351696 111.085991 
L 148.97822 108.905403 
L 150.604744 106.340774 
L 154.183105 100.698462 
L 155.80963 98.505332 
L 157.110849 97.043272 
L 158.412069 95.886546 
L 159.713288 95.056952 
L 161.014507 94.558099 
L 161.99043 94.393677 
L 163.291649 94.433285 
L 164.592869 94.734982 
L 165.894088 95.253787 
L 167.520612 96.130317 
L 170.448364 98.035094 
L 173.701413 100.086241 
L 175.653242 101.080792 
L 177.605071 101.728181 
L 179.231603 102.042849 
L 180.858127 102.157232 
L 182.484651 102.090506 
L 187.038927 101.126471 
L 194.195634 99.288686 
L 197.123386 98.849151 
L 200.051129 98.65951 
L 203.304186 98.689436 
L 208.509064 99.007688 
L 215.015161 99.353246 
L 220.220054 99.383787 
L 228.352683 99.156973 
L 239.738361 98.89408 
L 261.208498 98.743619 
L 389.378737 98.011774 
L 398.487273 97.977408 
L 398.487273 97.977408 
" clip-path="url(#p791dc55b54)" style="fill: none; stroke: #2ca02c; stroke-width: 1.5; stroke-linecap: square"/>
   </g>
   <g id="line2d_18">
    <path d="M 73.832727 96.617723 
L 74.158032 80.871715 
L 74.483338 81.696736 
L 74.808643 80.631234 
L 75.133948 80.131712 
L 75.459253 79.334451 
L 76.109863 76.356576 
L 76.760474 70.799951 
L 77.085779 70.555913 
L 77.736389 70.559844 
L 79.362915 70.660589 
L 81.965357 70.53302 
L 84.893103 70.17131 
L 85.543713 69.132043 
L 86.519628 74.465277 
L 87.495544 81.564942 
L 88.146155 86.805188 
L 88.47146 86.977311 
L 89.12207 89.320688 
L 91.399205 92.321536 
L 93.676343 95.245336 
L 94.652258 96.200198 
L 95.302867 96.641044 
L 95.628172 96.796667 
L 95.953479 97.147305 
L 96.929394 100.302305 
L 97.90531 104.121622 
L 101.80897 121.496011 
L 102.134277 121.313217 
L 102.784887 121.288987 
L 103.435497 121.133979 
L 104.411413 120.497984 
L 105.712633 119.34888 
L 107.013854 117.807551 
L 108.315074 115.840835 
L 109.616297 112.850069 
L 111.242821 108.378523 
L 114.821178 98.112652 
L 116.447703 93.978425 
L 117.423617 92.021577 
L 119.050146 89.416217 
L 119.700755 88.585526 
L 120.351365 88.013021 
L 121.001975 87.693699 
L 121.652584 87.618656 
L 122.303198 87.77508 
L 122.953808 88.146633 
L 123.929722 89.064081 
L 124.905637 90.344951 
L 126.20686 92.469403 
L 126.532165 93.014604 
L 126.85747 93.170814 
L 127.182775 93.519447 
L 131.411742 100.492721 
L 132.387656 101.802689 
L 133.363571 102.569141 
L 134.664794 103.253115 
L 135.640709 103.677166 
L 136.291319 103.733328 
L 137.267233 103.803344 
L 138.568457 103.629161 
L 139.869676 103.274591 
L 141.170895 102.67494 
L 142.79742 101.673356 
L 148.652915 97.750727 
L 149.62883 97.337267 
L 149.954134 97.365776 
L 151.255354 96.917388 
L 152.231268 96.79803 
L 153.857801 96.780112 
L 155.80963 97.040704 
L 158.412069 97.633749 
L 163.616954 98.880254 
L 166.219393 99.246752 
L 168.821832 99.377101 
L 171.749583 99.284781 
L 174.026717 99.237418 
L 175.002632 99.180373 
L 175.653242 99.025179 
L 187.038927 98.171435 
L 202.328263 98.422265 
L 269.991737 98.065796 
L 398.487273 97.806969 
L 398.487273 97.806969 
" clip-path="url(#p791dc55b54)" style="fill: none; stroke: #d62728; stroke-width: 1.5; stroke-linecap: square"/>
   </g>
   <g id="patch_3">
    <path d="M 57.6 307.584 
L 57.6 41.472 
" style="fill: none; stroke: #000000; stroke-width: 0.8; stroke-linejoin: miter; stroke-linecap: square"/>
   </g>
   <g id="patch_4">
    <path d="M 414.72 307.584 
L 414.72 41.472 
" style="fill: none; stroke: #000000; stroke-width: 0.8; stroke-linejoin: miter; stroke-linecap: square"/>
   </g>
   <g id="patch_5">
    <path d="M 57.6 307.584 
L 414.72 307.584 
" style="fill: none; stroke: #000000; stroke-width: 0.8; stroke-linejoin: miter; stroke-linecap: square"/>
   </g>
   <g id="patch_6">
    <path d="M 57.6 41.472 
L 414.72 41.472 
" style="fill: none; stroke: #000000; stroke-width: 0.8; stroke-linejoin: miter; stroke-linecap: square"/>
   </g>
   <g id="legend_1">
    <g id="patch_7">
     <path d="M 363.02 108.1845 
L 407.72 108.1845 
Q 409.72 108.1845 409.72 106.1845 
L 409.72 48.472 
Q 409.72 46.472 407.72 46.472 
L 363.02 46.472 
Q 361.02 46.472 361.02 48.472 
L 361.02 106.1845 
Q 361.02 108.1845 363.02 108.1845 
z
" style="fill: #ffffff; opacity: 0.8; stroke: #cccccc; stroke-linejoin: miter"/>
    </g>
    <g id="line2d_19">
     <path d="M 365.02 54.570438 
L 375.02 54.570438 
L 385.02 54.570438 
" style="fill: none; stroke: #1f77b4; stroke-width: 1.5; stroke-linecap: square"/>
    </g>
    <g id="text_17">
     <!-- u0 -->
     <g transform="translate(393.02 58.070438) scale(0.1 -0.1)">
      <defs>
       <path id="DejaVuSans-75" d="M 544 1381 
L 544 3500 
L 1119 3500 
L 1119 1403 
Q 1119 906 1312 657 
Q 1506 409 1894 409 
Q 2359 409 2629 706 
Q 2900 1003 2900 1516 
L 2900 3500 
L 3475 3500 
L 3475 0 
L 2900 0 
L 2900 538 
Q 2691 219 2414 64 
Q 2138 -91 1772 -91 
Q 1169 -91 856 284 
Q 544 659 544 1381 
z
M 1991 3584 
L 1991 3584 
z
" transform="scale(0.015625)"/>
      </defs>
      <use xlink:href="#DejaVuSans-75"/>
      <use xlink:href="#DejaVuSans-30" transform="translate(63.378906 0)"/>
     </g>
    </g>
    <g id="line2d_20">
     <path d="M 365.02 69.248563 
L 375.02 69.248563 
L 385.02 69.248563 
" style="fill: none; stroke: #ff7f0e; stroke-width: 1.5; stroke-linecap: square"/>
    </g>
    <g id="text_18">
     <!-- u1 -->
     <g transform="translate(393.02 72.748563) scale(0.1 -0.1)">
      <use xlink:href="#DejaVuSans-75"/>
      <use xlink:href="#DejaVuSans-31" transform="translate(63.378906 0)"/>
     </g>
    </g>
    <g id="line2d_21">
     <path d="M 365.02 83.926688 
L 375.02 83.926688 
L 385.02 83.926688 
" style="fill: none; stroke: #2ca02c; stroke-width: 1.5; stroke-linecap: square"/>
    </g>
    <g id="text_19">
     <!-- u2 -->
     <g transform="translate(393.02 87.426688) scale(0.1 -0.1)">
      <use xlink:href="#DejaVuSans-75"/>
      <use xlink:href="#DejaVuSans-32" transform="translate(63.378906 0)"/>
     </g>
    </g>
    <g id="line2d_22">
     <path d="M 365.02 98.604813 
L 375.02 98.604813 
L 385.02 98.604813 
" style="fill: none; stroke: #d62728; stroke-width: 1.5; stroke-linecap: square"/>
    </g>
    <g id="text_20">
     <!-- u3 -->
     <g transform="translate(393.02 102.104813) scale(0.1 -0.1)">
      <use xlink:href="#DejaVuSans-75"/>
      <use xlink:href="#DejaVuSans-33" transform="translate(63.378906 0)"/>
     </g>
    </g>
   </g>
  </g>
 </g>
 <defs>
  <clipPath id="p791dc55b54">
   <rect x="57.6" y="41.472" width="357.12" height="266.112"/>
  </clipPath>
 </defs>
</svg>
