<?xml version="1.0" encoding="utf-8" standalone="no"?>
<!DOCTYPE svg PUBLIC "-//W3C//DTD SVG 1.1//EN"
  "http://www.w3.org/Graphics/SVG/1.1/DTD/svg11.dtd">
<svg xmlns:xlink="http://www.w3.org/1999/xlink" width="460.8pt" height="345.6pt" viewBox="0 0 460.8 345.6" xmlns="http://www.w3.org/2000/svg" version="1.1">
 <metadata>
  <rdf:RDF xmlns:dc="http://purl.org/dc/elements/1.1/" xmlns:cc="http://creativecommons.org/ns#" xmlns:rdf="http://www.w3.org/1999/02/22-rdf-syntax-ns#">
   <cc:Work>
    <dc:type rdf:resource="http://purl.org/dc/dcmitype/StillImage"/>
    <dc:date>2025-05-10T03:28:52.855370</dc:date>
    <dc:format>image/svg+xml</dc:format>
    <dc:creator>
     <cc:Agent>
      <dc:title>Matplotlib v3.10.0, https://matplotlib.org/</dc:title>
     </cc:Agent>
    </dc:creator>
   </cc:Work>
  </rdf:RDF>
 </metadata>
 <defs>
  <style type="text/css">*{stroke-linejoin: round; stroke-linecap: butt}</style>
 </defs>
 <g id="figure_1">
  <g id="patch_1">
   <path d="M 0 345.6 
L 460.8 345.6 
L 460.8 0 
L 0 0 
z
" style="fill: #ffffff"/>
  </g>
  <g id="axes_1">
   <g id="patch_2">
    <path d="M 57.6 307.584 
L 414.72 307.584 
L 414.72 41.472 
L 57.6 41.472 
z
" style="fill: #ffffff"/>
   </g>
   <g id="matplotlib.axis_1">
    <g id="xtick_1">
     <g id="line2d_1">
      <defs>
       <path id="m11c6ee1777" d="M 0 0 
L 0 3.5 
" style="stroke: #000000; stroke-width: 0.8"/>
      </defs>
      <g>
       <use xlink:href="#m11c6ee1777" x="73.832727" y="307.584" style="stroke: #000000; stroke-width: 0.8"/>
      </g>
     </g>
     <g id="text_1">
      <!-- 0 -->
      <g transform="translate(70.651477 322.182437) scale(0.1 -0.1)">
       <defs>
        <path id="DejaVuSans-30" d="M 2034 4250 
Q 1547 4250 1301 3770 
Q 1056 3291 1056 2328 
Q 1056 1369 1301 889 
Q 1547 409 2034 409 
Q 2525 409 2770 889 
Q 3016 1369 3016 2328 
Q 3016 3291 2770 3770 
Q 2525 4250 2034 4250 
z
M 2034 4750 
Q 2819 4750 3233 4129 
Q 3647 3509 3647 2328 
Q 3647 1150 3233 529 
Q 2819 -91 2034 -91 
Q 1250 -91 836 529 
Q 422 1150 422 2328 
Q 422 3509 836 4129 
Q 1250 4750 2034 4750 
z
" transform="scale(0.015625)"/>
       </defs>
       <use xlink:href="#DejaVuSans-30"/>
      </g>
     </g>
    </g>
    <g id="xtick_2">
     <g id="line2d_2">
      <g>
       <use xlink:href="#m11c6ee1777" x="138.763636" y="307.584" style="stroke: #000000; stroke-width: 0.8"/>
      </g>
     </g>
     <g id="text_2">
      <!-- 2 -->
      <g transform="translate(135.582386 322.182437) scale(0.1 -0.1)">
       <defs>
        <path id="DejaVuSans-32" d="M 1228 531 
L 3431 531 
L 3431 0 
L 469 0 
L 469 531 
Q 828 903 1448 1529 
Q 2069 2156 2228 2338 
Q 2531 2678 2651 2914 
Q 2772 3150 2772 3378 
Q 2772 3750 2511 3984 
Q 2250 4219 1831 4219 
Q 1534 4219 1204 4116 
Q 875 4013 500 3803 
L 500 4441 
Q 881 4594 1212 4672 
Q 1544 4750 1819 4750 
Q 2544 4750 2975 4387 
Q 3406 4025 3406 3419 
Q 3406 3131 3298 2873 
Q 3191 2616 2906 2266 
Q 2828 2175 2409 1742 
Q 1991 1309 1228 531 
z
" transform="scale(0.015625)"/>
       </defs>
       <use xlink:href="#DejaVuSans-32"/>
      </g>
     </g>
    </g>
    <g id="xtick_3">
     <g id="line2d_3">
      <g>
       <use xlink:href="#m11c6ee1777" x="203.694545" y="307.584" style="stroke: #000000; stroke-width: 0.8"/>
      </g>
     </g>
     <g id="text_3">
      <!-- 4 -->
      <g transform="translate(200.513295 322.182437) scale(0.1 -0.1)">
       <defs>
        <path id="DejaVuSans-34" d="M 2419 4116 
L 825 1625 
L 2419 1625 
L 2419 4116 
z
M 2253 4666 
L 3047 4666 
L 3047 1625 
L 3713 1625 
L 3713 1100 
L 3047 1100 
L 3047 0 
L 2419 0 
L 2419 1100 
L 313 1100 
L 313 1709 
L 2253 4666 
z
" transform="scale(0.015625)"/>
       </defs>
       <use xlink:href="#DejaVuSans-34"/>
      </g>
     </g>
    </g>
    <g id="xtick_4">
     <g id="line2d_4">
      <g>
       <use xlink:href="#m11c6ee1777" x="268.625455" y="307.584" style="stroke: #000000; stroke-width: 0.8"/>
      </g>
     </g>
     <g id="text_4">
      <!-- 6 -->
      <g transform="translate(265.444205 322.182437) scale(0.1 -0.1)">
       <defs>
        <path id="DejaVuSans-36" d="M 2113 2584 
Q 1688 2584 1439 2293 
Q 1191 2003 1191 1497 
Q 1191 994 1439 701 
Q 1688 409 2113 409 
Q 2538 409 2786 701 
Q 3034 994 3034 1497 
Q 3034 2003 2786 2293 
Q 2538 2584 2113 2584 
z
M 3366 4563 
L 3366 3988 
Q 3128 4100 2886 4159 
Q 2644 4219 2406 4219 
Q 1781 4219 1451 3797 
Q 1122 3375 1075 2522 
Q 1259 2794 1537 2939 
Q 1816 3084 2150 3084 
Q 2853 3084 3261 2657 
Q 3669 2231 3669 1497 
Q 3669 778 3244 343 
Q 2819 -91 2113 -91 
Q 1303 -91 875 529 
Q 447 1150 447 2328 
Q 447 3434 972 4092 
Q 1497 4750 2381 4750 
Q 2619 4750 2861 4703 
Q 3103 4656 3366 4563 
z
" transform="scale(0.015625)"/>
       </defs>
       <use xlink:href="#DejaVuSans-36"/>
      </g>
     </g>
    </g>
    <g id="xtick_5">
     <g id="line2d_5">
      <g>
       <use xlink:href="#m11c6ee1777" x="333.556364" y="307.584" style="stroke: #000000; stroke-width: 0.8"/>
      </g>
     </g>
     <g id="text_5">
      <!-- 8 -->
      <g transform="translate(330.375114 322.182437) scale(0.1 -0.1)">
       <defs>
        <path id="DejaVuSans-38" d="M 2034 2216 
Q 1584 2216 1326 1975 
Q 1069 1734 1069 1313 
Q 1069 891 1326 650 
Q 1584 409 2034 409 
Q 2484 409 2743 651 
Q 3003 894 3003 1313 
Q 3003 1734 2745 1975 
Q 2488 2216 2034 2216 
z
M 1403 2484 
Q 997 2584 770 2862 
Q 544 3141 544 3541 
Q 544 4100 942 4425 
Q 1341 4750 2034 4750 
Q 2731 4750 3128 4425 
Q 3525 4100 3525 3541 
Q 3525 3141 3298 2862 
Q 3072 2584 2669 2484 
Q 3125 2378 3379 2068 
Q 3634 1759 3634 1313 
Q 3634 634 3220 271 
Q 2806 -91 2034 -91 
Q 1263 -91 848 271 
Q 434 634 434 1313 
Q 434 1759 690 2068 
Q 947 2378 1403 2484 
z
M 1172 3481 
Q 1172 3119 1398 2916 
Q 1625 2713 2034 2713 
Q 2441 2713 2670 2916 
Q 2900 3119 2900 3481 
Q 2900 3844 2670 4047 
Q 2441 4250 2034 4250 
Q 1625 4250 1398 4047 
Q 1172 3844 1172 3481 
z
" transform="scale(0.015625)"/>
       </defs>
       <use xlink:href="#DejaVuSans-38"/>
      </g>
     </g>
    </g>
    <g id="xtick_6">
     <g id="line2d_6">
      <g>
       <use xlink:href="#m11c6ee1777" x="398.487273" y="307.584" style="stroke: #000000; stroke-width: 0.8"/>
      </g>
     </g>
     <g id="text_6">
      <!-- 10 -->
      <g transform="translate(392.124773 322.182437) scale(0.1 -0.1)">
       <defs>
        <path id="DejaVuSans-31" d="M 794 531 
L 1825 531 
L 1825 4091 
L 703 3866 
L 703 4441 
L 1819 4666 
L 2450 4666 
L 2450 531 
L 3481 531 
L 3481 0 
L 794 0 
L 794 531 
z
" transform="scale(0.015625)"/>
       </defs>
       <use xlink:href="#DejaVuSans-31"/>
       <use xlink:href="#DejaVuSans-30" transform="translate(63.623047 0)"/>
      </g>
     </g>
    </g>
    <g id="text_7">
     <!-- time -->
     <g transform="translate(224.863906 335.860562) scale(0.1 -0.1)">
      <defs>
       <path id="DejaVuSans-74" d="M 1172 4494 
L 1172 3500 
L 2356 3500 
L 2356 3053 
L 1172 3053 
L 1172 1153 
Q 1172 725 1289 603 
Q 1406 481 1766 481 
L 2356 481 
L 2356 0 
L 1766 0 
Q 1100 0 847 248 
Q 594 497 594 1153 
L 594 3053 
L 172 3053 
L 172 3500 
L 594 3500 
L 594 4494 
L 1172 4494 
z
" transform="scale(0.015625)"/>
       <path id="DejaVuSans-69" d="M 603 3500 
L 1178 3500 
L 1178 0 
L 603 0 
L 603 3500 
z
M 603 4863 
L 1178 4863 
L 1178 4134 
L 603 4134 
L 603 4863 
z
" transform="scale(0.015625)"/>
       <path id="DejaVuSans-6d" d="M 3328 2828 
Q 3544 3216 3844 3400 
Q 4144 3584 4550 3584 
Q 5097 3584 5394 3201 
Q 5691 2819 5691 2113 
L 5691 0 
L 5113 0 
L 5113 2094 
Q 5113 2597 4934 2840 
Q 4756 3084 4391 3084 
Q 3944 3084 3684 2787 
Q 3425 2491 3425 1978 
L 3425 0 
L 2847 0 
L 2847 2094 
Q 2847 2600 2669 2842 
Q 2491 3084 2119 3084 
Q 1678 3084 1418 2786 
Q 1159 2488 1159 1978 
L 1159 0 
L 581 0 
L 581 3500 
L 1159 3500 
L 1159 2956 
Q 1356 3278 1631 3431 
Q 1906 3584 2284 3584 
Q 2666 3584 2933 3390 
Q 3200 3197 3328 2828 
z
" transform="scale(0.015625)"/>
       <path id="DejaVuSans-65" d="M 3597 1894 
L 3597 1613 
L 953 1613 
Q 991 1019 1311 708 
Q 1631 397 2203 397 
Q 2534 397 2845 478 
Q 3156 559 3463 722 
L 3463 178 
Q 3153 47 2828 -22 
Q 2503 -91 2169 -91 
Q 1331 -91 842 396 
Q 353 884 353 1716 
Q 353 2575 817 3079 
Q 1281 3584 2069 3584 
Q 2775 3584 3186 3129 
Q 3597 2675 3597 1894 
z
M 3022 2063 
Q 3016 2534 2758 2815 
Q 2500 3097 2075 3097 
Q 1594 3097 1305 2825 
Q 1016 2553 972 2059 
L 3022 2063 
z
" transform="scale(0.015625)"/>
      </defs>
      <use xlink:href="#DejaVuSans-74"/>
      <use xlink:href="#DejaVuSans-69" transform="translate(39.208984 0)"/>
      <use xlink:href="#DejaVuSans-6d" transform="translate(66.992188 0)"/>
      <use xlink:href="#DejaVuSans-65" transform="translate(164.404297 0)"/>
     </g>
    </g>
   </g>
   <g id="matplotlib.axis_2">
    <g id="ytick_1">
     <g id="line2d_7">
      <defs>
       <path id="m3ee004c2e6" d="M 0 0 
L -3.5 0 
" style="stroke: #000000; stroke-width: 0.8"/>
      </defs>
      <g>
       <use xlink:href="#m3ee004c2e6" x="57.6" y="289.635395" style="stroke: #000000; stroke-width: 0.8"/>
      </g>
     </g>
     <g id="text_8">
      <!-- −6 -->
      <g transform="translate(35.857813 293.434614) scale(0.1 -0.1)">
       <defs>
        <path id="DejaVuSans-2212" d="M 678 2272 
L 4684 2272 
L 4684 1741 
L 678 1741 
L 678 2272 
z
" transform="scale(0.015625)"/>
       </defs>
       <use xlink:href="#DejaVuSans-2212"/>
       <use xlink:href="#DejaVuSans-36" transform="translate(83.789062 0)"/>
      </g>
     </g>
    </g>
    <g id="ytick_2">
     <g id="line2d_8">
      <g>
       <use xlink:href="#m3ee004c2e6" x="57.6" y="251.177069" style="stroke: #000000; stroke-width: 0.8"/>
      </g>
     </g>
     <g id="text_9">
      <!-- −4 -->
      <g transform="translate(35.857813 254.976288) scale(0.1 -0.1)">
       <use xlink:href="#DejaVuSans-2212"/>
       <use xlink:href="#DejaVuSans-34" transform="translate(83.789062 0)"/>
      </g>
     </g>
    </g>
    <g id="ytick_3">
     <g id="line2d_9">
      <g>
       <use xlink:href="#m3ee004c2e6" x="57.6" y="212.718742" style="stroke: #000000; stroke-width: 0.8"/>
      </g>
     </g>
     <g id="text_10">
      <!-- −2 -->
      <g transform="translate(35.857813 216.517961) scale(0.1 -0.1)">
       <use xlink:href="#DejaVuSans-2212"/>
       <use xlink:href="#DejaVuSans-32" transform="translate(83.789062 0)"/>
      </g>
     </g>
    </g>
    <g id="ytick_4">
     <g id="line2d_10">
      <g>
       <use xlink:href="#m3ee004c2e6" x="57.6" y="174.260416" style="stroke: #000000; stroke-width: 0.8"/>
      </g>
     </g>
     <g id="text_11">
      <!-- 0 -->
      <g transform="translate(44.2375 178.059635) scale(0.1 -0.1)">
       <use xlink:href="#DejaVuSans-30"/>
      </g>
     </g>
    </g>
    <g id="ytick_5">
     <g id="line2d_11">
      <g>
       <use xlink:href="#m3ee004c2e6" x="57.6" y="135.802089" style="stroke: #000000; stroke-width: 0.8"/>
      </g>
     </g>
     <g id="text_12">
      <!-- 2 -->
      <g transform="translate(44.2375 139.601308) scale(0.1 -0.1)">
       <use xlink:href="#DejaVuSans-32"/>
      </g>
     </g>
    </g>
    <g id="ytick_6">
     <g id="line2d_12">
      <g>
       <use xlink:href="#m3ee004c2e6" x="57.6" y="97.343763" style="stroke: #000000; stroke-width: 0.8"/>
      </g>
     </g>
     <g id="text_13">
      <!-- 4 -->
      <g transform="translate(44.2375 101.142982) scale(0.1 -0.1)">
       <use xlink:href="#DejaVuSans-34"/>
      </g>
     </g>
    </g>
    <g id="ytick_7">
     <g id="line2d_13">
      <g>
       <use xlink:href="#m3ee004c2e6" x="57.6" y="58.885436" style="stroke: #000000; stroke-width: 0.8"/>
      </g>
     </g>
     <g id="text_14">
      <!-- 6 -->
      <g transform="translate(44.2375 62.684655) scale(0.1 -0.1)">
       <use xlink:href="#DejaVuSans-36"/>
      </g>
     </g>
    </g>
    <g id="text_15">
     <!-- state -->
     <g transform="translate(29.778125 187.193625) rotate(-90) scale(0.1 -0.1)">
      <defs>
       <path id="DejaVuSans-73" d="M 2834 3397 
L 2834 2853 
Q 2591 2978 2328 3040 
Q 2066 3103 1784 3103 
Q 1356 3103 1142 2972 
Q 928 2841 928 2578 
Q 928 2378 1081 2264 
Q 1234 2150 1697 2047 
L 1894 2003 
Q 2506 1872 2764 1633 
Q 3022 1394 3022 966 
Q 3022 478 2636 193 
Q 2250 -91 1575 -91 
Q 1294 -91 989 -36 
Q 684 19 347 128 
L 347 722 
Q 666 556 975 473 
Q 1284 391 1588 391 
Q 1994 391 2212 530 
Q 2431 669 2431 922 
Q 2431 1156 2273 1281 
Q 2116 1406 1581 1522 
L 1381 1569 
Q 847 1681 609 1914 
Q 372 2147 372 2553 
Q 372 3047 722 3315 
Q 1072 3584 1716 3584 
Q 2034 3584 2315 3537 
Q 2597 3491 2834 3397 
z
" transform="scale(0.015625)"/>
       <path id="DejaVuSans-61" d="M 2194 1759 
Q 1497 1759 1228 1600 
Q 959 1441 959 1056 
Q 959 750 1161 570 
Q 1363 391 1709 391 
Q 2188 391 2477 730 
Q 2766 1069 2766 1631 
L 2766 1759 
L 2194 1759 
z
M 3341 1997 
L 3341 0 
L 2766 0 
L 2766 531 
Q 2569 213 2275 61 
Q 1981 -91 1556 -91 
Q 1019 -91 701 211 
Q 384 513 384 1019 
Q 384 1609 779 1909 
Q 1175 2209 1959 2209 
L 2766 2209 
L 2766 2266 
Q 2766 2663 2505 2880 
Q 2244 3097 1772 3097 
Q 1472 3097 1187 3025 
Q 903 2953 641 2809 
L 641 3341 
Q 956 3463 1253 3523 
Q 1550 3584 1831 3584 
Q 2591 3584 2966 3190 
Q 3341 2797 3341 1997 
z
" transform="scale(0.015625)"/>
      </defs>
      <use xlink:href="#DejaVuSans-73"/>
      <use xlink:href="#DejaVuSans-74" transform="translate(52.099609 0)"/>
      <use xlink:href="#DejaVuSans-61" transform="translate(91.308594 0)"/>
      <use xlink:href="#DejaVuSans-74" transform="translate(152.587891 0)"/>
      <use xlink:href="#DejaVuSans-65" transform="translate(191.796875 0)"/>
     </g>
    </g>
   </g>
   <g id="line2d_14">
    <path d="M 73.832727 153.108336 
L 74.482686 152.751409 
L 75.132645 152.659502 
L 75.782604 152.831699 
L 76.432563 153.263875 
L 77.082523 153.948762 
L 78.057461 155.426622 
L 79.032399 157.402574 
L 80.332318 160.707024 
L 81.957215 165.666904 
L 84.557052 174.576224 
L 86.831908 182.159083 
L 88.456806 186.801263 
L 89.756724 189.78418 
L 90.731662 191.50381 
L 91.706602 192.732093 
L 92.356561 193.263583 
L 93.006519 193.559272 
L 93.656478 193.617361 
L 94.306437 193.438967 
L 94.956397 193.028083 
L 95.606356 192.391501 
L 96.581294 191.034924 
L 97.556232 189.235182 
L 98.856151 186.241505 
L 100.481048 181.768265 
L 103.405864 172.762409 
L 105.680721 166.108467 
L 106.980638 162.867199 
L 108.280556 160.22739 
L 109.255494 158.714972 
L 110.230436 157.645083 
L 110.880394 157.190145 
L 111.530353 156.946852 
L 112.180312 156.916547 
L 112.83027 157.097963 
L 113.480229 157.487264 
L 114.130188 158.078106 
L 115.105126 159.322485 
L 116.080067 160.961094 
L 117.379985 163.672556 
L 119.004881 167.706215 
L 122.579658 177.564398 
L 124.529534 182.491436 
L 125.829451 185.247374 
L 127.129369 187.428954 
L 128.104307 188.628684 
L 129.079248 189.421673 
L 129.729207 189.715479 
L 130.379166 189.818573 
L 131.029124 189.731161 
L 131.679083 189.455772 
L 132.329042 188.997206 
L 133.30398 187.981787 
L 134.278918 186.602778 
L 135.578839 184.272148 
L 137.203736 180.743256 
L 139.80357 174.347607 
L 142.403405 168.12955 
L 144.028302 164.865821 
L 145.328227 162.800149 
L 146.303165 161.631968 
L 147.278103 160.822584 
L 148.253041 160.39001 
L 148.902999 160.315105 
L 149.552958 160.410823 
L 150.202917 160.674687 
L 151.177855 161.375355 
L 152.152793 162.420359 
L 153.127731 163.777159 
L 154.427648 165.999891 
L 156.052545 169.278096 
L 161.90218 181.700208 
L 163.202098 183.762351 
L 164.177036 184.990419 
L 165.151974 185.910921 
L 166.126912 186.502218 
L 167.10185 186.751924 
L 167.751808 186.726796 
L 168.726746 186.405407 
L 169.701684 185.755564 
L 170.676622 184.798814 
L 171.651568 183.56485 
L 172.951485 181.553088 
L 174.576382 178.598496 
L 180.101031 168.00495 
L 181.400948 166.078247 
L 182.700865 164.577355 
L 183.675803 163.771857 
L 184.650749 163.262464 
L 185.625687 163.059704 
L 186.600625 163.165597 
L 187.575563 163.573702 
L 188.550501 164.269382 
L 189.525439 165.230307 
L 190.825356 166.872552 
L 192.450253 169.38173 
L 195.050088 173.970738 
L 197.64993 178.475456 
L 199.274827 180.862176 
L 200.574744 182.387408 
L 201.549682 183.26065 
L 202.52462 183.87771 
L 203.499558 184.224661 
L 204.474496 184.295113 
L 205.449442 184.090322 
L 206.424372 183.619051 
L 207.399318 182.897251 
L 208.699235 181.585111 
L 209.999152 179.938234 
L 211.949028 177.029078 
L 216.498739 169.930145 
L 218.123643 167.895261 
L 219.423561 166.635036 
L 220.398491 165.942579 
L 221.373437 165.485563 
L 222.348367 165.273779 
L 223.323313 165.310201 
L 224.298243 165.590979 
L 225.273189 166.105628 
L 226.248119 166.837384 
L 227.548036 168.111134 
L 229.172941 170.085709 
L 231.447804 173.276507 
L 234.697597 177.817037 
L 236.322486 179.703716 
L 237.622403 180.897145 
L 238.92232 181.750838 
L 239.897266 182.145711 
L 240.872196 182.320393 
L 241.847142 182.272638 
L 242.822088 182.006309 
L 243.797018 181.531202 
L 245.096935 180.600312 
L 246.396853 179.376558 
L 248.021757 177.533173 
L 251.271551 173.370855 
L 253.546398 170.63457 
L 255.171302 169.029743 
L 256.47122 168.047348 
L 257.771137 167.380939 
L 258.746083 167.105644 
L 259.721013 167.029187 
L 260.695959 167.151372 
L 261.670889 167.466575 
L 262.970806 168.167654 
L 264.270724 169.153141 
L 265.895628 170.704558 
L 268.170476 173.246088 
L 271.745256 177.252926 
L 273.370161 178.74319 
L 274.670078 179.675875 
L 275.969995 180.331971 
L 277.269912 180.683928 
L 278.244843 180.740262 
L 279.219788 180.618734 
L 280.519706 180.189976 
L 281.819623 179.480551 
L 283.11954 178.529115 
L 284.744445 177.076198 
L 287.669251 174.081172 
L 290.269086 171.518174 
L 291.89399 170.194082 
L 293.193907 169.369945 
L 294.493825 168.795306 
L 295.793742 168.494184 
L 297.093659 168.476982 
L 298.393577 168.74019 
L 299.693494 169.266771 
L 300.993411 170.027188 
L 302.618316 171.24411 
L 304.893163 173.266105 
L 308.792931 176.771764 
L 310.41782 177.947977 
L 311.717737 178.675963 
L 313.017654 179.178927 
L 314.317572 179.435946 
L 315.617489 179.438333 
L 316.917406 179.189868 
L 318.217324 178.706421 
L 319.842228 177.813769 
L 321.792104 176.419337 
L 328.616678 171.106535 
L 330.241567 170.27441 
L 331.541484 169.834487 
L 332.841401 169.615683 
L 334.141319 169.625215 
L 335.441236 169.859129 
L 336.741153 170.302662 
L 338.366073 171.1134 
L 340.315934 172.371928 
L 347.140523 177.122858 
L 348.765412 177.858008 
L 350.065329 178.242513 
L 351.365246 178.428245 
L 352.665164 178.409249 
L 353.965081 178.189574 
L 355.58997 177.654524 
L 357.214859 176.873877 
L 359.489722 175.491828 
L 364.689391 172.158272 
L 366.639283 171.244915 
L 368.264172 170.745752 
L 369.889061 170.521009 
L 371.188978 170.547396 
L 372.813898 170.831428 
L 374.438787 171.368476 
L 376.388678 172.282033 
L 379.313484 173.975533 
L 382.888265 176.016879 
L 384.838125 176.871194 
L 386.463045 177.355497 
L 388.087934 177.597289 
L 389.712823 177.582972 
L 391.337712 177.318513 
L 392.962632 176.828618 
L 394.912492 176.00218 
L 397.837299 174.479698 
L 398.487273 174.127639 
L 398.487273 174.127639 
" clip-path="url(#p1786853899)" style="fill: none; stroke: #1f77b4; stroke-width: 1.5; stroke-linecap: square"/>
   </g>
   <g id="line2d_15">
    <path d="M 73.832727 153.108336 
L 77.407502 223.580241 
L 78.70742 245.316005 
L 80.007338 263.277406 
L 80.982277 273.774319 
L 81.957215 281.429025 
L 82.607174 284.862452 
L 83.257134 286.92086 
L 83.582113 287.429208 
L 83.907092 287.589687 
L 84.232072 287.403131 
L 84.557052 286.871456 
L 84.882031 285.997606 
L 85.53199 283.240351 
L 86.18195 279.175379 
L 86.831908 273.862288 
L 87.806847 263.718911 
L 88.781785 251.245553 
L 90.081704 231.633238 
L 92.031581 197.910036 
L 95.931335 128.988312 
L 97.231253 109.657875 
L 98.531172 93.752425 
L 99.50611 84.510671 
L 100.156069 79.761137 
L 100.806027 76.200387 
L 101.455988 73.862704 
L 101.780967 73.15908 
L 102.105947 72.767198 
L 102.430926 72.68706 
L 102.755905 72.91771 
L 103.080885 73.457243 
L 103.730843 75.450696 
L 104.380802 78.633722 
L 105.030762 82.958365 
L 106.0057 91.447852 
L 106.980638 102.104575 
L 108.280556 119.13104 
L 109.905456 143.690144 
L 114.780146 220.33525 
L 116.080067 236.815552 
L 117.055005 247.057228 
L 118.029943 255.190299 
L 118.679902 259.34038 
L 119.329861 262.421142 
L 119.979819 264.403225 
L 120.304799 264.976812 
L 120.629778 265.270905 
L 120.954757 265.285676 
L 121.279737 265.022154 
L 121.604716 264.482218 
L 122.254675 262.584766 
L 122.904637 259.624863 
L 123.554596 255.64676 
L 124.529534 247.896804 
L 125.504472 238.222073 
L 126.804389 222.830041 
L 128.429286 200.714413 
L 133.30398 132.145017 
L 134.603897 117.508027 
L 135.578839 108.449982 
L 136.553777 101.295867 
L 137.203736 97.6724 
L 137.853694 95.010656 
L 138.503653 93.335713 
L 138.828632 92.872788 
L 139.153612 92.660421 
L 139.478591 92.69829 
L 139.80357 92.985322 
L 140.12855 93.519683 
L 140.778508 95.319318 
L 141.428467 98.067738 
L 142.078426 101.724141 
L 143.053364 108.795674 
L 144.028302 117.5763 
L 145.328227 131.487945 
L 146.953123 151.400182 
L 151.502834 209.134162 
L 152.802751 222.715908 
L 153.777689 231.255147 
L 154.752627 238.13751 
L 155.727565 243.193822 
L 156.377524 245.490078 
L 157.027483 246.900137 
L 157.352462 247.269164 
L 157.677441 247.413607 
L 158.002421 247.33389 
L 158.327408 247.031114 
L 158.652387 246.507068 
L 159.302346 244.805626 
L 159.952304 242.257025 
L 160.602263 238.89885 
L 161.577201 232.449263 
L 162.552139 224.482419 
L 163.852056 211.91132 
L 165.801932 190.216626 
L 169.701684 145.648179 
L 171.001602 133.082547 
L 172.301527 122.703756 
L 173.276465 116.642034 
L 174.251403 112.225763 
L 174.901361 110.248026 
L 175.55132 109.066036 
L 175.876299 108.776428 
L 176.201279 108.688096 
L 176.526258 108.800538 
L 176.851237 109.112639 
L 177.501196 110.328325 
L 178.151155 112.314259 
L 178.801113 115.040312 
L 179.776051 120.429694 
L 180.750989 127.229333 
L 182.050907 138.135256 
L 183.675803 153.921186 
L 188.87548 206.327593 
L 190.175398 216.569142 
L 191.150336 222.824132 
L 192.125274 227.679079 
L 192.775232 230.078548 
L 193.425191 231.778959 
L 194.07515 232.764934 
L 194.400129 232.987622 
L 194.725108 233.029942 
L 195.050088 232.892459 
L 195.375067 232.576288 
L 196.025025 231.41502 
L 196.674984 229.56573 
L 197.324951 227.056249 
L 198.299889 222.13422 
L 199.274827 215.959483 
L 200.574744 206.098624 
L 202.199641 191.881343 
L 207.07433 147.54335 
L 208.374248 138.017331 
L 209.349194 132.100093 
L 210.324124 127.403891 
L 210.974082 125.00947 
L 211.624041 123.233996 
L 212.274 122.094363 
L 212.598987 121.766116 
L 212.923958 121.59959 
L 213.248946 121.59467 
L 213.573917 121.750753 
L 213.898904 122.066741 
L 214.548863 123.171632 
L 215.198822 124.891009 
L 215.84878 127.199189 
L 216.823726 131.692216 
L 217.798656 137.297784 
L 219.098573 146.211863 
L 220.723478 159.014406 
L 225.59816 198.680153 
L 226.898077 207.140498 
L 227.873023 212.373704 
L 228.847953 216.504417 
L 229.497912 218.594816 
L 230.147886 220.128563 
L 230.797845 221.091221 
L 231.122816 221.355816 
L 231.447804 221.475437 
L 231.772775 221.450277 
L 232.097762 221.280968 
L 232.747721 220.514631 
L 233.39768 219.190157 
L 234.047638 217.327983 
L 235.022568 213.586894 
L 235.997514 208.813282 
L 237.297432 201.091828 
L 238.92232 189.830234 
L 244.122005 151.95194 
L 245.421923 144.439606 
L 246.396853 139.812748 
L 247.371799 136.181168 
L 248.021757 134.357687 
L 248.671716 133.034776 
L 249.321675 132.22472 
L 249.971633 131.933461 
L 250.296605 131.982493 
L 250.621592 132.160568 
L 251.271551 132.899292 
L 251.921509 134.1367 
L 252.571468 135.853872 
L 253.546398 139.27385 
L 254.521344 143.611354 
L 255.821261 150.595726 
L 257.446166 160.741248 
L 262.645835 194.630083 
L 263.945752 201.299224 
L 264.920682 205.388717 
L 265.895628 208.579889 
L 266.545587 210.169153 
L 267.195545 211.308351 
L 267.845504 211.987044 
L 268.495463 212.200491 
L 268.82045 212.132829 
L 269.470409 211.651998 
L 270.120367 210.718908 
L 270.770326 209.348409 
L 271.745256 206.517787 
L 272.720202 202.837503 
L 274.020119 196.802406 
L 275.645008 187.893839 
L 281.494636 154.084106 
L 282.794569 148.461196 
L 283.769499 145.109073 
L 284.744445 142.592724 
L 285.394404 141.409746 
L 286.044362 140.636427 
L 286.694321 140.279051 
L 287.34428 140.338784 
L 287.994238 140.811696 
L 288.644197 141.688847 
L 289.294155 142.95644 
L 290.269086 145.548324 
L 291.244031 148.895653 
L 292.543949 154.358184 
L 294.168838 162.387591 
L 299.693494 191.219368 
L 300.993411 196.472011 
L 301.968357 199.663683 
L 302.943287 202.123927 
L 303.593246 203.32776 
L 304.243205 204.167907 
L 304.893163 204.636915 
L 305.543122 204.731915 
L 306.193081 204.454618 
L 306.843039 203.811267 
L 307.492998 202.812514 
L 308.142972 201.473269 
L 309.117902 198.868456 
L 310.092848 195.620586 
L 311.392766 190.458134 
L 313.017654 183.046868 
L 317.892352 160.101216 
L 319.192269 155.211054 
L 320.1672 152.187624 
L 321.142145 149.802606 
L 322.117091 148.113886 
L 322.76705 147.394601 
L 323.417009 147.008436 
L 324.066967 146.957542 
L 324.716926 147.239969 
L 325.366884 147.849713 
L 326.016843 148.776825 
L 326.991773 150.731508 
L 327.966719 153.307208 
L 329.266636 157.571349 
L 330.891525 163.91742 
L 334.141319 178.044379 
L 336.09121 185.990556 
L 337.391127 190.528942 
L 338.691045 194.209869 
L 339.665991 196.306583 
L 340.640905 197.776267 
L 341.290879 198.390661 
L 341.940823 198.706097 
L 342.590797 198.721022 
L 343.24074 198.437562 
L 343.890714 197.861467 
L 344.540657 197.002005 
L 345.515603 195.210068 
L 346.490549 192.865783 
L 347.790466 189.004473 
L 349.415355 183.282892 
L 355.264998 161.419523 
L 356.564916 157.75425 
L 357.539862 155.559256 
L 358.514776 153.90094 
L 359.16475 153.113562 
L 359.814725 152.590092 
L 360.464668 152.334886 
L 361.114642 152.348995 
L 361.764585 152.630181 
L 362.414559 153.172967 
L 363.064502 153.968723 
L 364.039448 155.610419 
L 365.014394 157.743296 
L 366.314311 161.239 
L 367.9392 166.39669 
L 373.788844 185.954657 
L 375.088761 189.204123 
L 376.063676 191.140211 
L 377.038621 192.592406 
L 377.688596 193.274248 
L 378.338539 193.719003 
L 378.988513 193.923068 
L 379.638456 193.8858 
L 380.28843 193.60951 
L 380.938373 193.0994 
L 381.588348 192.363486 
L 382.563262 190.860351 
L 383.538208 188.920509 
L 384.838125 185.75653 
L 386.463045 181.10792 
L 391.987686 164.429222 
L 393.287603 161.393432 
L 394.262549 159.549736 
L 395.237464 158.129548 
L 396.21241 157.166839 
L 396.862384 156.790141 
L 397.512327 156.629365 
L 398.162301 156.684814 
L 398.487273 156.792996 
L 398.487273 156.792996 
" clip-path="url(#p1786853899)" style="fill: none; stroke: #ff7f0e; stroke-width: 1.5; stroke-linecap: square"/>
   </g>
   <g id="line2d_16">
    <path d="M 73.832727 153.108336 
L 74.482686 152.75427 
L 75.132645 152.673371 
L 75.782604 152.858166 
L 76.432563 153.298188 
L 77.082523 153.980174 
L 78.057461 155.421641 
L 79.032399 157.308853 
L 80.332318 160.393336 
L 81.957215 164.894857 
L 86.831908 179.006248 
L 88.131827 182.071681 
L 89.431745 184.576481 
L 90.406683 186.034235 
L 91.381621 187.104807 
L 92.356561 187.77692 
L 93.006519 188.003213 
L 93.656478 188.05495 
L 94.306437 187.936899 
L 95.281377 187.456603 
L 96.256315 186.639694 
L 97.231253 185.523881 
L 98.531172 183.648113 
L 100.156069 180.846883 
L 106.0057 170.208049 
L 107.305618 168.420009 
L 108.605535 167.020449 
L 109.580477 166.252659 
L 110.555415 165.737905 
L 111.530353 165.478531 
L 112.505291 165.469828 
L 113.480229 165.700491 
L 114.455167 166.153227 
L 115.755084 167.062728 
L 117.055005 168.261349 
L 119.004881 170.435682 
L 124.204555 176.530002 
L 125.829451 177.992426 
L 127.129369 178.886802 
L 128.429286 179.505248 
L 129.729207 179.834971 
L 131.029124 179.877776 
L 132.329042 179.649094 
L 133.628959 179.176407 
L 135.253856 178.300292 
L 137.203736 176.950191 
L 143.378343 172.409745 
L 145.00324 171.56874 
L 146.628144 170.990571 
L 147.928061 170.733477 
L 149.227979 170.660865 
L 150.852875 170.816924 
L 152.477772 171.216147 
L 154.427648 171.947884 
L 157.352462 173.34449 
L 161.252222 175.187066 
L 163.202098 175.885624 
L 165.151974 176.349882 
L 167.10185 176.551944 
L 169.051726 176.494084 
L 171.001602 176.20579 
L 173.276465 175.647309 
L 178.151155 174.128554 
L 181.075969 173.355517 
L 183.350824 172.963275 
L 185.625687 172.79609 
L 187.900542 172.854262 
L 190.500377 173.154798 
L 194.07515 173.819696 
L 199.274827 174.792149 
L 202.199641 175.113617 
L 205.124455 175.197093 
L 208.049276 175.054824 
L 211.949028 174.626487 
L 219.098573 173.811636 
L 222.673354 173.662469 
L 226.248119 173.736563 
L 231.122816 174.080424 
L 238.272362 174.575388 
L 242.822088 174.637337 
L 248.021757 174.460023 
L 258.746083 174.023469 
L 264.595711 174.076043 
L 281.169664 174.404473 
L 306.193081 174.244015 
L 319.192269 174.314512 
L 346.165577 174.269389 
L 365.664337 174.251842 
L 398.487273 174.262649 
L 398.487273 174.262649 
" clip-path="url(#p1786853899)" style="fill: none; stroke: #2ca02c; stroke-width: 1.5; stroke-linecap: square"/>
   </g>
   <g id="line2d_17">
    <path d="M 73.832727 153.108336 
L 76.107584 199.375156 
L 77.732482 227.59238 
L 79.032399 245.853562 
L 80.007338 256.595779 
L 80.982277 264.605158 
L 81.632236 268.377753 
L 82.282195 270.886129 
L 82.607174 271.668305 
L 82.932154 272.138813 
L 83.257134 272.30107 
L 83.582113 272.159388 
L 83.907092 271.718928 
L 84.232072 270.985715 
L 84.882031 268.669058 
L 85.53199 265.273014 
L 86.506929 258.321473 
L 87.481867 249.404877 
L 88.781785 235.039084 
L 90.406683 214.327576 
L 94.956397 154.345338 
L 96.256315 140.181778 
L 97.556232 128.512229 
L 98.531172 121.647494 
L 99.50611 116.529084 
L 100.156069 114.118144 
L 100.806027 112.51506 
L 101.455988 111.714384 
L 101.780967 111.610607 
L 102.105947 111.701057 
L 102.430926 111.982431 
L 103.080885 113.102062 
L 103.730843 114.932711 
L 104.380802 117.430066 
L 105.355742 122.3128 
L 106.33068 128.382866 
L 107.630597 137.941066 
L 109.580477 154.263994 
L 113.15525 184.513596 
L 114.780146 196.036351 
L 116.080067 203.49361 
L 117.055005 207.880469 
L 118.029943 211.151404 
L 118.679902 212.692159 
L 119.329861 213.716679 
L 119.979819 214.228439 
L 120.304799 214.29481 
L 120.629778 214.237067 
L 121.279737 213.758023 
L 121.929695 212.812236 
L 122.579658 211.425673 
L 123.554596 208.587312 
L 124.529534 204.946494 
L 125.829451 199.08053 
L 127.454348 190.623267 
L 132.004062 166.129629 
L 133.30398 160.345801 
L 134.603897 155.580344 
L 135.578839 152.776955 
L 136.553777 150.686657 
L 137.203736 149.702009 
L 137.853694 149.047247 
L 138.503653 148.720145 
L 139.153612 148.714557 
L 139.80357 149.020603 
L 140.453529 149.624914 
L 141.103488 150.510888 
L 142.078426 152.32457 
L 143.053364 154.651046 
L 144.353281 158.399432 
L 146.303165 164.94338 
L 150.202917 178.446298 
L 151.827813 183.151718 
L 153.127731 186.197015 
L 154.102669 187.988505 
L 155.077607 189.324319 
L 156.052545 190.189125 
L 156.702503 190.502551 
L 157.352462 190.608253 
L 158.002421 190.511367 
L 158.652387 190.219342 
L 159.302346 189.741777 
L 160.277284 188.703321 
L 161.252222 187.320063 
L 162.552139 185.032612 
L 164.177036 181.661693 
L 169.376705 170.316082 
L 170.676622 168.050357 
L 171.976547 166.219904 
L 172.951485 165.170497 
L 173.926423 164.416511 
L 174.901361 163.96484 
L 175.876299 163.813846 
L 176.851237 163.953782 
L 177.826175 164.367454 
L 178.801113 165.03101 
L 180.101031 166.252708 
L 181.725927 168.203539 
L 184.000782 171.397968 
L 187.250584 175.969309 
L 188.87548 177.890809 
L 190.175398 179.134408 
L 191.475315 180.068952 
L 192.450253 180.550792 
L 193.425191 180.839448 
L 194.400129 180.935967 
L 195.375067 180.846573 
L 196.674984 180.4578 
L 197.974909 179.796067 
L 199.599806 178.659424 
L 201.549682 176.989398 
L 206.424372 172.650004 
L 208.049276 171.520068 
L 209.674165 170.678401 
L 210.974082 170.240786 
L 212.274 170.022233 
L 213.573917 170.019859 
L 214.873834 170.220607 
L 216.498739 170.722971 
L 218.448615 171.615351 
L 221.373437 173.28499 
L 224.948201 175.289421 
L 226.898077 176.134876 
L 228.522982 176.632226 
L 230.147886 176.916389 
L 231.772775 176.982434 
L 233.39768 176.841951 
L 235.347556 176.438214 
L 237.622403 175.72825 
L 245.421923 173.062639 
L 247.69677 172.6554 
L 249.646646 172.521406 
L 251.921509 172.610753 
L 254.196357 172.925056 
L 257.446166 173.625799 
L 263.295794 174.921985 
L 265.895628 175.25924 
L 268.495463 175.373532 
L 271.095297 175.270244 
L 274.345091 174.905908 
L 283.769499 173.663178 
L 287.019292 173.549115 
L 290.594073 173.670522 
L 295.468771 174.097702 
L 301.64337 174.610201 
L 305.543122 174.71495 
L 309.767861 174.608888 
L 325.041897 173.973841 
L 331.216512 174.141629 
L 341.290879 174.44125 
L 348.115438 174.375531 
L 362.739531 174.146192 
L 394.587521 174.221382 
L 398.487273 174.212054 
L 398.487273 174.212054 
" clip-path="url(#p1786853899)" style="fill: none; stroke: #d62728; stroke-width: 1.5; stroke-linecap: square"/>
   </g>
   <g id="line2d_18">
    <path d="M 73.832727 153.108336 
L 74.482686 152.752934 
L 75.132645 152.669664 
L 75.782604 152.859491 
L 76.432563 153.319926 
L 77.082523 154.045064 
L 78.057461 155.607957 
L 79.032399 157.700167 
L 80.332318 161.208012 
L 81.957215 166.491148 
L 84.557052 176.013731 
L 86.831908 184.115009 
L 88.456806 189.037616 
L 89.756724 192.152399 
L 90.731662 193.902071 
L 91.706602 195.092755 
L 92.356561 195.558731 
L 93.006519 195.755187 
L 93.656478 195.679727 
L 94.306437 195.333386 
L 94.956397 194.720633 
L 95.606356 193.849302 
L 96.581294 192.08261 
L 97.556232 189.810291 
L 98.856151 186.107861 
L 100.481048 180.667965 
L 106.0057 161.231282 
L 107.305618 157.766692 
L 108.280556 155.707433 
L 109.255494 154.176369 
L 109.905456 153.471124 
L 110.555415 153.029034 
L 111.205374 152.855608 
L 111.855332 152.952955 
L 112.505291 153.319761 
L 113.15525 153.9513 
L 113.805208 154.8395 
L 114.780146 156.627443 
L 115.755084 158.915625 
L 117.055005 162.630075 
L 118.679902 168.069575 
L 124.204555 187.388331 
L 125.504472 190.806858 
L 126.47941 192.829712 
L 127.454348 194.323924 
L 128.104307 195.004871 
L 128.754265 195.423238 
L 129.404228 195.573814 
L 130.054186 195.454782 
L 130.704145 195.067728 
L 131.354104 194.417633 
L 132.004062 193.512805 
L 132.979 191.703984 
L 133.953938 189.400316 
L 135.253856 185.674339 
L 136.878756 180.2358 
L 142.078426 161.99111 
L 143.378343 158.433873 
L 144.353281 156.282767 
L 145.328227 154.64355 
L 145.978185 153.858647 
L 146.628144 153.332025 
L 147.278103 153.070261 
L 147.928061 153.076583 
L 148.57802 153.350826 
L 149.227979 153.889442 
L 149.877937 154.685531 
L 150.852875 156.339368 
L 151.827813 158.501693 
L 153.127731 162.067292 
L 154.752627 167.361513 
L 160.602263 187.579203 
L 161.90218 190.905755 
L 162.877118 192.856126 
L 163.852056 194.277141 
L 164.502015 194.909919 
L 165.151974 195.281333 
L 165.801932 195.386767 
L 166.451891 195.22497 
L 167.10185 194.798074 
L 167.751808 194.111559 
L 168.726746 192.615047 
L 169.701684 190.597651 
L 171.001602 187.198965 
L 172.626506 182.059577 
L 175.226341 172.757217 
L 177.501196 164.808857 
L 179.126093 159.958626 
L 180.42601 156.874975 
L 181.400948 155.131916 
L 182.375886 153.933257 
L 183.025845 153.453961 
L 183.675803 153.237965 
L 184.32577 153.287921 
L 184.975728 153.603114 
L 185.625687 154.17947 
L 186.275646 155.009623 
L 187.250584 156.706729 
L 188.225522 158.901864 
L 189.525439 162.493384 
L 191.150336 167.78972 
L 196.674984 186.838591 
L 197.974909 190.260947 
L 198.949847 192.304798 
L 199.924785 193.834913 
L 200.574744 194.547588 
L 201.224703 195.003454 
L 201.874661 195.19683 
L 202.52462 195.125347 
L 203.174579 194.789998 
L 203.824537 194.195104 
L 204.474496 193.348271 
L 205.449442 191.630076 
L 206.424372 189.419093 
L 207.724289 185.815341 
L 209.349194 180.518789 
L 214.873834 161.58368 
L 216.173752 158.206219 
L 217.148698 156.197925 
L 218.123643 154.703865 
L 218.773602 154.014998 
L 219.423561 153.582403 
L 220.073519 153.411469 
L 220.723478 153.504279 
L 221.373437 153.859574 
L 222.023395 154.472779 
L 222.673354 155.336058 
L 223.648284 157.074976 
L 224.62323 159.301438 
L 225.923147 162.916935 
L 227.548036 168.213151 
L 233.072692 187.033529 
L 234.37261 190.366138 
L 235.347556 192.338977 
L 236.322486 193.797141 
L 236.972444 194.462337 
L 237.622403 194.871819 
L 238.272362 195.020488 
L 238.92232 194.906547 
L 239.572279 194.531519 
L 240.222238 193.900225 
L 240.872196 193.020735 
L 241.847142 191.261456 
L 242.822088 189.019881 
L 244.122005 185.393117 
L 245.746894 180.097787 
L 250.946563 162.324068 
L 252.246481 158.856499 
L 253.221427 156.758829 
L 254.196357 155.159496 
L 254.846315 154.39308 
L 255.496274 153.878178 
L 256.146248 153.621225 
L 256.796207 153.625388 
L 257.446166 153.890531 
L 258.096124 154.413222 
L 258.746083 155.186768 
L 259.721013 156.795028 
L 260.695959 158.898852 
L 261.995876 162.36927 
L 263.620765 167.523826 
L 269.470409 187.219772 
L 270.770326 190.462818 
L 271.745256 192.365063 
L 272.720202 193.751928 
L 273.370161 194.370199 
L 274.020119 194.733935 
L 274.670078 194.838615 
L 275.320037 194.683001 
L 275.969995 194.269138 
L 276.619954 193.602344 
L 277.594884 192.147374 
L 278.56983 190.18479 
L 279.869747 186.87708 
L 281.494636 181.873533 
L 284.094486 172.81381 
L 286.369334 165.069912 
L 287.994238 160.34275 
L 289.294155 157.336137 
L 290.269086 155.635735 
L 291.244031 154.465397 
L 291.89399 153.996605 
L 292.543949 153.784246 
L 293.193907 153.830929 
L 293.843866 154.135981 
L 294.493825 154.695463 
L 295.143783 155.502218 
L 296.118729 157.152675 
L 297.093659 159.288512 
L 298.393577 162.784255 
L 300.018481 167.94097 
L 305.543122 186.498098 
L 306.843039 189.83433 
L 307.817985 191.827544 
L 308.792931 193.320608 
L 309.44289 194.016665 
L 310.092848 194.462633 
L 310.742807 194.652951 
L 311.392766 194.585294 
L 312.042724 194.260597 
L 312.692683 193.683049 
L 313.342641 192.860032 
L 314.317572 191.18901 
L 315.292517 189.03771 
L 316.592435 185.530015 
L 318.217324 180.373035 
L 323.74198 161.92657 
L 325.041897 158.634049 
L 326.016843 156.675465 
L 326.991773 155.217519 
L 327.641732 154.544656 
L 328.291691 154.121361 
L 328.941649 153.952909 
L 329.591608 154.04135 
L 330.241567 154.385488 
L 330.891525 154.980884 
L 331.541484 155.819935 
L 332.51643 157.511167 
L 333.49136 159.677573 
L 334.791293 163.196751 
L 336.416182 168.353454 
L 341.940823 186.688303 
L 343.24074 189.93715 
L 344.215686 191.861205 
L 345.190631 193.284187 
L 345.840575 193.933991 
L 346.490549 194.334769 
L 347.140523 194.481528 
L 347.790466 194.372493 
L 348.44044 194.009123 
L 349.090383 193.396094 
L 349.740358 192.541236 
L 350.715272 190.830143 
L 351.690218 188.648989 
L 352.990135 185.118794 
L 354.615024 179.962902 
L 359.814725 162.647993 
L 361.114642 159.267834 
L 362.089557 157.222277 
L 363.064502 155.661863 
L 363.714477 154.913502 
L 364.36442 154.410068 
L 365.014394 154.157852 
L 365.664337 154.159963 
L 366.314311 154.416296 
L 366.964254 154.923528 
L 367.614229 155.675166 
L 368.589143 157.239105 
L 369.564089 159.286008 
L 370.864006 162.663785 
L 372.488895 167.682363 
L 378.338539 186.870043 
L 379.638456 190.031681 
L 380.613402 191.886984 
L 381.588348 193.240514 
L 382.238291 193.844605 
L 382.888265 194.200812 
L 383.538208 194.30471 
L 384.188182 194.155064 
L 384.838125 193.753846 
L 385.488099 193.10621 
L 386.463045 191.691632 
L 387.43796 189.782373 
L 388.737877 186.5632 
L 390.362797 181.691901 
L 392.962632 172.868476 
L 395.237464 165.323775 
L 396.862384 160.716558 
L 398.162301 157.78506 
L 398.487273 157.177393 
L 398.487273 157.177393 
" clip-path="url(#p1786853899)" style="fill: none; stroke: #9467bd; stroke-width: 1.5; stroke-linecap: square"/>
   </g>
   <g id="line2d_19">
    <path d="M 73.832727 153.108336 
L 77.732482 232.49112 
L 79.032399 254.771607 
L 80.332318 272.978535 
L 81.307256 283.400619 
L 81.957215 288.63755 
L 82.607174 292.426246 
L 83.257134 294.719238 
L 83.582113 295.295181 
L 83.907092 295.488 
L 84.232072 295.297144 
L 84.557052 294.723281 
L 84.882031 293.768284 
L 85.53199 290.728426 
L 86.18195 286.216474 
L 86.831908 280.289966 
L 87.806847 268.917515 
L 88.781785 254.860512 
L 90.081704 232.644066 
L 92.031581 194.218623 
L 95.931335 115.308162 
L 97.231253 93.270786 
L 98.206193 79.378424 
L 99.181131 68.188889 
L 100.156069 60.018885 
L 100.806027 56.367433 
L 101.455988 54.208192 
L 101.780967 53.697285 
L 102.105947 53.568 
L 102.430926 53.820684 
L 102.755905 54.454476 
L 103.080885 55.467313 
L 103.730843 58.615872 
L 104.380802 63.226062 
L 105.030762 69.239127 
L 106.0057 80.717152 
L 106.980638 94.848022 
L 108.280556 117.11019 
L 110.230436 155.487702 
L 114.130188 233.921769 
L 115.430105 255.715877 
L 116.405047 269.409753 
L 117.379985 280.393293 
L 118.029943 286.052951 
L 118.679902 290.296924 
L 119.329861 293.071985 
L 119.65484 293.897111 
L 119.979819 294.343503 
L 120.304799 294.409796 
L 120.629778 294.095853 
L 120.954757 293.402718 
L 121.604716 290.889097 
L 122.254675 286.901192 
L 122.904637 281.489909 
L 123.879575 270.859538 
L 124.854513 257.489086 
L 126.154431 236.068278 
L 127.779327 205.071181 
L 132.654021 108.182485 
L 133.953938 87.573314 
L 134.928876 74.944576 
L 135.903818 65.144071 
L 136.553777 60.322091 
L 137.203736 56.942671 
L 137.853694 55.048089 
L 138.178674 54.665697 
L 138.503653 54.661846 
L 138.828632 55.036481 
L 139.153612 55.788363 
L 139.80357 58.412903 
L 140.453529 62.501816 
L 141.103488 68.00292 
L 142.078426 78.744605 
L 143.053364 92.195535 
L 144.353281 113.671889 
L 145.978185 144.651883 
L 150.852875 240.964528 
L 152.152793 261.323435 
L 153.127731 273.751405 
L 154.102669 283.346264 
L 154.752627 288.03133 
L 155.402586 291.276 
L 156.052545 293.039692 
L 156.377524 293.358596 
L 156.702503 293.300546 
L 157.027483 292.865789 
L 157.352462 292.055756 
L 158.002421 289.321534 
L 158.652387 285.132925 
L 159.302346 279.543356 
L 160.277284 268.692448 
L 161.252222 255.16314 
L 162.552139 233.633966 
L 164.177036 202.674161 
L 168.726746 112.546162 
L 170.026664 91.482612 
L 171.001602 78.382266 
L 171.976547 68.012695 
L 172.626506 62.765091 
L 173.276465 58.929274 
L 173.926423 56.553329 
L 174.251403 55.922783 
L 174.576382 55.666834 
L 174.901361 55.786235 
L 175.226341 56.280546 
L 175.55132 57.148143 
L 176.201279 59.990809 
L 176.851237 64.277813 
L 177.501196 69.954479 
L 178.476134 80.912529 
L 179.451072 94.518106 
L 180.750989 116.097394 
L 182.375886 147.033963 
L 186.925604 236.634296 
L 188.225522 257.45417 
L 189.20046 270.357379 
L 190.175398 280.523688 
L 190.825356 285.635231 
L 191.475315 289.336553 
L 192.125274 291.581279 
L 192.450253 292.147952 
L 192.775232 292.341468 
L 193.100212 292.161266 
L 193.425191 291.607979 
L 193.75017 290.683414 
L 194.400129 287.733561 
L 195.050088 283.349473 
L 195.700046 277.587047 
L 196.674984 266.523937 
L 197.64993 252.844163 
L 198.949847 231.217443 
L 200.899723 193.800421 
L 204.799483 116.926485 
L 206.0994 95.447824 
L 207.07433 81.903561 
L 208.049276 70.990221 
L 209.024206 63.016674 
L 209.674165 59.449057 
L 210.324124 57.334644 
L 210.649111 56.831339 
L 210.974082 56.699733 
L 211.29907 56.940186 
L 211.624041 57.55188 
L 211.949028 58.532817 
L 212.598987 61.588611 
L 213.248946 66.06848 
L 213.898904 71.915308 
L 214.873834 83.081398 
L 215.84878 96.833287 
L 217.148698 118.504767 
L 219.098573 155.875435 
L 222.998325 232.285877 
L 224.298243 253.527689 
L 225.273189 266.878656 
L 226.248119 277.591375 
L 226.898077 283.114403 
L 227.548036 287.258964 
L 228.197995 289.973069 
L 228.522982 290.782386 
L 228.847953 291.222828 
L 229.172941 291.293055 
L 229.497912 290.992911 
L 229.822899 290.323395 
L 230.472858 287.886117 
L 231.122816 284.012515 
L 231.772775 278.752028 
L 232.747721 268.411972 
L 233.722651 255.401255 
L 235.022568 234.550096 
L 236.647473 204.368446 
L 241.522155 109.981102 
L 242.822088 89.892383 
L 243.797018 77.578258 
L 244.771964 68.017371 
L 245.421923 63.310024 
L 246.071881 60.007414 
L 246.72184 58.150857 
L 247.046811 57.772775 
L 247.371799 57.763395 
L 247.69677 58.122689 
L 248.021757 58.849457 
L 248.671716 61.394848 
L 249.321675 65.366919 
L 249.971633 70.71498 
L 250.946563 81.163599 
L 251.921509 94.252869 
L 253.221427 115.158351 
L 254.846315 145.32362 
L 259.721013 239.150534 
L 261.02093 258.995582 
L 261.995876 271.114203 
L 262.970806 280.474789 
L 263.620765 285.048752 
L 264.270724 288.220077 
L 264.920682 289.9491 
L 265.24567 290.265327 
L 265.570641 290.214392 
L 265.895628 289.796507 
L 266.2206 289.013055 
L 266.870558 286.36076 
L 267.520517 282.291497 
L 268.170476 276.857181 
L 269.145421 266.302016 
L 270.120367 253.136257 
L 271.420285 232.179097 
L 273.045173 202.033207 
L 277.594884 114.232791 
L 278.894801 93.702278 
L 279.869747 80.929309 
L 280.844677 70.814567 
L 281.494636 65.692901 
L 282.14461 61.945962 
L 282.794569 59.620704 
L 283.11954 59.000968 
L 283.444528 58.746083 
L 283.769499 58.856801 
L 284.094486 59.332718 
L 284.419458 60.172267 
L 285.069416 62.930255 
L 285.719375 67.095437 
L 286.369334 72.614687 
L 287.34428 83.274354 
L 288.31921 96.514585 
L 289.619127 117.520785 
L 291.244031 147.644332 
L 295.793742 234.93141 
L 297.093659 255.224666 
L 298.068605 267.80566 
L 299.043535 277.722421 
L 299.693494 282.711546 
L 300.343453 286.327458 
L 300.993411 288.52487 
L 301.318398 289.082374 
L 301.64337 289.276422 
L 301.968357 289.106453 
L 302.293329 288.573063 
L 302.618316 287.677995 
L 303.268274 284.815533 
L 303.918233 280.555707 
L 304.568192 274.952843 
L 305.543122 264.190702 
L 306.518068 250.878053 
L 307.817985 229.825433 
L 309.44289 199.72717 
L 313.9926 112.957991 
L 315.292517 92.902011 
L 316.267448 80.512624 
L 317.242393 70.793129 
L 317.892352 65.935894 
L 318.542311 62.45023 
L 319.192269 60.379793 
L 319.517241 59.884033 
L 319.842228 59.75031 
L 320.1672 59.978989 
L 320.492187 60.569301 
L 320.817174 61.519311 
L 321.467133 64.485045 
L 322.117091 68.838232 
L 322.76705 74.523399 
L 323.74198 85.385997 
L 324.716926 98.769066 
L 326.016843 119.865514 
L 327.966719 156.255727 
L 331.866471 230.694703 
L 333.166388 251.398193 
L 334.141319 264.414815 
L 335.116264 274.86337 
L 335.766239 280.253051 
L 336.416182 284.300491 
L 337.066156 286.954932 
L 337.391127 287.748717 
L 337.716099 288.183226 
L 338.041071 288.257139 
L 338.366073 287.970281 
L 338.691045 287.323616 
L 339.340988 284.960407 
L 339.990962 281.197852 
L 340.640905 276.083981 
L 341.615851 266.026335 
L 342.590797 253.365679 
L 343.890714 233.06903 
L 345.515603 203.681381 
L 350.390301 111.730815 
L 351.690218 92.149414 
L 352.665164 80.142061 
L 353.64011 70.814961 
L 354.290053 66.219561 
L 354.940027 62.992055 
L 355.58997 61.172844 
L 355.914942 60.799099 
L 356.239944 60.784484 
L 356.564916 61.128979 
L 356.889887 61.831439 
L 357.539862 64.30002 
L 358.189805 68.158567 
L 358.839779 73.357831 
L 359.814725 83.521371 
L 360.789639 96.258701 
L 362.089557 116.608493 
L 363.714477 145.980475 
L 368.589143 237.385857 
L 369.889061 256.730016 
L 370.864006 268.54697 
L 371.838952 277.678987 
L 372.488895 282.14446 
L 373.138869 285.244064 
L 373.788844 286.939024 
L 374.113815 287.25249 
L 374.438787 287.208332 
L 374.763758 286.80674 
L 375.088761 286.049045 
L 375.738704 283.476265 
L 376.388678 279.522973 
L 377.038621 274.2396 
L 378.013567 263.972136 
L 378.988513 251.160147 
L 380.28843 230.7598 
L 381.913319 201.406405 
L 386.463045 115.873377 
L 387.762963 95.86239 
L 388.737877 83.408609 
L 389.712823 73.542452 
L 390.362797 68.543718 
L 391.01274 64.88362 
L 391.662715 62.608013 
L 391.987686 61.998951 
L 392.312658 61.745258 
L 392.637629 61.847677 
L 392.962632 62.305825 
L 393.287603 63.118196 
L 393.937547 65.794001 
L 394.587521 69.8408 
L 395.237464 75.206979 
L 396.21241 85.576386 
L 397.187355 98.46106 
L 398.487273 118.909394 
L 398.487273 118.909394 
" clip-path="url(#p1786853899)" style="fill: none; stroke: #8c564b; stroke-width: 1.5; stroke-linecap: square"/>
   </g>
   <g id="line2d_20">
    <path d="M 73.832727 153.108336 
L 74.482686 152.751093 
L 75.132645 152.657185 
L 75.782604 152.824898 
L 76.432563 153.249383 
L 77.082523 153.922747 
L 78.057461 155.375026 
L 79.032399 157.314397 
L 80.332318 160.552135 
L 81.957215 165.401296 
L 84.882031 175.184922 
L 87.156888 182.438339 
L 88.456806 185.989731 
L 89.756724 188.903584 
L 90.731662 190.593526 
L 91.706602 191.81459 
L 92.356561 192.355021 
L 93.006519 192.671333 
L 93.656478 192.76213 
L 94.306437 192.628752 
L 94.956397 192.275232 
L 95.606356 191.708214 
L 96.581294 190.478034 
L 97.556232 188.829297 
L 98.856151 186.069965 
L 100.481048 181.928822 
L 103.405864 173.554923 
L 105.680721 167.332479 
L 106.980638 164.280091 
L 108.280556 161.770833 
L 109.255494 160.311749 
L 110.230436 159.253348 
L 110.880394 158.781763 
L 111.530353 158.501998 
L 112.180312 158.415354 
L 112.83027 158.520791 
L 113.480229 158.814962 
L 114.130188 159.292277 
L 115.105126 160.334164 
L 116.080067 161.735707 
L 117.379985 164.087201 
L 119.004881 167.623575 
L 121.604716 173.985619 
L 123.879575 179.413767 
L 125.504472 182.751943 
L 126.804389 184.912669 
L 127.779327 186.172325 
L 128.754265 187.089586 
L 129.729207 187.645185 
L 130.379166 187.809712 
L 131.029124 187.809012 
L 131.679083 187.644878 
L 132.654021 187.10095 
L 133.628959 186.218672 
L 134.603897 185.027363 
L 135.903818 183.023533 
L 137.528715 180.003713 
L 140.12855 174.559442 
L 142.728384 169.290737 
L 144.353281 166.530501 
L 145.653206 164.782015 
L 146.628144 163.789768 
L 147.603082 163.096629 
L 148.57802 162.716504 
L 149.552958 162.65461 
L 150.527896 162.90748 
L 151.502834 163.463187 
L 152.477772 164.301813 
L 153.777689 165.81204 
L 155.077607 167.694039 
L 157.027483 170.996504 
L 161.577201 178.979913 
L 163.202098 181.253878 
L 164.502015 182.66066 
L 165.476953 183.434574 
L 166.451891 183.947958 
L 167.426829 184.191143 
L 168.401767 184.161921 
L 169.376705 183.865486 
L 170.351643 183.31417 
L 171.326589 182.526998 
L 172.626506 181.154698 
L 174.251403 179.02683 
L 176.526258 175.589852 
L 179.776051 170.697712 
L 181.400948 168.658367 
L 182.700865 167.360662 
L 184.000782 166.420981 
L 184.975728 165.974325 
L 185.950666 165.758901 
L 186.925604 165.776796 
L 187.900542 166.023756 
L 188.87548 166.4894 
L 190.175398 167.421807 
L 191.475315 168.661384 
L 193.100212 170.54138 
L 196.025025 174.386368 
L 198.624868 177.653408 
L 200.249765 179.334773 
L 201.549682 180.380145 
L 202.849599 181.110239 
L 203.824537 181.433334 
L 204.799483 181.557288 
L 205.774413 181.481969 
L 206.749359 181.212633 
L 208.049276 180.570421 
L 209.349194 179.640094 
L 210.974082 178.150293 
L 213.248946 175.675695 
L 217.148698 171.384071 
L 218.773602 169.938382 
L 220.073519 169.037328 
L 221.373437 168.405549 
L 222.673354 168.067486 
L 223.648284 168.013181 
L 224.62323 168.128647 
L 225.923147 168.535921 
L 227.223065 169.208343 
L 228.847953 170.363047 
L 230.797845 172.080887 
L 236.322486 177.227473 
L 237.94739 178.356707 
L 239.247308 179.021737 
L 240.547225 179.444658 
L 241.847142 179.61044 
L 243.147059 179.516674 
L 244.446977 179.173427 
L 245.746894 178.602482 
L 247.371799 177.618529 
L 249.321675 176.151095 
L 255.171302 171.525287 
L 256.796207 170.606048 
L 258.096124 170.081912 
L 259.396042 169.768969 
L 260.695959 169.677654 
L 261.995876 169.807575 
L 263.295794 170.147759 
L 264.920682 170.83615 
L 266.870558 171.967724 
L 269.79538 174.008597 
L 273.045173 176.21007 
L 274.995049 177.238102 
L 276.619954 177.830429 
L 277.919871 178.102726 
L 279.219788 178.185328 
L 280.519706 178.078359 
L 282.14461 177.692883 
L 283.769499 177.062394 
L 285.719375 176.058632 
L 289.619127 173.701969 
L 292.218962 172.282984 
L 294.168838 171.490053 
L 295.793742 171.071967 
L 297.418647 170.90227 
L 299.043535 170.986931 
L 300.66844 171.312836 
L 302.618316 171.978046 
L 304.893163 173.027553 
L 311.067778 176.071943 
L 313.017654 176.712947 
L 314.642559 177.033488 
L 316.267448 177.139155 
L 317.892352 177.027841 
L 319.517241 176.713643 
L 321.467133 176.110252 
L 324.066967 175.044346 
L 329.266636 172.831247 
L 331.216512 172.243272 
L 333.166388 171.889046 
L 334.791293 171.795106 
L 336.741153 171.926972 
L 338.691045 172.303203 
L 340.965908 172.985917 
L 344.86566 174.454192 
L 348.115438 175.571671 
L 350.390301 176.107736 
L 352.340192 176.340836 
L 354.290053 176.344825 
L 356.239944 176.126625 
L 358.514776 175.632884 
L 361.439613 174.748654 
L 366.639283 173.144938 
L 368.914146 172.682957 
L 371.188978 172.465583 
L 373.138869 172.49186 
L 375.413732 172.75782 
L 378.013567 173.310669 
L 387.43796 175.607388 
L 389.712823 175.796496 
L 391.987686 175.757141 
L 394.262549 175.503517 
L 397.187355 174.937068 
L 398.487273 174.63288 
L 398.487273 174.63288 
" clip-path="url(#p1786853899)" style="fill: none; stroke: #e377c2; stroke-width: 1.5; stroke-linecap: square"/>
   </g>
   <g id="line2d_21">
    <path d="M 73.832727 153.108336 
L 77.082523 216.934538 
L 78.70742 243.969612 
L 80.007338 261.418263 
L 80.982277 271.554571 
L 81.632236 276.770935 
L 82.282195 280.694327 
L 82.932154 283.291377 
L 83.257134 284.086575 
L 83.582113 284.545098 
L 83.907092 284.667378 
L 84.232072 284.454864 
L 84.557052 283.910022 
L 84.882031 283.036291 
L 85.53199 280.320847 
L 86.18195 276.355297 
L 86.831908 271.200989 
L 87.806847 261.408186 
L 88.781785 249.417627 
L 90.081704 230.639707 
L 92.031581 198.499958 
L 95.606356 138.179653 
L 97.231253 114.948395 
L 98.531172 99.923035 
L 99.50611 91.171878 
L 100.481048 84.808458 
L 101.131007 81.961465 
L 101.780967 80.258666 
L 102.105947 79.839442 
L 102.430926 79.70824 
L 102.755905 79.863896 
L 103.080885 80.304383 
L 103.405864 81.026823 
L 104.055822 83.301889 
L 104.705783 86.649639 
L 105.355742 91.018102 
L 106.33068 99.342231 
L 107.305618 109.557229 
L 108.605535 125.582791 
L 110.555415 153.061559 
L 114.455167 209.032808 
L 115.755084 224.72239 
L 117.055005 237.660318 
L 118.029943 245.214934 
L 119.004881 250.7292 
L 119.65484 253.212058 
L 120.304799 254.715675 
L 120.629778 255.097434 
L 120.954757 255.232487 
L 121.279737 255.12176 
L 121.604716 254.766922 
L 121.929695 254.170366 
L 122.579658 252.265267 
L 123.229617 249.439752 
L 123.879575 245.737847 
L 124.854513 238.662743 
L 125.829451 229.96088 
L 127.129369 216.284806 
L 129.079248 192.791752 
L 132.979 144.814799 
L 134.278918 131.331046 
L 135.578839 120.19113 
L 136.553777 113.669996 
L 137.528715 108.892312 
L 138.178674 106.727749 
L 138.828632 105.401244 
L 139.153612 105.054837 
L 139.478591 104.919742 
L 139.80357 104.995228 
L 140.12855 105.279922 
L 140.453529 105.77183 
L 141.103488 107.366245 
L 141.753446 109.750406 
L 142.403405 112.887012 
L 143.378343 118.899991 
L 144.353281 126.312452 
L 145.653206 137.983041 
L 147.603082 158.067907 
L 151.502834 199.191289 
L 152.802751 210.778908 
L 154.102669 220.370184 
L 155.077607 225.99874 
L 156.052545 230.137579 
L 156.702503 232.024028 
L 157.352462 233.193268 
L 157.677441 233.506606 
L 158.002421 233.63895 
L 158.327408 233.590876 
L 158.652387 233.363512 
L 159.302346 232.378068 
L 159.952304 230.702181 
L 160.602263 228.363522 
L 161.577201 223.692201 
L 162.552139 217.759998 
L 163.852056 208.205335 
L 165.476953 194.331016 
L 170.676622 147.990269 
L 171.976547 138.831715 
L 172.951485 133.185797 
L 173.926423 128.741574 
L 174.576382 126.497609 
L 175.226341 124.854071 
L 175.876299 123.824289 
L 176.201279 123.541668 
L 176.526258 123.414065 
L 176.851237 123.441031 
L 177.176217 123.62165 
L 177.826175 124.437863 
L 178.476134 125.846286 
L 179.126093 127.823528 
L 180.101031 131.788607 
L 181.075969 136.837822 
L 182.375886 144.98696 
L 184.000782 156.841865 
L 189.20046 196.560427 
L 190.500377 204.437107 
L 191.475315 209.302045 
L 192.450253 213.141011 
L 193.100212 215.085991 
L 193.75017 216.51746 
L 194.400129 217.423705 
L 195.050088 217.799463 
L 195.375067 217.788533 
L 195.700046 217.645934 
L 196.350005 216.970693 
L 196.999963 215.787515 
L 197.64993 214.116171 
L 198.624868 210.750929 
L 199.599806 206.453563 
L 200.899723 199.503504 
L 202.52462 189.374408 
L 207.724289 155.332602 
L 209.024206 148.558662 
L 209.999152 144.366926 
L 210.974082 141.051103 
L 211.949028 138.686683 
L 212.598987 137.664072 
L 213.248946 137.093983 
L 213.898904 136.978406 
L 214.548863 137.313821 
L 215.198822 138.091313 
L 215.84878 139.296725 
L 216.498739 140.910895 
L 217.473685 144.045097 
L 218.448615 147.945512 
L 219.748532 154.131969 
L 221.373437 162.991452 
L 225.923147 188.713821 
L 227.223065 194.793996 
L 228.522982 199.761023 
L 229.497912 202.624723 
L 230.472858 204.675313 
L 231.122816 205.568783 
L 231.772775 206.074915 
L 232.422734 206.19179 
L 233.072692 205.922205 
L 233.722651 205.273586 
L 234.37261 204.25785 
L 235.022568 202.891218 
L 235.997514 200.22874 
L 236.972444 196.907244 
L 238.272362 191.629057 
L 239.897266 184.057207 
L 244.771964 160.628826 
L 246.071881 155.619447 
L 247.046811 152.508092 
L 248.021757 150.035095 
L 248.996687 148.256994 
L 249.646646 147.476676 
L 250.296605 147.027891 
L 250.946563 146.912469 
L 251.596522 147.128202 
L 252.246481 147.668908 
L 252.896439 148.524555 
L 253.546398 149.681419 
L 254.521344 151.942954 
L 255.496274 154.771288 
L 256.796207 159.274364 
L 258.421096 165.745524 
L 263.295794 185.826732 
L 264.595711 190.134263 
L 265.570641 192.814599 
L 266.545587 194.950005 
L 267.520517 196.491557 
L 268.170476 197.172786 
L 268.82045 197.570254 
L 269.470409 197.682232 
L 270.120367 197.510455 
L 270.770326 197.06006 
L 271.420285 196.339493 
L 272.395215 194.778289 
L 273.370161 192.687622 
L 274.670078 189.190631 
L 276.294967 183.944867 
L 278.894801 174.531938 
L 281.169664 166.521631 
L 282.794569 161.607473 
L 284.094486 158.434861 
L 285.069416 156.591127 
L 286.044362 155.25488 
L 286.694321 154.660385 
L 287.34428 154.308756 
L 287.994238 154.201609 
L 288.644197 154.337595 
L 289.294155 154.712447 
L 289.944114 155.319064 
L 290.919044 156.641354 
L 291.89399 158.418602 
L 293.193907 161.398761 
L 294.818812 165.878477 
L 297.418647 173.933781 
L 299.693494 180.803338 
L 301.318398 185.026056 
L 302.618316 187.75803 
L 303.593246 189.349791 
L 304.568192 190.507886 
L 305.21815 191.026501 
L 305.868109 191.337259 
L 306.518068 191.438655 
L 307.168026 191.331727 
L 307.817985 191.020019 
L 308.467944 190.509502 
L 309.44289 189.389736 
L 310.41782 187.87905 
L 311.717737 185.339471 
L 313.342641 181.51407 
L 315.942476 174.620766 
L 318.542311 167.953172 
L 320.1672 164.461821 
L 321.467133 162.251351 
L 322.442063 160.997759 
L 323.417009 160.122983 
L 324.066967 159.759358 
L 324.716926 159.574594 
L 325.366884 159.568984 
L 326.016843 159.740665 
L 326.666802 160.085647 
L 327.641732 160.914323 
L 328.616678 162.090416 
L 329.916595 164.133161 
L 331.216512 166.616565 
L 333.166388 170.88374 
L 337.066156 179.601333 
L 338.691045 182.602413 
L 339.990962 184.506822 
L 340.965908 185.589993 
L 341.940823 186.349362 
L 342.915768 186.769636 
L 343.565743 186.858138 
L 344.215686 186.793713 
L 345.190631 186.416144 
L 346.165577 185.716048 
L 347.140523 184.717566 
L 348.44044 182.978077 
L 349.740358 180.858858 
L 351.690218 177.210747 
L 355.58997 169.7385 
L 357.214859 167.158941 
L 358.514776 165.518312 
L 359.489722 164.582489 
L 360.464668 163.923432 
L 361.439613 163.554486 
L 362.414559 163.480937 
L 363.389474 163.699997 
L 364.36442 164.201017 
L 365.339365 164.965892 
L 366.639283 166.352171 
L 367.9392 168.087043 
L 369.889061 171.142014 
L 374.438787 178.565519 
L 376.063676 180.692086 
L 377.363593 182.013523 
L 378.338539 182.744824 
L 379.313484 183.234931 
L 380.28843 183.474493 
L 381.263345 183.461081 
L 382.238291 183.199147 
L 383.213236 182.699789 
L 384.188182 181.980345 
L 385.488099 180.719224 
L 387.112988 178.75551 
L 389.387851 175.571776 
L 392.637629 171.020595 
L 394.262549 169.114991 
L 395.562466 167.897585 
L 396.862384 167.010786 
L 397.837299 166.584578 
L 398.487273 166.419291 
L 398.487273 166.419291 
" clip-path="url(#p1786853899)" style="fill: none; stroke: #7f7f7f; stroke-width: 1.5; stroke-linecap: square"/>
   </g>
   <g id="patch_3">
    <path d="M 57.6 307.584 
L 57.6 41.472 
" style="fill: none; stroke: #000000; stroke-width: 0.8; stroke-linejoin: miter; stroke-linecap: square"/>
   </g>
   <g id="patch_4">
    <path d="M 414.72 307.584 
L 414.72 41.472 
" style="fill: none; stroke: #000000; stroke-width: 0.8; stroke-linejoin: miter; stroke-linecap: square"/>
   </g>
   <g id="patch_5">
    <path d="M 57.6 307.584 
L 414.72 307.584 
" style="fill: none; stroke: #000000; stroke-width: 0.8; stroke-linejoin: miter; stroke-linecap: square"/>
   </g>
   <g id="patch_6">
    <path d="M 57.6 41.472 
L 414.72 41.472 
" style="fill: none; stroke: #000000; stroke-width: 0.8; stroke-linejoin: miter; stroke-linecap: square"/>
   </g>
   <g id="legend_1">
    <g id="patch_7">
     <path d="M 363.43875 166.897 
L 407.72 166.897 
Q 409.72 166.897 409.72 164.897 
L 409.72 48.472 
Q 409.72 46.472 407.72 46.472 
L 363.43875 46.472 
Q 361.43875 46.472 361.43875 48.472 
L 361.43875 164.897 
Q 361.43875 166.897 363.43875 166.897 
z
" style="fill: #ffffff; opacity: 0.8; stroke: #cccccc; stroke-linejoin: miter"/>
    </g>
    <g id="line2d_22">
     <path d="M 365.43875 54.570438 
L 375.43875 54.570438 
L 385.43875 54.570438 
" style="fill: none; stroke: #1f77b4; stroke-width: 1.5; stroke-linecap: square"/>
    </g>
    <g id="text_16">
     <!-- x0 -->
     <g transform="translate(393.43875 58.070438) scale(0.1 -0.1)">
      <defs>
       <path id="DejaVuSans-78" d="M 3513 3500 
L 2247 1797 
L 3578 0 
L 2900 0 
L 1881 1375 
L 863 0 
L 184 0 
L 1544 1831 
L 300 3500 
L 978 3500 
L 1906 2253 
L 2834 3500 
L 3513 3500 
z
" transform="scale(0.015625)"/>
      </defs>
      <use xlink:href="#DejaVuSans-78"/>
      <use xlink:href="#DejaVuSans-30" transform="translate(59.179688 0)"/>
     </g>
    </g>
    <g id="line2d_23">
     <path d="M 365.43875 69.248563 
L 375.43875 69.248563 
L 385.43875 69.248563 
" style="fill: none; stroke: #ff7f0e; stroke-width: 1.5; stroke-linecap: square"/>
    </g>
    <g id="text_17">
     <!-- x1 -->
     <g transform="translate(393.43875 72.748563) scale(0.1 -0.1)">
      <use xlink:href="#DejaVuSans-78"/>
      <use xlink:href="#DejaVuSans-31" transform="translate(59.179688 0)"/>
     </g>
    </g>
    <g id="line2d_24">
     <path d="M 365.43875 83.926688 
L 375.43875 83.926688 
L 385.43875 83.926688 
" style="fill: none; stroke: #2ca02c; stroke-width: 1.5; stroke-linecap: square"/>
    </g>
    <g id="text_18">
     <!-- x2 -->
     <g transform="translate(393.43875 87.426688) scale(0.1 -0.1)">
      <use xlink:href="#DejaVuSans-78"/>
      <use xlink:href="#DejaVuSans-32" transform="translate(59.179688 0)"/>
     </g>
    </g>
    <g id="line2d_25">
     <path d="M 365.43875 98.604813 
L 375.43875 98.604813 
L 385.43875 98.604813 
" style="fill: none; stroke: #d62728; stroke-width: 1.5; stroke-linecap: square"/>
    </g>
    <g id="text_19">
     <!-- x3 -->
     <g transform="translate(393.43875 102.104813) scale(0.1 -0.1)">
      <defs>
       <path id="DejaVuSans-33" d="M 2597 2516 
Q 3050 2419 3304 2112 
Q 3559 1806 3559 1356 
Q 3559 666 3084 287 
Q 2609 -91 1734 -91 
Q 1441 -91 1130 -33 
Q 819 25 488 141 
L 488 750 
Q 750 597 1062 519 
Q 1375 441 1716 441 
Q 2309 441 2620 675 
Q 2931 909 2931 1356 
Q 2931 1769 2642 2001 
Q 2353 2234 1838 2234 
L 1294 2234 
L 1294 2753 
L 1863 2753 
Q 2328 2753 2575 2939 
Q 2822 3125 2822 3475 
Q 2822 3834 2567 4026 
Q 2313 4219 1838 4219 
Q 1578 4219 1281 4162 
Q 984 4106 628 3988 
L 628 4550 
Q 988 4650 1302 4700 
Q 1616 4750 1894 4750 
Q 2613 4750 3031 4423 
Q 3450 4097 3450 3541 
Q 3450 3153 3228 2886 
Q 3006 2619 2597 2516 
z
" transform="scale(0.015625)"/>
      </defs>
      <use xlink:href="#DejaVuSans-78"/>
      <use xlink:href="#DejaVuSans-33" transform="translate(59.179688 0)"/>
     </g>
    </g>
    <g id="line2d_26">
     <path d="M 365.43875 113.282938 
L 375.43875 113.282938 
L 385.43875 113.282938 
" style="fill: none; stroke: #9467bd; stroke-width: 1.5; stroke-linecap: square"/>
    </g>
    <g id="text_20">
     <!-- x4 -->
     <g transform="translate(393.43875 116.782938) scale(0.1 -0.1)">
      <use xlink:href="#DejaVuSans-78"/>
      <use xlink:href="#DejaVuSans-34" transform="translate(59.179688 0)"/>
     </g>
    </g>
    <g id="line2d_27">
     <path d="M 365.43875 127.961063 
L 375.43875 127.961063 
L 385.43875 127.961063 
" style="fill: none; stroke: #8c564b; stroke-width: 1.5; stroke-linecap: square"/>
    </g>
    <g id="text_21">
     <!-- x5 -->
     <g transform="translate(393.43875 131.461063) scale(0.1 -0.1)">
      <defs>
       <path id="DejaVuSans-35" d="M 691 4666 
L 3169 4666 
L 3169 4134 
L 1269 4134 
L 1269 2991 
Q 1406 3038 1543 3061 
Q 1681 3084 1819 3084 
Q 2600 3084 3056 2656 
Q 3513 2228 3513 1497 
Q 3513 744 3044 326 
Q 2575 -91 1722 -91 
Q 1428 -91 1123 -41 
Q 819 9 494 109 
L 494 744 
Q 775 591 1075 516 
Q 1375 441 1709 441 
Q 2250 441 2565 725 
Q 2881 1009 2881 1497 
Q 2881 1984 2565 2268 
Q 2250 2553 1709 2553 
Q 1456 2553 1204 2497 
Q 953 2441 691 2322 
L 691 4666 
z
" transform="scale(0.015625)"/>
      </defs>
      <use xlink:href="#DejaVuSans-78"/>
      <use xlink:href="#DejaVuSans-35" transform="translate(59.179688 0)"/>
     </g>
    </g>
    <g id="line2d_28">
     <path d="M 365.43875 142.639188 
L 375.43875 142.639188 
L 385.43875 142.639188 
" style="fill: none; stroke: #e377c2; stroke-width: 1.5; stroke-linecap: square"/>
    </g>
    <g id="text_22">
     <!-- x6 -->
     <g transform="translate(393.43875 146.139188) scale(0.1 -0.1)">
      <use xlink:href="#DejaVuSans-78"/>
      <use xlink:href="#DejaVuSans-36" transform="translate(59.179688 0)"/>
     </g>
    </g>
    <g id="line2d_29">
     <path d="M 365.43875 157.317313 
L 375.43875 157.317313 
L 385.43875 157.317313 
" style="fill: none; stroke: #7f7f7f; stroke-width: 1.5; stroke-linecap: square"/>
    </g>
    <g id="text_23">
     <!-- x7 -->
     <g transform="translate(393.43875 160.817313) scale(0.1 -0.1)">
      <defs>
       <path id="DejaVuSans-37" d="M 525 4666 
L 3525 4666 
L 3525 4397 
L 1831 0 
L 1172 0 
L 2766 4134 
L 525 4134 
L 525 4666 
z
" transform="scale(0.015625)"/>
      </defs>
      <use xlink:href="#DejaVuSans-78"/>
      <use xlink:href="#DejaVuSans-37" transform="translate(59.179688 0)"/>
     </g>
    </g>
   </g>
  </g>
 </g>
 <defs>
  <clipPath id="p1786853899">
   <rect x="57.6" y="41.472" width="357.12" height="266.112"/>
  </clipPath>
 </defs>
</svg>
