<?xml version="1.0" encoding="utf-8" standalone="no"?>
<!DOCTYPE svg PUBLIC "-//W3C//DTD SVG 1.1//EN"
  "http://www.w3.org/Graphics/SVG/1.1/DTD/svg11.dtd">
<svg xmlns:xlink="http://www.w3.org/1999/xlink" width="460.8pt" height="345.6pt" viewBox="0 0 460.8 345.6" xmlns="http://www.w3.org/2000/svg" version="1.1">
 <metadata>
  <rdf:RDF xmlns:dc="http://purl.org/dc/elements/1.1/" xmlns:cc="http://creativecommons.org/ns#" xmlns:rdf="http://www.w3.org/1999/02/22-rdf-syntax-ns#">
   <cc:Work>
    <dc:type rdf:resource="http://purl.org/dc/dcmitype/StillImage"/>
    <dc:date>2025-05-10T03:29:01.820112</dc:date>
    <dc:format>image/svg+xml</dc:format>
    <dc:creator>
     <cc:Agent>
      <dc:title>Matplotlib v3.10.0, https://matplotlib.org/</dc:title>
     </cc:Agent>
    </dc:creator>
   </cc:Work>
  </rdf:RDF>
 </metadata>
 <defs>
  <style type="text/css">*{stroke-linejoin: round; stroke-linecap: butt}</style>
 </defs>
 <g id="figure_1">
  <g id="patch_1">
   <path d="M 0 345.6 
L 460.8 345.6 
L 460.8 0 
L 0 0 
z
" style="fill: #ffffff"/>
  </g>
  <g id="axes_1">
   <g id="patch_2">
    <path d="M 57.6 307.584 
L 414.72 307.584 
L 414.72 41.472 
L 57.6 41.472 
z
" style="fill: #ffffff"/>
   </g>
   <g id="matplotlib.axis_1">
    <g id="xtick_1">
     <g id="line2d_1">
      <defs>
       <path id="m64e4bb44b0" d="M 0 0 
L 0 3.5 
" style="stroke: #000000; stroke-width: 0.8"/>
      </defs>
      <g>
       <use xlink:href="#m64e4bb44b0" x="73.832727" y="307.584" style="stroke: #000000; stroke-width: 0.8"/>
      </g>
     </g>
     <g id="text_1">
      <!-- 0 -->
      <g transform="translate(70.651477 322.182437) scale(0.1 -0.1)">
       <defs>
        <path id="DejaVuSans-30" d="M 2034 4250 
Q 1547 4250 1301 3770 
Q 1056 3291 1056 2328 
Q 1056 1369 1301 889 
Q 1547 409 2034 409 
Q 2525 409 2770 889 
Q 3016 1369 3016 2328 
Q 3016 3291 2770 3770 
Q 2525 4250 2034 4250 
z
M 2034 4750 
Q 2819 4750 3233 4129 
Q 3647 3509 3647 2328 
Q 3647 1150 3233 529 
Q 2819 -91 2034 -91 
Q 1250 -91 836 529 
Q 422 1150 422 2328 
Q 422 3509 836 4129 
Q 1250 4750 2034 4750 
z
" transform="scale(0.015625)"/>
       </defs>
       <use xlink:href="#DejaVuSans-30"/>
      </g>
     </g>
    </g>
    <g id="xtick_2">
     <g id="line2d_2">
      <g>
       <use xlink:href="#m64e4bb44b0" x="138.763636" y="307.584" style="stroke: #000000; stroke-width: 0.8"/>
      </g>
     </g>
     <g id="text_2">
      <!-- 2 -->
      <g transform="translate(135.582386 322.182437) scale(0.1 -0.1)">
       <defs>
        <path id="DejaVuSans-32" d="M 1228 531 
L 3431 531 
L 3431 0 
L 469 0 
L 469 531 
Q 828 903 1448 1529 
Q 2069 2156 2228 2338 
Q 2531 2678 2651 2914 
Q 2772 3150 2772 3378 
Q 2772 3750 2511 3984 
Q 2250 4219 1831 4219 
Q 1534 4219 1204 4116 
Q 875 4013 500 3803 
L 500 4441 
Q 881 4594 1212 4672 
Q 1544 4750 1819 4750 
Q 2544 4750 2975 4387 
Q 3406 4025 3406 3419 
Q 3406 3131 3298 2873 
Q 3191 2616 2906 2266 
Q 2828 2175 2409 1742 
Q 1991 1309 1228 531 
z
" transform="scale(0.015625)"/>
       </defs>
       <use xlink:href="#DejaVuSans-32"/>
      </g>
     </g>
    </g>
    <g id="xtick_3">
     <g id="line2d_3">
      <g>
       <use xlink:href="#m64e4bb44b0" x="203.694545" y="307.584" style="stroke: #000000; stroke-width: 0.8"/>
      </g>
     </g>
     <g id="text_3">
      <!-- 4 -->
      <g transform="translate(200.513295 322.182437) scale(0.1 -0.1)">
       <defs>
        <path id="DejaVuSans-34" d="M 2419 4116 
L 825 1625 
L 2419 1625 
L 2419 4116 
z
M 2253 4666 
L 3047 4666 
L 3047 1625 
L 3713 1625 
L 3713 1100 
L 3047 1100 
L 3047 0 
L 2419 0 
L 2419 1100 
L 313 1100 
L 313 1709 
L 2253 4666 
z
" transform="scale(0.015625)"/>
       </defs>
       <use xlink:href="#DejaVuSans-34"/>
      </g>
     </g>
    </g>
    <g id="xtick_4">
     <g id="line2d_4">
      <g>
       <use xlink:href="#m64e4bb44b0" x="268.625455" y="307.584" style="stroke: #000000; stroke-width: 0.8"/>
      </g>
     </g>
     <g id="text_4">
      <!-- 6 -->
      <g transform="translate(265.444205 322.182437) scale(0.1 -0.1)">
       <defs>
        <path id="DejaVuSans-36" d="M 2113 2584 
Q 1688 2584 1439 2293 
Q 1191 2003 1191 1497 
Q 1191 994 1439 701 
Q 1688 409 2113 409 
Q 2538 409 2786 701 
Q 3034 994 3034 1497 
Q 3034 2003 2786 2293 
Q 2538 2584 2113 2584 
z
M 3366 4563 
L 3366 3988 
Q 3128 4100 2886 4159 
Q 2644 4219 2406 4219 
Q 1781 4219 1451 3797 
Q 1122 3375 1075 2522 
Q 1259 2794 1537 2939 
Q 1816 3084 2150 3084 
Q 2853 3084 3261 2657 
Q 3669 2231 3669 1497 
Q 3669 778 3244 343 
Q 2819 -91 2113 -91 
Q 1303 -91 875 529 
Q 447 1150 447 2328 
Q 447 3434 972 4092 
Q 1497 4750 2381 4750 
Q 2619 4750 2861 4703 
Q 3103 4656 3366 4563 
z
" transform="scale(0.015625)"/>
       </defs>
       <use xlink:href="#DejaVuSans-36"/>
      </g>
     </g>
    </g>
    <g id="xtick_5">
     <g id="line2d_5">
      <g>
       <use xlink:href="#m64e4bb44b0" x="333.556364" y="307.584" style="stroke: #000000; stroke-width: 0.8"/>
      </g>
     </g>
     <g id="text_5">
      <!-- 8 -->
      <g transform="translate(330.375114 322.182437) scale(0.1 -0.1)">
       <defs>
        <path id="DejaVuSans-38" d="M 2034 2216 
Q 1584 2216 1326 1975 
Q 1069 1734 1069 1313 
Q 1069 891 1326 650 
Q 1584 409 2034 409 
Q 2484 409 2743 651 
Q 3003 894 3003 1313 
Q 3003 1734 2745 1975 
Q 2488 2216 2034 2216 
z
M 1403 2484 
Q 997 2584 770 2862 
Q 544 3141 544 3541 
Q 544 4100 942 4425 
Q 1341 4750 2034 4750 
Q 2731 4750 3128 4425 
Q 3525 4100 3525 3541 
Q 3525 3141 3298 2862 
Q 3072 2584 2669 2484 
Q 3125 2378 3379 2068 
Q 3634 1759 3634 1313 
Q 3634 634 3220 271 
Q 2806 -91 2034 -91 
Q 1263 -91 848 271 
Q 434 634 434 1313 
Q 434 1759 690 2068 
Q 947 2378 1403 2484 
z
M 1172 3481 
Q 1172 3119 1398 2916 
Q 1625 2713 2034 2713 
Q 2441 2713 2670 2916 
Q 2900 3119 2900 3481 
Q 2900 3844 2670 4047 
Q 2441 4250 2034 4250 
Q 1625 4250 1398 4047 
Q 1172 3844 1172 3481 
z
" transform="scale(0.015625)"/>
       </defs>
       <use xlink:href="#DejaVuSans-38"/>
      </g>
     </g>
    </g>
    <g id="xtick_6">
     <g id="line2d_6">
      <g>
       <use xlink:href="#m64e4bb44b0" x="398.487273" y="307.584" style="stroke: #000000; stroke-width: 0.8"/>
      </g>
     </g>
     <g id="text_6">
      <!-- 10 -->
      <g transform="translate(392.124773 322.182437) scale(0.1 -0.1)">
       <defs>
        <path id="DejaVuSans-31" d="M 794 531 
L 1825 531 
L 1825 4091 
L 703 3866 
L 703 4441 
L 1819 4666 
L 2450 4666 
L 2450 531 
L 3481 531 
L 3481 0 
L 794 0 
L 794 531 
z
" transform="scale(0.015625)"/>
       </defs>
       <use xlink:href="#DejaVuSans-31"/>
       <use xlink:href="#DejaVuSans-30" transform="translate(63.623047 0)"/>
      </g>
     </g>
    </g>
    <g id="text_7">
     <!-- time -->
     <g transform="translate(224.863906 335.860562) scale(0.1 -0.1)">
      <defs>
       <path id="DejaVuSans-74" d="M 1172 4494 
L 1172 3500 
L 2356 3500 
L 2356 3053 
L 1172 3053 
L 1172 1153 
Q 1172 725 1289 603 
Q 1406 481 1766 481 
L 2356 481 
L 2356 0 
L 1766 0 
Q 1100 0 847 248 
Q 594 497 594 1153 
L 594 3053 
L 172 3053 
L 172 3500 
L 594 3500 
L 594 4494 
L 1172 4494 
z
" transform="scale(0.015625)"/>
       <path id="DejaVuSans-69" d="M 603 3500 
L 1178 3500 
L 1178 0 
L 603 0 
L 603 3500 
z
M 603 4863 
L 1178 4863 
L 1178 4134 
L 603 4134 
L 603 4863 
z
" transform="scale(0.015625)"/>
       <path id="DejaVuSans-6d" d="M 3328 2828 
Q 3544 3216 3844 3400 
Q 4144 3584 4550 3584 
Q 5097 3584 5394 3201 
Q 5691 2819 5691 2113 
L 5691 0 
L 5113 0 
L 5113 2094 
Q 5113 2597 4934 2840 
Q 4756 3084 4391 3084 
Q 3944 3084 3684 2787 
Q 3425 2491 3425 1978 
L 3425 0 
L 2847 0 
L 2847 2094 
Q 2847 2600 2669 2842 
Q 2491 3084 2119 3084 
Q 1678 3084 1418 2786 
Q 1159 2488 1159 1978 
L 1159 0 
L 581 0 
L 581 3500 
L 1159 3500 
L 1159 2956 
Q 1356 3278 1631 3431 
Q 1906 3584 2284 3584 
Q 2666 3584 2933 3390 
Q 3200 3197 3328 2828 
z
" transform="scale(0.015625)"/>
       <path id="DejaVuSans-65" d="M 3597 1894 
L 3597 1613 
L 953 1613 
Q 991 1019 1311 708 
Q 1631 397 2203 397 
Q 2534 397 2845 478 
Q 3156 559 3463 722 
L 3463 178 
Q 3153 47 2828 -22 
Q 2503 -91 2169 -91 
Q 1331 -91 842 396 
Q 353 884 353 1716 
Q 353 2575 817 3079 
Q 1281 3584 2069 3584 
Q 2775 3584 3186 3129 
Q 3597 2675 3597 1894 
z
M 3022 2063 
Q 3016 2534 2758 2815 
Q 2500 3097 2075 3097 
Q 1594 3097 1305 2825 
Q 1016 2553 972 2059 
L 3022 2063 
z
" transform="scale(0.015625)"/>
      </defs>
      <use xlink:href="#DejaVuSans-74"/>
      <use xlink:href="#DejaVuSans-69" transform="translate(39.208984 0)"/>
      <use xlink:href="#DejaVuSans-6d" transform="translate(66.992188 0)"/>
      <use xlink:href="#DejaVuSans-65" transform="translate(164.404297 0)"/>
     </g>
    </g>
   </g>
   <g id="matplotlib.axis_2">
    <g id="ytick_1">
     <g id="line2d_7">
      <defs>
       <path id="m5da2c4e23c" d="M 0 0 
L -3.5 0 
" style="stroke: #000000; stroke-width: 0.8"/>
      </defs>
      <g>
       <use xlink:href="#m5da2c4e23c" x="57.6" y="298.169623" style="stroke: #000000; stroke-width: 0.8"/>
      </g>
     </g>
     <g id="text_8">
      <!-- 0 -->
      <g transform="translate(44.2375 301.968841) scale(0.1 -0.1)">
       <use xlink:href="#DejaVuSans-30"/>
      </g>
     </g>
    </g>
    <g id="ytick_2">
     <g id="line2d_8">
      <g>
       <use xlink:href="#m5da2c4e23c" x="57.6" y="266.878308" style="stroke: #000000; stroke-width: 0.8"/>
      </g>
     </g>
     <g id="text_9">
      <!-- 25000 -->
      <g transform="translate(18.7875 270.677527) scale(0.1 -0.1)">
       <defs>
        <path id="DejaVuSans-35" d="M 691 4666 
L 3169 4666 
L 3169 4134 
L 1269 4134 
L 1269 2991 
Q 1406 3038 1543 3061 
Q 1681 3084 1819 3084 
Q 2600 3084 3056 2656 
Q 3513 2228 3513 1497 
Q 3513 744 3044 326 
Q 2575 -91 1722 -91 
Q 1428 -91 1123 -41 
Q 819 9 494 109 
L 494 744 
Q 775 591 1075 516 
Q 1375 441 1709 441 
Q 2250 441 2565 725 
Q 2881 1009 2881 1497 
Q 2881 1984 2565 2268 
Q 2250 2553 1709 2553 
Q 1456 2553 1204 2497 
Q 953 2441 691 2322 
L 691 4666 
z
" transform="scale(0.015625)"/>
       </defs>
       <use xlink:href="#DejaVuSans-32"/>
       <use xlink:href="#DejaVuSans-35" transform="translate(63.623047 0)"/>
       <use xlink:href="#DejaVuSans-30" transform="translate(127.246094 0)"/>
       <use xlink:href="#DejaVuSans-30" transform="translate(190.869141 0)"/>
       <use xlink:href="#DejaVuSans-30" transform="translate(254.492188 0)"/>
      </g>
     </g>
    </g>
    <g id="ytick_3">
     <g id="line2d_9">
      <g>
       <use xlink:href="#m5da2c4e23c" x="57.6" y="235.586994" style="stroke: #000000; stroke-width: 0.8"/>
      </g>
     </g>
     <g id="text_10">
      <!-- 50000 -->
      <g transform="translate(18.7875 239.386213) scale(0.1 -0.1)">
       <use xlink:href="#DejaVuSans-35"/>
       <use xlink:href="#DejaVuSans-30" transform="translate(63.623047 0)"/>
       <use xlink:href="#DejaVuSans-30" transform="translate(127.246094 0)"/>
       <use xlink:href="#DejaVuSans-30" transform="translate(190.869141 0)"/>
       <use xlink:href="#DejaVuSans-30" transform="translate(254.492188 0)"/>
      </g>
     </g>
    </g>
    <g id="ytick_4">
     <g id="line2d_10">
      <g>
       <use xlink:href="#m5da2c4e23c" x="57.6" y="204.29568" style="stroke: #000000; stroke-width: 0.8"/>
      </g>
     </g>
     <g id="text_11">
      <!-- 75000 -->
      <g transform="translate(18.7875 208.094898) scale(0.1 -0.1)">
       <defs>
        <path id="DejaVuSans-37" d="M 525 4666 
L 3525 4666 
L 3525 4397 
L 1831 0 
L 1172 0 
L 2766 4134 
L 525 4134 
L 525 4666 
z
" transform="scale(0.015625)"/>
       </defs>
       <use xlink:href="#DejaVuSans-37"/>
       <use xlink:href="#DejaVuSans-35" transform="translate(63.623047 0)"/>
       <use xlink:href="#DejaVuSans-30" transform="translate(127.246094 0)"/>
       <use xlink:href="#DejaVuSans-30" transform="translate(190.869141 0)"/>
       <use xlink:href="#DejaVuSans-30" transform="translate(254.492188 0)"/>
      </g>
     </g>
    </g>
    <g id="ytick_5">
     <g id="line2d_11">
      <g>
       <use xlink:href="#m5da2c4e23c" x="57.6" y="173.004365" style="stroke: #000000; stroke-width: 0.8"/>
      </g>
     </g>
     <g id="text_12">
      <!-- 100000 -->
      <g transform="translate(12.425 176.803584) scale(0.1 -0.1)">
       <use xlink:href="#DejaVuSans-31"/>
       <use xlink:href="#DejaVuSans-30" transform="translate(63.623047 0)"/>
       <use xlink:href="#DejaVuSans-30" transform="translate(127.246094 0)"/>
       <use xlink:href="#DejaVuSans-30" transform="translate(190.869141 0)"/>
       <use xlink:href="#DejaVuSans-30" transform="translate(254.492188 0)"/>
       <use xlink:href="#DejaVuSans-30" transform="translate(318.115234 0)"/>
      </g>
     </g>
    </g>
    <g id="ytick_6">
     <g id="line2d_12">
      <g>
       <use xlink:href="#m5da2c4e23c" x="57.6" y="141.713051" style="stroke: #000000; stroke-width: 0.8"/>
      </g>
     </g>
     <g id="text_13">
      <!-- 125000 -->
      <g transform="translate(12.425 145.51227) scale(0.1 -0.1)">
       <use xlink:href="#DejaVuSans-31"/>
       <use xlink:href="#DejaVuSans-32" transform="translate(63.623047 0)"/>
       <use xlink:href="#DejaVuSans-35" transform="translate(127.246094 0)"/>
       <use xlink:href="#DejaVuSans-30" transform="translate(190.869141 0)"/>
       <use xlink:href="#DejaVuSans-30" transform="translate(254.492188 0)"/>
       <use xlink:href="#DejaVuSans-30" transform="translate(318.115234 0)"/>
      </g>
     </g>
    </g>
    <g id="ytick_7">
     <g id="line2d_13">
      <g>
       <use xlink:href="#m5da2c4e23c" x="57.6" y="110.421737" style="stroke: #000000; stroke-width: 0.8"/>
      </g>
     </g>
     <g id="text_14">
      <!-- 150000 -->
      <g transform="translate(12.425 114.220955) scale(0.1 -0.1)">
       <use xlink:href="#DejaVuSans-31"/>
       <use xlink:href="#DejaVuSans-35" transform="translate(63.623047 0)"/>
       <use xlink:href="#DejaVuSans-30" transform="translate(127.246094 0)"/>
       <use xlink:href="#DejaVuSans-30" transform="translate(190.869141 0)"/>
       <use xlink:href="#DejaVuSans-30" transform="translate(254.492188 0)"/>
       <use xlink:href="#DejaVuSans-30" transform="translate(318.115234 0)"/>
      </g>
     </g>
    </g>
    <g id="ytick_8">
     <g id="line2d_14">
      <g>
       <use xlink:href="#m5da2c4e23c" x="57.6" y="79.130422" style="stroke: #000000; stroke-width: 0.8"/>
      </g>
     </g>
     <g id="text_15">
      <!-- 175000 -->
      <g transform="translate(12.425 82.929641) scale(0.1 -0.1)">
       <use xlink:href="#DejaVuSans-31"/>
       <use xlink:href="#DejaVuSans-37" transform="translate(63.623047 0)"/>
       <use xlink:href="#DejaVuSans-35" transform="translate(127.246094 0)"/>
       <use xlink:href="#DejaVuSans-30" transform="translate(190.869141 0)"/>
       <use xlink:href="#DejaVuSans-30" transform="translate(254.492188 0)"/>
       <use xlink:href="#DejaVuSans-30" transform="translate(318.115234 0)"/>
      </g>
     </g>
    </g>
    <g id="ytick_9">
     <g id="line2d_15">
      <g>
       <use xlink:href="#m5da2c4e23c" x="57.6" y="47.839108" style="stroke: #000000; stroke-width: 0.8"/>
      </g>
     </g>
     <g id="text_16">
      <!-- 200000 -->
      <g transform="translate(12.425 51.638327) scale(0.1 -0.1)">
       <use xlink:href="#DejaVuSans-32"/>
       <use xlink:href="#DejaVuSans-30" transform="translate(63.623047 0)"/>
       <use xlink:href="#DejaVuSans-30" transform="translate(127.246094 0)"/>
       <use xlink:href="#DejaVuSans-30" transform="translate(190.869141 0)"/>
       <use xlink:href="#DejaVuSans-30" transform="translate(254.492188 0)"/>
       <use xlink:href="#DejaVuSans-30" transform="translate(318.115234 0)"/>
      </g>
     </g>
    </g>
    <g id="text_17">
     <!-- stage cost -->
     <g transform="translate(6.345312 200.370187) rotate(-90) scale(0.1 -0.1)">
      <defs>
       <path id="DejaVuSans-73" d="M 2834 3397 
L 2834 2853 
Q 2591 2978 2328 3040 
Q 2066 3103 1784 3103 
Q 1356 3103 1142 2972 
Q 928 2841 928 2578 
Q 928 2378 1081 2264 
Q 1234 2150 1697 2047 
L 1894 2003 
Q 2506 1872 2764 1633 
Q 3022 1394 3022 966 
Q 3022 478 2636 193 
Q 2250 -91 1575 -91 
Q 1294 -91 989 -36 
Q 684 19 347 128 
L 347 722 
Q 666 556 975 473 
Q 1284 391 1588 391 
Q 1994 391 2212 530 
Q 2431 669 2431 922 
Q 2431 1156 2273 1281 
Q 2116 1406 1581 1522 
L 1381 1569 
Q 847 1681 609 1914 
Q 372 2147 372 2553 
Q 372 3047 722 3315 
Q 1072 3584 1716 3584 
Q 2034 3584 2315 3537 
Q 2597 3491 2834 3397 
z
" transform="scale(0.015625)"/>
       <path id="DejaVuSans-61" d="M 2194 1759 
Q 1497 1759 1228 1600 
Q 959 1441 959 1056 
Q 959 750 1161 570 
Q 1363 391 1709 391 
Q 2188 391 2477 730 
Q 2766 1069 2766 1631 
L 2766 1759 
L 2194 1759 
z
M 3341 1997 
L 3341 0 
L 2766 0 
L 2766 531 
Q 2569 213 2275 61 
Q 1981 -91 1556 -91 
Q 1019 -91 701 211 
Q 384 513 384 1019 
Q 384 1609 779 1909 
Q 1175 2209 1959 2209 
L 2766 2209 
L 2766 2266 
Q 2766 2663 2505 2880 
Q 2244 3097 1772 3097 
Q 1472 3097 1187 3025 
Q 903 2953 641 2809 
L 641 3341 
Q 956 3463 1253 3523 
Q 1550 3584 1831 3584 
Q 2591 3584 2966 3190 
Q 3341 2797 3341 1997 
z
" transform="scale(0.015625)"/>
       <path id="DejaVuSans-67" d="M 2906 1791 
Q 2906 2416 2648 2759 
Q 2391 3103 1925 3103 
Q 1463 3103 1205 2759 
Q 947 2416 947 1791 
Q 947 1169 1205 825 
Q 1463 481 1925 481 
Q 2391 481 2648 825 
Q 2906 1169 2906 1791 
z
M 3481 434 
Q 3481 -459 3084 -895 
Q 2688 -1331 1869 -1331 
Q 1566 -1331 1297 -1286 
Q 1028 -1241 775 -1147 
L 775 -588 
Q 1028 -725 1275 -790 
Q 1522 -856 1778 -856 
Q 2344 -856 2625 -561 
Q 2906 -266 2906 331 
L 2906 616 
Q 2728 306 2450 153 
Q 2172 0 1784 0 
Q 1141 0 747 490 
Q 353 981 353 1791 
Q 353 2603 747 3093 
Q 1141 3584 1784 3584 
Q 2172 3584 2450 3431 
Q 2728 3278 2906 2969 
L 2906 3500 
L 3481 3500 
L 3481 434 
z
" transform="scale(0.015625)"/>
       <path id="DejaVuSans-20" transform="scale(0.015625)"/>
       <path id="DejaVuSans-63" d="M 3122 3366 
L 3122 2828 
Q 2878 2963 2633 3030 
Q 2388 3097 2138 3097 
Q 1578 3097 1268 2742 
Q 959 2388 959 1747 
Q 959 1106 1268 751 
Q 1578 397 2138 397 
Q 2388 397 2633 464 
Q 2878 531 3122 666 
L 3122 134 
Q 2881 22 2623 -34 
Q 2366 -91 2075 -91 
Q 1284 -91 818 406 
Q 353 903 353 1747 
Q 353 2603 823 3093 
Q 1294 3584 2113 3584 
Q 2378 3584 2631 3529 
Q 2884 3475 3122 3366 
z
" transform="scale(0.015625)"/>
       <path id="DejaVuSans-6f" d="M 1959 3097 
Q 1497 3097 1228 2736 
Q 959 2375 959 1747 
Q 959 1119 1226 758 
Q 1494 397 1959 397 
Q 2419 397 2687 759 
Q 2956 1122 2956 1747 
Q 2956 2369 2687 2733 
Q 2419 3097 1959 3097 
z
M 1959 3584 
Q 2709 3584 3137 3096 
Q 3566 2609 3566 1747 
Q 3566 888 3137 398 
Q 2709 -91 1959 -91 
Q 1206 -91 779 398 
Q 353 888 353 1747 
Q 353 2609 779 3096 
Q 1206 3584 1959 3584 
z
" transform="scale(0.015625)"/>
      </defs>
      <use xlink:href="#DejaVuSans-73"/>
      <use xlink:href="#DejaVuSans-74" transform="translate(52.099609 0)"/>
      <use xlink:href="#DejaVuSans-61" transform="translate(91.308594 0)"/>
      <use xlink:href="#DejaVuSans-67" transform="translate(152.587891 0)"/>
      <use xlink:href="#DejaVuSans-65" transform="translate(216.064453 0)"/>
      <use xlink:href="#DejaVuSans-20" transform="translate(277.587891 0)"/>
      <use xlink:href="#DejaVuSans-63" transform="translate(309.375 0)"/>
      <use xlink:href="#DejaVuSans-6f" transform="translate(364.355469 0)"/>
      <use xlink:href="#DejaVuSans-73" transform="translate(425.537109 0)"/>
      <use xlink:href="#DejaVuSans-74" transform="translate(477.636719 0)"/>
     </g>
    </g>
   </g>
   <g id="line2d_16">
    <path d="M 73.832727 289.100369 
L 74.482686 291.302256 
L 74.807666 291.909184 
L 75.132645 292.239986 
L 75.457625 292.305834 
L 75.782604 292.094941 
L 76.107584 291.572486 
L 76.432563 290.680575 
L 76.757543 289.338441 
L 77.082523 287.443286 
L 77.732482 281.485313 
L 78.382441 271.655986 
L 79.032399 256.760619 
L 79.682359 235.906439 
L 80.657297 193.431775 
L 82.932154 79.661495 
L 83.582113 60.450407 
L 83.907092 55.353443 
L 84.232072 53.568 
L 84.557052 55.154743 
L 84.882031 60.033294 
L 85.207011 67.988602 
L 85.856969 91.695919 
L 86.831908 139.461915 
L 88.131827 204.722034 
L 89.106765 242.569255 
L 89.756724 260.692292 
L 90.406683 273.600641 
L 91.056642 282.266808 
L 91.706602 287.766671 
L 92.356561 291.033804 
L 93.006519 292.728858 
L 93.331499 293.105096 
L 93.656478 293.187998 
L 93.981457 292.966443 
L 94.306437 292.407751 
L 94.631416 291.457702 
L 94.956397 290.040919 
L 95.606356 285.407283 
L 96.256315 277.550372 
L 96.906273 265.384094 
L 97.556232 247.959521 
L 98.206193 224.838056 
L 99.181131 180.8353 
L 100.806027 102.68181 
L 101.455988 80.419664 
L 101.780967 73.034288 
L 102.105947 68.555405 
L 102.430926 67.15064 
L 102.755905 68.861786 
L 103.080885 73.602596 
L 103.730843 91.236914 
L 104.380802 117.249071 
L 106.980638 233.624359 
L 107.630597 253.434748 
L 108.280556 268.183 
L 108.930514 278.554205 
L 109.580477 285.479027 
L 110.230436 289.861862 
L 110.880394 292.414431 
L 111.205374 293.153151 
L 111.530353 293.575396 
L 111.855332 293.688245 
L 112.180312 293.478905 
L 112.505291 292.914502 
L 112.83027 291.942083 
L 113.15525 290.489038 
L 113.805208 285.76036 
L 114.455167 277.828027 
L 115.105126 265.690786 
L 115.755084 248.507608 
L 116.405047 225.952995 
L 117.379985 183.584927 
L 119.004881 109.921584 
L 119.65484 89.520156 
L 119.979819 82.934703 
L 120.304799 79.120389 
L 120.629778 78.214389 
L 120.954757 80.235397 
L 121.279737 85.083106 
L 121.929695 102.316387 
L 122.579658 127.195113 
L 125.179493 236.588497 
L 125.829451 255.173753 
L 126.47941 269.091511 
L 127.129369 278.980469 
L 127.779327 285.686064 
L 128.429286 290.017871 
L 129.079248 292.60322 
L 129.404228 293.368795 
L 129.729207 293.816498 
L 130.054186 293.948855 
L 130.379166 293.749843 
L 130.704145 293.184644 
L 131.029124 292.199633 
L 131.354104 290.722856 
L 132.004062 285.923021 
L 132.654021 277.919853 
L 133.30398 265.77372 
L 133.953938 248.729141 
L 134.603897 226.558076 
L 135.578839 185.40129 
L 137.203736 115.39862 
L 137.853694 96.649471 
L 138.178674 90.81542 
L 138.503653 87.660493 
L 138.828632 87.293524 
L 139.153612 89.709879 
L 139.478591 94.792468 
L 140.12855 111.985794 
L 141.103488 149.850602 
L 142.728384 217.980012 
L 143.703322 249.192252 
L 144.353281 264.362056 
L 145.00324 275.442861 
L 145.653206 283.179512 
L 146.303165 288.361859 
L 146.953123 291.651555 
L 147.603082 293.491342 
L 147.928061 293.935901 
L 148.253041 294.066119 
L 148.57802 293.862035 
L 148.902999 293.285898 
L 149.227979 292.282203 
L 149.552958 290.778246 
L 150.202917 285.901898 
L 150.852875 277.812809 
L 151.502834 265.618092 
L 152.152793 248.633942 
L 153.127731 214.101576 
L 155.727565 109.870736 
L 156.377524 97.173151 
L 156.702503 94.650191 
L 157.027483 94.823368 
L 157.352462 97.665852 
L 157.677441 103.043597 
L 158.327408 120.397936 
L 159.302346 157.473166 
L 160.927242 222.652524 
L 161.90218 252.062702 
L 162.552139 266.270914 
L 163.202098 276.627667 
L 163.852056 283.86542 
L 164.502015 288.734243 
L 165.151974 291.844684 
L 165.801932 293.58847 
L 166.126912 294.002 
L 166.451891 294.106032 
L 166.77687 293.876579 
L 167.10185 293.272598 
L 167.426829 292.236126 
L 167.751808 290.692946 
L 168.401767 285.71841 
L 169.051726 277.51779 
L 169.701684 265.23583 
L 170.351643 248.251806 
L 171.326589 214.061533 
L 173.601444 122.789824 
L 174.251403 106.86939 
L 174.576382 102.380788 
L 174.901361 100.454827 
L 175.226341 101.150883 
L 175.55132 104.421529 
L 175.876299 110.116548 
L 176.526258 127.735299 
L 177.501196 164.296188 
L 179.126093 227.079658 
L 180.101031 254.928693 
L 180.750989 268.268337 
L 181.400948 277.941987 
L 182.050907 284.679997 
L 182.700865 289.206382 
L 183.350824 292.094081 
L 184.000782 293.694632 
L 184.32577 294.054441 
L 184.650749 294.11095 
L 184.975728 293.836395 
L 185.300708 293.186491 
L 185.625687 292.100676 
L 185.950666 290.502928 
L 186.600625 285.401447 
L 187.250584 277.059402 
L 187.900542 264.654156 
L 188.550501 247.623027 
L 189.525439 213.67398 
L 191.800294 125.285013 
L 192.450253 110.604556 
L 192.775232 106.719114 
L 193.100212 105.354558 
L 193.425191 106.548635 
L 193.75017 110.235025 
L 194.07515 116.248453 
L 194.725108 134.176665 
L 195.700046 170.388861 
L 197.324951 231.18214 
L 198.299889 257.681444 
L 198.949847 270.250908 
L 199.599806 279.301744 
L 200.249765 285.56586 
L 200.899723 289.748732 
L 201.549682 292.394575 
L 202.199641 293.822901 
L 202.52462 294.112819 
L 202.849599 294.105295 
L 203.174579 293.769185 
L 203.499558 293.057204 
L 203.824537 291.906312 
L 204.149524 290.238691 
L 204.799483 284.980539 
L 205.449442 276.467221 
L 206.0994 263.90655 
L 206.749359 246.791235 
L 207.724289 213.012423 
L 209.999152 127.246235 
L 210.649111 113.721425 
L 210.974082 110.400889 
L 211.29907 109.564257 
L 211.624041 111.229287 
L 211.949028 115.312237 
L 212.598987 129.933123 
L 213.248946 151.1117 
L 215.84878 244.407443 
L 216.498739 260.260273 
L 217.148698 272.151731 
L 217.798656 280.645375 
L 218.448615 286.474625 
L 219.098573 290.329881 
L 219.748532 292.731941 
L 220.398491 293.973906 
L 220.723478 294.183851 
L 221.048449 294.10089 
L 221.373437 293.690897 
L 221.698408 292.903912 
L 222.023395 291.674656 
L 222.348367 289.923692 
L 222.998325 284.481782 
L 223.648284 275.770134 
L 224.298243 263.026682 
L 224.948201 245.798523 
L 225.923147 212.140334 
L 227.873023 137.996777 
L 228.522982 121.515348 
L 228.847953 116.376278 
L 229.172941 113.587792 
L 229.497912 113.248496 
L 229.822899 115.35757 
L 230.147886 119.815194 
L 230.797845 134.931588 
L 231.772775 168.280208 
L 233.39768 228.243255 
L 234.37261 255.55934 
L 235.022568 268.740344 
L 235.672527 278.299173 
L 236.322486 284.926041 
L 236.972444 289.345725 
L 237.622403 292.156665 
L 238.272362 293.747909 
L 238.597349 294.14195 
L 238.92232 294.266752 
L 239.247308 294.101392 
L 239.572279 293.609126 
L 239.897266 292.737631 
L 240.222238 291.419675 
L 240.872196 287.109863 
L 241.522155 279.920215 
L 242.172114 269.057191 
L 242.822088 253.918957 
L 243.797018 223.140414 
L 246.396853 130.092376 
L 247.046811 118.688315 
L 247.371799 116.403462 
L 247.69677 116.533986 
L 248.021757 119.061503 
L 248.346729 123.87133 
L 248.996687 139.452156 
L 249.971633 172.854177 
L 251.596522 231.649344 
L 252.571468 258.025189 
L 253.221427 270.637102 
L 253.871385 279.712552 
L 254.521344 285.94776 
L 255.171302 290.057937 
L 255.821261 292.624087 
L 256.47122 294.014938 
L 256.796207 294.318913 
L 257.121178 294.35697 
L 257.446166 294.105706 
L 257.771137 293.526048 
L 258.096124 292.563596 
L 258.421096 291.149435 
L 259.071054 286.627838 
L 259.721013 279.203701 
L 260.370972 268.104578 
L 261.02093 252.772673 
L 261.995876 221.926071 
L 264.270724 139.385965 
L 264.920682 124.874471 
L 265.24567 120.748633 
L 265.570641 118.942616 
L 265.895628 119.517965 
L 266.2206 122.43987 
L 266.545587 127.57982 
L 267.195545 143.590911 
L 268.170476 177.031821 
L 269.79538 234.740393 
L 270.770326 260.262664 
L 271.420285 272.364661 
L 272.070243 281.010373 
L 272.720202 286.898442 
L 273.370161 290.732818 
L 274.020119 293.076871 
L 274.670078 294.279787 
L 274.995049 294.496491 
L 275.320037 294.448572 
L 275.645008 294.110358 
L 275.969995 293.44067 
L 276.294967 292.383269 
L 276.619954 290.867808 
L 277.269912 286.121974 
L 277.919871 278.449669 
L 278.56983 267.101547 
L 279.219788 251.565219 
L 280.194719 220.638502 
L 282.469582 139.861162 
L 283.11954 126.278943 
L 283.444528 122.627207 
L 283.769499 121.277926 
L 284.094486 122.275375 
L 284.419458 125.569177 
L 284.744445 131.017973 
L 285.394404 147.424312 
L 286.369334 180.881386 
L 287.994238 237.556518 
L 288.969168 262.292402 
L 289.619127 273.932312 
L 290.269086 282.192973 
L 290.919044 287.772338 
L 291.569003 291.361401 
L 292.218962 293.505328 
L 292.543949 294.147753 
L 292.86892 294.533986 
L 293.193907 294.667359 
L 293.518879 294.535631 
L 293.843866 294.111014 
L 294.168838 293.350395 
L 294.493825 292.195889 
L 295.143783 288.407177 
L 295.793742 282.049477 
L 296.443701 272.362297 
L 297.093659 258.717157 
L 297.743618 240.883078 
L 298.718564 207.482915 
L 300.343453 149.26653 
L 300.993411 132.933745 
L 301.318398 127.573523 
L 301.64337 124.377741 
L 301.968357 123.465345 
L 302.293329 124.864028 
L 302.618316 128.508683 
L 303.268274 141.845218 
L 303.918233 161.411921 
L 306.518068 249.113633 
L 307.168026 264.136876 
L 307.817985 275.353341 
L 308.467944 283.265876 
L 309.117902 288.569081 
L 309.767861 291.939475 
L 310.41782 293.903371 
L 310.742807 294.464178 
L 311.067778 294.771242 
L 311.392766 294.825633 
L 311.717737 294.612955 
L 312.042724 294.103405 
L 312.367696 293.252069 
L 312.692683 291.999577 
L 313.342641 287.989638 
L 313.9926 281.378861 
L 314.642559 271.423836 
L 315.292517 257.533898 
L 315.942476 239.535777 
L 316.917406 206.189469 
L 318.542311 149.212758 
L 319.192269 133.713857 
L 319.517241 128.797307 
L 319.842228 126.041129 
L 320.1672 125.547449 
L 320.492187 127.328062 
L 320.817174 131.303878 
L 321.467133 145.109713 
L 322.442063 176.111319 
L 324.391939 242.508608 
L 325.366884 265.81833 
L 326.016843 276.642702 
L 326.666802 284.237485 
L 327.31676 289.291734 
L 327.966719 292.466214 
L 328.616678 294.267758 
L 328.941649 294.753816 
L 329.266636 294.987269 
L 329.591608 294.966957 
L 329.916595 294.676375 
L 330.241567 294.083787 
L 330.566554 293.142579 
L 330.891525 291.792038 
L 331.541484 287.558715 
L 332.191443 280.691464 
L 332.841401 270.465899 
L 333.49136 256.330891 
L 334.466321 227.731422 
L 337.066156 140.935657 
L 337.716099 129.980275 
L 338.041071 127.648837 
L 338.366073 127.557115 
L 338.691045 129.701567 
L 339.016016 133.990003 
L 339.665991 148.229682 
L 340.640905 179.358292 
L 342.265825 235.276569 
L 343.24074 260.767899 
L 343.890714 273.020197 
L 344.540657 281.819319 
L 345.190631 287.797771 
L 345.840575 291.637907 
L 346.490549 293.915719 
L 346.81552 294.597341 
L 347.140523 295.014651 
L 347.465494 295.179444 
L 347.790466 295.088347 
L 348.115438 294.722784 
L 348.44044 294.04914 
L 348.765412 293.019198 
L 349.415355 289.630451 
L 350.065329 283.930187 
L 350.715272 275.201001 
L 351.365246 262.805724 
L 352.01519 246.42766 
L 352.990135 215.194327 
L 354.940027 149.090614 
L 355.58997 135.210941 
L 355.914942 131.145231 
L 356.239944 129.224726 
L 356.564916 129.519256 
L 356.889887 132.010573 
L 357.214859 136.594056 
L 357.864833 151.233903 
L 358.839779 182.452611 
L 360.464668 237.546207 
L 361.439613 262.381771 
L 362.089557 274.253879 
L 362.739531 282.744634 
L 363.389474 288.485064 
L 364.039448 292.143403 
L 364.689391 294.276067 
L 365.014394 294.892443 
L 365.339365 295.24609 
L 365.664337 295.346464 
L 365.989309 295.187988 
L 366.314311 294.750049 
L 366.639283 293.997208 
L 366.964254 292.87972 
L 367.614229 289.286933 
L 368.264172 283.344184 
L 368.914146 274.347467 
L 369.564089 261.692064 
L 370.214063 245.113116 
L 371.188978 213.830534 
L 372.813898 158.005069 
L 373.463841 141.618629 
L 373.788844 135.96558 
L 374.113815 132.309014 
L 374.438787 130.786496 
L 374.763758 131.452433 
L 375.088761 134.274538 
L 375.413732 139.136417 
L 376.063676 154.144415 
L 377.038621 185.417903 
L 378.66351 239.679952 
L 379.638456 263.879759 
L 380.28843 275.389093 
L 380.938373 283.589227 
L 381.588348 289.108125 
L 382.238291 292.59902 
L 382.888265 294.598338 
L 383.213236 295.154353 
L 383.538208 295.448534 
L 383.86318 295.488 
L 384.188182 295.264985 
L 384.513154 294.756867 
L 384.838125 293.926436 
L 385.163097 292.722497 
L 385.813071 288.926794 
L 386.463045 282.742313 
L 387.112988 273.480023 
L 387.762963 260.569151 
L 388.412906 243.797517 
L 389.387851 212.48316 
L 391.01274 157.654665 
L 391.662715 141.997704 
L 391.987686 136.741761 
L 392.312658 133.484354 
L 392.637629 132.347561 
L 392.962632 133.370806 
L 393.287603 136.508386 
L 393.612575 141.632798 
L 394.262549 156.97845 
L 395.237464 188.273079 
L 396.862384 241.695997 
L 397.837299 265.2773 
L 398.487273 276.438763 
L 398.487273 276.438763 
" clip-path="url(#pae18b996db)" style="fill: none; stroke: #1f77b4; stroke-width: 1.5; stroke-linecap: square"/>
   </g>
   <g id="patch_3">
    <path d="M 57.6 307.584 
L 57.6 41.472 
" style="fill: none; stroke: #000000; stroke-width: 0.8; stroke-linejoin: miter; stroke-linecap: square"/>
   </g>
   <g id="patch_4">
    <path d="M 414.72 307.584 
L 414.72 41.472 
" style="fill: none; stroke: #000000; stroke-width: 0.8; stroke-linejoin: miter; stroke-linecap: square"/>
   </g>
   <g id="patch_5">
    <path d="M 57.6 307.584 
L 414.72 307.584 
" style="fill: none; stroke: #000000; stroke-width: 0.8; stroke-linejoin: miter; stroke-linecap: square"/>
   </g>
   <g id="patch_6">
    <path d="M 57.6 41.472 
L 414.72 41.472 
" style="fill: none; stroke: #000000; stroke-width: 0.8; stroke-linejoin: miter; stroke-linecap: square"/>
   </g>
   <g id="legend_1">
    <g id="patch_7">
     <path d="M 347.693438 64.150125 
L 407.72 64.150125 
Q 409.72 64.150125 409.72 62.150125 
L 409.72 48.472 
Q 409.72 46.472 407.72 46.472 
L 347.693438 46.472 
Q 345.693438 46.472 345.693438 48.472 
L 345.693438 62.150125 
Q 345.693438 64.150125 347.693438 64.150125 
z
" style="fill: #ffffff; opacity: 0.8; stroke: #cccccc; stroke-linejoin: miter"/>
    </g>
    <g id="line2d_17">
     <path d="M 349.693438 54.570438 
L 359.693438 54.570438 
L 369.693438 54.570438 
" style="fill: none; stroke: #1f77b4; stroke-width: 1.5; stroke-linecap: square"/>
    </g>
    <g id="text_18">
     <!-- c(s,u) -->
     <g transform="translate(377.693438 58.070438) scale(0.1 -0.1)">
      <defs>
       <path id="DejaVuSans-28" d="M 1984 4856 
Q 1566 4138 1362 3434 
Q 1159 2731 1159 2009 
Q 1159 1288 1364 580 
Q 1569 -128 1984 -844 
L 1484 -844 
Q 1016 -109 783 600 
Q 550 1309 550 2009 
Q 550 2706 781 3412 
Q 1013 4119 1484 4856 
L 1984 4856 
z
" transform="scale(0.015625)"/>
       <path id="DejaVuSans-2c" d="M 750 794 
L 1409 794 
L 1409 256 
L 897 -744 
L 494 -744 
L 750 256 
L 750 794 
z
" transform="scale(0.015625)"/>
       <path id="DejaVuSans-75" d="M 544 1381 
L 544 3500 
L 1119 3500 
L 1119 1403 
Q 1119 906 1312 657 
Q 1506 409 1894 409 
Q 2359 409 2629 706 
Q 2900 1003 2900 1516 
L 2900 3500 
L 3475 3500 
L 3475 0 
L 2900 0 
L 2900 538 
Q 2691 219 2414 64 
Q 2138 -91 1772 -91 
Q 1169 -91 856 284 
Q 544 659 544 1381 
z
M 1991 3584 
L 1991 3584 
z
" transform="scale(0.015625)"/>
       <path id="DejaVuSans-29" d="M 513 4856 
L 1013 4856 
Q 1481 4119 1714 3412 
Q 1947 2706 1947 2009 
Q 1947 1309 1714 600 
Q 1481 -109 1013 -844 
L 513 -844 
Q 928 -128 1133 580 
Q 1338 1288 1338 2009 
Q 1338 2731 1133 3434 
Q 928 4138 513 4856 
z
" transform="scale(0.015625)"/>
      </defs>
      <use xlink:href="#DejaVuSans-63"/>
      <use xlink:href="#DejaVuSans-28" transform="translate(54.980469 0)"/>
      <use xlink:href="#DejaVuSans-73" transform="translate(93.994141 0)"/>
      <use xlink:href="#DejaVuSans-2c" transform="translate(146.09375 0)"/>
      <use xlink:href="#DejaVuSans-75" transform="translate(177.880859 0)"/>
      <use xlink:href="#DejaVuSans-29" transform="translate(241.259766 0)"/>
     </g>
    </g>
   </g>
  </g>
 </g>
 <defs>
  <clipPath id="pae18b996db">
   <rect x="57.6" y="41.472" width="357.12" height="266.112"/>
  </clipPath>
 </defs>
</svg>
