<?xml version="1.0" encoding="utf-8" standalone="no"?>
<!DOCTYPE svg PUBLIC "-//W3C//DTD SVG 1.1//EN"
  "http://www.w3.org/Graphics/SVG/1.1/DTD/svg11.dtd">
<svg xmlns:xlink="http://www.w3.org/1999/xlink" width="460.8pt" height="345.6pt" viewBox="0 0 460.8 345.6" xmlns="http://www.w3.org/2000/svg" version="1.1">
 <metadata>
  <rdf:RDF xmlns:dc="http://purl.org/dc/elements/1.1/" xmlns:cc="http://creativecommons.org/ns#" xmlns:rdf="http://www.w3.org/1999/02/22-rdf-syntax-ns#">
   <cc:Work>
    <dc:type rdf:resource="http://purl.org/dc/dcmitype/StillImage"/>
    <dc:date>2025-05-10T03:29:00.851069</dc:date>
    <dc:format>image/svg+xml</dc:format>
    <dc:creator>
     <cc:Agent>
      <dc:title>Matplotlib v3.10.0, https://matplotlib.org/</dc:title>
     </cc:Agent>
    </dc:creator>
   </cc:Work>
  </rdf:RDF>
 </metadata>
 <defs>
  <style type="text/css">*{stroke-linejoin: round; stroke-linecap: butt}</style>
 </defs>
 <g id="figure_1">
  <g id="patch_1">
   <path d="M 0 345.6 
L 460.8 345.6 
L 460.8 0 
L 0 0 
z
" style="fill: #ffffff"/>
  </g>
  <g id="axes_1">
   <g id="patch_2">
    <path d="M 57.6 307.584 
L 414.72 307.584 
L 414.72 41.472 
L 57.6 41.472 
z
" style="fill: #ffffff"/>
   </g>
   <g id="matplotlib.axis_1">
    <g id="xtick_1">
     <g id="line2d_1">
      <defs>
       <path id="m583beea00a" d="M 0 0 
L 0 3.5 
" style="stroke: #000000; stroke-width: 0.8"/>
      </defs>
      <g>
       <use xlink:href="#m583beea00a" x="73.832727" y="307.584" style="stroke: #000000; stroke-width: 0.8"/>
      </g>
     </g>
     <g id="text_1">
      <!-- 0 -->
      <g transform="translate(70.651477 322.182437) scale(0.1 -0.1)">
       <defs>
        <path id="DejaVuSans-30" d="M 2034 4250 
Q 1547 4250 1301 3770 
Q 1056 3291 1056 2328 
Q 1056 1369 1301 889 
Q 1547 409 2034 409 
Q 2525 409 2770 889 
Q 3016 1369 3016 2328 
Q 3016 3291 2770 3770 
Q 2525 4250 2034 4250 
z
M 2034 4750 
Q 2819 4750 3233 4129 
Q 3647 3509 3647 2328 
Q 3647 1150 3233 529 
Q 2819 -91 2034 -91 
Q 1250 -91 836 529 
Q 422 1150 422 2328 
Q 422 3509 836 4129 
Q 1250 4750 2034 4750 
z
" transform="scale(0.015625)"/>
       </defs>
       <use xlink:href="#DejaVuSans-30"/>
      </g>
     </g>
    </g>
    <g id="xtick_2">
     <g id="line2d_2">
      <g>
       <use xlink:href="#m583beea00a" x="138.763636" y="307.584" style="stroke: #000000; stroke-width: 0.8"/>
      </g>
     </g>
     <g id="text_2">
      <!-- 2 -->
      <g transform="translate(135.582386 322.182437) scale(0.1 -0.1)">
       <defs>
        <path id="DejaVuSans-32" d="M 1228 531 
L 3431 531 
L 3431 0 
L 469 0 
L 469 531 
Q 828 903 1448 1529 
Q 2069 2156 2228 2338 
Q 2531 2678 2651 2914 
Q 2772 3150 2772 3378 
Q 2772 3750 2511 3984 
Q 2250 4219 1831 4219 
Q 1534 4219 1204 4116 
Q 875 4013 500 3803 
L 500 4441 
Q 881 4594 1212 4672 
Q 1544 4750 1819 4750 
Q 2544 4750 2975 4387 
Q 3406 4025 3406 3419 
Q 3406 3131 3298 2873 
Q 3191 2616 2906 2266 
Q 2828 2175 2409 1742 
Q 1991 1309 1228 531 
z
" transform="scale(0.015625)"/>
       </defs>
       <use xlink:href="#DejaVuSans-32"/>
      </g>
     </g>
    </g>
    <g id="xtick_3">
     <g id="line2d_3">
      <g>
       <use xlink:href="#m583beea00a" x="203.694545" y="307.584" style="stroke: #000000; stroke-width: 0.8"/>
      </g>
     </g>
     <g id="text_3">
      <!-- 4 -->
      <g transform="translate(200.513295 322.182437) scale(0.1 -0.1)">
       <defs>
        <path id="DejaVuSans-34" d="M 2419 4116 
L 825 1625 
L 2419 1625 
L 2419 4116 
z
M 2253 4666 
L 3047 4666 
L 3047 1625 
L 3713 1625 
L 3713 1100 
L 3047 1100 
L 3047 0 
L 2419 0 
L 2419 1100 
L 313 1100 
L 313 1709 
L 2253 4666 
z
" transform="scale(0.015625)"/>
       </defs>
       <use xlink:href="#DejaVuSans-34"/>
      </g>
     </g>
    </g>
    <g id="xtick_4">
     <g id="line2d_4">
      <g>
       <use xlink:href="#m583beea00a" x="268.625455" y="307.584" style="stroke: #000000; stroke-width: 0.8"/>
      </g>
     </g>
     <g id="text_4">
      <!-- 6 -->
      <g transform="translate(265.444205 322.182437) scale(0.1 -0.1)">
       <defs>
        <path id="DejaVuSans-36" d="M 2113 2584 
Q 1688 2584 1439 2293 
Q 1191 2003 1191 1497 
Q 1191 994 1439 701 
Q 1688 409 2113 409 
Q 2538 409 2786 701 
Q 3034 994 3034 1497 
Q 3034 2003 2786 2293 
Q 2538 2584 2113 2584 
z
M 3366 4563 
L 3366 3988 
Q 3128 4100 2886 4159 
Q 2644 4219 2406 4219 
Q 1781 4219 1451 3797 
Q 1122 3375 1075 2522 
Q 1259 2794 1537 2939 
Q 1816 3084 2150 3084 
Q 2853 3084 3261 2657 
Q 3669 2231 3669 1497 
Q 3669 778 3244 343 
Q 2819 -91 2113 -91 
Q 1303 -91 875 529 
Q 447 1150 447 2328 
Q 447 3434 972 4092 
Q 1497 4750 2381 4750 
Q 2619 4750 2861 4703 
Q 3103 4656 3366 4563 
z
" transform="scale(0.015625)"/>
       </defs>
       <use xlink:href="#DejaVuSans-36"/>
      </g>
     </g>
    </g>
    <g id="xtick_5">
     <g id="line2d_5">
      <g>
       <use xlink:href="#m583beea00a" x="333.556364" y="307.584" style="stroke: #000000; stroke-width: 0.8"/>
      </g>
     </g>
     <g id="text_5">
      <!-- 8 -->
      <g transform="translate(330.375114 322.182437) scale(0.1 -0.1)">
       <defs>
        <path id="DejaVuSans-38" d="M 2034 2216 
Q 1584 2216 1326 1975 
Q 1069 1734 1069 1313 
Q 1069 891 1326 650 
Q 1584 409 2034 409 
Q 2484 409 2743 651 
Q 3003 894 3003 1313 
Q 3003 1734 2745 1975 
Q 2488 2216 2034 2216 
z
M 1403 2484 
Q 997 2584 770 2862 
Q 544 3141 544 3541 
Q 544 4100 942 4425 
Q 1341 4750 2034 4750 
Q 2731 4750 3128 4425 
Q 3525 4100 3525 3541 
Q 3525 3141 3298 2862 
Q 3072 2584 2669 2484 
Q 3125 2378 3379 2068 
Q 3634 1759 3634 1313 
Q 3634 634 3220 271 
Q 2806 -91 2034 -91 
Q 1263 -91 848 271 
Q 434 634 434 1313 
Q 434 1759 690 2068 
Q 947 2378 1403 2484 
z
M 1172 3481 
Q 1172 3119 1398 2916 
Q 1625 2713 2034 2713 
Q 2441 2713 2670 2916 
Q 2900 3119 2900 3481 
Q 2900 3844 2670 4047 
Q 2441 4250 2034 4250 
Q 1625 4250 1398 4047 
Q 1172 3844 1172 3481 
z
" transform="scale(0.015625)"/>
       </defs>
       <use xlink:href="#DejaVuSans-38"/>
      </g>
     </g>
    </g>
    <g id="xtick_6">
     <g id="line2d_6">
      <g>
       <use xlink:href="#m583beea00a" x="398.487273" y="307.584" style="stroke: #000000; stroke-width: 0.8"/>
      </g>
     </g>
     <g id="text_6">
      <!-- 10 -->
      <g transform="translate(392.124773 322.182437) scale(0.1 -0.1)">
       <defs>
        <path id="DejaVuSans-31" d="M 794 531 
L 1825 531 
L 1825 4091 
L 703 3866 
L 703 4441 
L 1819 4666 
L 2450 4666 
L 2450 531 
L 3481 531 
L 3481 0 
L 794 0 
L 794 531 
z
" transform="scale(0.015625)"/>
       </defs>
       <use xlink:href="#DejaVuSans-31"/>
       <use xlink:href="#DejaVuSans-30" transform="translate(63.623047 0)"/>
      </g>
     </g>
    </g>
    <g id="text_7">
     <!-- time -->
     <g transform="translate(224.863906 335.860562) scale(0.1 -0.1)">
      <defs>
       <path id="DejaVuSans-74" d="M 1172 4494 
L 1172 3500 
L 2356 3500 
L 2356 3053 
L 1172 3053 
L 1172 1153 
Q 1172 725 1289 603 
Q 1406 481 1766 481 
L 2356 481 
L 2356 0 
L 1766 0 
Q 1100 0 847 248 
Q 594 497 594 1153 
L 594 3053 
L 172 3053 
L 172 3500 
L 594 3500 
L 594 4494 
L 1172 4494 
z
" transform="scale(0.015625)"/>
       <path id="DejaVuSans-69" d="M 603 3500 
L 1178 3500 
L 1178 0 
L 603 0 
L 603 3500 
z
M 603 4863 
L 1178 4863 
L 1178 4134 
L 603 4134 
L 603 4863 
z
" transform="scale(0.015625)"/>
       <path id="DejaVuSans-6d" d="M 3328 2828 
Q 3544 3216 3844 3400 
Q 4144 3584 4550 3584 
Q 5097 3584 5394 3201 
Q 5691 2819 5691 2113 
L 5691 0 
L 5113 0 
L 5113 2094 
Q 5113 2597 4934 2840 
Q 4756 3084 4391 3084 
Q 3944 3084 3684 2787 
Q 3425 2491 3425 1978 
L 3425 0 
L 2847 0 
L 2847 2094 
Q 2847 2600 2669 2842 
Q 2491 3084 2119 3084 
Q 1678 3084 1418 2786 
Q 1159 2488 1159 1978 
L 1159 0 
L 581 0 
L 581 3500 
L 1159 3500 
L 1159 2956 
Q 1356 3278 1631 3431 
Q 1906 3584 2284 3584 
Q 2666 3584 2933 3390 
Q 3200 3197 3328 2828 
z
" transform="scale(0.015625)"/>
       <path id="DejaVuSans-65" d="M 3597 1894 
L 3597 1613 
L 953 1613 
Q 991 1019 1311 708 
Q 1631 397 2203 397 
Q 2534 397 2845 478 
Q 3156 559 3463 722 
L 3463 178 
Q 3153 47 2828 -22 
Q 2503 -91 2169 -91 
Q 1331 -91 842 396 
Q 353 884 353 1716 
Q 353 2575 817 3079 
Q 1281 3584 2069 3584 
Q 2775 3584 3186 3129 
Q 3597 2675 3597 1894 
z
M 3022 2063 
Q 3016 2534 2758 2815 
Q 2500 3097 2075 3097 
Q 1594 3097 1305 2825 
Q 1016 2553 972 2059 
L 3022 2063 
z
" transform="scale(0.015625)"/>
      </defs>
      <use xlink:href="#DejaVuSans-74"/>
      <use xlink:href="#DejaVuSans-69" transform="translate(39.208984 0)"/>
      <use xlink:href="#DejaVuSans-6d" transform="translate(66.992188 0)"/>
      <use xlink:href="#DejaVuSans-65" transform="translate(164.404297 0)"/>
     </g>
    </g>
   </g>
   <g id="matplotlib.axis_2">
    <g id="ytick_1">
     <g id="line2d_7">
      <defs>
       <path id="m48a97446a9" d="M 0 0 
L -3.5 0 
" style="stroke: #000000; stroke-width: 0.8"/>
      </defs>
      <g>
       <use xlink:href="#m48a97446a9" x="57.6" y="305.700025" style="stroke: #000000; stroke-width: 0.8"/>
      </g>
     </g>
     <g id="text_8">
      <!-- 2000 -->
      <g transform="translate(25.15 309.499243) scale(0.1 -0.1)">
       <use xlink:href="#DejaVuSans-32"/>
       <use xlink:href="#DejaVuSans-30" transform="translate(63.623047 0)"/>
       <use xlink:href="#DejaVuSans-30" transform="translate(127.246094 0)"/>
       <use xlink:href="#DejaVuSans-30" transform="translate(190.869141 0)"/>
      </g>
     </g>
    </g>
    <g id="ytick_2">
     <g id="line2d_8">
      <g>
       <use xlink:href="#m48a97446a9" x="57.6" y="255.720275" style="stroke: #000000; stroke-width: 0.8"/>
      </g>
     </g>
     <g id="text_9">
      <!-- 2500 -->
      <g transform="translate(25.15 259.519493) scale(0.1 -0.1)">
       <defs>
        <path id="DejaVuSans-35" d="M 691 4666 
L 3169 4666 
L 3169 4134 
L 1269 4134 
L 1269 2991 
Q 1406 3038 1543 3061 
Q 1681 3084 1819 3084 
Q 2600 3084 3056 2656 
Q 3513 2228 3513 1497 
Q 3513 744 3044 326 
Q 2575 -91 1722 -91 
Q 1428 -91 1123 -41 
Q 819 9 494 109 
L 494 744 
Q 775 591 1075 516 
Q 1375 441 1709 441 
Q 2250 441 2565 725 
Q 2881 1009 2881 1497 
Q 2881 1984 2565 2268 
Q 2250 2553 1709 2553 
Q 1456 2553 1204 2497 
Q 953 2441 691 2322 
L 691 4666 
z
" transform="scale(0.015625)"/>
       </defs>
       <use xlink:href="#DejaVuSans-32"/>
       <use xlink:href="#DejaVuSans-35" transform="translate(63.623047 0)"/>
       <use xlink:href="#DejaVuSans-30" transform="translate(127.246094 0)"/>
       <use xlink:href="#DejaVuSans-30" transform="translate(190.869141 0)"/>
      </g>
     </g>
    </g>
    <g id="ytick_3">
     <g id="line2d_9">
      <g>
       <use xlink:href="#m48a97446a9" x="57.6" y="205.740525" style="stroke: #000000; stroke-width: 0.8"/>
      </g>
     </g>
     <g id="text_10">
      <!-- 3000 -->
      <g transform="translate(25.15 209.539743) scale(0.1 -0.1)">
       <defs>
        <path id="DejaVuSans-33" d="M 2597 2516 
Q 3050 2419 3304 2112 
Q 3559 1806 3559 1356 
Q 3559 666 3084 287 
Q 2609 -91 1734 -91 
Q 1441 -91 1130 -33 
Q 819 25 488 141 
L 488 750 
Q 750 597 1062 519 
Q 1375 441 1716 441 
Q 2309 441 2620 675 
Q 2931 909 2931 1356 
Q 2931 1769 2642 2001 
Q 2353 2234 1838 2234 
L 1294 2234 
L 1294 2753 
L 1863 2753 
Q 2328 2753 2575 2939 
Q 2822 3125 2822 3475 
Q 2822 3834 2567 4026 
Q 2313 4219 1838 4219 
Q 1578 4219 1281 4162 
Q 984 4106 628 3988 
L 628 4550 
Q 988 4650 1302 4700 
Q 1616 4750 1894 4750 
Q 2613 4750 3031 4423 
Q 3450 4097 3450 3541 
Q 3450 3153 3228 2886 
Q 3006 2619 2597 2516 
z
" transform="scale(0.015625)"/>
       </defs>
       <use xlink:href="#DejaVuSans-33"/>
       <use xlink:href="#DejaVuSans-30" transform="translate(63.623047 0)"/>
       <use xlink:href="#DejaVuSans-30" transform="translate(127.246094 0)"/>
       <use xlink:href="#DejaVuSans-30" transform="translate(190.869141 0)"/>
      </g>
     </g>
    </g>
    <g id="ytick_4">
     <g id="line2d_10">
      <g>
       <use xlink:href="#m48a97446a9" x="57.6" y="155.760775" style="stroke: #000000; stroke-width: 0.8"/>
      </g>
     </g>
     <g id="text_11">
      <!-- 3500 -->
      <g transform="translate(25.15 159.559993) scale(0.1 -0.1)">
       <use xlink:href="#DejaVuSans-33"/>
       <use xlink:href="#DejaVuSans-35" transform="translate(63.623047 0)"/>
       <use xlink:href="#DejaVuSans-30" transform="translate(127.246094 0)"/>
       <use xlink:href="#DejaVuSans-30" transform="translate(190.869141 0)"/>
      </g>
     </g>
    </g>
    <g id="ytick_5">
     <g id="line2d_11">
      <g>
       <use xlink:href="#m48a97446a9" x="57.6" y="105.781025" style="stroke: #000000; stroke-width: 0.8"/>
      </g>
     </g>
     <g id="text_12">
      <!-- 4000 -->
      <g transform="translate(25.15 109.580244) scale(0.1 -0.1)">
       <use xlink:href="#DejaVuSans-34"/>
       <use xlink:href="#DejaVuSans-30" transform="translate(63.623047 0)"/>
       <use xlink:href="#DejaVuSans-30" transform="translate(127.246094 0)"/>
       <use xlink:href="#DejaVuSans-30" transform="translate(190.869141 0)"/>
      </g>
     </g>
    </g>
    <g id="ytick_6">
     <g id="line2d_12">
      <g>
       <use xlink:href="#m48a97446a9" x="57.6" y="55.801275" style="stroke: #000000; stroke-width: 0.8"/>
      </g>
     </g>
     <g id="text_13">
      <!-- 4500 -->
      <g transform="translate(25.15 59.600494) scale(0.1 -0.1)">
       <use xlink:href="#DejaVuSans-34"/>
       <use xlink:href="#DejaVuSans-35" transform="translate(63.623047 0)"/>
       <use xlink:href="#DejaVuSans-30" transform="translate(127.246094 0)"/>
       <use xlink:href="#DejaVuSans-30" transform="translate(190.869141 0)"/>
      </g>
     </g>
    </g>
    <g id="text_14">
     <!-- V(s) -->
     <g transform="translate(19.070312 184.454562) rotate(-90) scale(0.1 -0.1)">
      <defs>
       <path id="DejaVuSans-56" d="M 1831 0 
L 50 4666 
L 709 4666 
L 2188 738 
L 3669 4666 
L 4325 4666 
L 2547 0 
L 1831 0 
z
" transform="scale(0.015625)"/>
       <path id="DejaVuSans-28" d="M 1984 4856 
Q 1566 4138 1362 3434 
Q 1159 2731 1159 2009 
Q 1159 1288 1364 580 
Q 1569 -128 1984 -844 
L 1484 -844 
Q 1016 -109 783 600 
Q 550 1309 550 2009 
Q 550 2706 781 3412 
Q 1013 4119 1484 4856 
L 1984 4856 
z
" transform="scale(0.015625)"/>
       <path id="DejaVuSans-73" d="M 2834 3397 
L 2834 2853 
Q 2591 2978 2328 3040 
Q 2066 3103 1784 3103 
Q 1356 3103 1142 2972 
Q 928 2841 928 2578 
Q 928 2378 1081 2264 
Q 1234 2150 1697 2047 
L 1894 2003 
Q 2506 1872 2764 1633 
Q 3022 1394 3022 966 
Q 3022 478 2636 193 
Q 2250 -91 1575 -91 
Q 1294 -91 989 -36 
Q 684 19 347 128 
L 347 722 
Q 666 556 975 473 
Q 1284 391 1588 391 
Q 1994 391 2212 530 
Q 2431 669 2431 922 
Q 2431 1156 2273 1281 
Q 2116 1406 1581 1522 
L 1381 1569 
Q 847 1681 609 1914 
Q 372 2147 372 2553 
Q 372 3047 722 3315 
Q 1072 3584 1716 3584 
Q 2034 3584 2315 3537 
Q 2597 3491 2834 3397 
z
" transform="scale(0.015625)"/>
       <path id="DejaVuSans-29" d="M 513 4856 
L 1013 4856 
Q 1481 4119 1714 3412 
Q 1947 2706 1947 2009 
Q 1947 1309 1714 600 
Q 1481 -109 1013 -844 
L 513 -844 
Q 928 -128 1133 580 
Q 1338 1288 1338 2009 
Q 1338 2731 1133 3434 
Q 928 4138 513 4856 
z
" transform="scale(0.015625)"/>
      </defs>
      <use xlink:href="#DejaVuSans-56"/>
      <use xlink:href="#DejaVuSans-28" transform="translate(68.408203 0)"/>
      <use xlink:href="#DejaVuSans-73" transform="translate(107.421875 0)"/>
      <use xlink:href="#DejaVuSans-29" transform="translate(159.521484 0)"/>
     </g>
    </g>
   </g>
   <g id="line2d_13">
    <path d="M 73.832727 53.568 
L 77.082523 85.030741 
L 78.057461 92.02815 
L 78.70742 95.585205 
L 79.357379 98.171095 
L 80.007338 99.765591 
L 80.332318 100.197667 
L 80.657297 100.395658 
L 80.982277 100.370009 
L 81.307256 100.133679 
L 81.957215 99.09328 
L 82.607174 97.423254 
L 83.582113 94.128812 
L 85.53199 87.167814 
L 86.18195 85.457326 
L 86.831908 84.335222 
L 87.156888 84.035929 
L 87.481867 83.928599 
L 87.806847 84.023239 
L 88.131827 84.327217 
L 88.456806 84.845269 
L 89.106765 86.529059 
L 89.756724 89.058259 
L 90.731662 94.299105 
L 91.706602 100.948339 
L 93.656478 116.358966 
L 95.281377 128.454065 
L 96.256315 134.21489 
L 96.906273 137.175068 
L 97.556232 139.345331 
L 98.206193 140.69559 
L 98.531172 141.064703 
L 98.856151 141.235581 
L 99.181131 141.215496 
L 99.50611 141.014015 
L 100.156069 140.115673 
L 100.806027 138.656938 
L 101.780967 135.733757 
L 104.055822 128.393469 
L 104.705783 126.905767 
L 105.355742 125.948 
L 105.680721 125.70064 
L 106.0057 125.621106 
L 106.33068 125.716893 
L 106.655659 125.99327 
L 107.305618 127.096998 
L 107.955576 128.927896 
L 108.605535 131.445236 
L 109.580477 136.336638 
L 110.880394 144.328639 
L 113.480229 160.879111 
L 114.455167 165.736201 
L 115.105126 168.243388 
L 115.755084 170.084195 
L 116.405047 171.225529 
L 116.730026 171.532949 
L 117.055005 171.66866 
L 117.379985 171.638155 
L 117.704964 171.448876 
L 118.354923 170.633411 
L 119.004881 169.317831 
L 119.979819 166.671808 
L 122.579658 159.077351 
L 123.229617 157.824758 
L 123.879575 157.067325 
L 124.204555 156.899986 
L 124.529534 156.883733 
L 124.854513 157.023691 
L 125.179493 157.323081 
L 125.829451 158.402722 
L 126.47941 160.107744 
L 127.129369 162.391999 
L 128.104307 166.733746 
L 129.729207 175.485034 
L 131.679083 185.912743 
L 132.654021 190.068383 
L 133.30398 192.211045 
L 133.953938 193.775817 
L 134.603897 194.729947 
L 134.928876 194.976087 
L 135.253856 195.071068 
L 135.578839 195.019234 
L 135.903818 194.826831 
L 136.553777 194.053585 
L 137.203736 192.833035 
L 138.178674 190.393227 
L 140.778508 183.309598 
L 141.428467 182.089634 
L 142.078426 181.302575 
L 142.403405 181.094797 
L 142.728384 181.020194 
L 143.053364 181.08362 
L 143.378343 181.288225 
L 144.028302 182.124312 
L 144.67826 183.517351 
L 145.328227 185.428418 
L 146.303165 189.118036 
L 147.603082 195.070336 
L 149.877937 205.675341 
L 150.852875 209.266049 
L 151.502834 211.105246 
L 152.152793 212.431759 
L 152.802751 213.215084 
L 153.127731 213.400946 
L 153.45271 213.451902 
L 153.777689 213.37171 
L 154.427648 212.841285 
L 155.077607 211.870927 
L 156.052545 209.776097 
L 159.302346 201.702586 
L 159.952304 200.7231 
L 160.602263 200.167636 
L 160.927242 200.066578 
L 161.252222 200.089738 
L 161.577201 200.239946 
L 162.22716 200.9248 
L 162.877118 202.111429 
L 163.527077 203.76486 
L 164.502015 206.987114 
L 165.801932 212.214464 
L 168.076788 221.527048 
L 169.051726 224.653296 
L 169.701684 226.235443 
L 170.351643 227.353716 
L 171.001602 227.980879 
L 171.326589 228.10844 
L 171.651568 228.114199 
L 172.301527 227.77564 
L 172.951485 227.010374 
L 173.601444 225.884658 
L 174.576382 223.706903 
L 177.176217 217.471294 
L 177.826175 216.372203 
L 178.476134 215.630585 
L 179.126093 215.304936 
L 179.451072 215.310524 
L 180.101031 215.670998 
L 180.750989 216.496323 
L 181.400948 217.764974 
L 182.375886 220.397672 
L 183.675803 224.892116 
L 186.275646 234.403008 
L 187.250584 237.143426 
L 187.900542 238.506204 
L 188.550501 239.442007 
L 189.20046 239.927088 
L 189.850418 239.960473 
L 190.500377 239.563735 
L 191.150336 238.779775 
L 192.125274 237.018013 
L 193.425191 234.014933 
L 195.050088 230.292662 
L 196.025025 228.641134 
L 196.674984 227.945322 
L 197.324951 227.637415 
L 197.974909 227.749918 
L 198.624868 228.293838 
L 199.274827 229.258242 
L 199.924785 230.610966 
L 200.899723 233.250155 
L 202.52462 238.639378 
L 204.149524 244.028356 
L 205.124455 246.67167 
L 205.774413 248.03252 
L 206.424372 249.01186 
L 207.07433 249.579501 
L 207.724289 249.726024 
L 208.374248 249.463117 
L 209.024206 248.82302 
L 209.674165 247.856737 
L 210.649111 245.946061 
L 213.573917 239.613861 
L 214.223876 238.648944 
L 214.873834 238.004235 
L 215.523793 237.726662 
L 216.173752 237.844387 
L 216.823726 238.365368 
L 217.473685 239.27701 
L 218.123643 240.546955 
L 219.098573 243.009092 
L 220.723478 247.990887 
L 222.348367 252.903618 
L 223.323313 255.268724 
L 223.973271 256.45999 
L 224.62323 257.288682 
L 225.273189 257.728738 
L 225.923147 257.773837 
L 226.573106 257.437523 
L 227.223065 256.752498 
L 227.873023 255.768815 
L 228.847953 253.878589 
L 231.772775 247.806098 
L 232.422734 246.90412 
L 233.072692 246.311904 
L 233.722651 246.071523 
L 234.37261 246.207015 
L 235.022568 246.723212 
L 235.672527 247.605618 
L 236.322486 248.82119 
L 237.297432 251.156035 
L 238.92232 255.823992 
L 240.547225 260.351382 
L 241.522155 262.484331 
L 242.172114 263.531416 
L 242.822088 264.229864 
L 243.472047 264.557636 
L 244.122005 264.511366 
L 244.771964 264.106647 
L 245.421923 263.377036 
L 246.396853 261.786347 
L 247.69677 259.099228 
L 249.321675 255.73111 
L 250.296605 254.181421 
L 250.946563 253.483656 
L 251.596522 253.109662 
L 252.246481 253.088602 
L 252.896439 253.431505 
L 253.546398 254.13105 
L 254.196357 255.161639 
L 255.171302 257.23182 
L 256.47122 260.642475 
L 258.746083 266.671136 
L 259.721013 268.609486 
L 260.370972 269.533672 
L 261.02093 270.119567 
L 261.670889 270.348698 
L 262.320848 270.220723 
L 262.970806 269.753236 
L 263.620765 268.980966 
L 264.595711 267.364068 
L 266.2206 264.015546 
L 267.520517 261.446787 
L 268.495463 259.978583 
L 269.145421 259.333069 
L 269.79538 259.004857 
L 270.445339 259.019402 
L 271.095297 259.384586 
L 271.745256 260.090574 
L 272.395215 261.110156 
L 273.370161 263.129504 
L 274.995049 267.276652 
L 276.619954 271.383753 
L 277.594884 273.34658 
L 278.244843 274.319916 
L 278.894801 274.976608 
L 279.54476 275.292935 
L 280.194719 275.262503 
L 280.844677 274.896367 
L 281.494636 274.222617 
L 282.469582 272.734036 
L 283.769499 270.18153 
L 285.719375 266.336554 
L 286.694321 264.941783 
L 287.34428 264.344881 
L 287.994238 264.060767 
L 288.644197 264.111552 
L 289.294155 264.50219 
L 289.944114 265.220478 
L 290.594073 266.237547 
L 291.569003 268.223558 
L 293.193907 272.239046 
L 294.818812 276.142615 
L 295.793742 277.966974 
L 296.443701 278.848233 
L 297.093659 279.416972 
L 297.743618 279.652668 
L 298.393577 279.551732 
L 299.043535 279.127539 
L 299.693494 278.409763 
L 300.66844 276.883429 
L 302.293329 273.662077 
L 303.918233 270.578268 
L 304.893163 269.250071 
L 305.543122 268.698244 
L 306.193081 268.456032 
L 306.843039 268.542521 
L 307.492998 268.960052 
L 308.142972 269.694129 
L 309.117902 271.318081 
L 310.41782 274.191843 
L 313.017654 280.325833 
L 313.9926 282.032197 
L 314.642559 282.834069 
L 315.292517 283.326424 
L 315.942476 283.491567 
L 316.592435 283.328473 
L 317.242393 282.852592 
L 317.892352 282.095233 
L 318.867282 280.534318 
L 320.492187 277.320703 
L 321.792104 274.842532 
L 322.76705 273.403222 
L 323.417009 272.75063 
L 324.066967 272.391303 
L 324.716926 272.349523 
L 325.366884 272.633466 
L 326.016843 273.23476 
L 326.666802 274.128978 
L 327.641732 275.930006 
L 328.941649 278.890159 
L 330.891525 283.401662 
L 331.866471 285.180335 
L 332.51643 286.056323 
L 333.166388 286.638436 
L 333.816347 286.903636 
L 334.466321 286.844993 
L 335.116264 286.471878 
L 335.766239 285.809695 
L 336.741153 284.365065 
L 338.041071 281.896949 
L 339.990962 278.154593 
L 340.965908 276.768729 
L 341.615851 276.155013 
L 342.265825 275.834147 
L 342.915768 275.827899 
L 343.565743 276.142054 
L 344.215686 276.766166 
L 344.86566 277.674124 
L 345.840575 279.47625 
L 347.465494 283.166723 
L 349.090383 286.781445 
L 350.065329 288.473923 
L 350.715272 289.289486 
L 351.365246 289.811613 
L 352.01519 290.019683 
L 352.665164 289.908986 
L 353.315107 289.491016 
L 353.965081 288.792641 
L 354.940027 287.312601 
L 356.564916 284.181009 
L 358.189805 281.148912 
L 359.16475 279.812686 
L 359.814725 279.23521 
L 360.464668 278.950462 
L 361.114642 278.977844 
L 361.764585 279.320966 
L 362.414559 279.967506 
L 363.064502 280.889789 
L 364.039448 282.695722 
L 365.664337 286.342731 
L 367.289226 289.859153 
L 368.264172 291.475661 
L 368.914146 292.23773 
L 369.564089 292.706559 
L 370.214063 292.863795 
L 370.864006 292.706827 
L 371.51398 292.248931 
L 372.163924 291.518515 
L 373.138869 290.007432 
L 374.763758 286.872521 
L 376.388678 283.890428 
L 377.363593 282.600912 
L 378.013567 282.057577 
L 378.66351 281.8068 
L 379.313484 281.86598 
L 379.963428 282.236728 
L 380.613402 282.904988 
L 381.588348 284.39762 
L 382.888265 287.049378 
L 385.488099 292.692526 
L 386.463045 294.241142 
L 387.112988 294.955208 
L 387.762963 295.376278 
L 388.412906 295.488 
L 389.06288 295.289594 
L 389.712823 294.796093 
L 390.362797 294.037245 
L 391.337712 292.499196 
L 393.287603 288.726653 
L 394.587521 286.430195 
L 395.562466 285.18507 
L 396.21241 284.674095 
L 396.862384 284.455556 
L 397.512327 284.5449 
L 398.162301 284.941931 
L 398.487273 285.251522 
L 398.487273 285.251522 
" clip-path="url(#p0c636c7ccd)" style="fill: none; stroke: #1f77b4; stroke-width: 1.5; stroke-linecap: square"/>
   </g>
   <g id="patch_3">
    <path d="M 57.6 307.584 
L 57.6 41.472 
" style="fill: none; stroke: #000000; stroke-width: 0.8; stroke-linejoin: miter; stroke-linecap: square"/>
   </g>
   <g id="patch_4">
    <path d="M 414.72 307.584 
L 414.72 41.472 
" style="fill: none; stroke: #000000; stroke-width: 0.8; stroke-linejoin: miter; stroke-linecap: square"/>
   </g>
   <g id="patch_5">
    <path d="M 57.6 307.584 
L 414.72 307.584 
" style="fill: none; stroke: #000000; stroke-width: 0.8; stroke-linejoin: miter; stroke-linecap: square"/>
   </g>
   <g id="patch_6">
    <path d="M 57.6 41.472 
L 414.72 41.472 
" style="fill: none; stroke: #000000; stroke-width: 0.8; stroke-linejoin: miter; stroke-linecap: square"/>
   </g>
   <g id="legend_1">
    <g id="patch_7">
     <path d="M 355.866875 64.150125 
L 407.72 64.150125 
Q 409.72 64.150125 409.72 62.150125 
L 409.72 48.472 
Q 409.72 46.472 407.72 46.472 
L 355.866875 46.472 
Q 353.866875 46.472 353.866875 48.472 
L 353.866875 62.150125 
Q 353.866875 64.150125 355.866875 64.150125 
z
" style="fill: #ffffff; opacity: 0.8; stroke: #cccccc; stroke-linejoin: miter"/>
    </g>
    <g id="line2d_14">
     <path d="M 357.866875 54.570438 
L 367.866875 54.570438 
L 377.866875 54.570438 
" style="fill: none; stroke: #1f77b4; stroke-width: 1.5; stroke-linecap: square"/>
    </g>
    <g id="text_15">
     <!-- V(s) -->
     <g transform="translate(385.866875 58.070438) scale(0.1 -0.1)">
      <use xlink:href="#DejaVuSans-56"/>
      <use xlink:href="#DejaVuSans-28" transform="translate(68.408203 0)"/>
      <use xlink:href="#DejaVuSans-73" transform="translate(107.421875 0)"/>
      <use xlink:href="#DejaVuSans-29" transform="translate(159.521484 0)"/>
     </g>
    </g>
   </g>
  </g>
 </g>
 <defs>
  <clipPath id="p0c636c7ccd">
   <rect x="57.6" y="41.472" width="357.12" height="266.112"/>
  </clipPath>
 </defs>
</svg>
